<?xml version="1.0" standalone="no"?>
<!DOCTYPE svg PUBLIC "-//W3C//DTD SVG 20010904//EN"
 "http://www.w3.org/TR/2001/REC-SVG-20010904/DTD/svg10.dtd">
<svg version="1.0" xmlns="http://www.w3.org/2000/svg"
 width="512.000000pt" height="512.000000pt" viewBox="0 0 512.000000 512.000000"
 preserveAspectRatio="xMidYMid meet">
<metadata>
Created by potrace 1.14, written by Peter Selinger 2001-2017
</metadata>
<g transform="translate(0.000000,512.000000) scale(0.100000,-0.100000)"
fill="#000000" stroke="none">
<path d="M2539 4737 l-24 -13 -3 -346 c-2 -377 -2 -378 53 -378 51 0 53 18 53
370 0 179 -4 333 -9 342 -15 29 -42 38 -70 25z"/>
<path d="M1973 4650 c-40 -16 -36 -53 14 -137 82 -139 151 -259 170 -293 35
-66 107 -185 121 -202 29 -35 92 -12 92 32 0 10 -32 74 -71 142 -39 67 -80
139 -91 158 -188 328 -182 321 -235 300z"/>
<path d="M3108 4653 c-13 -3 -128 -181 -128 -199 0 -2 -11 -23 -26 -45 -14
-22 -34 -57 -46 -77 -11 -20 -45 -78 -75 -129 -29 -51 -60 -108 -68 -127 -14
-34 -14 -37 6 -57 13 -13 30 -19 47 -17 23 3 41 27 130 178 56 96 106 182 109
190 4 8 33 60 65 115 62 107 68 132 40 158 -19 17 -24 18 -54 10z"/>
<path d="M3432 4080 c-273 -273 -270 -269 -206 -340 22 -24 31 -40 23 -41 -16
0 -200 2 -344 5 -76 1 -113 -3 -155 -17 -30 -11 -172 -60 -315 -109 -143 -49
-273 -94 -289 -99 -31 -9 -47 -26 -76 -81 l-20 -37 -97 100 c-54 56 -100 103
-102 105 -3 3 9 17 26 32 46 43 65 76 58 105 -7 25 -469 494 -484 490 -7 -2
-1305 -1297 -1331 -1328 -10 -12 28 -55 229 -255 275 -274 265 -269 344 -194
l49 46 133 -133 132 -133 2 -70 c1 -38 3 -72 5 -75 2 -3 7 -28 10 -56 14 -102
98 -341 117 -329 5 3 4 -7 -1 -21 -26 -69 -1 -172 56 -228 57 -57 152 -75 228
-43 21 9 40 16 41 16 1 0 -12 -15 -30 -34 -51 -55 -68 -99 -63 -171 3 -47 11
-73 31 -103 57 -87 177 -122 267 -79 l45 22 -19 -38 c-12 -24 -19 -60 -19 -95
-1 -98 52 -171 147 -203 83 -28 157 -8 233 64 l54 50 -19 -42 c-58 -128 39
-287 179 -296 89 -5 127 15 244 132 58 57 105 108 105 114 0 22 25 1 166 -141
162 -164 206 -197 277 -206 158 -22 287 130 241 284 -6 23 -11 42 -10 42 1 0
35 -31 76 -70 89 -84 136 -105 220 -97 140 12 228 146 189 285 -9 33 -33 66
-96 132 l-83 88 41 -14 c152 -53 303 61 295 222 -1 32 -10 73 -19 89 -8 17
-89 104 -179 194 -128 130 -156 163 -133 156 166 -46 308 54 307 215 l-1 52
132 156 c213 253 359 426 368 436 5 6 19 0 34 -14 18 -17 37 -24 63 -24 35 0
51 14 263 227 124 125 231 233 237 240 9 10 -138 162 -662 686 l-673 673 -241
-242z"/>
</g>
</svg>
