<svg xmlns="http://www.w3.org/2000/svg" xmlns:xlink="http://www.w3.org/1999/xlink" viewBox="0 0 500 500" xmlns:v="https://vecta.io/nano"><style><![CDATA[.i{fill:#1e40af}.j{fill:#fff}.k{opacity:.5}.l{opacity:.45}.m{opacity:.2}.n{opacity:.3}.o{opacity:.1}.p{fill:#f5f5f5}.q{opacity:.4}.r{opacity:.25}.s{opacity:.35}.t{fill:#37474f}.u{fill:#455a64}.v{fill:#263238}.w{opacity:.15}.x{fill:#f28f8f}.y{fill:#ffa8a7}]]></style><path d="M81.27 255.63c-93.18 53.8-93.18 141 0 194.83s244.26 53.79 337.45 0 93.18-141 0-194.83-244.26-53.8-337.45 0z" fill="#fafafa"/><g fill="#e0e0e0"><ellipse cx="208.72" cy="419.91" rx="71.75" ry="41.43"/><ellipse cx="59.46" cy="381.74" rx="35.33" ry="20.4"/><ellipse cx="97.95" cy="351.98" rx="35.33" ry="20.4"/><ellipse cx="338.85" cy="299.25" rx="35.33" ry="20.4"/><ellipse cx="347.44" cy="391.88" rx="35.33" ry="20.4"/><ellipse cx="406.94" cy="380.51" rx="35.33" ry="20.4"/></g><path d="M430.77 58.49a13 13 0 0 1-5.84 5.94L426.7 69l-4.92 1.92-1.71-4.39a27.56 27.56 0 0 1-6.24 1.23 18.18 18.18 0 0 1-5.36-.3l.33-7a19.53 19.53 0 0 0 10.59-.86c3.11-1.22 4.37-2.61 3.76-4.17a2.07 2.07 0 0 0-2-1.3 26.33 26.33 0 0 0-4.78.42 43.1 43.1 0 0 1-6 .61A9.78 9.78 0 0 1 405.6 54a7.42 7.42 0 0 1-3.42-4.15 8.85 8.85 0 0 1 .19-7c1-2.35 3.08-4.33 6.14-6l-1.76-4.51 4.92-1.92 1.73 4.43a25.83 25.83 0 0 1 4.81-.93 17.73 17.73 0 0 1 4.46.11l-.15 7a17.91 17.91 0 0 0-8.83.88 7.12 7.12 0 0 0-3.24 2.1 2.27 2.27 0 0 0-.38 2.29 2 2 0 0 0 2 1.22 25.35 25.35 0 0 0 4.69-.46 41.31 41.31 0 0 1 6-.62 10 10 0 0 1 4.73 1.09 7.25 7.25 0 0 1 3.42 4.12 8.7 8.7 0 0 1-.14 6.84zm-299.39 8.09a13.1 13.1 0 0 1-8.17 1.61L122.1 73l-5.1-1.25 1-4.59a27.63 27.63 0 0 1-5.84-2.5 18 18 0 0 1-4.26-3.27l4.24-5.62a19.51 19.51 0 0 0 9.25 5.23c3.26.75 5.08.32 5.45-1.31a2.08 2.08 0 0 0-1-2.24 25.59 25.59 0 0 0-4.18-2.34 44.59 44.59 0 0 1-5.3-2.88 9.85 9.85 0 0 1-3.28-3.59 7.43 7.43 0 0 1-.47-5.36 8.84 8.84 0 0 1 4.12-5.71 13.05 13.05 0 0 1 8.43-1.45l1.1-4.72 5.15 1.19-1.08 4.63a26 26 0 0 1 4.5 2 17.79 17.79 0 0 1 3.62 2.61l-4.08 5.7a17.86 17.86 0 0 0-7.78-4.25 7.22 7.22 0 0 0-3.87-.11 2.34 2.34 0 0 0-1.61 1.69 2 2 0 0 0 1 2.12 25.62 25.62 0 0 0 4.13 2.27 41.34 41.34 0 0 1 5.32 2.88 10.08 10.08 0 0 1 3.29 3.57 7.29 7.29 0 0 1 .5 5.33 8.72 8.72 0 0 1-3.97 5.55zM480.39 188.5q-1.47 4.2-6.43 7.52l2.48 5.26-5.68 2.72-2.39-5.07a32.67 32.67 0 0 1-7.29 2 21.5 21.5 0 0 1-6.38.09l-.19-8.36a22 22 0 0 0 6.27-.07 21.37 21.37 0 0 0 6.2-1.83q5.4-2.53 4.12-5.24a2.45 2.45 0 0 0-2.53-1.38 31.18 31.18 0 0 0-5.57.86 51.82 51.82 0 0 1-7.07 1.22 11.56 11.56 0 0 1-5.7-.92 8.85 8.85 0 0 1-4.39-4.64 10.5 10.5 0 0 1-.36-8.37q1.56-4.29 6.78-7.57l-2.45-5.21 5.67-2.68 2.42 5.11a30.67 30.67 0 0 1 5.63-1.5 20.87 20.87 0 0 1 5.29-.24l.4 8.32a21.39 21.39 0 0 0-10.39 1.78 8.48 8.48 0 0 0-3.73 2.7 2.75 2.75 0 0 0-.26 2.75 2.37 2.37 0 0 0 2.46 1.25 31.36 31.36 0 0 0 5.52-.93 48.73 48.73 0 0 1 7.08-1.23 11.87 11.87 0 0 1 5.69.9 8.65 8.65 0 0 1 4.41 4.6 10.4 10.4 0 0 1 .39 8.16zm-4.3-71.07a10.47 10.47 0 0 1-6.66.5l-1.33 3.69-4-1.44 1.29-3.55a22.1 22.1 0 0 1-4.41-2.55 14.57 14.57 0 0 1-3.09-3l3.91-4.07a15.22 15.22 0 0 0 3 3 15 15 0 0 0 3.83 2.09c2.52.91 4 .74 4.47-.53a1.66 1.66 0 0 0-.55-1.86 21.17 21.17 0 0 0-3.1-2.27 35.93 35.93 0 0 1-4-2.79 7.76 7.76 0 0 1-2.27-3.17 6 6 0 0 1 .12-4.31 7.09 7.09 0 0 1 3.91-4.17 10.46 10.46 0 0 1 6.85-.37l1.32-3.63 4 1.44-1.31 3.56a20.26 20.26 0 0 1 3.4 2 14.42 14.42 0 0 1 2.64 2.42l-3.79 4.15a14.33 14.33 0 0 0-5.8-4.12 5.76 5.76 0 0 0-3.06-.45 1.87 1.87 0 0 0-1.46 1.15 1.61 1.61 0 0 0 .56 1.78 20.15 20.15 0 0 0 3.08 2.19 34.17 34.17 0 0 1 4 2.81 8 8 0 0 1 2.28 3.15 5.81 5.81 0 0 1-.11 4.29 7 7 0 0 1-3.72 4.06zM65.32 82.25a10.54 10.54 0 0 1-4.57 4.9l1.52 3.62-3.92 1.65-1.47-3.5a21.66 21.66 0 0 1-5 1.11 14.44 14.44 0 0 1-4.32-.12l.12-5.67a15.73 15.73 0 0 0 8.5-.91q3.72-1.56 2.94-3.42a1.66 1.66 0 0 0-1.67-1 21.77 21.77 0 0 0-3.83.43 34.2 34.2 0 0 1-4.82.62 7.86 7.86 0 0 1-3.8-.8 6 6 0 0 1-2.83-3.27 7.12 7.12 0 0 1 0-5.67A10.45 10.45 0 0 1 47 65.3l-1.5-3.6 3.92-1.64 1.48 3.53a19.7 19.7 0 0 1 3.85-.85 14.38 14.38 0 0 1 3.59 0v5.64a14.47 14.47 0 0 0-7.08.9A5.66 5.66 0 0 0 48.68 71a1.85 1.85 0 0 0-.26 1.85 1.62 1.62 0 0 0 1.62.94 21.13 21.13 0 0 0 3.77-.47 33.23 33.23 0 0 1 4.83-.62 8.22 8.22 0 0 1 3.82.78 5.86 5.86 0 0 1 2.84 3.25 7 7 0 0 1 .02 5.52zM45.59 247.77a11.42 11.42 0 0 1-5.35 4.95l1.36 4-4.38 1.47-1.31-3.91a24.31 24.31 0 0 1-5.5.81 15.36 15.36 0 0 1-4.67-.49l.58-6.12a16.38 16.38 0 0 0 4.59.49 16.17 16.17 0 0 0 4.69-.8c2.78-.93 3.93-2.09 3.47-3.48a1.83 1.83 0 0 0-1.73-1.23 22.74 22.74 0 0 0-4.19.17 38.94 38.94 0 0 1-5.27.28 8.52 8.52 0 0 1-4.09-1.17A6.48 6.48 0 0 1 21 239a7.73 7.73 0 0 1 .46-6.15 11.46 11.46 0 0 1 5.61-5l-1.35-4 4.39-1.47 1.32 3.94a22.46 22.46 0 0 1 4.24-.61 15.76 15.76 0 0 1 3.9.28l-.43 6.12a15.66 15.66 0 0 0-7.75.4 6.29 6.29 0 0 0-2.92 1.69 2 2 0 0 0-.43 2 1.73 1.73 0 0 0 1.68 1.15 22 22 0 0 0 4.12-.21 39.53 39.53 0 0 1 5.28-.29 8.9 8.9 0 0 1 4.09 1.15 6.44 6.44 0 0 1 2.79 3.8 7.59 7.59 0 0 1-.41 5.97zm158-178.93a7.47 7.47 0 0 1-4.74.55l-.85 2.67-2.89-.92.82-2.57a15.71 15.71 0 0 1-3.23-1.7 10.36 10.36 0 0 1-2.28-2.06l2.68-3a11 11 0 0 0 5 3.42c1.83.58 2.89.42 3.18-.5a1.2 1.2 0 0 0-.45-1.32 14 14 0 0 0-2.28-1.53 25.86 25.86 0 0 1-2.9-1.88 5.69 5.69 0 0 1-1.71-2.2 4.27 4.27 0 0 1 0-3.08 5.06 5.06 0 0 1 2.62-3.08 7.47 7.47 0 0 1 4.88-.45l.84-2.65 2.89.92-.82 2.6a15 15 0 0 1 2.48 1.31 10.4 10.4 0 0 1 1.95 1.63l-2.59 3.08a10.16 10.16 0 0 0-4.26-2.78 4.14 4.14 0 0 0-2.2-.24 1.33 1.33 0 0 0-1 .89 1.13 1.13 0 0 0 .44 1.26 15.74 15.74 0 0 0 2.26 1.48 23.89 23.89 0 0 1 2.91 1.89 5.7 5.7 0 0 1 1.72 2.19 4.14 4.14 0 0 1 0 3.07 5 5 0 0 1-2.47 3zm129.56-8.75a9.27 9.27 0 0 1-5.77 1.28l-.71 3.4L323 64l.68-3.27a19.23 19.23 0 0 1-4.19-1.73 12.72 12.72 0 0 1-3.08-2.25l2.92-4.06a13.69 13.69 0 0 0 6.67 3.62c2.32.49 3.61.14 3.85-1a1.47 1.47 0 0 0-.71-1.57 20.29 20.29 0 0 0-3-1.6 31.49 31.49 0 0 1-3.81-1.95 7 7 0 0 1-2.39-2.49 5.26 5.26 0 0 1-.43-3.8 6.27 6.27 0 0 1 2.83-4.12 9.24 9.24 0 0 1 6-1.18l.69-3.37 3.68.76-.71 3.29a17.75 17.75 0 0 1 3.23 1.31 12.56 12.56 0 0 1 2.62 1.79L335 46.49a12.75 12.75 0 0 0-5.6-2.88 5 5 0 0 0-2.75 0 1.62 1.62 0 0 0-1.11 1.22 1.4 1.4 0 0 0 .71 1.49 18.14 18.14 0 0 0 3 1.54 31 31 0 0 1 3.83 2 7.19 7.19 0 0 1 2.39 2.48 5.15 5.15 0 0 1 .45 3.78 6.23 6.23 0 0 1-2.77 3.97z" fill="#f0f0f0"/><path d="M75.9 279.93a6.33 6.33 0 0 0-4.23-5.28c-3.09-1.18-6.61-.89-6.86-.58s1.21 3.51 4.62 5.32a7.43 7.43 0 0 0 6.47.54zm4.03 7.14a6.36 6.36 0 0 0-6.18-2.77c-3.28.36-6.28 2.23-6.37 2.61s2.68 2.57 6.55 2.63a7.45 7.45 0 0 0 6-2.47zm6.24-.86a6.34 6.34 0 0 0 1.65-6.56c-.91-3.17-2.92-5.7-3.32-5.72s-2.31 3.39-2 6.85c.33 3.77 2.91 4.85 3.67 5.43z" class="u"/><g class="t"><path d="M98.58 311.41a25.83 25.83 0 0 0-2.69-8.49 49.58 49.58 0 0 0-4.1-7.19 64.91 64.91 0 0 0-11.51-12.81A34.79 34.79 0 0 0 71 276.8c-.07 0-.18.13-.12.17a52.27 52.27 0 0 1 8 6.15 60.69 60.69 0 0 1 6.4 6.35 62.13 62.13 0 0 1 8.48 12.75 87.66 87.66 0 0 1 3.73 9.41.56.56 0 0 0 1.09-.22z"/><path d="M86.39 288.89a19.84 19.84 0 0 0 .14-4.49 11.45 11.45 0 0 0-1-4.16c-.09-.18-.15.12-.13.24a32.48 32.48 0 0 1 .36 3.82 14.42 14.42 0 0 1-.45 4 .91.91 0 0 0 .39 1 .47.47 0 0 0 .69-.41z"/><path d="M85.94 288.56a16.62 16.62 0 0 0-5.91-2 20.92 20.92 0 0 0-2.84-.32 11 11 0 0 0-3.37.35s-.26.19-.18.18a31.3 31.3 0 0 1 3.32.1 17.36 17.36 0 0 1 3 .48 26.63 26.63 0 0 1 5.68 2c.36.17.61-.6.3-.79z"/></g><path d="M87.92 296.33a6.35 6.35 0 0 0-5.47-4c-3.28-.34-6.61.86-6.77 1.22s2.08 3.08 5.85 3.94a7.4 7.4 0 0 0 6.39-1.16z" class="u"/><path d="M93.48 299.05a16.34 16.34 0 0 0-5.36-3.19 18.36 18.36 0 0 0-2.71-.91 11.34 11.34 0 0 0-3.37-.36s-.29.13-.21.14a29.55 29.55 0 0 1 3.22.79 17.49 17.49 0 0 1 2.82 1.09 27.19 27.19 0 0 1 5.13 3.13c.35.26.74-.44.48-.69z" class="t"/><path d="M96.88 260.86a7 7 0 0 1 .77-7.38c2.14-2.93 5.56-4.75 6-4.62s1 4-1.09 7.66a8.11 8.11 0 0 1-5.68 4.34zm.53 8.98a7 7 0 0 1 4-6.22c3.24-1.62 7.12-1.69 7.43-1.38s-1 4-4.47 6.32a8.14 8.14 0 0 1-6.96 1.28zm-6.26 2.93a7 7 0 0 1-5.43-5.07c-1-3.47-.7-7-.34-7.25s4.15 1.75 5.92 5.13c1.94 3.67.2 6.2-.15 7.19z" class="u"/><g class="t"><path d="M94.68 303.38a28.37 28.37 0 0 1-2.57-9.38 55.06 55.06 0 0 1-.49-9.08 71.45 71.45 0 0 1 3-18.65c1.17-3.84 2.56-7.88 4.91-11.16 0-.07.25 0 .21.09A56.32 56.32 0 0 0 96 265.58a67 67 0 0 0-2.13 9.66 68.72 68.72 0 0 0-.24 16.8A97 97 0 0 0 95.82 303a.61.61 0 0 1-1.14.38z"/><path d="M92.53 275.37a21.67 21.67 0 0 1-2.79-4.06 12.27 12.27 0 0 1-1.58-4.42c0-.21.2 0 .26.15a35.73 35.73 0 0 0 1.93 3.74 16.38 16.38 0 0 0 2.82 3.45 1 1 0 0 1 .21 1.11.52.52 0 0 1-.85.03z"/><path d="M92.76 274.8a17.87 17.87 0 0 1 4.24-5.36 20.26 20.26 0 0 1 2.43-2 12.28 12.28 0 0 1 3.31-1.68s.35 0 .27.06a33 33 0 0 0-3 2.07 18.17 18.17 0 0 0-2.46 2.21 29.41 29.41 0 0 0-4.06 5.21c-.23.4-.91-.15-.73-.51z"/></g><path d="M95.55 283.14a7 7 0 0 1 2.67-6.93c2.83-2.27 6.61-3.14 7-2.9s-.09 4.07-3 7.11a8.12 8.12 0 0 1-6.67 2.72z" class="u"/><path d="M92 289a18 18 0 0 1 3-6.12 19.38 19.38 0 0 1 2-2.45 12.3 12.3 0 0 1 2.93-2.43h.28a35.59 35.59 0 0 0-2.5 2.65 18.37 18.37 0 0 0-1.95 2.68 29.57 29.57 0 0 0-2.88 5.94c-.16.48-.94.07-.88-.27z" class="t"/><path d="M452.55 341.79a6.44 6.44 0 0 1 4.37-5.33c3.17-1.19 6.81-.89 7.06-.58s-1.24 3.53-4.76 5.37a7.84 7.84 0 0 1-6.67.54zM448.4 349a6.58 6.58 0 0 1 6.37-2.79c3.38.36 6.48 2.25 6.56 2.63s-2.76 2.59-6.75 2.66a7.71 7.71 0 0 1-6.18-2.5zm-6.4-.88a6.3 6.3 0 0 1-1.71-6.61c.95-3.2 3-5.75 3.43-5.77s2.38 3.42 2.06 6.91c-.37 3.8-3.03 4.89-3.78 5.47z" class="u"/><g class="t"><path d="M429.17 373.51a25.83 25.83 0 0 1 2.77-8.55 50.11 50.11 0 0 1 4.24-7.25A66 66 0 0 1 448 344.8a36.1 36.1 0 0 1 9.55-6.17c.08 0 .19.13.12.18a53 53 0 0 0-8.23 6.19 61.28 61.28 0 0 0-15.34 19.25 85.59 85.59 0 0 0-3.84 9.49.58.58 0 0 1-1.09-.23z"/><path d="M441.74 350.81a19.45 19.45 0 0 1-.14-4.51 11.06 11.06 0 0 1 1-4.2c.09-.18.15.12.13.24a31 31 0 0 0-.37 3.85 14.38 14.38 0 0 0 .46 4.07.9.9 0 0 1-.4 1 .48.48 0 0 1-.68-.45z"/><path d="M442.21 350.49a17.21 17.21 0 0 1 6.09-2 19 19 0 0 1 2.93-.32 11.73 11.73 0 0 1 3.47.35s.27.19.18.18a33.19 33.19 0 0 0-3.42.1 18.28 18.28 0 0 0-3.07.49 28.15 28.15 0 0 0-5.86 2c-.39.16-.64-.61-.32-.8z"/></g><path d="M440.17 358.32a6.52 6.52 0 0 1 5.63-4c3.38-.33 6.81.88 7 1.24s-2.15 3.1-6 4a7.78 7.78 0 0 1-6.63-1.24z" class="u"/><path d="M434.43 361.06a16.86 16.86 0 0 1 5.53-3.21 19.11 19.11 0 0 1 2.8-.92 11.62 11.62 0 0 1 3.46-.37s.31.13.22.15a31.75 31.75 0 0 0-3.32.79 17.81 17.81 0 0 0-2.9 1.1 27.29 27.29 0 0 0-5.3 3.15c-.35.25-.76-.44-.49-.69z" class="t"/><g class="i"><path d="M349.2 87.93l-36.47 21.11 17.59 28.37-120.56 137.57 56.98 32.89 36.47-21.11 70.09-80.04 10.16 16.38 36.47-21.1 10.02-108.77-80.75-5.3z"/><path d="M383.46 223.1l10.02-108.76-80.75-5.3 17.59 28.37-120.56 137.57 56.98 32.89 99.13-113.14 17.59 28.37z"/></g><path d="M393.48 114.34l36.47-21.11-80.75-5.3-36.47 21.11 80.75 5.3z" class="j n"/><path d="M393.48 114.34l36.47-21.11L419.93 202l-36.47 21.1 10.02-108.76z" class="w"/><path d="M266.74 307.87l36.47-21.11 70.09-80.04-7.43-11.99-99.13 113.14z" class="n"/><use xlink:href="#A" class="i"/><use xlink:href="#A" class="j q"/><use xlink:href="#B" class="i"/><use xlink:href="#B" opacity=".6" class="j"/><use xlink:href="#Aq" class="i"/><use xlink:href="#Aq" opacity=".8" class="j"/><g class="i"><path d="M95.92 357.02l18.16-10.51 88.83-101.23-3.71-5.97L95.92 357.02z" class="n"/><use xlink:href="#C"/></g><use xlink:href="#C" class="j q"/><use xlink:href="#D" class="i"/><use xlink:href="#D" opacity=".6" class="j"/><use xlink:href="#Ar" class="i"/><use xlink:href="#Ar" opacity=".8" class="j"/><g class="i"><path d="M360.05 379.89l18.16-10.51 72.16-82.22-3.7-5.97-86.62 98.7z" class="n"/><use xlink:href="#E"/></g><use xlink:href="#E" class="r"/><path d="M407.78,359.27c7.87,0,15.73,1.73,21.74,5.2a19.81,19.81,0,0,1,7.34,6.79h1.66v6.28h0c-.22,4.36-3.21,8.69-9,12-6,3.47-13.87,5.2-21.74,5.2Z" class="o"/><path d="M424.57,362.15a33.55,33.55,0,0,1,4.95,2.32,19.81,19.81,0,0,1,7.34,6.79h1.66v6.28h0c-.22,4.36-3.21,8.69-9,12a33.55,33.55,0,0,1-4.95,2.32Z" class="o"/><g class="i"><path d="M391,362.15a33.55,33.55,0,0,0-4.95,2.32,19.81,19.81,0,0,0-7.34,6.79H377v6.28h0c.22,4.36,3.23,8.69,9,12a33.55,33.55,0,0,0,4.95,2.32Z" class="k"/><use xlink:href="#F"/></g><use xlink:href="#F" class="m"/><path d="M381.06 362.48a13.46 13.46 0 0 0-3.22 10.95c1.06 6.1 9.61 11.23 12.55 12.47a34.26 34.26 0 0 1-4.35-2.09c-10.04-5.81-11.67-14.55-4.98-21.33zM434.5 380a13.46 13.46 0 0 0 3.22-11c-1.07-6.1-9.61-11.24-12.55-12.47a33.57 33.57 0 0 1 4.35 2.09c10.01 5.87 11.67 14.64 4.98 21.38z" class="k p"/><use xlink:href="#G" class="i"/><g class="j"><use xlink:href="#G" class="q"/><path d="M380.51 376.16c-2.29-4.24-1.54-8.92 2.25-12.89a18.08 18.08 0 0 1 2.42-2.12 25.7 25.7 0 0 1 2.31-1.53 31.57 31.57 0 0 1 1.41-.76c-1.19 1.95-.75 4.05 6 4.44 13.17.77-3.52 13.36-3.52 13.36s-8.51-4.1-10.87-.5z" class="m"/><path d="M381.87 372.68c-2-.22-2.95-2.25-2.18-4.54s3-4 5-3.74 2.95 2.26 2.18 4.54-3.02 3.96-5 3.74z" class="k"/></g><use xlink:href="#H" class="i"/><use xlink:href="#H" class="j n"/><use xlink:href="#I" class="i"/><use xlink:href="#I" class="m"/><use xlink:href="#J" class="i"/><use xlink:href="#J" class="k"/><use xlink:href="#K" class="i"/><use xlink:href="#K" class="s"/><g class="i"><path d="M420.6 374.77v-2.43c0-1-.69-2-2.18-2.83h-.05a10.43 10.43 0 0 0-8.07-.74h0c-1.07.27-2.08.61-3 .93a27.78 27.78 0 0 1-3.23 1h0a6 6 0 0 1-1.53.14 3.38 3.38 0 0 1-1.28-.34l.1-.07.32-.19a6.9 6.9 0 0 1 .86-.43 5.87 5.87 0 0 1 4.52-.1l2.61-2.63v-2.42a12.45 12.45 0 0 0-7.13-.26 15.3 15.3 0 0 0-2.27.79l-2.61-1.51-3.12 1.8v2.42l1.07.61a2.67 2.67 0 0 0-.46 1.41v2.41c0 1 .71 2 2.21 2.83a9.18 9.18 0 0 0 4.3 1.23h0a8.22 8.22 0 0 0 .86 0 16.9 16.9 0 0 0 4.61-1l.9-.31-2.62 2.64v2.41a12.81 12.81 0 0 0 10.06-.43l2.57 1.48 3.12-1.8V377l-1.07-.62a2.73 2.73 0 0 0 .51-1.61zm-6.56-.21a8.19 8.19 0 0 1-.72.37 6.69 6.69 0 0 1-5.09.07c2.43-.86 4.47-1.61 6.2-.69a3.73 3.73 0 0 1-.43.25z"/><use xlink:href="#L"/></g><g class="j n"><use xlink:href="#L"/></g><g class="p"><path d="M394.52 365.47l3.14-1.42 2.58 1.13-2.61-1.51-3.11 1.8zm7.62-.98a14.69 14.69 0 0 1 6.7.23l-1.84 2.57 2.61-2.64a12.52 12.52 0 0 0-7.47-.16zm16.24 4.99h.05c3 1.78 2.73 4 .14 6 2.3-2.5 1.88-4.24-.61-5.68a11.8 11.8 0 0 0-7.65-1.05 10.43 10.43 0 0 1 8.07.73z" class="l"/><path d="M418.57 375.47l1.98 1.52-2.52 1.77 3.12-1.8-2.58-1.49zm-5.25-.54a6.75 6.75 0 0 1-5 .43l-3 2.35 2.73-2.75a6.69 6.69 0 0 0 5.27-.03zm-9.32-4.24a4 4 0 0 1-3.73-.36c-.9-.77-.32-1.6 1-2.32-1.45.95-1.31 1.8-.31 2.38a3.3 3.3 0 0 0 1.49.44 6 6 0 0 0 1.55-.14zm-6.93-3.69c-.22.2-2.09 1.94-1.27 3.69s3.63 3.06 5.85 3.3h0a9.08 9.08 0 0 1-4.3-1.24c-2.95-1.75-2.9-3.75-.28-5.75z" class="l"/></g><path d="M380.63 368.13l.77-5.88.78 5.88 10.19.45-10.19.45-.78 5.88-.77-5.88-10.19-.45 10.19-.45z" class="j"/><use xlink:href="#M" class="i"/><use xlink:href="#M" class="r"/><path d="M98.48,330.18c-7.87,0-15.74,1.73-21.74,5.2a19.82,19.82,0,0,0-7.34,6.79H67.74v6.28h0c.22,4.37,3.21,8.69,9,12,6,3.46,13.87,5.19,21.74,5.19Z" class="o"/><path d="M81.69,333.06a33.55,33.55,0,0,0-5,2.32,19.82,19.82,0,0,0-7.34,6.79H67.74v6.28h0c.22,4.37,3.21,8.69,9,12a34.56,34.56,0,0,0,5,2.31Z" class="o"/><g class="i"><path d="M115.26,333.06a33.55,33.55,0,0,1,4.95,2.32,19.82,19.82,0,0,1,7.34,6.79h1.66v6.28h0c-.22,4.36-3.23,8.69-9,12a34.56,34.56,0,0,1-4.95,2.31Z" class="k"/><use xlink:href="#N"/></g><use xlink:href="#N" class="m"/><path d="M125.2 333.39a13.43 13.43 0 0 1 3.21 10.95c-1.06 6.1-9.6 11.24-12.55 12.47a33 33 0 0 0 4.35-2.09c10.01-5.78 11.67-14.55 4.99-21.33zM71.75 351a13.43 13.43 0 0 1-3.21-11c1.06-6.1 9.6-11.23 12.54-12.47a34.79 34.79 0 0 0-4.34 2.09c-10.01 5.78-11.67 14.56-4.99 21.38z" class="k p"/><use xlink:href="#O" class="i"/><g class="j"><use xlink:href="#O" class="q"/><path d="M125.76 347.07c2.3-4.24 1.55-8.92-2.24-12.89a19.62 19.62 0 0 0-2.42-2.12 24.53 24.53 0 0 0-2.32-1.53 26.53 26.53 0 0 0-1.4-.76c1.18 2 .75 4.05-6 4.44-13.17.77 3.52 13.36 3.52 13.36s8.51-4.1 10.86-.5z" class="m"/><path d="M124.4 343.59c2-.22 3-2.25 2.19-4.54s-3-4-5-3.74-3 2.26-2.19 4.54 3.03 3.96 5 3.74z" class="k"/></g><use xlink:href="#P" class="i"/><use xlink:href="#P" class="j n"/><use xlink:href="#Q" class="i"/><use xlink:href="#Q" class="m"/><use xlink:href="#R" class="i"/><use xlink:href="#R" class="k"/><use xlink:href="#S" class="i"/><use xlink:href="#S" class="s"/><g class="i"><path d="M111.3 345.68v-2.42c0-1-.69-2-2.17-2.83h0a10.43 10.43 0 0 0-8.07-.73h0c-1.07.27-2.09.62-3 .93a27.78 27.78 0 0 1-3.23 1h0a5.66 5.66 0 0 1-1.54.14 3.27 3.27 0 0 1-1.27-.33l.1-.07.32-.2a6.16 6.16 0 0 1 .85-.43 5.92 5.92 0 0 1 4.52-.1l2.61-2.63v-2.42a12.45 12.45 0 0 0-7.13-.25 14.18 14.18 0 0 0-2.27.78l-2.61-1.51-3.11 1.8v2.42l1.07.61a2.59 2.59 0 0 0-.46 1.41v2.41c0 1 .72 2 2.22 2.83a9.16 9.16 0 0 0 4.3 1.24h0a8.22 8.22 0 0 0 .86 0 16.89 16.89 0 0 0 4.62-1l.9-.31-2.63 2.64V351a12.8 12.8 0 0 0 10.06-.43l2.58 1.48 3.11-1.79v-2.42l-1.07-.62a2.82 2.82 0 0 0 .44-1.54zm-6.57-.2l-.72.36a6.69 6.69 0 0 1-5.09.07c2.44-.86 4.47-1.61 6.21-.69a4.64 4.64 0 0 1-.4.26z"/><use xlink:href="#T"/></g><g class="j n"><use xlink:href="#T"/></g><g class="p"><path d="M85.21 336.38l3.14-1.42 2.58 1.13-2.61-1.51-3.11 1.8zm7.63-.97a14.49 14.49 0 0 1 6.69.22l-1.81 2.57 2.61-2.63a12.34 12.34 0 0 0-7.49-.16zm16.24 4.98h0c3 1.77 2.73 3.95.14 5.95 2.29-2.5 1.88-4.24-.62-5.68a11.69 11.69 0 0 0-7.64-1 10.43 10.43 0 0 1 8.12.73zm.19 5.99l1.97 1.52-2.51 1.77 3.11-1.8-2.57-1.49zm-5.27-.54a6.72 6.72 0 0 1-5 .43l-3 2.35 2.74-2.74a6.72 6.72 0 0 0 5.26-.04zm-9.26-4.24a4 4 0 0 1-3.73-.36c-.9-.77-.32-1.6 1-2.32-1.46 1-1.31 1.8-.31 2.38a3.26 3.26 0 0 0 1.48.44 5.66 5.66 0 0 0 1.56-.14z" class="l"/><use xlink:href="#U" class="l"/></g><use xlink:href="#V" class="i"/><use xlink:href="#V" class="r"/><path d="M102.23,320.79c-7.87,0-15.74,1.73-21.74,5.2a19.82,19.82,0,0,0-7.34,6.79H71.49v6.28h0c.22,4.37,3.21,8.7,9,12,6,3.46,13.87,5.2,21.74,5.2Z" class="o"/><path d="M85.44,323.67a33.55,33.55,0,0,0-5,2.32,19.82,19.82,0,0,0-7.34,6.79H71.49v6.28h0c.22,4.37,3.21,8.7,9,12a33.55,33.55,0,0,0,5,2.32Z" class="o"/><g class="i"><path d="M119 323.67a33.55 33.55 0 0 1 5 2.33 19.82 19.82 0 0 1 7.34 6.79H133v6.28h0c-.22 4.37-3.23 8.7-9 12a33.55 33.55 0 0 1-4.95 2.32z" class="k"/><use xlink:href="#W"/></g><use xlink:href="#W" class="m"/><path d="M129 324a13.43 13.43 0 0 1 3.16 11c-1.06 6.1-9.6 11.24-12.54 12.47a33.44 33.44 0 0 0 4.34-2.09c10.04-5.83 11.68-14.6 5.04-21.38zm-53.5 17.56a13.39 13.39 0 0 1-3.21-10.95c1.06-6.1 9.6-11.23 12.55-12.46a32.92 32.92 0 0 0-4.35 2.08c-10.01 5.77-11.67 14.56-4.99 21.33z" class="k p"/><use xlink:href="#X" class="i"/><g class="j"><use xlink:href="#X" class="q"/><path d="M129.51 337.69c2.3-4.25 1.55-8.93-2.24-12.9a19.62 19.62 0 0 0-2.42-2.12 23.67 23.67 0 0 0-2.31-1.52c-.46-.27-.93-.52-1.41-.77 1.19 2 .75 4.05-6 4.44-13.17.77 3.52 13.36 3.52 13.36s8.51-4.1 10.86-.49z" class="m"/><path d="M128.15 334.2c2-.22 3-2.25 2.19-4.54s-3-4-5-3.73-3 2.25-2.19 4.54 3.03 3.96 5 3.73z" class="k"/></g><use xlink:href="#Y" class="i"/><use xlink:href="#Y" class="j n"/><use xlink:href="#Z" class="i"/><use xlink:href="#Z" class="m"/><use xlink:href="#a" class="i"/><use xlink:href="#a" class="k"/><use xlink:href="#b" class="i"/><use xlink:href="#b" class="s"/><g class="i"><path d="M115.05 336.3v-2.43c0-1-.69-2-2.17-2.83h0a10.39 10.39 0 0 0-8.07-.74h0c-1.07.27-2.09.62-3 .94a32.33 32.33 0 0 1-3.23 1h0a6.12 6.12 0 0 1-1.54.15 3.29 3.29 0 0 1-1.27-.34l.1-.07.32-.2a6.69 6.69 0 0 1 .85-.42 5.94 5.94 0 0 1 4.53-.11l2.6-2.63v-2.41a12.36 12.36 0 0 0-7.13-.26 14.53 14.53 0 0 0-2.27.78l-2.61-1.5L89 327v2.42l1 .58a2.53 2.53 0 0 0-.46 1.4v2.41c0 1 .72 2 2.22 2.83a9 9 0 0 0 4.3 1.24h0a8.19 8.19 0 0 0 .86 0 16.88 16.88 0 0 0 4.62-1l.9-.31-2.63 2.63v2.42a12.8 12.8 0 0 0 10.06-.44l2.58 1.49 3.11-1.8v-2.42l-1.07-.61a2.84 2.84 0 0 0 .56-1.54zm-6.57-.21a5.37 5.37 0 0 1-.72.36 6.75 6.75 0 0 1-5.09.08c2.44-.86 4.47-1.62 6.21-.69a4.66 4.66 0 0 1-.4.25z"/><use xlink:href="#c"/></g><g class="j n"><use xlink:href="#c"/></g><g class="p"><path d="M88.96 327l3.15-1.43 2.57 1.13-2.6-1.5-3.12 1.8z" class="l"/><use xlink:href="#d" class="l"/><path d="M112.83 331h0c3 1.77 2.73 3.95.14 6 2.29-2.5 1.88-4.25-.62-5.69a11.76 11.76 0 0 0-7.64-1 10.39 10.39 0 0 1 8.12.69z" class="l"/><use xlink:href="#As" class="l"/><use xlink:href="#e" class="l"/><use xlink:href="#f" class="l"/><path d="M91.52 328.5c-.22.2-2.1 1.95-1.27 3.69s3.62 3.06 5.84 3.3h0a9.15 9.15 0 0 1-4.3-1.23c-2.95-1.7-2.89-3.77-.27-5.76z" class="l"/></g><use xlink:href="#g" class="i"/><use xlink:href="#g" class="r"/><path d="M97.51,314.66c-7.87,0-15.74,1.74-21.74,5.2a19.82,19.82,0,0,0-7.34,6.79H66.77v6.28h0c.22,4.37,3.21,8.7,9,12,6,3.47,13.87,5.2,21.74,5.2Z" class="o"/><path d="M80.72,317.54a33.55,33.55,0,0,0-5,2.32,19.82,19.82,0,0,0-7.34,6.79H66.77v6.28h0c.22,4.37,3.21,8.7,9,12a33.55,33.55,0,0,0,5,2.32Z" class="o"/><g class="i"><path d="M114.3,317.54a33,33,0,0,1,4.94,2.32,19.85,19.85,0,0,1,7.35,6.79h1.66v6.28h0c-.22,4.37-3.23,8.7-9,12a33,33,0,0,1-4.94,2.32Z" class="k"/><use xlink:href="#h"/></g><use xlink:href="#h" class="m"/><path d="M124.23 317.88a13.42 13.42 0 0 1 3.22 10.95c-1.07 6.09-9.61 11.23-12.55 12.46a31.62 31.62 0 0 0 4.34-2.09c10.01-5.78 11.68-14.55 4.99-21.32zm-53.44 17.55a13.42 13.42 0 0 1-3.22-10.95c1.06-6.1 9.6-11.23 12.55-12.46a31.75 31.75 0 0 0-4.35 2.09c-10.01 5.78-11.67 14.55-4.98 21.32z" class="k p"/><use xlink:href="#i" class="i"/><g class="j"><use xlink:href="#i" class="q"/><path d="M124.8 331.56c2.29-4.25 1.54-8.93-2.25-12.9a19.62 19.62 0 0 0-2.42-2.12 23.67 23.67 0 0 0-2.31-1.52c-.46-.27-.93-.52-1.41-.77 1.19 2 .75 4.05-6 4.45-13.17.76 3.52 13.35 3.52 13.35s8.51-4.05 10.87-.49z" class="m"/><path d="M123.44 328.08c2-.23 3-2.26 2.18-4.54s-3-4-5-3.74-3 2.25-2.18 4.54 3.02 3.96 5 3.74z" class="k"/></g><use xlink:href="#j" class="i"/><use xlink:href="#j" class="j n"/><use xlink:href="#k" class="i"/><use xlink:href="#k" class="m"/><ellipse cx="97.52" cy="326.63" rx="20.35" ry="11.75" class="i"/><ellipse cx="97.52" cy="326.63" rx="20.35" ry="11.75" class="k"/><use xlink:href="#l" class="i"/><use xlink:href="#l" class="s"/><g class="i"><path d="M110.33 330.17v-2.43c0-1-.69-2-2.17-2.83h0a10.43 10.43 0 0 0-8.07-.74h0c-1.07.27-2.09.62-3 .94a32.33 32.33 0 0 1-3.23 1h0a5.69 5.69 0 0 1-1.54.15 3.33 3.33 0 0 1-1.27-.34l.1-.07.32-.2.85-.42a5.9 5.9 0 0 1 4.53-.1l2.61-2.64v-2.41a12.4 12.4 0 0 0-7.14-.26 15.53 15.53 0 0 0-2.26.78l-2.61-1.5-3.12 1.8v2.41l1.07.62a2.54 2.54 0 0 0-.46 1.41v2.41c0 1 .72 1.95 2.22 2.82a9.08 9.08 0 0 0 4.3 1.24h0a8.19 8.19 0 0 0 .86 0 16.88 16.88 0 0 0 4.62-1l.9-.31-2.63 2.63v2.42a12.83 12.83 0 0 0 10.07-.44l2.57 1.49 3.12-1.8v-2.41l-1.07-.62a2.82 2.82 0 0 0 .43-1.6zm-6.56-.21a5.49 5.49 0 0 1-.73.36 6.75 6.75 0 0 1-5.09.08c2.44-.86 4.48-1.62 6.21-.69z"/><use xlink:href="#m"/></g><g class="j n"><use xlink:href="#m"/></g><g class="p"><path d="M84.24 320.87l3.15-1.43 2.58 1.13-2.61-1.5-3.12 1.8zm7.63-.98a14.54 14.54 0 0 1 6.7.22l-1.81 2.57 2.61-2.63a12.37 12.37 0 0 0-7.5-.16zm16.24 4.99h0c3 1.77 2.73 3.95.14 6 2.29-2.5 1.88-4.25-.61-5.69a11.79 11.79 0 0 0-7.65-1 10.43 10.43 0 0 1 8.12.69z" class="l"/><path d="M108.3 330.87l1.98 1.52-2.52 1.76 3.12-1.79-2.58-1.49z" class="l"/><use xlink:href="#e" x="-4.76" y="-6.13" class="l"/><path d="M93.77 326.08a4.07 4.07 0 0 1-3.73-.35c-.9-.78-.32-1.61 1-2.33-1.45 1-1.31 1.81-.31 2.38a3.19 3.19 0 0 0 1.48.45 5.69 5.69 0 0 0 1.56-.15zm-6.97-3.7c-.22.19-2.1 1.94-1.27 3.68s3.63 3.06 5.84 3.3h0a9.18 9.18 0 0 1-4.3-1.23c-2.94-1.7-2.89-3.77-.27-5.75z" class="l"/></g><use xlink:href="#n" class="i"/><use xlink:href="#n" class="r"/><path d="M100.8,306.63c7.87,0,15.74,1.73,21.74,5.2a19.82,19.82,0,0,1,7.34,6.79h1.67v6.28h0c-.22,4.37-3.21,8.7-9,12-6,3.46-13.87,5.2-21.74,5.2Z" class="o"/><path d="M117.59,309.51a33.08,33.08,0,0,1,5,2.32,19.82,19.82,0,0,1,7.34,6.79h1.67v6.28h0c-.22,4.37-3.21,8.7-9,12a33.08,33.08,0,0,1-5,2.32Z" class="o"/><g class="i"><path d="M84,309.51a33.55,33.55,0,0,0-5,2.32,19.82,19.82,0,0,0-7.34,6.79H70.07v6.28h0c.22,4.37,3.23,8.7,9,12a33.55,33.55,0,0,0,5,2.32Z" class="k"/><use xlink:href="#o"/></g><use xlink:href="#o" class="m"/><path d="M74.08 309.85a13.38 13.38 0 0 0-3.21 10.94c1.06 6.1 9.6 11.24 12.55 12.47a33 33 0 0 1-4.35-2.09c-10.01-5.78-11.67-14.55-4.99-21.32zm53.45 17.55a13.39 13.39 0 0 0 3.21-10.95c-1.06-6.1-9.6-11.23-12.54-12.46a33.39 33.39 0 0 1 4.34 2.08c10.01 5.78 11.68 14.56 4.99 21.33z" class="k p"/><use xlink:href="#p" class="i"/><g class="j"><use xlink:href="#p" class="q"/><path d="M73.54 323.53c-2.3-4.25-1.55-8.93 2.24-12.9a20.38 20.38 0 0 1 2.42-2.12 22.69 22.69 0 0 1 2.32-1.51 23.43 23.43 0 0 1 1.41-.77c-1.19 2-.76 4 6 4.44 13.17.77-3.52 13.36-3.52 13.36s-8.52-4.11-10.87-.5z" class="m"/><path d="M74.9 320c-2-.22-3-2.25-2.19-4.54s3-3.95 5-3.73 3 2.25 2.19 4.54-3.02 4-5 3.73z" class="k"/></g><use xlink:href="#q" class="i"/><use xlink:href="#q" class="j n"/><use xlink:href="#r" class="i"/><use xlink:href="#r" class="m"/><ellipse cx="100.82" cy="318.6" rx="20.35" ry="11.75" class="i"/><ellipse cx="100.82" cy="318.6" rx="20.35" ry="11.75" class="k"/><use xlink:href="#s" class="i"/><use xlink:href="#s" class="s"/><g class="i"><path d="M113.63 322.14v-2.43c0-1-.69-2-2.17-2.83h0a10.43 10.43 0 0 0-8.07-.74h0c-1.07.27-2.09.62-3 .94a33.23 33.23 0 0 1-3.24 1h0a5.69 5.69 0 0 1-1.54.15 3.29 3.29 0 0 1-1.27-.34l.1-.07.32-.2a8.36 8.36 0 0 1 .85-.42 5.9 5.9 0 0 1 4.53-.1l2.6-2.64V312a12.36 12.36 0 0 0-7.13-.26 14.53 14.53 0 0 0-2.27.78L90.65 311l-3.11 1.8v2.41l1.07.62a2.53 2.53 0 0 0-.46 1.4v2.41c0 1 .72 2 2.22 2.83a9 9 0 0 0 4.3 1.24h0a8.19 8.19 0 0 0 .86 0 16.88 16.88 0 0 0 4.62-1l.9-.31-2.63 2.63v2.42a12.8 12.8 0 0 0 10.06-.44l2.58 1.49 3.11-1.8v-2.42l-1.07-.61a2.84 2.84 0 0 0 .53-1.53zm-6.57-.21a5.37 5.37 0 0 1-.72.36 6.75 6.75 0 0 1-5.09.08c2.44-.86 4.47-1.62 6.21-.69a4.66 4.66 0 0 1-.4.25z"/><use xlink:href="#t"/></g><g class="j n"><use xlink:href="#t"/></g><g class="p"><path d="M87.54 312.83l3.15-1.42 2.57 1.13-2.6-1.5-3.12 1.79z" class="l"/><use xlink:href="#d" x="-1.42" y="-14.14" class="l"/><path d="M111.41 316.85h0c3 1.77 2.73 3.95.14 6 2.29-2.5 1.88-4.25-.62-5.69a11.76 11.76 0 0 0-7.64-1 10.43 10.43 0 0 1 8.12.69z" class="l"/><path d="M111.6 322.84l1.97 1.52-2.51 1.76 3.11-1.8-2.57-1.48z" class="l"/><use xlink:href="#e" x="-1.42" y="-14.16" class="l"/><path d="M97.07 318.05a4.07 4.07 0 0 1-3.73-.35c-.9-.78-.32-1.61 1-2.33-1.46 1-1.31 1.81-.31 2.38a3.27 3.27 0 0 0 1.48.45 5.69 5.69 0 0 0 1.56-.15zm-6.97-3.71c-.22.2-2.1 2-1.27 3.69s3.62 3.06 5.84 3.3h0a9.15 9.15 0 0 1-4.3-1.23c-2.94-1.7-2.89-3.77-.27-5.76z" class="l"/></g><path d="M73.66 315.5l.77-5.88.78 5.88 10.18.44-10.18.45-.78 5.88-.77-5.88-10.19-.45 10.19-.44z" class="j"/><use xlink:href="#u" class="i"/><use xlink:href="#u" class="r"/><path d="M59.46,360.41c-7.86,0-15.73,1.73-21.73,5.2a19.85,19.85,0,0,0-7.35,6.79H28.72v6.28h0c.22,4.37,3.21,8.69,9,12,6,3.46,13.87,5.2,21.73,5.2Z" class="o"/><path d="M42.67,363.29a33,33,0,0,0-4.94,2.32,19.85,19.85,0,0,0-7.35,6.79H28.72v6.28h0c.22,4.37,3.21,8.69,9,12A33.94,33.94,0,0,0,42.67,393Z" class="o"/><g class="i"><path d="M76.25,363.29a33.55,33.55,0,0,1,5,2.32,19.89,19.89,0,0,1,7.34,6.79H90.2v6.28h0c-.22,4.37-3.23,8.69-9,12a34.56,34.56,0,0,1-5,2.31Z" class="k"/><use xlink:href="#v"/></g><use xlink:href="#v" class="m"/><path d="M86.18 363.62a13.46 13.46 0 0 1 3.22 10.95c-1.06 6.1-9.61 11.24-12.55 12.47A33 33 0 0 0 81.2 385c10.01-5.83 11.67-14.6 4.98-21.38zm-53.44 17.56a13.42 13.42 0 0 1-3.22-10.95c1.07-6.1 9.61-11.23 12.55-12.47a34.12 34.12 0 0 0-4.34 2.09c-10.01 5.78-11.68 14.56-4.99 21.33z" class="k p"/><ellipse cx="59.47" cy="372.38" rx="28.57" ry="16.5" class="i"/><g class="j"><ellipse cx="59.47" cy="372.38" rx="28.57" ry="16.5" class="q"/><path d="M86.75 377.3c2.3-4.24 1.55-8.92-2.24-12.89a19.74 19.74 0 0 0-2.43-2.12 24.35 24.35 0 0 0-2.31-1.53c-.46-.26-.92-.52-1.41-.76 1.19 2 .76 4.05-6 4.44-13.17.77 3.52 13.36 3.52 13.36s8.52-4.1 10.87-.5z" class="m"/><path d="M85.39 373.82c2-.22 3-2.25 2.19-4.54s-3-4-5-3.74-3 2.26-2.19 4.54 3.02 3.92 5 3.74z" class="k"/></g><use xlink:href="#w" class="i"/><use xlink:href="#w" class="j n"/><use xlink:href="#x" class="i"/><use xlink:href="#x" class="m"/><ellipse cx="59.47" cy="372.38" rx="20.35" ry="11.75" class="i"/><ellipse cx="59.47" cy="372.38" rx="20.35" ry="11.75" class="k"/><use xlink:href="#y" class="i"/><use xlink:href="#y" class="s"/><g class="i"><path d="M72.29 375.92v-2.43c0-1-.69-2-2.17-2.83h-.06a10.43 10.43 0 0 0-8.07-.73h0c-1.07.27-2.08.62-3 .93a30.23 30.23 0 0 1-3.23 1h0a5.59 5.59 0 0 1-1.53.14 3.19 3.19 0 0 1-1.28-.33l.11-.07a2.36 2.36 0 0 1 .31-.2 5.67 5.67 0 0 1 .86-.42 5.92 5.92 0 0 1 4.52-.11l2.61-2.63v-2.44a12.37 12.37 0 0 0-7.13-.26 14.18 14.18 0 0 0-2.27.78l-2.61-1.5-3.11 1.79V369l1.06.61a2.57 2.57 0 0 0-.45 1.41v2.41c0 1 .71 2 2.22 2.83a9 9 0 0 0 4.29 1.24h0 .86a16.81 16.81 0 0 0 4.61-1l.9-.31-2.62 2.63v2.41a12.81 12.81 0 0 0 10.06-.43l2.58 1.49 3.11-1.8v-2.39l-1.07-.61a2.87 2.87 0 0 0 .5-1.57zm-6.57-.21a6 6 0 0 1-.72.36 6.69 6.69 0 0 1-5.09.07c2.43-.86 4.47-1.61 6.21-.68z"/><use xlink:href="#z"/></g><g class="j n"><use xlink:href="#z"/></g><g class="p"><path d="M46.2 366.61l3.14-1.42 2.58 1.13-2.61-1.5-3.11 1.79zm7.63-.97a14.5 14.5 0 0 1 6.69.22l-1.81 2.57 2.61-2.63a12.34 12.34 0 0 0-7.49-.16zm16.23 4.98h.06c3 1.77 2.72 3.95.13 6 2.3-2.51 1.88-4.25-.61-5.69a11.78 11.78 0 0 0-7.65-1 10.43 10.43 0 0 1 8.07.69z" class="l"/><path d="M70.25 376.62l1.98 1.51-2.51 1.77 3.11-1.8-2.58-1.48zm-5.25-.55a6.66 6.66 0 0 1-5 .43l-3 2.35 2.73-2.74a6.7 6.7 0 0 0 5.27-.04zm-9.28-4.24a4 4 0 0 1-3.73-.36c-.9-.77-.32-1.6 1-2.32-1.46 1-1.32 1.8-.31 2.38a3.26 3.26 0 0 0 1.48.44 5.59 5.59 0 0 0 1.56-.14zm-6.97-3.71c-.22.2-2.09 1.95-1.27 3.69s3.63 3.06 5.85 3.3h0a9 9 0 0 1-4.33-1.24c-2.92-1.7-2.87-3.76-.25-5.75z" class="l"/></g><use xlink:href="#AA" class="i"/><use xlink:href="#AA" class="r"/><path d="M61.84,350.61c7.87,0,15.74,1.73,21.74,5.2a19.74,19.74,0,0,1,7.34,6.79h1.66v6.28h0c-.22,4.36-3.21,8.69-9,12-6,3.47-13.87,5.2-21.74,5.2Z" class="o"/><path d="M78.63,353.49a33.55,33.55,0,0,1,5,2.32,19.74,19.74,0,0,1,7.34,6.79h1.66v6.28h0c-.22,4.36-3.21,8.69-9,12a33.55,33.55,0,0,1-5,2.32Z" class="o"/><g class="i"><path d="M45.06,353.49a33.55,33.55,0,0,0-5,2.32,19.74,19.74,0,0,0-7.34,6.79H31.11v6.28h0c.22,4.36,3.23,8.69,9,12a33.55,33.55,0,0,0,5,2.32Z" class="k"/><use xlink:href="#AB"/></g><use xlink:href="#AB" class="m"/><path d="M35.12 353.82a13.43 13.43 0 0 0-3.21 10.95c1.06 6.1 9.6 11.23 12.54 12.47a34.79 34.79 0 0 1-4.34-2.09c-10.01-5.78-11.67-14.55-4.99-21.33zm53.45 17.56a13.43 13.43 0 0 0 3.21-10.95c-1.06-6.1-9.6-11.23-12.55-12.47a33 33 0 0 1 4.35 2.09c10.01 5.78 11.67 14.55 4.99 21.33z" class="k p"/><use xlink:href="#G" x="-345.94" y="-8.66" class="i"/><g class="j"><use xlink:href="#G" x="-345.94" y="-8.66" class="q"/><path d="M34.58,367.5c-2.3-4.24-1.55-8.92,2.24-12.89a18.08,18.08,0,0,1,2.42-2.12A24.53,24.53,0,0,1,41.56,351c.45-.26.92-.52,1.4-.76-1.18,1.95-.75,4.05,6,4.44,13.17.77-3.52,13.36-3.52,13.36S36.93,363.9,34.58,367.5Z" class="m"/><path d="M35.94 364c-2-.22-3-2.25-2.19-4.54s3-4 5-3.74 3 2.26 2.19 4.54-3.03 3.98-5 3.74z" class="k"/></g><use xlink:href="#AC" class="i"/><use xlink:href="#AC" class="j n"/><use xlink:href="#AD" class="i"/><use xlink:href="#AD" class="m"/><use xlink:href="#AE" class="i"/><use xlink:href="#AE" class="k"/><use xlink:href="#AF" class="i"/><use xlink:href="#AF" class="s"/><g class="i"><path d="M74.67 366.11v-2.43c0-1-.69-2-2.17-2.83h0a10.43 10.43 0 0 0-8.07-.74h0c-1.07.27-2.09.61-3 .93a27.78 27.78 0 0 1-3.23 1h0a5.66 5.66 0 0 1-1.54.14 3.12 3.12 0 0 1-1.27-.34l.1-.07.32-.19a6.79 6.79 0 0 1 .85-.43 5.87 5.87 0 0 1 4.52-.1l2.61-2.63V356a12.45 12.45 0 0 0-7.13-.26 15.7 15.7 0 0 0-2.27.79l-2.7-1.53-3.11 1.8v2.42l1.07.61a2.59 2.59 0 0 0-.46 1.41v2.41c0 1 .72 2 2.22 2.83a9.15 9.15 0 0 0 4.3 1.23h0a8.22 8.22 0 0 0 .86 0 16.89 16.89 0 0 0 4.62-1l.9-.31-2.63 2.64v2.41a12.8 12.8 0 0 0 10.06-.45l2.58 1.48 3.11-1.79v-2.39l-1.07-.62a2.82 2.82 0 0 0 .53-1.57zm-6.57-.2c-.23.13-.48.25-.72.36a6.69 6.69 0 0 1-5.09.07c2.44-.86 4.47-1.61 6.21-.69a4.64 4.64 0 0 1-.4.26z"/><use xlink:href="#AG"/></g><g class="j n"><use xlink:href="#AG"/></g><g class="p"><path d="M48.58 356.81l3.15-1.42 2.57 1.13-2.6-1.51-3.12 1.8zm7.63-.98a14.64 14.64 0 0 1 6.69.23l-1.8 2.57 2.6-2.63a12.49 12.49 0 0 0-7.49-.17zm16.24 4.99h0c3 1.78 2.73 4 .14 6 2.29-2.5 1.88-4.24-.62-5.68a11.77 11.77 0 0 0-7.64-1.05 10.43 10.43 0 0 1 8.12.73z" class="l"/><path d="M72.64 366.81l1.97 1.52-2.51 1.77 3.11-1.8-2.57-1.49zm-5.26-.54a6.72 6.72 0 0 1-5 .43l-3 2.35 2.74-2.75a6.67 6.67 0 0 0 5.26-.03z" class="l"/><use xlink:href="#AH" class="l"/><path d="M51.14 358.32c-.23.2-2.1 1.94-1.27 3.69s3.62 3.06 5.84 3.3h0a9 9 0 0 1-4.3-1.24c-2.95-1.7-2.89-3.76-.27-5.75z" class="l"/></g><path d="M34.7 359.47l.77-5.88.77 5.88 10.19.45-10.19.45-.77 5.88-.77-5.88-10.19-.45 10.19-.45z" class="j"/><use xlink:href="#AI" class="i"/><use xlink:href="#AI" class="r"/><path d="M347.85,370.36c-7.87,0-15.74,1.73-21.74,5.2a19.82,19.82,0,0,0-7.34,6.79h-1.66v6.28h0c.22,4.37,3.21,8.69,9,12,6,3.46,13.87,5.2,21.74,5.2Z" class="o"/><path d="M331.06,373.24a33.55,33.55,0,0,0-4.95,2.32,19.82,19.82,0,0,0-7.34,6.79h-1.66v6.28h0c.22,4.37,3.21,8.69,9,12a34.56,34.56,0,0,0,4.95,2.31Z" class="o"/><g class="i"><path d="M364.63,373.24a33.55,33.55,0,0,1,4.95,2.32,19.82,19.82,0,0,1,7.34,6.79h1.66v6.28h0c-.22,4.37-3.23,8.69-9,12a34.56,34.56,0,0,1-4.95,2.31Z" class="k"/><use xlink:href="#AJ"/></g><use xlink:href="#AJ" class="m"/><path d="M374.57 373.57a13.43 13.43 0 0 1 3.21 10.95c-1.06 6.1-9.6 11.24-12.54 12.47a33.44 33.44 0 0 0 4.34-2.09c10.01-5.78 11.67-14.55 4.99-21.33zm-53.45 17.56a13.39 13.39 0 0 1-3.21-10.95c1.06-6.1 9.6-11.23 12.54-12.46a33.39 33.39 0 0 0-4.34 2.08c-10.01 5.78-11.67 14.56-4.99 21.33z" class="k p"/><ellipse cx="347.86" cy="382.33" rx="28.57" ry="16.5" class="i"/><g class="j"><ellipse cx="347.86" cy="382.33" rx="28.57" ry="16.5" class="q"/><path d="M375.13 387.26c2.3-4.25 1.55-8.93-2.24-12.9a19.62 19.62 0 0 0-2.42-2.12 23.67 23.67 0 0 0-2.31-1.52 23.96 23.96 0 0 0-1.41-.77c1.18 2 .75 4.05-6 4.44-13.17.77 3.52 13.36 3.52 13.36s8.51-4.1 10.86-.49z" class="m"/><path d="M373.77 383.77c2-.22 3-2.25 2.19-4.54s-3-4-5-3.73-2.96 2.25-2.16 4.5 3 4 4.97 3.77z" class="k"/></g><use xlink:href="#AK" class="i"/><use xlink:href="#AK" class="j n"/><use xlink:href="#AL" class="i"/><use xlink:href="#AL" class="m"/><use xlink:href="#AM" class="i"/><use xlink:href="#AM" class="k"/><use xlink:href="#AN" class="i"/><use xlink:href="#AN" class="s"/><g class="i"><path d="M360.67 385.87v-2.43c0-1-.69-2-2.17-2.83h-.05a10.39 10.39 0 0 0-8.07-.74h0c-1.07.27-2.09.62-3 .94a32.33 32.33 0 0 1-3.23 1h0a5.66 5.66 0 0 1-1.54.14 3.11 3.11 0 0 1-1.27-.33l.1-.07.32-.2a6.69 6.69 0 0 1 .85-.42 5.92 5.92 0 0 1 4.52-.11l2.61-2.63v-2.41a12.37 12.37 0 0 0-7.13-.26 14.18 14.18 0 0 0-2.27.78l-2.61-1.5-3.11 1.79V379l1.07.61a2.59 2.59 0 0 0-.46 1.41v2.41c0 1 .72 2 2.22 2.83a9 9 0 0 0 4.3 1.24h0a8.19 8.19 0 0 0 .86 0 16.88 16.88 0 0 0 4.62-1l.9-.31-2.63 2.63v2.41a12.8 12.8 0 0 0 10.06-.43l2.58 1.49 3.11-1.8v-2.42l-1.07-.61a2.87 2.87 0 0 0 .49-1.59zm-6.57-.21a6 6 0 0 1-.72.36 6.75 6.75 0 0 1-5.09.08c2.44-.86 4.47-1.62 6.21-.69a4.66 4.66 0 0 1-.4.25z"/><use xlink:href="#AO"/></g><g class="j n"><use xlink:href="#AO"/></g><g class="p"><path d="M334.58 376.56l3.15-1.42 2.57 1.13-2.61-1.5-3.11 1.79z" class="l"/><use xlink:href="#d" x="245.62" y="49.59" class="l"/><path d="M358.45 380.58h.05c3 1.77 2.73 3.95.14 6 2.29-2.5 1.88-4.25-.62-5.69a11.76 11.76 0 0 0-7.64-1 10.39 10.39 0 0 1 8.07.69z" class="l"/><use xlink:href="#As" x="245.62" y="49.57" class="l"/><use xlink:href="#e" x="245.62" y="49.55" class="l"/><path d="M344.11 381.78a4.07 4.07 0 0 1-3.73-.35c-.9-.78-.32-1.61 1-2.33-1.46 1-1.31 1.8-.31 2.38a3.26 3.26 0 0 0 1.48.44 5.66 5.66 0 0 0 1.56-.14zm-6.97-3.71c-.23.2-2.1 1.95-1.27 3.69s3.62 3.06 5.84 3.3h0a9 9 0 0 1-4.3-1.24c-2.95-1.7-2.89-3.76-.27-5.75z" class="l"/></g><use xlink:href="#AP" class="i"/><use xlink:href="#AP" class="r"/><path d="M342,361c-7.87,0-15.74,1.73-21.74,5.2A19.82,19.82,0,0,0,313,373h-1.66v6.28h0c.22,4.37,3.21,8.7,9,12,6,3.46,13.87,5.2,21.74,5.2Z" class="o"/><path d="M325.24,363.9a33.55,33.55,0,0,0-4.95,2.32A19.82,19.82,0,0,0,313,373h-1.66v6.28h0c.22,4.37,3.21,8.7,9,12a33.55,33.55,0,0,0,4.95,2.32Z" class="o"/><g class="i"><path d="M358.81,363.9a33.55,33.55,0,0,1,4.95,2.32A19.82,19.82,0,0,1,371.1,373h1.66v6.28h0c-.22,4.37-3.23,8.7-9,12a33.55,33.55,0,0,1-4.95,2.32Z" class="k"/><use xlink:href="#AQ"/></g><use xlink:href="#AQ" class="m"/><path d="M368.75 364.23a13.43 13.43 0 0 1 3.25 10.95c-1.06 6.1-9.6 11.24-12.54 12.47a33.44 33.44 0 0 0 4.34-2.09c9.97-5.78 11.64-14.56 4.95-21.33zm-53.45 17.56a13.43 13.43 0 0 1-3.21-11c1.06-6.1 9.6-11.23 12.55-12.46a32.92 32.92 0 0 0-4.35 2.08c-10.01 5.83-11.67 14.59-4.99 21.38z" class="k p"/><ellipse cx="342.04" cy="372.99" rx="28.57" ry="16.5" class="i"/><g class="j"><ellipse cx="342.04" cy="372.99" rx="28.57" ry="16.5" class="q"/><path d="M369.31 377.92c2.3-4.25 1.55-8.93-2.24-12.9a19.62 19.62 0 0 0-2.42-2.12 23.67 23.67 0 0 0-2.31-1.52 23.96 23.96 0 0 0-1.41-.77c1.19 2 .75 4.05-6 4.44-13.17.77 3.52 13.36 3.52 13.36s8.55-4.1 10.86-.49z" class="m"/><path d="M368 374.43c2-.22 3-2.25 2.19-4.54s-3-4-5-3.73-2.95 2.25-2.19 4.54 3 3.96 5 3.73z" class="k"/></g><use xlink:href="#AR" class="i"/><use xlink:href="#AR" class="j n"/><use xlink:href="#AS" class="i"/><use xlink:href="#AS" class="m"/><use xlink:href="#AT" class="i"/><use xlink:href="#AT" class="k"/><use xlink:href="#AU" class="i"/><use xlink:href="#AU" class="s"/><g class="i"><path d="M354.85 376.53v-2.43c0-1-.69-2-2.17-2.83h-.05a10.39 10.39 0 0 0-8.07-.74h0c-1.07.27-2.09.62-3 .94a33.23 33.23 0 0 1-3.24 1h0a6.12 6.12 0 0 1-1.54.15 3.29 3.29 0 0 1-1.27-.34l.1-.07.32-.2a6.69 6.69 0 0 1 .85-.42 5.94 5.94 0 0 1 4.53-.11l2.6-2.63v-2.41a12.36 12.36 0 0 0-7.13-.26 14.53 14.53 0 0 0-2.27.78l-2.61-1.5-3.11 1.79v2.42l1.07.62a2.53 2.53 0 0 0-.46 1.4v2.41c0 1 .72 2 2.22 2.83a9 9 0 0 0 4.3 1.24h0a8.19 8.19 0 0 0 .86 0 16.88 16.88 0 0 0 4.62-1l.9-.31-2.63 2.63v2.41a12.76 12.76 0 0 0 10.06-.43l2.58 1.49 3.11-1.8v-2.42l-1.07-.61a2.84 2.84 0 0 0 .5-1.6zm-6.57-.21a5.37 5.37 0 0 1-.72.36 6.75 6.75 0 0 1-5.09.08c2.44-.86 4.47-1.62 6.21-.69a4.66 4.66 0 0 1-.4.25z"/><use xlink:href="#AV"/></g><g class="j n"><use xlink:href="#AV"/></g><g class="p"><path d="M328.76 367.23l3.15-1.43 2.57 1.13-2.6-1.5-3.12 1.8z" class="l"/><use xlink:href="#d" x="239.8" y="40.25" class="l"/><path d="M352.63 371.24h.05c3 1.77 2.73 4 .14 6 2.29-2.5 1.88-4.25-.62-5.69a11.76 11.76 0 0 0-7.64-1 10.39 10.39 0 0 1 8.07.69z" class="l"/><use xlink:href="#As" x="239.8" y="40.23" class="l"/><use xlink:href="#e" x="239.8" y="40.23" class="l"/><use xlink:href="#f" x="239.8" y="40.23" class="l"/><path d="M331.32 368.73c-.22.2-2.1 1.95-1.27 3.69s3.62 3.06 5.84 3.3h0a9.15 9.15 0 0 1-4.3-1.23c-2.94-1.7-2.89-3.77-.27-5.76z" class="l"/></g><use xlink:href="#AW" class="i"/><use xlink:href="#AW" class="r"/><path d="M349.25,353.14c7.87,0,15.74,1.73,21.74,5.2a19.82,19.82,0,0,1,7.34,6.79H380v6.28h0c-.22,4.36-3.21,8.69-9,12-6,3.46-13.87,5.19-21.74,5.19Z" class="o"/><path d="M366,356a33.55,33.55,0,0,1,4.95,2.32,19.82,19.82,0,0,1,7.34,6.79H380v6.28h0c-.22,4.36-3.21,8.69-9,12a34.56,34.56,0,0,1-4.95,2.31Z" class="o"/><g class="i"><path d="M332.47,356a33.55,33.55,0,0,0-5,2.32,19.82,19.82,0,0,0-7.34,6.79h-1.66v6.28h0c.22,4.36,3.23,8.69,9,12a34.56,34.56,0,0,0,5,2.31Z" class="k"/><use xlink:href="#AX"/></g><use xlink:href="#AX" class="m"/><path d="M322.53 356.35a13.43 13.43 0 0 0-3.21 10.95c1.06 6.1 9.6 11.23 12.54 12.47a34.79 34.79 0 0 1-4.34-2.09c-10.01-5.78-11.68-14.55-4.99-21.33zM376 373.91a13.43 13.43 0 0 0 3.21-11c-1.06-6.1-9.6-11.23-12.55-12.47a34.26 34.26 0 0 1 4.35 2.09c9.99 5.83 11.65 14.6 4.99 21.38z" class="k p"/><ellipse cx="349.27" cy="365.11" rx="28.57" ry="16.5" class="i"/><g class="j"><ellipse cx="349.27" cy="365.11" rx="28.57" ry="16.5" class="q"/><path d="M322,370c-2.3-4.24-1.55-8.92,2.24-12.89a18.82,18.82,0,0,1,2.42-2.12,24.53,24.53,0,0,1,2.32-1.53c.45-.26.92-.52,1.4-.76-1.18,1.95-.75,4,6,4.44,13.17.77-3.52,13.36-3.52,13.36S324.34,366.43,322,370Z" class="m"/><path d="M323.35 366.55c-2-.22-3-2.25-2.19-4.54s3-4 5-3.74 3 2.26 2.19 4.54-3.03 3.96-5 3.74z" class="k"/></g><use xlink:href="#AY" class="i"/><use xlink:href="#AY" class="j n"/><use xlink:href="#AZ" class="i"/><use xlink:href="#AZ" class="m"/><ellipse cx="349.26" cy="365.1" rx="20.35" ry="11.75" class="i"/><ellipse cx="349.26" cy="365.1" rx="20.35" ry="11.75" class="k"/><use xlink:href="#Aa" class="i"/><use xlink:href="#Aa" class="s"/><g class="i"><path d="M362.08 368.64v-2.42c0-1-.69-2-2.17-2.83h-.05a10.48 10.48 0 0 0-8.07-.74h0c-1.07.27-2.09.61-3 .93a27.78 27.78 0 0 1-3.23 1h0a5.66 5.66 0 0 1-1.54.14 3.27 3.27 0 0 1-1.27-.33l.1-.08.32-.19a6.79 6.79 0 0 1 .85-.43 5.87 5.87 0 0 1 4.52-.1l2.61-2.63v-2.42a12.45 12.45 0 0 0-7.13-.25 14.18 14.18 0 0 0-2.27.78l-2.61-1.51-3.11 1.8v2.42l1.07.61a2.59 2.59 0 0 0-.46 1.41v2.41c0 1 .72 2 2.22 2.83a9.16 9.16 0 0 0 4.3 1.24h0a8.22 8.22 0 0 0 .86 0 16.89 16.89 0 0 0 4.62-1l.9-.31-2.63 2.64V374a12.8 12.8 0 0 0 10.06-.43l2.58 1.48 3.11-1.79v-2.42l-1.07-.62a2.82 2.82 0 0 0 .49-1.58zm-6.57-.2l-.72.36a6.69 6.69 0 0 1-5.09.07c2.44-.86 4.47-1.61 6.21-.69a4.64 4.64 0 0 1-.4.26z"/><use xlink:href="#Ab"/></g><g class="j n"><use xlink:href="#Ab"/></g><g class="p"><path d="M335.99 359.34l3.14-1.42 2.58 1.13-2.61-1.51-3.11 1.8zm7.63-.98a14.64 14.64 0 0 1 6.69.23l-1.8 2.57 2.6-2.63a12.42 12.42 0 0 0-7.49-.17zm16.24 4.99h.05c3 1.77 2.73 3.95.14 5.95 2.29-2.5 1.88-4.24-.62-5.68a11.77 11.77 0 0 0-7.64-1.05 10.48 10.48 0 0 1 8.07.78zm.19 5.99l1.97 1.52-2.51 1.77 3.11-1.8-2.57-1.49zm-5.26-.54a6.72 6.72 0 0 1-5 .43l-3 2.35 2.74-2.75a6.67 6.67 0 0 0 5.26-.03z" class="l"/><use xlink:href="#AH" x="287.41" y="2.56" class="l"/><use xlink:href="#U" x="250.78" y="22.96" class="l"/></g><use xlink:href="#At" class="j"/><use xlink:href="#Ac" class="i"/><use xlink:href="#Ac" class="r"/><path d="M338.88,277.93c-7.86,0-15.73,1.74-21.73,5.2a19.85,19.85,0,0,0-7.35,6.79h-1.66v6.28h0c.22,4.37,3.2,8.7,9,12,6,3.47,13.87,5.2,21.73,5.2Z" class="o"/><path d="M322.09,280.81a33,33,0,0,0-4.94,2.32,19.85,19.85,0,0,0-7.35,6.79h-1.66v6.28h0c.22,4.37,3.2,8.7,9,12a33,33,0,0,0,4.94,2.32Z" class="o"/><g class="i"><path d="M355.67,280.81a33.55,33.55,0,0,1,4.95,2.32,19.82,19.82,0,0,1,7.34,6.79h1.66v6.28h0c-.22,4.37-3.23,8.7-9,12a33.55,33.55,0,0,1-4.95,2.32Z" class="k"/><use xlink:href="#Ad"/></g><use xlink:href="#Ad" class="m"/><path d="M365.61 281.15a13.47 13.47 0 0 1 3.21 11c-1.06 6.09-9.6 11.23-12.55 12.46a33 33 0 0 0 4.35-2.09c10.01-5.83 11.67-14.6 4.99-21.37zm-53.45 17.55a13.39 13.39 0 0 1-3.16-10.95c1.06-6.1 9.6-11.23 12.54-12.46a32.19 32.19 0 0 0-4.34 2.09c-10.06 5.78-11.73 14.55-5.04 21.32z" class="k p"/><use xlink:href="#Ae" class="i"/><g class="j"><use xlink:href="#Ae" class="q"/><path d="M366.17 294.83c2.3-4.25 1.55-8.93-2.24-12.9a19.62 19.62 0 0 0-2.42-2.12 22.69 22.69 0 0 0-2.32-1.52c-.45-.27-.92-.52-1.4-.77 1.18 2 .75 4.05-6 4.45-13.17.76 3.52 13.35 3.52 13.35s8.51-4.1 10.86-.49z" class="m"/><path d="M364.81 291.35c2-.23 3-2.26 2.19-4.54s-3-4-5-3.74-3 2.25-2.19 4.54 3.03 3.96 5 3.74z" class="k"/></g><use xlink:href="#Af" class="i"/><use xlink:href="#Af" class="j n"/><use xlink:href="#Ag" class="i"/><use xlink:href="#Ag" class="m"/><ellipse cx="338.9" cy="289.9" rx="20.35" ry="11.75" class="i"/><ellipse cx="338.9" cy="289.9" rx="20.35" ry="11.75" class="k"/><use xlink:href="#Ah" class="i"/><use xlink:href="#Ah" class="s"/><g class="i"><path d="M351.71 293.44V291c0-1-.69-2-2.17-2.83h-.05a10.44 10.44 0 0 0-8.07-.74h0c-1.07.27-2.08.62-3 .94a32.33 32.33 0 0 1-3.23 1h0a5.73 5.73 0 0 1-1.54.15 3.29 3.29 0 0 1-1.27-.34l.1-.07.32-.2a7.44 7.44 0 0 1 .85-.42 5.87 5.87 0 0 1 4.52-.1l2.61-2.64v-2.41a12.37 12.37 0 0 0-7.13-.26 15.24 15.24 0 0 0-2.27.78l-2.61-1.5-3.11 1.8v2.41l1.06.62a2.6 2.6 0 0 0-.45 1.41v2.4c0 1 .72 1.95 2.22 2.82a9 9 0 0 0 4.3 1.24h.86a17.27 17.27 0 0 0 4.62-1l.9-.31-2.63 2.63v2.42a12.8 12.8 0 0 0 10.06-.44l2.58 1.49 3.11-1.8v-2.41l-1.07-.62a2.84 2.84 0 0 0 .49-1.58zm-6.57-.21a6 6 0 0 1-.72.36 6.75 6.75 0 0 1-5.09.08c2.44-.86 4.47-1.62 6.21-.69a4.66 4.66 0 0 1-.4.25z"/><use xlink:href="#Ai"/></g><g class="j n"><use xlink:href="#Ai"/></g><g class="p"><path d="M325.62 284.14l3.14-1.43 2.58 1.14-2.61-1.51-3.11 1.8zm7.63-.98a14.49 14.49 0 0 1 6.69.22l-1.81 2.62 2.61-2.63a12.34 12.34 0 0 0-7.49-.21zm16.24 4.99h.05c3 1.77 2.72 3.95.13 6 2.3-2.5 1.89-4.25-.61-5.69a11.76 11.76 0 0 0-7.64-1 10.44 10.44 0 0 1 8.07.69z" class="l"/><path d="M349.67 294.14l1.98 1.51-2.51 1.77 3.11-1.79-2.58-1.49zm-5.25-.55a6.66 6.66 0 0 1-5 .43l-3 2.35 2.73-2.74a6.7 6.7 0 0 0 5.27-.04zm-9.27-4.24a4.07 4.07 0 0 1-3.73-.35c-.9-.78-.33-1.61 1-2.33-1.46 1-1.31 1.81-.31 2.38a3.16 3.16 0 0 0 1.48.45 5.73 5.73 0 0 0 1.56-.15zm-6.98-3.7c-.22.19-2.09 1.94-1.26 3.68s3.62 3.06 5.84 3.3h0a9.15 9.15 0 0 1-4.3-1.23c-2.95-1.7-2.89-3.77-.28-5.75z" class="l"/></g><use xlink:href="#Aj" class="i"/><use xlink:href="#Aj" class="r"/><path d="M334.61,268.13c7.87,0,15.74,1.73,21.74,5.2a19.82,19.82,0,0,1,7.34,6.79h1.66v6.28h0c-.22,4.37-3.21,8.69-9,12-6,3.46-13.87,5.2-21.74,5.2Z" class="o"/><path d="M351.4,271a33.55,33.55,0,0,1,5,2.32,19.82,19.82,0,0,1,7.34,6.79h1.66v6.28h0c-.22,4.37-3.21,8.69-9,12a34.56,34.56,0,0,1-5,2.31Z" class="o"/><g class="i"><path d="M317.82,271a33,33,0,0,0-4.94,2.32,19.85,19.85,0,0,0-7.35,6.79h-1.66v6.28h0c.22,4.37,3.23,8.69,9,12a33.94,33.94,0,0,0,4.94,2.31Z" class="k"/><use xlink:href="#Ak"/></g><use xlink:href="#Ak" class="m"/><path d="M307.89 271.34a13.46 13.46 0 0 0-3.22 11c1.07 6.1 9.61 11.24 12.55 12.47a32.82 32.82 0 0 1-4.34-2.09c-10.01-5.83-11.68-14.6-4.99-21.38zm53.44 17.56a13.42 13.42 0 0 0 3.22-10.9c-1.06-6.1-9.6-11.23-12.55-12.47a34.26 34.26 0 0 1 4.35 2.09c10.01 5.73 11.65 14.51 4.98 21.28z" class="k p"/><ellipse cx="334.62" cy="280.1" rx="28.57" ry="16.5" class="i"/><g class="j"><ellipse cx="334.62" cy="280.1" rx="28.57" ry="16.5" class="q"/><path d="M307.35,285c-2.3-4.24-1.55-8.92,2.24-12.89A19.62,19.62,0,0,1,312,270a25.7,25.7,0,0,1,2.31-1.53c.46-.26.93-.52,1.41-.76-1.19,2-.75,4,6,4.44,13.17.77-3.52,13.36-3.52,13.36S309.7,281.42,307.35,285Z" class="m"/><path d="M308.71 281.54c-2-.22-3-2.25-2.19-4.54s3-4 5-3.74 2.95 2.26 2.19 4.54-3.03 3.96-5 3.74z" class="k"/></g><use xlink:href="#Al" class="i"/><use xlink:href="#Al" class="j n"/><use xlink:href="#Am" class="i"/><use xlink:href="#Am" class="m"/><ellipse cx="334.62" cy="280.1" rx="20.35" ry="11.75" class="i"/><ellipse cx="334.62" cy="280.1" rx="20.35" ry="11.75" class="k"/><use xlink:href="#An" class="i"/><use xlink:href="#An" class="s"/><g class="i"><path d="M347.44 283.64v-2.43c0-1-.69-2-2.17-2.83h0a10.43 10.43 0 0 0-8.07-.73h0c-1.07.27-2.08.62-3 .93a30.23 30.23 0 0 1-3.23 1h0a5.59 5.59 0 0 1-1.53.14 3.11 3.11 0 0 1-1.27-.33l.1-.07a2.49 2.49 0 0 1 .32-.2 5.16 5.16 0 0 1 .85-.42 5.92 5.92 0 0 1 4.52-.11l2.61-2.63v-2.41a12.37 12.37 0 0 0-7.13-.26 14.18 14.18 0 0 0-2.27.78l-2.61-1.5-3.11 1.79v2.42l1.06.61a2.57 2.57 0 0 0-.45 1.41v2.41c0 1 .71 2 2.22 2.83a9 9 0 0 0 4.3 1.24h0 .86a16.89 16.89 0 0 0 4.62-1l.89-.3-2.62 2.63V289a12.8 12.8 0 0 0 10.06-.43l2.58 1.49 3.11-1.8v-2.42l-1.07-.61a2.87 2.87 0 0 0 .43-1.59zm-6.57-.21a6 6 0 0 1-.72.36 6.69 6.69 0 0 1-5.09.07c2.44-.86 4.47-1.61 6.21-.68z"/><use xlink:href="#Ao"/></g><g class="j n"><use xlink:href="#Ao"/></g><g class="p"><path d="M321.35 274.33l3.14-1.42 2.58 1.13-2.61-1.5-3.11 1.79zm7.65-.97a14.49 14.49 0 0 1 6.69.22l-1.81 2.57 2.61-2.63a12.34 12.34 0 0 0-7.49-.16zm16.22 4.98h0c3 1.77 2.72 3.95.13 5.95 2.3-2.5 1.88-4.24-.61-5.68a11.76 11.76 0 0 0-7.64-1 10.43 10.43 0 0 1 8.12.73zm.18 5.99l1.98 1.52-2.51 1.77 3.11-1.8-2.58-1.49zm-5.25-.54a6.66 6.66 0 0 1-5 .43l-3 2.35 2.73-2.74a6.74 6.74 0 0 0 5.27-.04zm-9.28-4.24a4 4 0 0 1-3.72-.36c-.9-.77-.33-1.6 1-2.32-1.46 1-1.31 1.8-.31 2.38a3.26 3.26 0 0 0 1.48.44 5.59 5.59 0 0 0 1.55-.14z" class="l"/><use xlink:href="#U" x="236.14" y="-62.05" class="l"/></g><use xlink:href="#At" x="-14.64" y="-85.01" class="j"/><path d="M49.23 134.26L129.34 88c1-.61 1.91-.11 1.91 1.1v70.51a4.23 4.23 0 0 1-1.91 3.3l-80.11 46.26c-1.06.61-1.91.12-1.91-1.1v-70.5a4.21 4.21 0 0 1 1.91-3.31z" fill="#e0e0e0"/><use xlink:href="#Ap" class="i"/><use xlink:href="#Ap" class="m"/><path d="M128.87 95.48L54.46 138.4a4.66 4.66 0 0 0-2.11 3.65v66.81a4.59 4.59 0 0 0 2.12 3.62l4 2.27a4.71 4.71 0 0 0 4.22 0l74.4-42.92a4.63 4.63 0 0 0 2.11-3.65v-66.83a4.59 4.59 0 0 0-2.12-3.62l-4-2.27a4.71 4.71 0 0 0-4.21.02z" class="i"/><path d="M62.7 214.73a4.84 4.84 0 0 1-4.22 0l-4-2.28a4.61 4.61 0 0 1-2.12-3.62v-66.78a4.43 4.43 0 0 1 .64-2.15l8.19 4.74a4.27 4.27 0 0 0-.62 2.07v66.8c.02 1.23.89 1.94 2.13 1.22z" class="m"/><g class="j m"><path d="M139.18 101c-.16-1.06-1-1.44-2.08-.83l-74.4 42.89a4.37 4.37 0 0 0-1.49 1.58L53 139.9a4.27 4.27 0 0 1 1.45-1.5l74.41-42.93a4.68 4.68 0 0 1 4.22 0l4 2.27a4.65 4.65 0 0 1 2.1 3.26z"/></g><path d="M137.1 100.14l-74.4 42.92a4.67 4.67 0 0 0-2.11 3.65v66.81c0 1.34.95 1.88 2.11 1.21l28.72-16.56 6.69 13.13a1.06 1.06 0 0 0 2-.16l7.06-22 30-17.3a4.63 4.63 0 0 0 2.11-3.65v-66.84c-.07-1.35-1.01-1.88-2.18-1.21z" fill="#fafafa"/><path d="M137.53 101.84v66.32a3 3 0 0 1-1.27 2.19l-30 17.3-.56.33-.2.62-6.6 20.58-6-11.78-.8-1.58-1.54.89L62.28 213v-66.29a3 3 0 0 1 1.26-2.19l74-42.68m.51-2a1.88 1.88 0 0 0-.94.29L62.7 143.06a4.67 4.67 0 0 0-2.11 3.65v66.81c0 .95.48 1.5 1.17 1.5a1.88 1.88 0 0 0 .94-.29l28.72-16.56 6.69 13.13a1 1 0 0 0 .94.58 1.06 1.06 0 0 0 1-.74l7.06-22 30-17.3a4.63 4.63 0 0 0 2.11-3.65v-66.84c0-.95-.48-1.5-1.17-1.5zm-31.84 79.35v-14.87l-3.27-1.89v14.87l3.27 1.89z" class="i"/><path d="M106.21 179.19v-14.87l-3.27-1.89v14.87l3.27 1.89z" class="m"/><g class="i"><path d="M106.21 179.19l9.48-5.48v-14.87l-9.48 5.48v14.87z"/><use xlink:href="#Au"/></g><g class="j"><use xlink:href="#Au" class="r"/><path d="M115.69,158.85l-9.48,5.33-3.27-1.75,3.14,2.1c-.07,1.06,0,13.57.13,14.66.14-1.09.2-13.67.13-14.7Z" class="n"/></g><use xlink:href="#Av" class="i"/><use xlink:href="#Av" class="j o"/><use xlink:href="#Aw" class="i"/><use xlink:href="#Aw" class="j n"/><use xlink:href="#Ax" class="i"/><g class="j"><use xlink:href="#Ax" opacity=".55"/><path d="M88.56 166.64l9.35-5.55-9.48 5.34-3.27-1.75 3.15 1.95.12 22.82c.07-1.13.16-21.74.13-22.81z" class="n"/></g><use xlink:href="#Ay" class="i"/><use xlink:href="#Ay" class="m"/><g class="i"><path d="M123.99 168.92l9.48-5.47v-34.96l-9.48 5.47v34.96z"/><use xlink:href="#Az"/></g><g class="j"><use xlink:href="#Az" class="r"/><path d="M133.47 128.49l-9.47 5.33-3.27-1.75 3.14 2.1c-.08 1.06 0 33.66.13 34.75.14-1.09.2-33.76.13-34.79z" class="n"/></g><use xlink:href="#BA" class="i"/><use xlink:href="#BA" class="l"/><use xlink:href="#BB" class="i"/><use xlink:href="#BB" class="n"/><use xlink:href="#BC" class="i"/><use xlink:href="#BC" class="w"/><path d="M80.14 185.42l-9.49 5.33-3.27-1.75 3.14 2.05.13 8.66c.14-.68.14-8.66.14-8.66z" class="j n"/><path d="M124.63 116.82l-5.15 1.87.46 1.27 2.93-1.07-15.73 33.32-16.4-3.16-22.18 34.67 1.13.73 21.7-33.9 16.52 3.18 16.22-34.33 1.09 3 1.27-.46z" class="i"/><path d="M187.49 413.26l-5.86-2.23 1.94-3.97 3.6 3.38.32 2.82z"/><path d="M193.61 402.69l.27 5c.05 1.17-5.11 4.93-6.39 5.54l-.32-2.82a22 22 0 0 0-3 4.55c-1 1.71-2.27 5-5 7.16-4 3.27-10.35 4.91-16.77 5.11s-10.08-1.39-11.9-2.79-2.39-3-1.92-4.65 45.03-17.1 45.03-17.1z" class="v"/><path d="M176.51 389.56l-.06-2.22c-1.19 0-1.34 3.17-3.08 6a57.56 57.56 0 0 1-9.09 11.51c-6.53 5.9-12.36 9.59-15.27 12.25-3.91 3.55 2.89 9.26 13.37 8.72 5.2-.26 14.44-2.83 17.05-5.89s4.23-7.84 6.32-10.06 6.56-4.45 7.86-7.16c.72-1.48.36-5-.05-7.91-.37-2.71-.44-6.86-2-6.54l-.12 1.4c-.63 1.18-2.08 3.13-6.28 3.82-2.05.32-8.3.52-8.65-3.92z" class="t"/><path d="M181.84 393.55c-2-.18-4.15-.85-5-2.66v-.06a5.08 5.08 0 0 1-1.37 4.26c-1.88 2.18-13.79 17.58-13.79 17.58l13.2-15.09c3.14-3.53 4.13-3.94 7-4zm-2.64 4.08a.64.64 0 1 0 .57-.7.64.64 0 0 0-.57.7zm-3.1 3.37a.639.639 0 1 0 1.27-.14.64.64 0 0 0-.71-.57.63.63 0 0 0-.56.71zm-3.1 3.44a.64.64 0 1 0 .57-.71.65.65 0 0 0-.57.71zm-3.12 3.4a.64.64 0 0 0 .71.57.64.64 0 1 0-.71-.57zm-3.11 3.4a.65.65 0 0 0 .71.57.64.64 0 1 0-.71-.57z" class="w"/><path d="M179.86 397.82a.24.24 0 0 0 .16-.07.27.27 0 0 0 0-.37 10.56 10.56 0 0 0-7.23-2.9h0a.26.26 0 0 0 0 .52c3.81-.2 6.81 2.72 6.84 2.75a.25.25 0 0 0 .23.07zm-3.11 3.39a.24.24 0 0 0 .16-.07.27.27 0 0 0 0-.37c-.13-.12-3.19-3.11-7.23-2.9h0a.26.26 0 0 0-.24.28.26.26 0 0 0 .27.24c3.8-.2 6.81 2.72 6.84 2.75a.25.25 0 0 0 .2.07zm-3.11 3.42a.3.3 0 0 0 .17-.08.25.25 0 0 0 0-.36c-.13-.13-3.2-3.12-7.23-2.9h0a.25.25 0 0 0-.23.27.25.25 0 0 0 .27.24c3.8-.2 6.8 2.72 6.83 2.75a.27.27 0 0 0 .19.08zm-3.1 3.37a.25.25 0 0 0 .16-.08.25.25 0 0 0 0-.36 10.49 10.49 0 0 0-7.23-2.9h0a.26.26 0 0 0 0 .51c3.8-.2 6.81 2.73 6.84 2.75a.26.26 0 0 0 .23.08zm-3.11 3.43a.21.21 0 0 0 .16-.08.25.25 0 0 0 0-.36 10.53 10.53 0 0 0-7.22-2.9h0a.26.26 0 0 0-.24.27.27.27 0 0 0 .27.25c3.8-.21 6.81 2.72 6.84 2.75a.26.26 0 0 0 .19.07zM239 431.74c.9 5 2.08 8.26 4.22 11s6 3.06 8.84 2.46c4-.84 8-3.63 9.49-9.37.92-3.46.29-7.41-1-12z" class="v"/><path d="M250.19 393.29c1.42-.05 2.64 6.67 4.26 13.35 1.73 7.16 4.44 11 5.75 15.77 1.81 6.67 1.7 9.78-.2 14.18s-11.74 9.76-16.6 4.37c-4-4.41-4.74-9.72-5.24-16.55a172.12 172.12 0 0 0-1.75-17.33c-.88-5.06-1.82-10-.66-10.67l.58 2.4c.14.55.61 3.3 1.4 3.23a10.35 10.35 0 0 0-.21-1.92 2.23 2.23 0 0 1 .19-1.69 2.63 2.63 0 0 1 1.48-.89 38.43 38.43 0 0 1 4.11-1.14 18.37 18.37 0 0 1 2.1-.34 24.37 24.37 0 0 1 3.7-.29 1.3 1.3 0 0 1 .85.6 2.25 2.25 0 0 1 .16.77 6.08 6.08 0 0 0 .35 1.38c.07.19.24.42.44.35s.2-.27.18-.44c-.1-.82-.27-1.41-.42-2.36-.07-.44-.22-1-.27-1.47s-.12-.87-.2-1.31z" class="t"/><path d="M255.24 424.7a.51.51 0 0 1-.38.6.5.5 0 0 1-.59-.38.49.49 0 0 1 .37-.59.5.5 0 0 1 .6.37zm-1.04-4.64a.512.512 0 1 1-1 .22.49.49 0 0 1 .37-.59.49.49 0 0 1 .63.37zm-.97-4.37a.5.5 0 1 1-.59-.38.5.5 0 0 1 .59.38zm-.96-4.32a.49.49 0 0 1-.37.59.5.5 0 0 1-.6-.38.511.511 0 1 1 1-.21zm-11.06 2.02a.49.49 0 0 1-.37.59.5.5 0 0 1-.6-.38.511.511 0 1 1 1-.21zm.97 4.35a.5.5 0 1 1-.59-.38.5.5 0 0 1 .59.38zm.97 4.38a.5.5 0 1 1-.59-.38.5.5 0 0 1 .59.38zm1.03 4.64a.49.49 0 0 1-.37.59.5.5 0 0 1-.6-.38.511.511 0 1 1 1-.21zm4.41 1.72l-7.68-32.32 1.81-.25 5.87 32.57z" class="w"/><path d="M254.8 425.06h-.07c-3.34-.33-8.85.66-10.9 2a.25.25 0 0 1-.35-.07.26.26 0 0 1 .07-.35c2.18-1.4 7.73-2.41 11.23-2.06a.25.25 0 0 1 .22.28.24.24 0 0 1-.2.2zm-1.03-4.64a.29.29 0 0 1-.13 0c-2.62-.88-8.5.49-10.84 2a.24.24 0 0 1-.35-.07.26.26 0 0 1 .07-.35c2.44-1.57 8.52-3 11.28-2.05a.26.26 0 0 1 .16.32.25.25 0 0 1-.19.15zm-.97-4.42a.2.2 0 0 1-.13 0c-2.63-.88-8.51.49-10.85 2a.24.24 0 0 1-.34-.08.25.25 0 0 1 .07-.35c2.44-1.57 8.51-3 11.28-2.05a.26.26 0 0 1 .16.32.27.27 0 0 1-.19.16zm-.96-4.28a.2.2 0 0 1-.13 0c-2.62-.88-8.51.49-10.85 2a.25.25 0 1 1-.27-.42c2.44-1.58 8.51-3 11.28-2.05a.25.25 0 0 1 .16.32.28.28 0 0 1-.19.15zm-9.28-183.19c3.28 41.65 5.3 98.35 5.3 98.35.3 3.17 3.34 16.66 4.86 32.26 1.61 16.46 2.93 47.29 2.93 47.29s-11.52 6.19-20.84 3.08l-14.78-71.31c-4.53-18.36-11.61-53.15-11.61-53.15l-4.82 34.42s.85 14.4-.26 22.64c-2.46 18.25-9.73 51.73-9.73 51.73s-10.94 5.94-20.63-1.48l-1.23-72.77c-.53-22.79 1.81-61.63 2.64-91.06z" class="v"/><path d="M225.63 276.46q1.31 15 2.91 29.92.78 7.47 1.64 14.93l.84 7.47.44 3.73.58 3.71 6 37.69 5.73 29.5q-2-14.9-4.27-29.73l-5.65-37.72-.61-3.7-.45-3.73-.94-7.44q-.94-7.45-1.95-14.89-2.01-14.88-4.27-29.74zm-44.17-11.67c-1.2 9.29-1.91 18.64-2.47 28s-1.07 18.73-.88 28.09l.25 34.42.87 28.08q.45-14 .55-28.08l.15-34.4-.06-7v-1.76-1.73l.1-3.51.41-14 .46-14 .62-14.11zm26.96 20.26l-4.07-22.81s-11.3-1.65-17.09-6.85c0 0 3.73 6.88 14.39 9.57l4 20.15-2.1 34.36z"/><path d="M152.54 256.83a17.45 17.45 0 0 0-2.07 4.17c-1.1 3.66-.07 7.57.34 11.37.14 1.28.11 2.45-.94 3.33a.82.82 0 0 1-.76.26c-.24-.07-.37-.31-.48-.53a22.47 22.47 0 0 1-1.75-5 23.63 23.63 0 0 0-.3 4.83 8.4 8.4 0 0 1-.34 3.81c-.53 1.17-2.07 2-3.14 1.29a3.29 3.29 0 0 1-1.12-2.2l-.63-2.94a36.61 36.61 0 0 1-.73-4.14 18.34 18.34 0 0 1 4.64-13.92 7.1 7.1 0 0 1 3.25-2.25 4.48 4.48 0 0 1 3.58.56c.67.4.91.68.45 1.36z" class="x"/><path d="M162.72 230.15l1-2.14-16.17-.31-5.3 19.63c-1.44 4.61-2.15 9.81-3.07 14.74a29.94 29.94 0 0 0-.38 10.24c.35 2.3 1.42 8.95 1.88 10.12s2.08.76 2.89-1.88-.37-7-.29-10.24a10.11 10.11 0 0 1 2.63-7.07c1.68-1.94 3.17-5.25 4.38-6s2.43 3.6 3.08 6.19c.52 2.08.17 3.87 1.68 6.06 1.27 1.86 2.54 1.48 2.67-.15.16-2 .25-4 .28-6.66a70.88 70.88 0 0 0-.84-11.67c-.49-3.05-1.21-4.14.09-7.79-.02-.04 2.83-7.22 5.47-13.07z" class="y"/><path d="M185.8 149.36c-8 2.16-12.82 7.79-17.83 18.35s-11.11 23.5-15.38 36.18-8.08 33.37-8.08 33.37.69 3 6.29 4.62 7.69-.31 7.69-.31l11.26-24.58a150.69 150.69 0 0 1 7.66-15.49c3.62-5.92 6.86-11.64 6.86-11.64z" class="t"/><path d="M236.8 139.32s17.71 21.06 9.9 34.07c-2.62 4.36-4.07 24.07-4.26 29.16-.29 7.81 1.08 34.43 1.08 34.43-11.34 14.43-63.14 12.12-69.64-.49l.68-35.5c.41-15.46.58-22.53 1.37-29.43 1.43-12.61 5.64-19 7.75-21.08l15.63-5.48 17.65-.11c6.79 1.05 13.82-.12 19.84-5.57z" class="u"/><path d="M199.74,136.63c-1.55-5.12-7.11-11.19-10.31-17-3.39-6.13-3.52-14.75,1.63-17.38-.37-5.54,3.1-10.77,10.93-13.33,6.81-2.22,18.43-1.43,23.75,1.83s8.4,10.25,4.35,16.7Z" class="v"/><path d="M197 129.26a5.55 5.55 0 0 1-5.66-1.39c-3.55-3.1-3.8-7-2.6-9.47 1-2.07 2.7-3.15 5.62-2.71 2.62.39 3.14 1.62 4.17 3.1s4.47 1 3-5.3c4.1-2.54.57-8.71 2.58-11.94 3.13-5 9.3-4.54 11.39-3.67a7.91 7.91 0 0 1 8.16-1.47c3.09 1.23 5.4 4.28 7.72 15.44 2.36 11.38 1 20-1.36 22.69-1.63 1.89-4.12 3.3-8.19 3.53l.21 7.09a71.59 71.59 0 0 1-13.4 8.41c-4 2-6 5.68-8.07 7.5-3.22-8.56-.16-14.73-.16-14.73l-1.37-19.06s.14 1.31-2.04 1.98z" class="y"/><path d="M212 106.58l-3.62 2.82a2.42 2.42 0 0 1 .43-3.31 2.23 2.23 0 0 1 3.19.49zm16 .21l-4.44-1.28a2.21 2.21 0 0 1 2.77-1.63 2.44 2.44 0 0 1 1.67 2.91z" class="v"/><path d="M214.22 124.68l6.49 1a3.16 3.16 0 0 1-3.61 2.82 3.46 3.46 0 0 1-2.88-3.82z" fill="#b16668"/><path d="M218.35 128.41a3.39 3.39 0 0 0-3.35-2.51 3.29 3.29 0 0 0-.64.09 3.43 3.43 0 0 0 2.77 2.48 3.27 3.27 0 0 0 1.22-.06z" class="x"/><path d="M228 110.3a1.87 1.87 0 1 1-2.53-.78 1.87 1.87 0 0 1 2.53.78zm-13.88 2.01a1.87 1.87 0 1 1-2.53-.78 1.88 1.88 0 0 1 2.53.78z" class="v"/><path d="M218.09 109.59l2.33 12 6.42-2.71c-2.18-4.53-5.95-7.32-8.75-9.29zm3.77 28.48c-5.85.45-16.63.93-19.67-9.75a12.2 12.2 0 0 0 9.52 11.61 40.05 40.05 0 0 0 10.22.62z" class="x"/><g class="t"><path d="M200.6 161.07a20.89 20.89 0 0 0 3.51-2.66c1.59-1.54 2.33-2.24 2.89-1.66a21.89 21.89 0 0 1 2.87 5.21c.58 1.51.46 1.49 2.56.25a35.39 35.39 0 0 0 10.37-8.3c3.22-3.53 4.21-9.33 4.21-9.33a5.26 5.26 0 0 1-2.58-2.05c-1.66-2.36-1.91-2.62-2.51-2.54l.06 2.13c-.34 2-2.79 4.63-6.06 6.6-4.78 2.87-8.6 4-9.75 5-.84.73-5.57 7.35-5.57 7.35z"/><path d="M192.43 159.16c.28.85 3.29-5.58 4.59-5.37.63.08 1.65 3.39 2.24 4.65l1.34 2.63c-.69-2-.65-7.12-.74-8.45a34.57 34.57 0 0 1 .58-6.28l-.41-5.78c-.56.1-1.14 1.12-2.39 3.12s-4.09 5.64-4.64 8.13a21.61 21.61 0 0 0-.57 7.35z"/></g><g class="y"><path d="M273.06 46.58l-.85-3.7-2.55-9.24a.8.8 0 0 0-.17-.33.58.58 0 0 0-.5-.13 2.21 2.21 0 0 0-1.63 1.3 7 7 0 0 0-.3 3.92c.32 4.28 1.18 8.48 1.46 12.76 0-.32 1.54.52 1.65.58a6 6 0 0 0 2.3.44 15.1 15.1 0 0 0 2.21-.19 37.2 37.2 0 0 1-1.53-5z"/><path d="M280.46 71.49A46.25 46.25 0 0 0 278.89 58c-.58-2.63-1.65-2.81-1.65-2.81a2.19 2.19 0 0 0-1.62-2.11c-.33-1.77-1.38-1.78-4.63-2.26-3.49-.52-6.36-1.2-7.59-.59-.76.38-1.57 1.8-2.12 4.1l-.51-1.07a1.23 1.23 0 0 0-1.16-.68 3.8 3.8 0 0 0-1.8 1 3.11 3.11 0 0 0-.48.48 2.76 2.76 0 0 0-.46 1.64 11.83 11.83 0 0 0 .84 4.06 19.51 19.51 0 0 1 1.18 3.76 9.5 9.5 0 0 0 3.49 6.2c1.17.78 2.16 1.27 2.74 2.39s.54 2 .3 5c-.19 2.42-3.93 26.28-3.93 26.28l18.44 3.83.39-29.48.14-6.25z"/></g><g class="x"><path d="M272.24 51.06l-4.32-.75-2.28-.39a4.52 4.52 0 0 0-2.07 0 3.38 3.38 0 0 0-1.93 2.39 20.76 20.76 0 0 0-.83 4 2.87 2.87 0 0 0 .24 2 1.37 1.37 0 0 0 1.4.64c.27-.06 0-.45-.23-.41-.76.16-1-.75-1-1.33a11.41 11.41 0 0 1 .23-1.85 14.42 14.42 0 0 1 .82-3.13 2.92 2.92 0 0 1 2-2 5.82 5.82 0 0 1 1.95.09l1.87.28 4.19.59c.03.03.02-.11-.04-.13z"/><path d="M272 52.31c-1.4-.34-2.81-.6-4.24-.8l-2.1-.22a2.17 2.17 0 0 0-1.49.48 5.34 5.34 0 0 0-1.41 3.14l-.32 2.1a9.25 9.25 0 0 0-.16 2.1c.15 1.37 1.68 1.92 2.88 1.84.33 0 .11-.46-.14-.44a2.77 2.77 0 0 1-1.82-.46 1.73 1.73 0 0 1-.46-1.71 26.19 26.19 0 0 1 .54-3.64 4.56 4.56 0 0 1 1.32-2.7 2.24 2.24 0 0 1 1.57-.36c.59 0 1.18.09 1.76.15a39.44 39.44 0 0 1 4.06.65c.08.06.07-.11.01-.13z"/><path d="M268.47 54a4 4 0 0 0-1.68.23 2 2 0 0 0-1 1A9.5 9.5 0 0 0 265 59a16.32 16.32 0 0 0 0 2 1.62 1.62 0 0 0 .73 1.29 7.56 7.56 0 0 0 4 1.12c.29 0 .14-.4-.09-.4a8.06 8.06 0 0 1-2.23-.36c-.57-.18-1.53-.45-1.84-1a2.29 2.29 0 0 1-.14-1.16v-1.12a15.53 15.53 0 0 1 .22-2.14 5.8 5.8 0 0 1 .63-2 2 2 0 0 1 1.79-.86c1.56-.09 3.12.08 4.68.11a15.92 15.92 0 0 0-4.28-.48z"/><path d="M270.75 60.58a3.21 3.21 0 0 0-.46-.51 1 1 0 0 0 0-.24 2.11 2.11 0 0 0 0-.26 2.07 2.07 0 0 0-.12-.49 3.81 3.81 0 0 0-.4-.9c0-.06-.08 0-.06.08a2.48 2.48 0 0 1 .28.86v.43.27h0a2.71 2.71 0 0 0-1-.5c-.09 0-.06.16 0 .18a6 6 0 0 1 .74.44 3 3 0 0 1 .65.72 3.07 3.07 0 0 1 .38.77 1.68 1.68 0 0 1 .09 1c-.08.23.37.46.45.2a1.75 1.75 0 0 0-.09-1.06 3.4 3.4 0 0 0-.46-.99z"/><path d="M273 62.22a3.33 3.33 0 0 0-.69-.06 4.05 4.05 0 0 0-.7.07 5.26 5.26 0 0 0-1.45.43 6.05 6.05 0 0 0-2.21 1.7 5.82 5.82 0 0 0-1.19 2.49 5.71 5.71 0 0 0 .22 3c0 .09.1 0 .09 0a6.75 6.75 0 0 1 1.25-5.07 6 6 0 0 1 2-1.66 7.76 7.76 0 0 1 1.28-.51 3.9 3.9 0 0 1 .57-.13l.8-.14s.09-.12.03-.12zm-12-4.32a2.54 2.54 0 0 1-1.78-.08c-.59-.22-1.11-.59-1.68-.86v.06c.94.92 2.34 1.76 3.69 1.28.23-.09-.02-.47-.23-.4zm.36-3.63a2.13 2.13 0 0 0-.49-.94c-.09-.1-.15-.09-.1 0a4.12 4.12 0 0 1 .13.47 12.42 12.42 0 0 1 .21 1.34.09.09 0 0 0 .09 0s.05-.08.11-.09.1-.15.11-.2a.89.89 0 0 0 0-.23 1.87 1.87 0 0 0-.06-.35zm.73 4.35a.24.24 0 0 0-.3-.09 3.5 3.5 0 0 0-1.39 1.11 3.57 3.57 0 0 0-.41.74 3.31 3.31 0 0 0-.14.41 5.65 5.65 0 0 0 0 .58c0 .06.06.13.08.05a2.39 2.39 0 0 1 .2-.43l.18-.38a4.91 4.91 0 0 1 .48-.71 3.71 3.71 0 0 1 1.34-1c.07-.05.02-.22-.04-.28z"/></g><path d="M236.8 139.32c4.68-6.26 8.7-8.41 11.07-11.59 3.87-5.19 11.69-19.1 11.69-19.1l4.67-28.5c1.66 5.08 12.92 6 16 3.25v26.41c-.05 9-1.06 10.37-8.54 22.34l-12.81 20.68-12 20.21c-2.32 3.84-3.14 3.3-7.42-5.55-4.69-9.75-3.35-24.67-2.66-28.15z" class="t"/><defs><path id="A" d="M190.91 186.13l-18.16 10.51 8.76 14.13L67.55 340.64l28.37 16.38 18.16-10.51 88.83-101.23 5.05 8.16 18.16-10.51 4.99-54.15-40.2-2.65z"/><path id="B" d="M207.96 253.44l4.99-54.16-40.2-2.64 8.76 14.13L67.55 340.64l28.37 16.38L199.2 239.31l8.76 14.13z"/><path id="C" d="M438.37 228.02l-18.16 10.51 8.76 14.13-97.29 110.85 28.37 16.38 18.16-10.51 72.16-82.22 5.06 8.16 18.16-10.51 4.99-54.15-40.21-2.64z"/><path id="D" d="M455.43 295.32l4.99-54.15-40.21-2.64 8.76 14.13-97.29 110.85 28.37 16.38 86.62-98.7 8.76 14.13z"/><path id="E" d="M378.7,371.26a19.81,19.81,0,0,1,7.34-6.79c12-6.94,31.47-6.94,43.48,0a19.81,19.81,0,0,1,7.34,6.79h1.66v6.28h0c-.22,4.36-3.21,8.69-9,12-12,6.93-31.47,6.93-43.48,0-5.77-3.33-8.78-7.66-9-12h0v-6.28Z"/><path id="F" d="M429.52 358.71c12 6.93 12 18.17 0 25.1-10.51 6.06-26.72 6.82-38.65 2.27h0l-.48-.18a34.26 34.26 0 0 1-4.35-2.09c-10-5.78-11.67-14.55-5-21.33h0a23.36 23.36 0 0 1 5-3.77c12.01-6.93 31.47-6.93 43.48 0z"/><path id="G" d="M387.59 382.9c-11.16-6.44-11.16-16.89 0-23.33s29.25-6.44 40.41 0 11.16 16.89 0 23.33-29.25 6.44-40.41 0z"/><path id="H" d="M402.7,383.17c.65-4.89,22-18.43,22-18.43s4.74-1.9,3.17-5.22a26.57,26.57,0,0,1,2.29,1.48c.49.36.95.72,1.38,1.1,6.37,5.51,6.38,12.75,0,18.27-.43.37-.89.74-1.38,1.1a24.22,24.22,0,0,1-2.12,1.38c-.73.42-1.49.82-2.27,1.19-.62.29-1.27.57-1.93.83s-1.32.49-2,.72a42.12,42.12,0,0,1-6.38,1.53c-.47.08-.95.15-1.43.21a50.13,50.13,0,0,1-6.38.4,49.16,49.16,0,0,1-7.8-.64S403.32,386.39,402.7,383.17Z"/><path id="I" d="M422.85 362.54c8 4.61 8.3 11.95 1 16.78-.31.21-.64.41-1 .6-8.31 4.8-21.79 4.8-30.1 0s-8.32-12.58 0-17.38l1-.56c8.4-4.23 21.13-4.04 29.1.56z"/><path id="J" d="M422.18 362.93c7.94 4.58 7.94 12 0 16.61s-20.83 4.59-28.78 0-7.95-12 0-16.61 20.83-4.59 28.78 0z"/><path id="K" d="M422.18 366.2c-7.95-4.58-20.83-4.58-28.78 0-3.25 1.88-5.17 4.23-5.76 6.67.59 2.44 2.51 4.79 5.76 6.67 8 4.59 20.83 4.59 28.78 0 3.25-1.88 5.17-4.23 5.76-6.67-.59-2.44-2.51-4.79-5.76-6.67z"/><path id="L" d="M410.31 368.74h0c-1.07.27-2.08.61-3 .93a27.78 27.78 0 0 1-3.23 1h0a6 6 0 0 1-1.53.14 3.3 3.3 0 0 1-1.49-.44c-1-.58-1.14-1.43.31-2.38l.32-.2a8.5 8.5 0 0 1 .86-.42 5.87 5.87 0 0 1 4.52-.1l2.61-2.64a12.45 12.45 0 0 0-7.13-.26 15.3 15.3 0 0 0-2.27.79l-2.61-1.51-3.12 1.8 2.58 1.49c-2.62 2-2.67 4 .27 5.75a9.08 9.08 0 0 0 4.3 1.24h0a8.26 8.26 0 0 0 .86 0 16.89 16.89 0 0 0 4.61-1c3-1 5.41-2.18 7.42-1 1.35.78 1 1.76-.5 2.61a8.19 8.19 0 0 1-.72.37 6.69 6.69 0 0 1-5.19 0l-2.73 2.75a12.81 12.81 0 0 0 10.06-.44l2.57 1.49 3.12-1.8-2.58-1.49c2.59-2 2.89-4.18-.14-6h-.05a10.43 10.43 0 0 0-8.12-.68z"/><path id="M" d="M127.55,342.17a19.82,19.82,0,0,0-7.34-6.79c-12-6.93-31.47-6.93-43.47,0a19.82,19.82,0,0,0-7.34,6.79H67.74v6.28h0c.22,4.37,3.21,8.69,9,12,12,6.93,31.47,6.93,43.47,0,5.77-3.34,8.78-7.67,9-12h0v-6.28Z"/><path id="N" d="M76.74 329.62c-12 6.93-12 18.17 0 25.1 10.5 6.06 26.71 6.82 38.65 2.27h0l.47-.18a33 33 0 0 0 4.35-2.09c10-5.78 11.67-14.55 5-21.33h0a23.36 23.36 0 0 0-5-3.77c-12-6.93-31.47-6.93-43.47 0z"/><path id="O" d="M118.69 353.81c11.16-6.44 11.16-16.89 0-23.33s-29.25-6.44-40.41 0-11.16 16.89 0 23.33 29.25 6.44 40.41 0z"/><path id="P" d="M103.57,354.08c-.65-4.89-22-18.43-22-18.43s-4.74-1.9-3.16-5.22c-.82.48-1.59,1-2.29,1.48-.49.36-1,.73-1.39,1.1-6.36,5.51-6.37,12.75,0,18.27.43.38.9.74,1.39,1.1a24.22,24.22,0,0,0,2.12,1.38c.73.43,1.48.82,2.27,1.19.62.29,1.27.57,1.92.83s1.32.5,2,.72A40.84,40.84,0,0,0,90.78,358q.72.12,1.44.21A49.25,49.25,0,0,0,106.4,358S103,357.3,103.57,354.08Z"/><path id="Q" d="M83.42 333.45c-8 4.61-8.3 11.95-1 16.78.31.21.64.41 1 .61 8.31 4.8 21.78 4.8 30.1 0s8.31-12.58 0-17.38l-1-.57c-8.4-4.23-21.12-4.04-29.1.56z"/><path id="R" d="M84.1 333.84c-7.95 4.59-7.95 12 0 16.61s20.83 4.59 28.78 0 7.94-12 0-16.61-20.88-4.59-28.78 0z"/><path id="S" d="M84.1 337.12c7.94-4.59 20.83-4.59 28.78 0 3.24 1.87 5.16 4.22 5.76 6.66-.6 2.44-2.52 4.8-5.76 6.67-7.95 4.55-20.88 4.55-28.78 0-3.25-1.87-5.17-4.23-5.76-6.67.59-2.44 2.51-4.78 5.76-6.66z"/><path id="T" d="M101 339.66h0c-1.07.27-2.09.62-3 .93a27.78 27.78 0 0 1-3.23 1h0a5.66 5.66 0 0 1-1.54.14 3.26 3.26 0 0 1-1.48-.44c-1-.58-1.15-1.42.31-2.38l.32-.2a8.36 8.36 0 0 1 .85-.42 5.87 5.87 0 0 1 4.52-.1l2.61-2.64a12.45 12.45 0 0 0-7.13-.25 14.18 14.18 0 0 0-2.27.78l-2.61-1.51-3.11 1.8 2.58 1.49h0c-2.61 2-2.67 4.05.28 5.75a9 9 0 0 0 4.3 1.24h.86a17.27 17.27 0 0 0 4.62-1c3-1 5.41-2.18 7.42-1 1.35.78 1 1.76-.51 2.62l-.72.36a6.72 6.72 0 0 1-5.18 0l-2.74 2.74a12.8 12.8 0 0 0 10.06-.44l2.58 1.49 3.11-1.8-2.57-1.49c2.59-2 2.88-4.18-.14-5.95h0a10.43 10.43 0 0 0-8.19-.72z"/><path id="U" d="M87.76 337.89c-.22.2-2.09 1.94-1.26 3.69s3.62 3.06 5.84 3.3h0a9 9 0 0 1-4.3-1.24c-2.95-1.7-2.89-3.76-.28-5.75z"/><path id="V" d="M131.3 332.78A19.82 19.82 0 0 0 124 326c-12-6.93-31.47-6.93-43.47 0a19.82 19.82 0 0 0-7.34 6.79h-1.7v6.28h0c.22 4.37 3.21 8.7 9 12 12 6.93 31.47 6.93 43.47 0 5.77-3.33 8.78-7.66 9-12h0v-6.28z"/><path id="W" d="M80.49 320.23c-12 6.93-12 18.17 0 25.1 10.5 6.07 26.72 6.83 38.65 2.28h0l.48-.19a33.44 33.44 0 0 0 4.34-2.09c10-5.78 11.68-14.55 5-21.33h0a23.11 23.11 0 0 0-5-3.77c-11.96-6.93-31.47-6.93-43.47 0z"/><path id="X" d="M122.44 344.42c11.16-6.44 11.16-16.88 0-23.33s-29.25-6.44-40.41 0S70.87 338 82 344.42s29.28 6.45 40.44 0z"/><path id="Y" d="M107.32,344.69c-.65-4.89-22-18.43-22-18.43s-4.75-1.9-3.17-5.21a23.14,23.14,0,0,0-2.29,1.48c-.49.35-1,.72-1.39,1.09-6.36,5.52-6.37,12.76,0,18.27a17.07,17.07,0,0,0,1.38,1.1A24.22,24.22,0,0,0,82,344.37c.73.43,1.48.82,2.27,1.19.62.29,1.27.57,1.92.83s1.32.5,2,.72a40.69,40.69,0,0,0,6.38,1.53c.47.08.95.15,1.43.21a49.25,49.25,0,0,0,14.18-.24S106.71,347.91,107.32,344.69Z"/><path id="Z" d="M87.17 324.07c-8 4.6-8.3 11.95-1 16.78.31.2.64.4 1 .6 8.31 4.8 21.78 4.8 30.1 0s8.32-12.58 0-17.38l-1-.57c-8.4-4.23-21.12-4.04-29.1.57z"/><path id="a" d="M87.85 324.45c-7.95 4.59-7.95 12 0 16.62s20.83 4.58 28.78 0 7.94-12 0-16.62-20.83-4.59-28.78 0z"/><path id="b" d="M87.85 327.73c8-4.59 20.83-4.59 28.78 0 3.25 1.87 5.16 4.23 5.76 6.67-.6 2.44-2.51 4.79-5.76 6.67-7.95 4.58-20.83 4.58-28.78 0-3.25-1.88-5.17-4.23-5.76-6.67.59-2.4 2.51-4.8 5.76-6.67z"/><path id="c" d="M104.76 330.27h0c-1.07.27-2.09.62-3 .94a32.33 32.33 0 0 1-3.23 1h0a6.12 6.12 0 0 1-1.54.15 3.4 3.4 0 0 1-1.48-.45c-1-.58-1.15-1.42.31-2.38l.32-.19a6.79 6.79 0 0 1 .85-.43 5.87 5.87 0 0 1 4.52-.1l2.61-2.63a12.36 12.36 0 0 0-7.13-.26 14.53 14.53 0 0 0-2.27.78l-2.61-1.5L89 327l2.58 1.49h0c-2.62 2-2.68 4.06.27 5.76a9.15 9.15 0 0 0 4.3 1.23H97a16.89 16.89 0 0 0 4.62-1c3-1 5.41-2.17 7.42-1 1.35.78 1 1.75-.51 2.61a5.37 5.37 0 0 1-.72.36 6.67 6.67 0 0 1-5.18 0l-2.74 2.74a12.76 12.76 0 0 0 10.06-.44l2.58 1.49 3.11-1.8L113 337c2.59-2 2.88-4.19-.14-6h0a10.39 10.39 0 0 0-8.1-.73z"/><path id="d" d="M96.59 326a14.49 14.49 0 0 1 6.69.22l-1.8 2.57 2.6-2.63a12.34 12.34 0 0 0-7.49-.16z"/><path id="e" d="M107.76 336.45a6.66 6.66 0 0 1-5 .43l-3 2.35 2.74-2.74a6.67 6.67 0 0 0 5.26-.04z"/><path id="f" d="M98.49 332.21a4.07 4.07 0 0 1-3.73-.35c-.9-.78-.32-1.61 1-2.33-1.46 1-1.31 1.8-.31 2.38a3.4 3.4 0 0 0 1.48.45 6.12 6.12 0 0 0 1.56-.15z"/><path id="g" d="M126.59,326.65a19.85,19.85,0,0,0-7.35-6.79c-12-6.93-31.46-6.93-43.47,0a19.82,19.82,0,0,0-7.34,6.79H66.77v6.28h0c.22,4.37,3.21,8.7,9,12,12,6.93,31.47,6.93,43.47,0,5.78-3.33,8.79-7.66,9-12h0v-6.28Z"/><path id="h" d="M75.77 314.1c-12 6.94-12 18.17 0 25.1 10.5 6.07 26.72 6.83 38.65 2.28h0l.48-.19a31.62 31.62 0 0 0 4.34-2.09c10-5.78 11.68-14.55 5-21.32h0a23.52 23.52 0 0 0-5-3.77c-12-6.94-31.46-6.94-43.47-.01z"/><path id="i" d="M117.72 338.3c11.16-6.45 11.16-16.89 0-23.34s-29.25-6.44-40.41 0-11.16 16.89 0 23.34 29.25 6.44 40.41 0z"/><path id="j" d="M102.6,338.56c-.64-4.89-22-18.43-22-18.43s-4.74-1.9-3.17-5.21a24.38,24.38,0,0,0-2.29,1.48,17.07,17.07,0,0,0-1.38,1.1c-6.37,5.51-6.38,12.75,0,18.26q.65.57,1.38,1.11c.66.47,1.36.93,2.12,1.37s1.49.82,2.27,1.19c.62.3,1.27.57,1.93.83s1.32.5,2,.72a41.85,41.85,0,0,0,6.38,1.54l1.43.2a48.36,48.36,0,0,0,6.38.4,46.92,46.92,0,0,0,7.8-.64S102,341.78,102.6,338.56Z"/><path id="k" d="M82.46 317.94c-8 4.6-8.3 11.95-1 16.78.31.2.64.4 1 .6 8.31 4.8 21.79 4.8 30.1 0s8.32-12.58 0-17.38c-.33-.2-.69-.39-1-.56-8.4-4.23-21.13-4.05-29.1.56z"/><path id="l" d="M83.13 321.6c8-4.59 20.83-4.59 28.78 0 3.25 1.87 5.17 4.23 5.76 6.67-.59 2.44-2.51 4.79-5.76 6.67-8 4.58-20.83 4.58-28.78 0-3.25-1.88-5.17-4.23-5.76-6.67.63-2.44 2.51-4.8 5.76-6.67z"/><path id="m" d="M100 324.14h0c-1.07.27-2.09.62-3 .94a32.33 32.33 0 0 1-3.23 1h0a5.69 5.69 0 0 1-1.54.15 3.19 3.19 0 0 1-1.48-.45c-1-.57-1.14-1.42.31-2.38l.32-.19a7.55 7.55 0 0 1 .85-.43 5.9 5.9 0 0 1 4.53-.1l2.61-2.63a12.4 12.4 0 0 0-7.14-.26 15.53 15.53 0 0 0-2.26.78l-2.61-1.5-3.12 1.8 2.58 1.48h0c-2.62 2-2.67 4.05.27 5.75a9.18 9.18 0 0 0 4.3 1.23h0a8.22 8.22 0 0 0 .86 0 16.89 16.89 0 0 0 4.62-1c3-1 5.41-2.17 7.42-1 1.35.78 1 1.76-.5 2.61a5.49 5.49 0 0 1-.73.36 6.67 6.67 0 0 1-5.18 0l-2.74 2.74a12.83 12.83 0 0 0 10.07-.43l2.57 1.48 3.12-1.79-2.58-1.49c2.59-2 2.89-4.19-.14-6h0a10.43 10.43 0 0 0-8.18-.67z"/><path id="n" d="M71.73,318.62a19.82,19.82,0,0,1,7.34-6.79c12-6.93,31.47-6.93,43.47,0a19.82,19.82,0,0,1,7.34,6.79h1.67v6.28h0c-.22,4.37-3.21,8.7-9,12-12,6.93-31.47,6.93-43.47,0-5.77-3.33-8.78-7.66-9-12h0v-6.28Z"/><path id="o" d="M122.54 306.07c12 6.94 12 18.17 0 25.1-10.5 6.07-26.71 6.83-38.65 2.28h0l-.47-.19a33 33 0 0 1-4.35-2.09c-10-5.78-11.67-14.55-5-21.32h0a23.36 23.36 0 0 1 5-3.77c12-6.94 31.47-6.94 43.47-.01z"/><path id="p" d="M80.61 330.27c-11.16-6.45-11.16-16.89 0-23.34s29.25-6.44 40.41 0 11.16 16.89 0 23.33-29.25 6.45-40.41.01z"/><path id="q" d="M95.73 330.53c.65-4.89 22-18.43 22-18.43s4.74-1.9 3.17-5.21a23 23 0 0 1 2.28 1.48 15.65 15.65 0 0 1 1.39 1.1c6.37 5.51 6.37 12.75 0 18.26a17.25 17.25 0 0 1-1.39 1.1 22.81 22.81 0 0 1-2.12 1.38c-.72.43-1.48.82-2.26 1.19-.63.29-1.27.57-1.93.83s-1.32.5-2 .72a42.43 42.43 0 0 1-6.38 1.54l-1.44.2a48.21 48.21 0 0 1-6.37.4 47.12 47.12 0 0 1-7.81-.64s3.47-.7 2.86-3.92z"/><path id="r" d="M115.88 309.91c8 4.6 8.3 11.95 1 16.78-.31.2-.63.4-1 .6-8.32 4.8-21.79 4.8-30.11 0s-8.31-12.58 0-17.38q.51-.3 1-.57c8.41-4.22 21.14-4.04 29.11.57z"/><path id="s" d="M115.2 313.57c-7.94-4.59-20.83-4.59-28.77 0-3.25 1.87-5.17 4.23-5.76 6.67.59 2.44 2.51 4.79 5.76 6.67 7.94 4.58 20.83 4.58 28.77 0 3.25-1.88 5.17-4.23 5.76-6.67-.59-2.44-2.51-4.8-5.76-6.67z"/><path id="t" d="M103.34 316.11h0c-1.07.27-2.09.62-3 .94a33.23 33.23 0 0 1-3.24 1h0a5.69 5.69 0 0 1-1.54.15 3.27 3.27 0 0 1-1.48-.45c-1-.57-1.15-1.42.31-2.38l.32-.19a6.79 6.79 0 0 1 .85-.43 5.9 5.9 0 0 1 4.53-.1l2.6-2.63a12.36 12.36 0 0 0-7.13-.26 14.53 14.53 0 0 0-2.27.78L90.65 311l-3.11 1.8 2.58 1.48h0c-2.62 2-2.67 4.06.27 5.76a9.15 9.15 0 0 0 4.3 1.23h.86a16.89 16.89 0 0 0 4.62-1c3-1 5.41-2.17 7.42-1 1.35.78 1 1.75-.51 2.61a5.37 5.37 0 0 1-.72.36 6.67 6.67 0 0 1-5.18 0l-2.74 2.74a12.76 12.76 0 0 0 10.06-.44l2.58 1.49 3.11-1.8-2.57-1.48c2.59-2 2.89-4.19-.14-6h0a10.43 10.43 0 0 0-8.14-.64z"/><path id="u" d="M88.54,372.4a19.89,19.89,0,0,0-7.34-6.79c-12-6.93-31.47-6.93-43.47,0a19.85,19.85,0,0,0-7.35,6.79H28.72v6.28h0c.22,4.37,3.21,8.69,9,12,12,6.93,31.46,6.93,43.47,0,5.77-3.34,8.78-7.66,9-12h0V372.4Z"/><path id="v" d="M37.72 359.85c-12 6.93-12 18.17 0 25.1 10.51 6.07 26.72 6.82 38.65 2.28h0l.47-.19A33 33 0 0 0 81.2 385c10-5.78 11.67-14.55 5-21.33h0a23.36 23.36 0 0 0-5-3.77c-12.01-6.98-31.47-6.98-43.48-.05z"/><path id="w" d="M64.56 384.31c-.65-4.89-22-18.43-22-18.43s-4.74-1.9-3.17-5.21a24.87 24.87 0 0 0-2.28 1.47c-.5.36-1 .73-1.39 1.1-6.37 5.51-6.37 12.75 0 18.27.43.38.9.74 1.39 1.1A22.81 22.81 0 0 0 39.2 384c.72.43 1.48.82 2.26 1.19s1.27.57 1.93.83 1.32.5 2 .72a41 41 0 0 0 6.38 1.53l1.44.21a49.25 49.25 0 0 0 14.18-.24s-3.39-.71-2.83-3.93z"/><path id="x" d="M44.41 363.69c-8 4.6-8.3 11.95-1 16.77.31.21.63.41 1 .61 8.32 4.8 21.79 4.8 30.1 0s8.32-12.58 0-17.38q-.51-.3-1-.57c-8.4-4.23-21.13-4.04-29.1.57z"/><path id="y" d="M45.08 367.35c8-4.59 20.84-4.59 28.78 0 3.25 1.87 5.17 4.23 5.76 6.67-.59 2.43-2.51 4.79-5.76 6.66-7.94 4.59-20.83 4.59-28.78 0-3.24-1.87-5.16-4.23-5.76-6.67.6-2.43 2.52-4.79 5.76-6.66z"/><path id="z" d="M62 369.89h0c-1.07.27-2.08.62-3 .93a30.23 30.23 0 0 1-3.23 1h0a5.59 5.59 0 0 1-1.53.14 3.26 3.26 0 0 1-1.48-.44c-1-.58-1.15-1.42.31-2.38.09-.07.2-.13.31-.2a8.5 8.5 0 0 1 .86-.42 5.87 5.87 0 0 1 4.52-.1l2.61-2.63a12.37 12.37 0 0 0-7.13-.26 14.18 14.18 0 0 0-2.27.78l-2.61-1.5-3.11 1.79 2.58 1.49h0c-2.62 2-2.67 4.05.28 5.75a9 9 0 0 0 4.29 1.24h.87a17.19 17.19 0 0 0 4.61-1c3-1 5.41-2.18 7.43-1 1.34.77 1 1.75-.51 2.61a6 6 0 0 1-.72.36 6.7 6.7 0 0 1-5.19 0l-2.73 2.74a12.81 12.81 0 0 0 10.06-.44l2.58 1.49 3.11-1.8-2.58-1.48c2.59-2 2.89-4.19-.13-6h-.06a10.43 10.43 0 0 0-8.14-.67z"/><path id="AA" d="M32.77,362.6a19.74,19.74,0,0,1,7.34-6.79c12-6.93,31.47-6.93,43.47,0a19.74,19.74,0,0,1,7.34,6.79h1.66v6.28h0c-.22,4.36-3.21,8.69-9,12-12,6.94-31.47,6.94-43.47,0-5.77-3.33-8.78-7.66-9-12h0V362.6Z"/><path id="AB" d="M83.58 350.05c12 6.93 12 18.17 0 25.1-10.5 6.06-26.72 6.82-38.65 2.27h0l-.48-.18a34.79 34.79 0 0 1-4.34-2.09c-10-5.78-11.67-14.55-5-21.33h0a23.11 23.11 0 0 1 5-3.77c12-6.93 31.47-6.93 43.47 0z"/><path id="AC" d="M56.77,374.51c.65-4.89,22-18.43,22-18.43s4.74-1.9,3.16-5.22a23.8,23.8,0,0,1,2.29,1.48,17.72,17.72,0,0,1,1.39,1.1c6.36,5.51,6.37,12.75,0,18.27-.43.37-.9.74-1.39,1.1a22.81,22.81,0,0,1-2.12,1.38c-.72.42-1.48.82-2.26,1.19s-1.27.57-1.93.83-1.32.49-2,.72a42.41,42.41,0,0,1-6.38,1.53q-.72.12-1.44.21a50,50,0,0,1-6.38.4,49.35,49.35,0,0,1-7.8-.64S57.38,377.73,56.77,374.51Z"/><path id="AD" d="M76.92 353.88c8 4.61 8.3 11.95 1 16.78-.31.21-.63.41-1 .61-8.32 4.79-21.79 4.79-30.11 0s-8.31-12.59 0-17.39l1-.56c8.41-4.23 21.13-4.04 29.11.56z"/><path id="AE" d="M76.24 354.27c8 4.58 8 12 0 16.61s-20.83 4.59-28.77 0-7.95-12 0-16.61 20.83-4.59 28.77 0z"/><path id="AF" d="M76.24 357.54c-7.94-4.58-20.83-4.58-28.77 0-3.25 1.88-5.17 4.23-5.76 6.67.59 2.44 2.51 4.8 5.76 6.67 7.94 4.59 20.83 4.59 28.77 0 3.25-1.87 5.17-4.23 5.76-6.67-.59-2.44-2.51-4.79-5.76-6.67z"/><path id="AG" d="M64.38 360.08h0c-1.07.27-2.09.61-3 .93a27.78 27.78 0 0 1-3.23 1h0a5.66 5.66 0 0 1-1.54.14 3.26 3.26 0 0 1-1.48-.44c-1-.58-1.15-1.43.31-2.38l.32-.2a8.36 8.36 0 0 1 .85-.42 5.87 5.87 0 0 1 4.52-.1L63.7 356a12.45 12.45 0 0 0-7.13-.26 15.7 15.7 0 0 0-2.27.79L51.69 355l-3.11 1.8 2.58 1.49h0c-2.62 2-2.68 4.05.27 5.75a9 9 0 0 0 4.3 1.24h0a8.19 8.19 0 0 0 .86 0 16.88 16.88 0 0 0 4.62-1c3-1 5.41-2.18 7.42-1 1.35.78 1 1.76-.51 2.62-.23.13-.48.25-.72.36a6.67 6.67 0 0 1-5.18 0l-2.74 2.75a12.8 12.8 0 0 0 10.06-.44l2.58 1.49 3.11-1.8-2.57-1.49c2.59-2 2.88-4.18-.14-6h0a10.43 10.43 0 0 0-8.14-.69z"/><path id="AH" d="M58.11 362a4 4 0 0 1-3.73-.36c-.9-.77-.32-1.6 1-2.32-1.46.95-1.31 1.8-.31 2.38a3.26 3.26 0 0 0 1.48.44 5.66 5.66 0 0 0 1.56-.14z"/><path id="AI" d="M376.92,382.35a19.82,19.82,0,0,0-7.34-6.79c-12-6.93-31.47-6.93-43.47,0a19.82,19.82,0,0,0-7.34,6.79h-1.66v6.28h0c.22,4.37,3.21,8.69,9,12,12,6.93,31.47,6.93,43.47,0,5.77-3.34,8.78-7.66,9-12h0v-6.28Z"/><path id="AJ" d="M326.11 369.8c-12 6.93-12 18.17 0 25.1 10.5 6.07 26.72 6.82 38.65 2.28h0l.48-.19a33.44 33.44 0 0 0 4.34-2.09c10-5.78 11.67-14.55 5-21.33h0a23.11 23.11 0 0 0-5-3.77c-12-6.93-31.47-6.93-43.47 0z"/><path id="AK" d="M352.94,394.26c-.65-4.89-22-18.43-22-18.43s-4.74-1.9-3.16-5.21a25.07,25.07,0,0,0-2.29,1.47c-.49.36-.95.73-1.39,1.1-6.36,5.52-6.37,12.75,0,18.27.43.38.89.74,1.38,1.1a24.22,24.22,0,0,0,2.12,1.38c.73.43,1.48.82,2.27,1.19.62.29,1.27.57,1.92.83s1.32.5,2,.72a40.69,40.69,0,0,0,6.38,1.53c.47.08.95.15,1.43.21a49.25,49.25,0,0,0,14.18-.24S352.33,397.48,352.94,394.26Z"/><path id="AL" d="M332.79 373.64c-8 4.6-8.3 11.95-1 16.77.31.21.64.41 1 .61 8.31 4.8 21.78 4.8 30.1 0s8.31-12.58 0-17.38l-1-.57c-8.4-4.23-21.12-4.07-29.1.57z"/><path id="AM" d="M333.47 374c-8 4.59-8 12 0 16.61s20.83 4.59 28.78 0 7.94-12 0-16.61-20.83-4.57-28.78 0z"/><path id="AN" d="M333.47 377.3c7.95-4.59 20.83-4.59 28.78 0 3.25 1.87 5.16 4.23 5.76 6.67-.6 2.44-2.51 4.79-5.76 6.66-7.95 4.59-20.83 4.59-28.78 0-3.25-1.87-5.17-4.22-5.76-6.66.59-2.44 2.51-4.8 5.76-6.67z"/><path id="AO" d="M350.38 379.84h0c-1.07.27-2.09.62-3 .94a32.33 32.33 0 0 1-3.23 1h0a5.66 5.66 0 0 1-1.54.14 3.26 3.26 0 0 1-1.48-.44c-1-.58-1.15-1.42.31-2.38l.32-.2a8.36 8.36 0 0 1 .85-.42 5.87 5.87 0 0 1 4.52-.1l2.61-2.63a12.37 12.37 0 0 0-7.13-.26 14.18 14.18 0 0 0-2.27.78l-2.61-1.5-3.11 1.79 2.58 1.49h0c-2.62 2-2.68 4.05.27 5.75a9 9 0 0 0 4.3 1.24h.86a17.27 17.27 0 0 0 4.62-1c3-1 5.41-2.18 7.42-1 1.35.77 1 1.75-.51 2.61a6 6 0 0 1-.72.36 6.67 6.67 0 0 1-5.18 0l-2.74 2.74a12.76 12.76 0 0 0 10.06-.44l2.58 1.49 3.11-1.8-2.57-1.48c2.59-2 2.88-4.19-.14-6h-.05a10.39 10.39 0 0 0-8.13-.68z"/><path id="AP" d="M371.1,373a19.82,19.82,0,0,0-7.34-6.79c-12-6.93-31.47-6.93-43.47,0A19.82,19.82,0,0,0,313,373h-1.66v6.28h0c.22,4.37,3.21,8.7,9,12,12,6.93,31.47,6.93,43.47,0,5.77-3.33,8.78-7.66,9-12h0V373Z"/><path id="AQ" d="M320.29 360.46c-12 6.93-12 18.17 0 25.1 10.5 6.07 26.72 6.83 38.65 2.28h0l.48-.19a33.44 33.44 0 0 0 4.34-2.09c10-5.78 11.68-14.55 5-21.33h0a23.44 23.44 0 0 0-5-3.77c-12-6.93-31.47-6.93-43.47 0z"/><path id="AR" d="M347.12 384.92c-.65-4.89-22-18.43-22-18.43s-4.75-1.9-3.17-5.21a25.07 25.07 0 0 0-2.29 1.47c-.49.36-.95.73-1.39 1.1-6.36 5.52-6.37 12.75 0 18.27a17.07 17.07 0 0 0 1.38 1.1 24.22 24.22 0 0 0 2.12 1.38 28.69 28.69 0 0 0 2.27 1.19c.62.29 1.27.57 1.92.83s1.33.5 2 .72a40.69 40.69 0 0 0 6.38 1.53c.47.08 1 .15 1.43.21a49.25 49.25 0 0 0 14.18-.24s-3.44-.7-2.83-3.92z"/><path id="AS" d="M327 364.3c-8 4.6-8.3 11.95-1 16.78.31.2.64.4 1 .6 8.31 4.8 21.78 4.8 30.1 0s8.32-12.58 0-17.38l-1-.57c-8.43-4.23-21.1-4.04-29.1.57z"/><path id="AT" d="M327.65 364.68c-7.95 4.59-7.95 12 0 16.61s20.83 4.59 28.78 0 7.94-12 0-16.61-20.83-4.59-28.78 0z"/><path id="AU" d="M327.65 368c8-4.59 20.83-4.59 28.78 0 3.25 1.87 5.16 4.23 5.76 6.67-.6 2.44-2.51 4.79-5.76 6.66-7.95 4.59-20.83 4.59-28.78 0-3.25-1.87-5.17-4.22-5.76-6.66.59-2.48 2.51-4.84 5.76-6.67z"/><path id="AV" d="M344.56 370.5h0c-1.07.27-2.09.62-3 .94a33.23 33.23 0 0 1-3.24 1h0a6.12 6.12 0 0 1-1.54.15 3.4 3.4 0 0 1-1.48-.45c-1-.58-1.15-1.42.31-2.38l.32-.19a6.79 6.79 0 0 1 .85-.43 5.9 5.9 0 0 1 4.53-.1l2.6-2.63a12.36 12.36 0 0 0-7.13-.26 14.53 14.53 0 0 0-2.27.78l-2.61-1.5-3.11 1.79 2.58 1.49h0c-2.62 2-2.67 4.06.27 5.76a9.15 9.15 0 0 0 4.3 1.23h.86a16.89 16.89 0 0 0 4.62-1c3-1 5.41-2.18 7.42-1 1.35.78 1 1.75-.51 2.61a5.37 5.37 0 0 1-.72.36 6.67 6.67 0 0 1-5.18 0l-2.74 2.74a12.76 12.76 0 0 0 10.01-.41l2.58 1.49 3.11-1.8-2.57-1.48c2.59-2 2.89-4.19-.14-6h-.05a10.39 10.39 0 0 0-8.07-.71z"/><path id="AW" d="M320.18,365.13a19.82,19.82,0,0,1,7.34-6.79c12-6.93,31.47-6.93,43.47,0a19.82,19.82,0,0,1,7.34,6.79H380v6.28h0c-.22,4.36-3.21,8.69-9,12-12,6.93-31.47,6.93-43.47,0-5.77-3.34-8.78-7.67-9-12h0v-6.28Z"/><path id="AX" d="M371 352.58c12 6.93 12 18.17 0 25.1-10.5 6.06-26.72 6.82-38.65 2.27h0l-.48-.18a34.79 34.79 0 0 1-4.34-2.09c-10-5.78-11.68-14.55-5-21.33h0a23.11 23.11 0 0 1 5-3.77c11.99-6.93 31.47-6.93 43.47 0z"/><path id="AY" d="M344.18,377c.65-4.89,22-18.43,22-18.43s4.74-1.9,3.16-5.22a25.88,25.88,0,0,1,2.29,1.48c.49.36,1,.72,1.39,1.1,6.36,5.51,6.37,12.75,0,18.27-.43.38-.9.74-1.39,1.1a24.22,24.22,0,0,1-2.12,1.38c-.72.43-1.48.82-2.26,1.19-.63.29-1.28.57-1.93.83s-1.32.5-2,.72A40.84,40.84,0,0,1,357,381l-1.44.21a50,50,0,0,1-6.38.4,49.35,49.35,0,0,1-7.8-.64S344.79,380.26,344.18,377Z"/><path id="AZ" d="M364.33 356.41c8 4.61 8.3 11.95 1 16.78-.31.21-.63.41-1 .61-8.32 4.8-21.79 4.8-30.11 0s-8.31-12.59 0-17.39l1-.56c8.41-4.23 21.13-4.04 29.11.56z"/><path id="Aa" d="M363.65 360.07c-7.94-4.58-20.83-4.58-28.77 0-3.25 1.88-5.17 4.23-5.76 6.67.59 2.44 2.51 4.8 5.76 6.67 7.94 4.59 20.83 4.59 28.77 0 3.25-1.87 5.17-4.23 5.76-6.67-.59-2.44-2.51-4.74-5.76-6.67z"/><path id="Ab" d="M351.79 362.61h0c-1.07.27-2.09.61-3 .93a27.78 27.78 0 0 1-3.23 1h0a5.66 5.66 0 0 1-1.54.14 3.26 3.26 0 0 1-1.48-.44c-1-.58-1.15-1.43.31-2.38l.32-.2a8.36 8.36 0 0 1 .85-.42 5.87 5.87 0 0 1 4.52-.1l2.61-2.64a12.45 12.45 0 0 0-7.13-.25 14.18 14.18 0 0 0-2.27.78l-2.61-1.51-3.11 1.8 2.58 1.49h0c-2.61 2-2.67 4 .28 5.75a9 9 0 0 0 4.3 1.24h0 .86a17.27 17.27 0 0 0 4.62-1c3-1 5.41-2.18 7.42-1 1.35.78 1 1.76-.51 2.62l-.72.36a6.67 6.67 0 0 1-5.18 0l-2.74 2.75a12.8 12.8 0 0 0 10.06-.44l2.58 1.49 3.11-1.8-2.57-1.49c2.59-2 2.88-4.18-.14-5.95h-.05a10.48 10.48 0 0 0-8.14-.73z"/><path id="Ac" d="M368,289.92a19.82,19.82,0,0,0-7.34-6.79c-12-6.93-31.47-6.93-43.47,0a19.85,19.85,0,0,0-7.35,6.79h-1.66v6.28h0c.22,4.37,3.2,8.7,9,12,12,6.93,31.46,6.93,43.47,0,5.77-3.33,8.78-7.66,9-12h0v-6.28Z"/><path id="Ad" d="M317.15 277.37c-12 6.94-12 18.17 0 25.1 10.5 6.07 26.71 6.83 38.65 2.28h0l.47-.19a33 33 0 0 0 4.35-2.09c10-5.78 11.67-14.55 5-21.32h0a23.34 23.34 0 0 0-5-3.76c-12-6.95-31.47-6.95-43.47-.02z"/><path id="Ae" d="M359.1 301.57c11.16-6.45 11.16-16.89 0-23.34s-29.25-6.44-40.41 0-11.16 16.89 0 23.34 29.25 6.43 40.41 0z"/><path id="Af" d="M344,301.83c-.65-4.89-22-18.43-22-18.43s-4.74-1.9-3.16-5.21a22,22,0,0,0-2.29,1.48,17.25,17.25,0,0,0-1.39,1.1c-6.36,5.51-6.37,12.75,0,18.26.43.38.9.75,1.39,1.11.66.47,1.36.93,2.12,1.37s1.48.82,2.26,1.19,1.28.57,1.93.83,1.32.5,2,.72a42.43,42.43,0,0,0,6.38,1.54l1.44.2a48.26,48.26,0,0,0,6.38.4,47.09,47.09,0,0,0,7.8-.64S343.37,305.05,344,301.83Z"/><path id="Ag" d="M323.83 281.21c-8 4.6-8.3 12-1 16.78.31.2.63.4 1 .6 8.32 4.8 21.79 4.8 30.11 0s8.31-12.58 0-17.38a13.16 13.16 0 0 0-1.05-.56c-8.36-4.23-21.08-4.05-29.06.56z"/><path id="Ah" d="M324.51 284.87c7.94-4.59 20.83-4.59 28.77 0 3.25 1.87 5.17 4.23 5.76 6.67-.59 2.44-2.51 4.79-5.76 6.67-7.94 4.58-20.83 4.58-28.77 0-3.25-1.88-5.17-4.23-5.76-6.67.59-2.44 2.51-4.8 5.76-6.67z"/><path id="Ai" d="M341.42 287.41h0c-1.06.27-2.08.62-3 .94a32.33 32.33 0 0 1-3.23 1h0a5.73 5.73 0 0 1-1.54.15 3.16 3.16 0 0 1-1.48-.45c-1-.57-1.15-1.42.31-2.38l.32-.19a6.16 6.16 0 0 1 .85-.43 5.87 5.87 0 0 1 4.52-.1l2.61-2.63a12.37 12.37 0 0 0-7.13-.26 15.24 15.24 0 0 0-2.27.78l-2.61-1.5-3.11 1.8 2.58 1.48h0c-2.61 2-2.67 4.05.28 5.75a9.15 9.15 0 0 0 4.3 1.23h0a8.22 8.22 0 0 0 .86 0 16.89 16.89 0 0 0 4.62-1c3-1 5.4-2.17 7.42-1 1.35.78 1 1.76-.51 2.61a6 6 0 0 1-.72.36 6.7 6.7 0 0 1-5.19 0l-2.73 2.74a12.8 12.8 0 0 0 10.06-.43l2.58 1.48 3.11-1.79-2.58-1.49c2.59-2 2.89-4.19-.13-6h-.05a10.44 10.44 0 0 0-8.14-.67z"/><path id="Aj" d="M305.53,280.12a19.85,19.85,0,0,1,7.35-6.79c12-6.93,31.46-6.93,43.47,0a19.82,19.82,0,0,1,7.34,6.79h1.66v6.28h0c-.22,4.37-3.21,8.69-9,12-12,6.93-31.47,6.93-43.47,0-5.78-3.34-8.79-7.66-9-12h0v-6.28Z"/><path id="Ak" d="M356.35 267.57c12 6.93 12 18.17 0 25.1-10.5 6.06-26.72 6.82-38.65 2.28h0l-.48-.18a32.82 32.82 0 0 1-4.34-2.09c-10-5.78-11.68-14.55-5-21.33h0a23.19 23.19 0 0 1 5-3.77c12-6.94 31.46-6.94 43.47-.01z"/><path id="Al" d="M329.54,292c.65-4.89,22-18.43,22-18.43s4.75-1.9,3.17-5.21a25.07,25.07,0,0,1,2.29,1.47c.49.36,1,.73,1.39,1.1,6.36,5.51,6.37,12.75,0,18.27-.43.38-.89.74-1.38,1.1a24.22,24.22,0,0,1-2.12,1.38c-.73.43-1.48.82-2.27,1.19-.62.29-1.27.57-1.92.83s-1.32.5-2,.72a40.69,40.69,0,0,1-6.38,1.53c-.47.08-.95.15-1.43.21a49.25,49.25,0,0,1-14.18-.24S330.15,295.25,329.54,292Z"/><path id="Am" d="M349.69 271.41c8 4.6 8.3 11.95 1 16.77-.31.21-.64.41-1 .61-8.31 4.8-21.78 4.8-30.1 0s-8.32-12.58 0-17.38l1-.57c8.41-4.23 21.12-4.04 29.1.57z"/><path id="An" d="M349 275.07c-7.95-4.59-20.83-4.59-28.78 0-3.25 1.87-5.16 4.23-5.76 6.66.6 2.44 2.51 4.8 5.76 6.67 7.95 4.59 20.83 4.59 28.78 0 3.25-1.87 5.17-4.23 5.76-6.67-.58-2.43-2.5-4.79-5.76-6.66z"/><path id="Ao" d="M337.15 277.61h0c-1.07.27-2.08.62-3 .93a30.23 30.23 0 0 1-3.23 1h0a5.59 5.59 0 0 1-1.53.14 3.26 3.26 0 0 1-1.48-.44c-1-.58-1.15-1.42.31-2.38l.32-.2a7.44 7.44 0 0 1 .85-.42 5.87 5.87 0 0 1 4.52-.1l2.61-2.63a12.37 12.37 0 0 0-7.13-.26 14.18 14.18 0 0 0-2.27.78l-2.61-1.5-3.11 1.79 2.58 1.49h0c-2.61 2-2.67 4.05.28 5.75a9 9 0 0 0 4.3 1.24h.86a17.27 17.27 0 0 0 4.62-1c3-1 5.4-2.18 7.42-1 1.35.77 1 1.75-.51 2.61a6 6 0 0 1-.72.36 6.74 6.74 0 0 1-5.19 0l-2.73 2.74a12.8 12.8 0 0 0 10.06-.44l2.58 1.49 3.11-1.8-2.58-1.49c2.59-2 2.89-4.18-.13-5.95h0a10.43 10.43 0 0 0-8.2-.71z"/><path id="Ap" d="M100.71 183.41l-16.78 9.68 7.23 14.19a1.05 1.05 0 0 0 .42.44l7 4a1.06 1.06 0 0 0 1.53-.6l7.6-23.71z"/><path id="Aq" d="M212.95 199.28l18.16-10.5-40.2-2.65-18.16 10.51 40.2 2.64z"/><path id="Ar" d="M460.42 241.17l18.16-10.51-40.21-2.64-18.16 10.51 40.21 2.64z"/><path id="As" d="M113.02 337l1.97 1.51-2.51 1.77 3.11-1.8-2.57-1.48z"/><path id="At" d="M322.1 362l.78-5.88.77 5.88 10.19.45-10.19.45-.77 5.88-.78-5.88-10.18-.45 10.18-.45z"/><path id="Au" d="M115.69 158.84l-3.27-1.88-9.48 5.47 3.27 1.89 9.48-5.48z"/><path id="Av" d="M88.43 189.45v-22.89l-3.27-1.88v22.89l3.27 1.88z"/><path id="Aw" d="M88.43 189.45l9.48-5.47v-22.89l-9.48 5.47v22.89z"/><path id="Ax" d="M97.91 161.09l-3.26-1.88-9.49 5.47 3.27 1.88 9.48-5.47z"/><path id="Ay" d="M123.99 168.92v-34.96l-3.27-1.89v34.97l3.27 1.88z"/><path id="Az" d="M133.47 128.49l-3.27-1.89-9.48 5.47 3.27 1.89 9.48-5.47z"/><path id="BA" d="M70.65 199.72v-8.83l-3.27-1.88v8.82l3.27 1.89z"/><path id="BB" d="M70.65 199.72l9.48-5.48.01-8.82-9.49 5.47v8.83z"/><path id="BC" d="M80.14 185.42l-3.27-1.89-9.49 5.48 3.27 1.88 9.49-5.47z"/></defs></svg>