<svg xmlns="http://www.w3.org/2000/svg" viewBox="0 0 500 500" xmlns:v="https://vecta.io/nano"><style><![CDATA[.B{fill:#263238}.C{fill:#e0e0e0}.D{fill:#455a64}.E{fill:#ebebeb}.F{fill:#eb996e}.G{fill:#ffbe9d}.H{fill:#f5f5f5}.I{fill:#1e40af}]]></style><path d="M41.15 88.84h173.59v155.3H41.15z" fill="#fafafa"/><path d="M214.74 244.14v-2.88-8.32l-.1-31.52-.2-112.58.39.39-173.66.07h0l.46-.46v155.3l-.41-.4 125.55.2 35.42.11h9.37 2.42.83-.79-2.37l-9.29.05-35.32.11-125.82.2h-.41V244l-.05-155.3v-.46h.48l173.57.07h.4v.39l-.2 112.82-.1 31.44v8.25c0 1.89-.17 2.93-.17 2.93zM107.71 116.43c0 .26-9.14.47-20.4.47s-20.41-.21-20.41-.47S76 116 87.31 116s20.4.18 20.4.43zm73.55 11.67c0 .25-25.1.46-56 .46s-56.07-.21-56.07-.46 25.1-.47 56.07-.47l56 .47zM67.2 147.85h7.31v7.31H67.2zm18 0h7.31v7.31H85.2zm18.33-.33h7.31v7.31h-7.31zm17.67.33h7.31v7.31h-7.31zm18.01 0h7.31v7.31h-7.31zm18 0h7.31v7.31h-7.31z" class="C"/><path d="M175.21 147.85h7.31v7.31h-7.31zM67.2 163.4h7.31v7.31H67.2z" class="E"/><path d="M85.2 163.4h7.31v7.31H85.2z" class="C"/><path d="M103.2 163.4h7.31v7.31h-7.31z" class="E"/><path d="M121.2 163.4h7.31v7.31h-7.31zm18.01 0h7.31v7.31h-7.31zm18.33-.34h7.31v7.31h-7.31zm17.67.34h7.31v7.31h-7.31zM67.2 178.94h7.31v7.31H67.2zm18.33-.33h7.31v7.31h-7.31zm17.67.33h7.31v7.31h-7.31z" class="C"/><path d="M121.2 178.94h7.31v7.31h-7.31z" class="E"/><path d="M139.21 178.94h7.31v7.31h-7.31zm18 0h7.31v7.31h-7.31zm18 0h7.31v7.31h-7.31zM67.2 194.49h7.31v7.31H67.2zm18 0h7.31v7.31H85.2zm18 0h7.31v7.31h-7.31zm18.34-.33h7.31v7.31h-7.31zm17.67.33h7.31v7.31h-7.31z" class="C"/><path d="M157.21 194.49h7.31v7.31h-7.31z" class="E"/><path d="M175.21 194.49h7.31v7.31h-7.31zM67.2 210.04h7.31v7.31H67.2z" class="C"/><path d="M85.2 210.04h7.31v7.31H85.2z" class="E"/><path d="M103.2 210.04h7.31v7.31h-7.31zm18 0h7.31v7.31h-7.31zm18.01 0h7.31v7.31h-7.31zm18.33-.33h7.31v7.31h-7.31zm17.67.33h7.31v7.31h-7.31zM399.605 51.926l11.16-.06.3 55.509-11.16.06z" class="C"/><path d="M302.958 52.17l28.89-.156.166 30.64-28.89.156z" class="E"/><path d="M331.716 52.004l28.89-.156.166 30.64-28.89.156z" class="H"/><path d="M303,60.65q28.8.24,57.64-.27a.31.31,0,0,0,0-.61c-19.19-.11-38.44,0-57.63.35a.27.27,0,0,0,0,.53Z" class="C"/><path d="M284.961 82.427l52.489-.284.135 24.97-52.489.284z" class="E"/><path d="M337.199 82.144l52.489-.284.135 24.97-52.489.284z" class="H"/><g class="C"><path d="M285 89.39c34.87.4 69.86 0 104.72-.52a.31.31 0 0 0 0-.61c-34.87-.18-69.86-.16-104.72.6a.27.27 0 0 0 0 .53zm-19.64 18.03h203.35v8.95H265.36z"/><path d="M298.65 111.72h8.25v30.53h-8.25zm123.23 0h8.26v30.53h-8.26z"/></g><path d="M410.493 31.227l11.16-.06.413 76.339-11.16.06z" class="E"/><path d="M421.964 43.531l17.33-.173.619 61.87-17.33.173z" class="H"/><path d="M439 57.32a64 64 0 0 1-8.67.3 63.88 63.88 0 0 1-8.66-.3c0-.17 3.88-.3 8.66-.3l8.67.3zm0-2.6a64 64 0 0 1-8.67.3 63.88 63.88 0 0 1-8.66-.3c0-.17 3.88-.3 8.66-.3l8.67.3zM439 98a125.29 125.29 0 0 1-17.33 0c0-.17 3.88-.3 8.66-.3l8.67.3zm0-2.64a125.29 125.29 0 0 1-17.33 0c0-.17 3.88-.3 8.66-.3l8.67.3zm-8.43-5.67c-.16 0-.3-6.24-.3-13.94s.14-13.94.3-13.94.3 6.24.3 13.94-.13 13.94-.3 13.94z" class="C"/><path d="M439.15 60.59h18.87v46.7h-18.87z" class="E"/><path d="M419.11 44.22a3.21 3.21 0 1 1-3.2-3.21 3.21 3.21 0 0 1 3.2 3.21zm-4.2 8.82h1.98v45.42h-1.98z" class="C"/><path d="M74.26 342.83c5.24-2.7 11.4-3.05 17.21-2.09 3.12.52 6.37 1.45 8.5 3.8s2.52 6.47.08 8.48c-1.45 1.2-3.47 1.38-5.35 1.36-4.55-.05-9.6-.85-13.23 1.88-2.08 1.57-3.46 4.16-5.93 4.93s-5.17-.68-6.45-2.87a10 10 0 0 1-.73-7.39 11.28 11.28 0 0 1 5.9-8.1zm-11.99-23.14c3.2 4.57 9.42 3.05 12.31.27s4.1-6.84 5.21-10.69c2.53-8.81 5.09-18 3.2-27a14.93 14.93 0 0 0-3.45-7.34 7.84 7.84 0 0 0-7.43-2.48c-3.14.83-5.08 3.9-6.49 6.83a64.33 64.33 0 0 0-6.37 27.64c0 4.45.51 9.12 3 12.8m-8.77 6.53c3.48-4.13 4.14-10.14 2.59-15.31s-5-9.56-9.06-13.15a48.81 48.81 0 0 0-16.23-9.57 17.2 17.2 0 0 0-7.3-1.24 7.66 7.66 0 0 0-6.13 3.7c-1.71 3.26-.07 7.21 1.7 10.44a123.66 123.66 0 0 0 10.66 16.23c3.2 4.12 6.86 8.18 11.73 10S51.37 329 54 325.66" class="I"/><g class="B"><path d="M62.06 388.63a10.36 10.36 0 0 0 .29-2.07l.55-5.67a81.17 81.17 0 0 1 1.27-8.32 65.1 65.1 0 0 1 3-9.81 36.33 36.33 0 0 1 5-8.88 18.63 18.63 0 0 1 6.34-5.26 17.67 17.67 0 0 1 5.36-1.62 10.14 10.14 0 0 0 2.07-.3 9.45 9.45 0 0 0-2.1 0 16.31 16.31 0 0 0-5.57 1.44 18.74 18.74 0 0 0-6.68 5.31 35.56 35.56 0 0 0-5.19 9.06 60 60 0 0 0-3 10 70.8 70.8 0 0 0-1.11 8.42l-.28 5.71a9.23 9.23 0 0 0 .05 1.99z"/><path d="M62.45 384.27a4.45 4.45 0 0 0 0-1v-2.76l.12-10.12c.21-8.55 1-17.75 2.37-30.72 1.34-12.19 3.15-26.39 5.06-35.61.4-2.1.82-4 1.2-5.64l1-4.25c.31-1.16.48-2 .65-2.67a4 4 0 0 0 .17-1 3.58 3.58 0 0 0-.34.9l-.8 2.64c-.33 1.07-.72 2.56-1.13 4.22l-1.34 5.62a315.74 315.74 0 0 0-5.32 33c-1.42 13-2.06 24.83-2.12 33.39l.15 10.15.17 2.75a4.1 4.1 0 0 0 .16 1.1z"/><path d="M62.5 361.45a18.15 18.15 0 0 0 0-2.88 78.38 78.38 0 0 0-.88-7.8 102.25 102.25 0 0 0-2.53-11.36A92.88 92.88 0 0 0 54.31 326a71.64 71.64 0 0 0-14-21.73 36.68 36.68 0 0 0-3.28-3.05l-1.41-1.18-1.27-.88a18 18 0 0 0-2.35-1.59c-.14.18 3.43 2.29 7.94 7.08a75.57 75.57 0 0 1 13.59 21.65 107.1 107.1 0 0 1 4.78 13.32c1.24 4.18 2.07 8 2.69 11.25s.94 5.89 1.15 7.73a20.42 20.42 0 0 0 .35 2.85zm-22.05 40.26l2.28 31.33h40.25l2.29-31.33H40.45z"/><path d="M36.56 389.36h53.51v12.35H36.56z"/></g><g class="D"><path d="M36.56 431.84v3.42h2.51 50.12v-3.42H36.56z"/><path d="M41.54 441.29l-2.47-6.03h48.2l-2.88 6.03H41.54z"/></g><path d="M84.52 412a1.22 1.22 0 0 1-.19.28l-.6.8-2.34 3-.11.14-.1-.14-5.76-8h.33l-5.67 8-.18.25-.2-.23-6.72-8h.39l-.37.46-6 7.54-.2.25-.18-.26-5.68-8h.33l-7 8-.12.14-.09-.16-2.19-3.67-.56-1a1.41 1.41 0 0 1-.18-.35 3.9 3.9 0 0 0 .24.31l.62.94 2.3 3.61h-.22l6.87-8.06.18-.2.15.22 5.73 8h-.4l6-7.55.37-.46.2-.24.19.23 6.71 8h-.38l5.73-8 .17-.23.16.23 5.64 8.06h-.2l2.44-2.91.65-.76q.23-.31.24-.24z" class="C"/><path d="M85.83 401.5c0 .14-10.09.25-22.52.25s-22.53-.11-22.53-.25 10.08-.25 22.53-.25l22.52.25z" class="D"/><path d="M87.86 435.6c0 .14-11 .25-24.48.25s-24.48-.11-24.48-.25 11-.25 24.48-.25l24.48.25z" class="B"/><path d="M363.1 309.11h93.53a15.13 15.13 0 0 1 15.13 15.13v117.62a0 0 0 0 1 0 0H348a0 0 0 0 1 0 0V324.24a15.13 15.13 0 0 1 15.1-15.13z" class="D"/><path d="M461.34 309.79c.15 0 .26 29.55.26 66l-.26 66c-.15 0-.26-29.55-.26-66l.26-66zM400.36 165a105.06 105.06 0 0 1 18.82 55.34c.58 13.3-1.21 27.47 5.1 39.19 9.06 16.82 28.65 16.25 34.65 34.38 2.61 7.89-2.2 25.24-3.5 33.45-1.47 9.32 4.23 17.15 2.76 26.48-1.35 8.55-7.75 14.65-15.43 18.63-6.84 3.54-13.16 3.64-20.27.69-13.56-5.61-24.84-11.53-34.49-22.57-13.56-15.5-17.66-37-20-57.43a503.87 503.87 0 0 1 3.07-135.75" class="B"/><path d="M429.35 375.07a3.59 3.59 0 0 1 .43-.11l1.29-.31a22 22 0 0 0 10.86-6.83 12.81 12.81 0 0 0 2.42-4.29 23.54 23.54 0 0 0 .85-5.49 54.09 54.09 0 0 0-1.3-12.74c-.87-4.54-2-9.38-2.34-14.63a30.3 30.3 0 0 1 .57-8 51.29 51.29 0 0 1 2.54-8 85.74 85.74 0 0 0 2.86-8.13 20.74 20.74 0 0 0 .7-8.7 19.67 19.67 0 0 0-3.25-8.08 37.08 37.08 0 0 0-5.67-6.42c-4.13-3.86-8.6-7-12.42-10.62a70.35 70.35 0 0 1-16.18-22.34 68.47 68.47 0 0 1-3.72-10c-.48-1.49-.76-2.93-1.1-4.23s-.49-2.52-.71-3.6c-.31-2.19-.55-3.88-.61-5 0-.56-.08-1-.1-1.32s0-.45 0-.45 0 .15.07.45.09.75.16 1.31c.09 1.15.36 2.84.7 5l.75 3.59c.27 1.31.64 2.71 1.14 4.2a69.73 69.73 0 0 0 3.77 9.9 70.68 70.68 0 0 0 16.17 22.14c3.8 3.54 8.28 6.71 12.45 10.59a37.85 37.85 0 0 1 5.75 6.51 20.16 20.16 0 0 1 3.33 8.3 21.2 21.2 0 0 1-.71 8.91c-.78 2.84-1.87 5.53-2.88 8.17a52.13 52.13 0 0 0-2.54 7.9 29.77 29.77 0 0 0-.57 7.89c.27 5.18 1.43 10 2.29 14.57a54.48 54.48 0 0 1 1.24 12.84 24.56 24.56 0 0 1-.9 5.58 13.53 13.53 0 0 1-2.51 4.37 20.72 20.72 0 0 1-6.32 4.95 20.24 20.24 0 0 1-4.75 1.8 11.69 11.69 0 0 1-1.76.32z" class="D"/><path d="M243.16 410.8l48-22.79s18.69-90.75 22.23-97.56 18.3-12.7 18.3-12.7l-2.47 122.88-4.4 28.37-67.68 6.41z" class="I"/><g class="G"><path d="M202.21,432.3c-.27,0-1.6.82-.49,2.93s9.25,9.08,11.64,6.65-1.26-5.39-1.26-5.39Z"/><path d="M212.44,436.58s9.82,1.24,13.59,2.68c4.11,1.56,9.11.49,12.47-1.78a35.49,35.49,0,0,0,5.32-4.34l12.52-.2a15,15,0,0,0,2.44-15.51,16.83,16.83,0,0,0-2.86-4.89c-1.49-1.61-3.84-2.91-7.9-3.61l-14.87,3.21s-23-1.65-27.14.29c0,0-5.15,3.05-6.74,4.33-.6.49-2.43,6.35,1.32,9.4,0,0-3.26,2.59-1.49,4.92l.84,1s-2.19,2.84-1.06,4.08,11,7,14.51,5.64.61-4.65-.95-5.25"/></g><g class="F"><path d="M203.06 421.09a10.83 10.83 0 0 1 1.22.44l3.32 1.16 2.33.68 2.71.72a5.79 5.79 0 0 1 2.7 1.63 3.31 3.31 0 0 1 .72 3.29 2.58 2.58 0 0 1-1.21 1.31 4.7 4.7 0 0 1-1.64.46 13.87 13.87 0 0 1-3.13-.17 28 28 0 0 1-5.08-1.32l-3.29-1.3a6.53 6.53 0 0 1-1.17-.56 10.54 10.54 0 0 1 1.23.41l3.32 1.17a30 30 0 0 0 5 1.23 13.82 13.82 0 0 0 3 .14 4.19 4.19 0 0 0 1.49-.42 2.16 2.16 0 0 0 1-1.1A2.93 2.93 0 0 0 215 426a5.47 5.47 0 0 0-2.51-1.53c-.92-.31-1.84-.51-2.68-.75l-2.33-.73-3.29-1.29a6.83 6.83 0 0 1-1.13-.61z"/><path d="M203.94 414a8.43 8.43 0 0 1 1.21.44l3.3 1.19 5 1.43a6.9 6.9 0 0 1 2.91 1.18 2.43 2.43 0 0 1 .85 1.51 3.11 3.11 0 0 1-.25 1.75 4.19 4.19 0 0 1-2.57 2.18 6.75 6.75 0 0 1-3.13.25 30.08 30.08 0 0 1-5-1.46l-3.31-1.16a9.24 9.24 0 0 1-1.2-.47 7.63 7.63 0 0 1 1.25.32l3.35 1a34 34 0 0 0 5 1.36 6.49 6.49 0 0 0 2.95-.26 3.83 3.83 0 0 0 2.33-2 2.33 2.33 0 0 0-.49-2.79 6.65 6.65 0 0 0-2.74-1.11l-5-1.52-3.26-1.32a8.06 8.06 0 0 1-1.2-.52z"/><path d="M208.67 416a12.45 12.45 0 0 1-.45-2 11 11 0 0 1-.49-2 3.53 3.53 0 0 1 .89 1.87 3.32 3.32 0 0 1 .05 2.13z"/></g><path d="M243.3,416.32,234.55,413s-24.29-11.34-24.7-10.72-1.73.54-1.44,3.5,14.44,8.94,14.89,10-.3,6.22,4.93,9.93,9,3.8,9,3.8" class="G"/><path d="M237.23 429.42H237l-.6-.06a14.55 14.55 0 0 1-2.27-.55 22.21 22.21 0 0 1-7.42-4.27 10.46 10.46 0 0 1-3-5.11 23.22 23.22 0 0 1-.52-3.27 1.82 1.82 0 0 0-.09-.37.72.72 0 0 0-.23-.24 7.92 7.92 0 0 0-.71-.46l-1.54-.85-6.61-3.56a39.45 39.45 0 0 1-3.37-2.13 12.28 12.28 0 0 1-1.58-1.32 4 4 0 0 1-.67-.84 1.64 1.64 0 0 1-.2-.55 2.47 2.47 0 0 1 0-.54 3.83 3.83 0 0 1 .37-2.11 2.57 2.57 0 0 1 .77-.77 1.71 1.71 0 0 0 .34-.29l.08-.09a.25.25 0 0 1 .17-.05.76.76 0 0 1 .17 0l.27.07c1.31.4 2.52.93 3.73 1.43l6.87 3 11.55 5.32 2.33 1.08 2.14.84 3.43 1.36 2.16.87.55.24c.13 0 .19.08.19.09s-.07 0-.2-.06l-.57-.19-2.19-.81-3.46-1.23-2.16-.81-2.35-1.06-11.58-5.23a223.65 223.65 0 0 0-6.88-3l-3.68-1.41-.22-.05h-.08v-.1h0c.28.18.07.06.13.1h0a1.83 1.83 0 0 1-.42.38 2.05 2.05 0 0 0-.66.65 3.48 3.48 0 0 0-.32 1.89 1.87 1.87 0 0 0 .21.9 3.85 3.85 0 0 0 .6.76 11.72 11.72 0 0 0 1.53 1.27c1.08.78 2.21 1.46 3.33 2.11l6.59 3.57 1.55.88a8.63 8.63 0 0 1 .75.48 1 1 0 0 1 .34.39 2 2 0 0 1 .1.45 25.93 25.93 0 0 0 .49 3.24 10.28 10.28 0 0 0 2.86 5 22.74 22.74 0 0 0 7.27 4.33 16.07 16.07 0 0 0 2.23.61c.26.06.46.08.6.1zm-26.79 1.14a3 3 0 0 1 .93.27 9.41 9.41 0 0 1 2.29 1.32 8.39 8.39 0 0 1 1.32 1.29 2.73 2.73 0 0 1 .71 2 2.26 2.26 0 0 1-1.62 1.75 4.32 4.32 0 0 1-2.54-.08 46.55 46.55 0 0 1-8.06-3.23 24.15 24.15 0 0 1-2.26-1.34 3.86 3.86 0 0 1-.77-.58 4.72 4.72 0 0 1 .85.44l2.31 1.22a56.46 56.46 0 0 0 8 3.1 4 4 0 0 0 2.32.09 1.9 1.9 0 0 0 1.37-1.42 2.45 2.45 0 0 0-.6-1.78 8.33 8.33 0 0 0-1.24-1.27 13.89 13.89 0 0 0-3.01-1.78z" class="F"/><g opacity=".3"><path d="M324.48,429c-7.86-26.51-14.79-60.65-22.65-87.16-2.88,24.47.72,56.78,5.22,81,.53,2.84.77,5.62,3,7.49L324.48,429"/></g><path d="M311.61 410.8c-.11 0-.44-1.73-1.51-4.38a31.09 31.09 0 0 0-2.25-4.46 33.83 33.83 0 0 0-3.7-4.86 32.94 32.94 0 0 0-4.58-4.05 29.8 29.8 0 0 0-4.28-2.58c-2.56-1.26-4.28-1.72-4.25-1.82a5.38 5.38 0 0 1 1.22.29 10.15 10.15 0 0 1 1.39.46 18.21 18.21 0 0 1 1.8.74 28 28 0 0 1 4.4 2.52 32 32 0 0 1 4.69 4.08 32.35 32.35 0 0 1 3.72 5 28.6 28.6 0 0 1 2.19 4.57c.27.67.43 1.3.6 1.85a10.28 10.28 0 0 1 .36 1.43 6.39 6.39 0 0 1 .2 1.21z" class="B"/><g class="I"><path d="M326.59 276.51s-25.13 56.15-25.13 66.49 18.83 81.93 18.83 81.93l-.91 17.12 105.59.37h0l1.61-22.7-8.24-21.63 8.23-61.15s5.54-35.5 6-45.43c.62-12.42-41.46-26.82-40.31-28.54l-7.26-9.76L343.39 287l-8.23-23.76-9.86 9.31z"/><path d="M395.74 291.45L363.4 346l-37.48 42.74s-2.45 21.71 2.45 28.37 13.31 11.21 13.31 11.21 9.89 0 22.46-10.51 47.24-53.94 47.24-53.94l11.91-14.37s14.2-34.88 11.55-52.63c-1-6.85-3.94-9.69-7.82-12.83-9.77-7.87-24.89-3.4-31.28 7.41z"/></g><g class="B"><path d="M427.7 337.4a3.09 3.09 0 0 1-.18.4l-.55 1.14-2.3 4.29c-2.07 3.69-5.29 8.9-9.49 15.19-2.11 3.14-4.46 6.55-7.05 10.17s-5.53 7.35-7.95 11.71-4.62 9.12-7.27 13.88a87.68 87.68 0 0 1-9.53 13.91 55.74 55.74 0 0 1-12.62 11.16 39.74 39.74 0 0 1-14.62 5.66 32.77 32.77 0 0 1-14.16-.6 26.83 26.83 0 0 1-6-2.43 27.39 27.39 0 0 1-4.94-3.34 22.41 22.41 0 0 1-3.72-3.93 22.1 22.1 0 0 1-2.46-4.16 26.32 26.32 0 0 1-2-7.44 34.38 34.38 0 0 1-.17-4.87c0-.54.06-1 .08-1.27a3 3 0 0 1 0-.43 2.85 2.85 0 0 1 0 .43v1.27a37 37 0 0 0 .26 4.84 26.58 26.58 0 0 0 2.08 7.35 22.35 22.35 0 0 0 2.46 4.08 21.91 21.91 0 0 0 3.7 3.85 27.06 27.06 0 0 0 4.89 3.27 26.74 26.74 0 0 0 5.91 2.37 32.55 32.55 0 0 0 14 .54 39.34 39.34 0 0 0 14.42-5.62A55.45 55.45 0 0 0 383 407.75a86.77 86.77 0 0 0 9.47-13.82c2.65-4.73 4.79-9.53 7.3-13.87a130.12 130.12 0 0 1 8-11.73c2.6-3.6 5-7 7.09-10.12 4.24-6.25 7.5-11.43 9.62-15.08 1.07-1.83 1.86-3.26 2.38-4.24l.61-1.12a1.93 1.93 0 0 1 .23-.37z"/><path d="M324 386.83c0 .07-.53.4-1.22 1.17a6 6 0 0 0-.68 7.36c.53.88 1 1.31 1 1.37s-.63-.28-1.29-1.16a5.9 5.9 0 0 1 .73-7.83 3 3 0 0 1 1.46-.91zm6.93 11.34a3 3 0 0 1 .59.14l.7.19 1 .18a13.93 13.93 0 0 0 6.18-.58 22.63 22.63 0 0 0 8-4.68 60.24 60.24 0 0 0 7.45-8.65 52.29 52.29 0 0 1 7.69-8.59l3.8-3.24a10.65 10.65 0 0 0 2.5-3.45 6.29 6.29 0 0 0-.57-5.9 4.64 4.64 0 0 0-1.81-1.35 3.07 3.07 0 0 1 .58.17 3.83 3.83 0 0 1 1.39 1.06 6.46 6.46 0 0 1 .76 6.16 11.12 11.12 0 0 1-2.54 3.62c-1.13 1.12-2.47 2.16-3.8 3.3a53.4 53.4 0 0 0-7.58 8.54 59.05 59.05 0 0 1-7.56 8.7 22.63 22.63 0 0 1-8.16 4.66 13.59 13.59 0 0 1-6.33.43l-1-.23c-.28-.08-.51-.18-.69-.24a2.71 2.71 0 0 1-.6-.24zm69.9-112.66a5.42 5.42 0 0 1-.42.6l-1.28 1.67-4.63 6.18a202.28 202.28 0 0 0-13.33 21.67c-4.72 8.76-8.62 16.89-11.61 22.69l-3.59 6.85L365 347a3.67 3.67 0 0 1-.39.62 3.88 3.88 0 0 1 .29-.67l.94-1.89 3.43-6.91c2.9-5.85 6.76-14 11.48-22.78a182 182 0 0 1 13.5-21.64c2-2.61 3.57-4.71 4.76-6.09l1.36-1.61a3.18 3.18 0 0 1 .46-.52z"/></g><g opacity=".3"><path d="M322.8,396.44c4.87,2.64,10.23,2.36,15.67,1.3a24.32,24.32,0,0,0,14-8.38A24.29,24.29,0,0,1,346,402.14c-3.46,3.39-8.48,5.35-13.24,4.48s-9.58-5.35-10-10.18"/></g><g opacity=".3"><path d="M368.9,367.58a21.49,21.49,0,0,1,3,16.12c4.13-6.32,5.1-14.32,4-21.79s-4.15-14.52-7.53-21.27c0,0-3.72,6.3-3.76,7-.18,3.64,1.16,10.48,1.86,14.05a7.81,7.81,0,0,1,2.27,7.06"/></g><g opacity=".3"><path d="M339.32,422.6c9.94,7.75,24.69,8.11,35.56,1.75,10.47-6.13,16.92-17.17,22.9-27.72,9.27-16.34,20.57-36.55,27.19-54.13,0,0-18.55,25.31-24.14,36.22A180.05,180.05,0,0,1,388.17,400a54.56,54.56,0,0,1-47.88,23.33"/></g><path d="M319.38 442a1 1 0 0 1 0-.31v-.91l.13-3.47.57-12.43v.12l-6.07-21.14c-2.88-10.42-5.31-19.9-6.95-26.79l-1.85-8.18-.45-2.23a6.68 6.68 0 0 1-.13-.79 4.09 4.09 0 0 1 .23.76l.55 2.22 2 8.13 7.1 26.74 6 21.15v.07l-.76 12.44-.24 3.46c0 .36-.06.66-.08.9a1.05 1.05 0 0 1-.05.26zM425 283.46c0 .08-1.08-.3-2.81-.73a33.9 33.9 0 0 0-6.89-1 33.18 33.18 0 0 0-6.94.54l-2.85.55a2.58 2.58 0 0 1 .72-.32 20.62 20.62 0 0 1 2.05-.59 27.22 27.22 0 0 1 7-.7 27.63 27.63 0 0 1 7 1.12 17 17 0 0 1 2 .72c.5.25.72.37.72.41zM391.57 265a2.94 2.94 0 0 1-.27.52l-.85 1.43-3.27 5.19a283.8 283.8 0 0 1-11.67 16.52c-3.85 5.07-7.58 9.62-10.63 13.18l-.22.25-.13-.3-3.53-7.73-.95-2.15a4 4 0 0 1-.29-.77 4.1 4.1 0 0 1 .41.72l1.05 2.1 3.68 7.66-.34-.05c3-3.6 6.69-8.16 10.54-13.22 4.78-6.28 8.86-12.14 11.77-16.42l3.41-5.09.93-1.38a2.21 2.21 0 0 1 .36-.46zm24.31 161.27c-.15 0 .31-5.21 1-11.6s1.4-11.55 1.54-11.53-.32 5.2-1 11.59-1.42 11.55-1.54 11.54zm-72.38-1.37a74.48 74.48 0 0 1 1.19 8.72 70.84 70.84 0 0 1 .67 8.77 77.12 77.12 0 0 1-1.19-8.72 75.84 75.84 0 0 1-.67-8.77z" class="B"/><g fill="#fff"><path d="M396.91 310.69a1.28 1.28 0 0 0-1.94-.77l-.07.06a1.21 1.21 0 1 0 2 .71zm-10.43-25.42a1.28 1.28 0 0 0-1.94-.77l-.06.06a1.21 1.21 0 1 0 2 .71zm-23.93 20.47a1.28 1.28 0 0 0-1.94-.77h-.06a1.21 1.21 0 1 0 2 .72zm-25.87-10.28a1.27 1.27 0 0 0-1.93-.77l-.07.06a1.21 1.21 0 1 0 2 .71zm-4.57-10.13a1.28 1.28 0 0 0-1.94-.77l-.07.06a1.22 1.22 0 1 0 2 .71zm1.99-11.7a1.28 1.28 0 0 0-1.94-.77l-.07.05a1.21 1.21 0 1 0 2 .72zm-14.33 16.1a1.28 1.28 0 0 0-1.94-.77l-.07.05a1.21 1.21 0 1 0 2 .72zm33.23 4.64a1.27 1.27 0 0 0-1.93-.77l-.07.06a1.21 1.21 0 1 0 2 .71zm-28.14 20.87a1.28 1.28 0 0 0-1.94-.77h-.07a1.21 1.21 0 1 0 2 .72zm-25.72 60.02a1.28 1.28 0 0 0-1.94-.77l-.06.05a1.21 1.21 0 1 0 2 .72zm9.18-34.62a1.28 1.28 0 0 0-1.94-.77l-.07.06a1.21 1.21 0 1 0 2 .71zM376 279.86a1.28 1.28 0 0 0-1.94-.77l-.07.05a1.21 1.21 0 1 0 2 .72zm32.24 68.92a1.28 1.28 0 0 0-1.94-.77l-.07.06a1.22 1.22 0 1 0 2 .71zm12.57-59.31a1.27 1.27 0 0 0-1.93-.77l-.07.05a1.21 1.21 0 1 0 2 .72zm-4.93 38.84a1.28 1.28 0 0 0-1.94-.77l-.07.06a1.22 1.22 0 1 0 2 .71zm-28.21 28.05a1.28 1.28 0 0 0-1.94-.77l-.07.06a1.21 1.21 0 1 0 2 .71zm1.19-23.36a1.28 1.28 0 0 0-1.94-.77l-.07.06a1.22 1.22 0 1 0 2 .71zm17.01-43.33a1.27 1.27 0 0 0-1.93-.77l-.07.06a1.21 1.21 0 1 0 2 .71zM383 267.05a1.27 1.27 0 0 0-1.93-.77l-.07.05a1.21 1.21 0 1 0 2 .72zm-.87 36.47a1.27 1.27 0 0 0-1.94-.77l-.06.05a1.21 1.21 0 1 0 2 .72zm-29.24 111.25A1.27 1.27 0 0 0 351 414l-.07.05a1.21 1.21 0 1 0 2 .72zm-33.55-18.3a1.28 1.28 0 0 0-1.94-.77l-.07.06a1.21 1.21 0 1 0 2 .71zm-27.13 8.97a1.28 1.28 0 0 0-1.94-.77l-.06.05a1.21 1.21 0 1 0 2 .72zm-2.9 15.45a1.28 1.28 0 0 0-1.94-.77l-.07.05a1.21 1.21 0 1 0 2 .72zm25.43 5.17a1.28 1.28 0 0 0-1.94-.77l-.06.06a1.21 1.21 0 1 0 2 .71zm-8.5-34.6a1.28 1.28 0 0 0-1.94-.77l-.07.06a1.22 1.22 0 1 0 2 .71zm31.2 8.8a1.27 1.27 0 0 0-1.94-.77l-.06.05a1.21 1.21 0 1 0 2 .72zm74.17-8.85a1.26 1.26 0 0 0-1.93-.77l-.07.05a1.21 1.21 0 1 0 2 .72zm-45.89 43.97a1.28 1.28 0 0 0-1.94-.77l-.07.06a1.21 1.21 0 1 0 2 .71zm19.57-24.48a1.27 1.27 0 0 0-1.93-.77l-.07.06a1.21 1.21 0 1 0 2 .71zm11.63 19.91A1.28 1.28 0 0 0 395 430l-.06.06a1.21 1.21 0 1 0 2 .71zm-32.35-104.26a1.28 1.28 0 0 0-1.94-.77l-.07.06a1.21 1.21 0 1 0 2 .71zm26.33 50.83a1.28 1.28 0 0 0-1.94-.77l-.07.05a1.21 1.21 0 1 0 2 .72zm-8.54 19.25a1.28 1.28 0 0 0-1.94-.77l-.07.05a1.21 1.21 0 1 0 2 .72zm28.07 15.46a1.28 1.28 0 0 0-1.94-.77l-.07.06a1.21 1.21 0 1 0 2 .71zm-76.81 22.33a1.27 1.27 0 0 0-1.94-.77l-.07.05a1.21 1.21 0 1 0 2 .72zm-64-5.85a1.28 1.28 0 0 0-1.94-.77l-.07.06a1.22 1.22 0 1 0 2 .71zM326 418.06a1.28 1.28 0 0 0-1.94-.77l-.07.06a1.22 1.22 0 1 0 2 .71zm-54-11.43a1.27 1.27 0 0 0-1.94-.77l-.06.05a1.21 1.21 0 1 0 2 .72zm90.2-36.3a1.28 1.28 0 0 0-1.94-.77l-.07.05a1.21 1.21 0 1 0 2 .72zm-18.88-55.09a1.28 1.28 0 0 0-1.94-.77h-.07a1.21 1.21 0 1 0 2 .72zM338.6 363a1.28 1.28 0 0 0-1.94-.77l-.06.06a1.21 1.21 0 1 0 2 .71zm-7.68-15.57a1.28 1.28 0 0 0-1.94-.77h-.06a1.21 1.21 0 1 0 2 .72zm33.97 48.98a1.28 1.28 0 0 0-1.94-.77l-.07.06a1.22 1.22 0 1 0 2 .71zm-23.95-9.61a1.27 1.27 0 0 0-1.94-.8l-.07.06a1.21 1.21 0 1 0 2 .71zm10.25-52.75a1.27 1.27 0 0 0-1.93-.77l-.07.05a1.21 1.21 0 1 0 2 .72z"/><path d="M314.74 371.4a1.28 1.28 0 0 0-1.94-.77l-.06.06a1.21 1.21 0 1 0 2 .71zM371 354.26a1.28 1.28 0 0 0-1.94-.77l-.07.05a1.21 1.21 0 1 0 2 .72zm52.19-44.76a1.28 1.28 0 0 0-1.94-.77l-.07.06a1.21 1.21 0 1 0 2 .71zM402 275.61a1.28 1.28 0 0 0-1.94-.77l-.07.06a1.21 1.21 0 1 0 2 .71zm-41.06 4.25a1.28 1.28 0 0 0-1.94-.77l-.07.05a1.21 1.21 0 1 0 2 .72z"/></g><g class="B"><path d="M319.05,158.21c-7.87,5-11,15.51-9.52,21.72.76,3.13,2.18,6.28,1.56,9.43-.53,2.73-2.5,4.92-4,7.28a21.92,21.92,0,0,0,27.4,31.66"/><path d="M314.39,199.2c-19.16-42.14,26.42-63.31,51.28-56.29,23.37,6.6,33.34,18.23,37.19,33.86s3.66,32.58-2.47,47.47c-3,7.34-8.46,14.8-16.35,15.72"/></g><path d="M336.84 302.11l-.57-47.68c0 .11-17.27-2.87-20.9-25.43-1.78-11.23-1.21-29.64-.27-44.69.86-13.55 9.83-30.17 23.33-28.74l42.15 10.65a7.93 7.93 0 0 1 7.1 8.06h0l-2.74 87.17" class="G"/><path d="M322.64 198.08a2.87 2.87 0 0 0 2.74 2.93 2.75 2.75 0 0 0 3-2.56 2.89 2.89 0 0 0-2.74-2.94 2.76 2.76 0 0 0-3 2.57zm29.92 0a2.87 2.87 0 0 0 2.74 2.92 2.75 2.75 0 0 0 3-2.56 2.87 2.87 0 0 0-2.74-2.93 2.75 2.75 0 0 0-3 2.57zm-33.04-5.26c.35.39 2.6-1.16 5.71-1s5.34 1.74 5.7 1.37c.17-.16-.18-.85-1.15-1.61a7.9 7.9 0 0 0-4.54-1.57 7.66 7.66 0 0 0-4.56 1.31c-.98.68-1.33 1.32-1.16 1.5zm29.58.74c.36.38 2.55-1.26 5.66-1.26s5.41 1.54 5.74 1.16c.17-.17-.2-.85-1.2-1.57a7.9 7.9 0 0 0-4.6-1.4 7.58 7.58 0 0 0-4.5 1.48c-.96.74-1.28 1.42-1.1 1.59zm-10.68 24c0-.18-1.92-.51-5.06-.92-.8-.08-1.55-.24-1.68-.78a4 4 0 0 1 .53-2.36l2.35-6.06c3.27-8.62 5.63-15.72 5.28-15.85s-3.28 6.76-6.54 15.39l-2.26 6.1a4.58 4.58 0 0 0-.41 3.12 2 2 0 0 0 1.31 1.16 5.08 5.08 0 0 0 1.35.19c3.16.17 5.12.18 5.13.01z" class="B"/><path d="M336.27,254.43a57.47,57.47,0,0,0,30.24-8.06s-7.64,15.7-30.24,13.59Z" class="F"/><path d="M348.33 189.13c.3.85 3.42.44 7.07.89s6.61 1.43 7.1.67c.22-.36-.3-1.16-1.49-2a12.41 12.41 0 0 0-10.8-1.19c-1.34.56-2.02 1.23-1.88 1.63zM320.24 185c.55.71 2.7 0 5.28-.06s4.77.48 5.27-.26c.22-.36-.12-1.07-1.08-1.74a7.3 7.3 0 0 0-4.29-1.16 7.38 7.38 0 0 0-4.21 1.42c-.91.71-1.21 1.44-.97 1.8z" class="B"/><path d="M383.81,204c.33-.16,12.09-5.36,12.23,8.16s-13.47,10.87-13.5,10.48S383.81,204,383.81,204Z" class="G"/><path d="M386.62 217.46c.06 0 .24.16.64.34a2.38 2.38 0 0 0 1.76 0c1.42-.54 2.6-2.82 2.64-5.26a7.57 7.57 0 0 0-.69-3.36 2.7 2.7 0 0 0-1.79-1.79 1.19 1.19 0 0 0-1.38.66c-.18.38-.09.65-.16.67s-.3-.22-.19-.78a1.49 1.49 0 0 1 .52-.85 1.76 1.76 0 0 1 1.3-.36 3.31 3.31 0 0 1 2.48 2.07 8 8 0 0 1 .86 3.76c-.06 2.72-1.43 5.29-3.38 5.87a2.54 2.54 0 0 1-2.16-.33c-.42-.31-.49-.62-.45-.64z" class="F"/><g class="B"><path d="M333.93,148.88c-7.52,3.89-10.62,19.27-7.51,27.15s11.5,11.72,19.77,13.53,16.38,2,24.54-.24c.56,5.48,3.85,11.11,9.17,12.56,7.05,1.91,14.15-4.54,15.72-11.67s-.79-14.47-3.11-21.4"/><path d="M393.58 197.93s-.34.4-1.05 1a35.32 35.32 0 0 1-3.11 2.35 19.24 19.24 0 0 1-5.26 2.55 11.37 11.37 0 0 1-7.17-.11 11.09 11.09 0 0 1-5.43-4.69 15.07 15.07 0 0 1-1.95-5.52 20.14 20.14 0 0 1-.21-3.92 4.37 4.37 0 0 1 .17-1.42c.15 0 0 2.05.58 5.24a15.52 15.52 0 0 0 2 5.24 10.67 10.67 0 0 0 5.09 4.34 10.94 10.94 0 0 0 6.71.14 20.22 20.22 0 0 0 5.15-2.31l4.48-2.89z"/></g><path d="M339.34,226.24a12.78,12.78,0,0,0,1.68,3.29,4.36,4.36,0,0,0,3.11,1.81,4,4,0,0,0,3.32-1.81,6.31,6.31,0,0,0,.92-3.78c-.05-1.19-.6-2.61-1.78-2.75a2.9,2.9,0,0,0-1.43.32l-6.22,2.52" class="F"/><path d="M341.82 231.35c0-.19 1.4.36 3.32-.41a4.72 4.72 0 0 0 2.51-2.27 5 5 0 0 0 .08-4.07 4.71 4.71 0 0 0-.54-.93c-.25-.26-.21-.25-.47-.21s-.67.26-1 .39l-1 .42-3.55 1.39c-2 .76-3.33 1.16-3.39 1s1.12-.8 3.08-1.74l3.46-1.61 1-.45c.37-.15.64-.31 1.14-.47a1.46 1.46 0 0 1 .92 0 1.7 1.7 0 0 1 .69.54 5.69 5.69 0 0 1 .51 6.15 5.27 5.27 0 0 1-3.16 2.55 4.93 4.93 0 0 1-2.69.11c-.64-.11-.93-.32-.91-.39z" class="B"/><g class="D"><path d="M399 194.73c-1.38-.1-12.55 1.35-11.67 22.1.82 19.39 14.42 15.12 18.76 7.82 4.08-6.91 6.46-28.97-7.09-29.92z"/><path d="M405.87 197.18a3.37 3.37 0 0 1-.05-.54l-.06-1.59-.17-5.91-.41-20.35.25.24h-5.75l.26-.26.13 4.83.52 21.11v.18h-.17a10.41 10.41 0 0 0-5.93 3.82 14 14 0 0 0-2.37 5 22.06 22.06 0 0 0-.61 3.55c0 .41-.05.73-.06.94s0 .33 0 .33a1.39 1.39 0 0 1 0-.33v-.95a18.6 18.6 0 0 1 .5-3.6 14 14 0 0 1 2.33-5.16 10.78 10.78 0 0 1 6.11-4l-.17.22-.6-21.11-.13-4.83v-.27h6.27v.25l.23 20.36v5.91 1.58a2.15 2.15 0 0 1-.12.58z"/><path d="M399,168.78s-5.84-13.66-19.75-20.41a83.17,83.17,0,0,0-16.67-6.18s8.12-1.92,21.25,3.92c6,2.66,12,6.11,16,11.3,2.52,3.29,5.68,9.72,5.67,11.37Z"/></g><path d="M363 334.25s.08-.1.25-.27l.75-.78a37.11 37.11 0 0 0 2.7-3.2 52.26 52.26 0 0 0 3.65-5.6l4.13-7.94c2.95-6 6.36-13.22 9.9-21.52 1.76-4.15 3.56-8.56 5.36-13.21l1.34-3.52a20.44 20.44 0 0 1 1.61-3.55 7.34 7.34 0 0 1 2.9-2.76 4.12 4.12 0 0 1 2-.51 2.07 2.07 0 0 1 1.06.38 2.27 2.27 0 0 1 .67.9v.07.08a3.46 3.46 0 0 1-.54 1.33 2.1 2.1 0 0 1-1.25.82 4.53 4.53 0 0 1-2.79-.51 4.42 4.42 0 0 1-2.47-4.85 3.89 3.89 0 0 1 1.63-2.44 4.54 4.54 0 0 1 2.84-.81 3.13 3.13 0 0 1 2.62 1.45 1.51 1.51 0 0 1-.1 1.63 2.88 2.88 0 0 1-1.27.92 4.17 4.17 0 0 1-4.79-1.36 3.51 3.51 0 0 1-.65-2.52 4.33 4.33 0 0 1 1-2.36 3.62 3.62 0 0 1 2.25-1.24 2.88 2.88 0 0 1 2.43.84 1.8 1.8 0 0 1 .48 1.27 1.68 1.68 0 0 1-.58 1.23 2.8 2.8 0 0 1-2.44.66 3.07 3.07 0 0 1-1.95-1.56 6.43 6.43 0 0 1-.73-2.31 8.18 8.18 0 0 1 .53-4.66 3.47 3.47 0 0 1 1.71-1.69 3.13 3.13 0 0 1 2.37.08 2.25 2.25 0 0 1 1.47 1.85 2.06 2.06 0 0 1-1.27 2 2.52 2.52 0 0 1-2.3 0 3.18 3.18 0 0 1-1.43-1.76 4.39 4.39 0 0 1-.13-2.18 9.92 9.92 0 0 1 .46-2.08 3.81 3.81 0 0 1 1.21-1.77 4.85 4.85 0 0 1 1.89-.93 2 2 0 0 1 1.1 0 2.33 2.33 0 0 1 .91.58 2.62 2.62 0 0 1 .59.88 1.47 1.47 0 0 1 0 1.11 1.8 1.8 0 0 1-1.79 1 3.26 3.26 0 0 1-1.88-.63 5.16 5.16 0 0 1-2-3.15A5.31 5.31 0 0 1 395 248a4.05 4.05 0 0 1 1.13-1.37 3.65 3.65 0 0 1 1.59-.69 2.57 2.57 0 0 1 1.7.24 1.77 1.77 0 0 1 .92 1.41 2.49 2.49 0 0 1-1.88 2.4 2.72 2.72 0 0 1-2.72-1 4.36 4.36 0 0 1-1-2.56 16 16 0 0 1 1-4.78l1.12-3.94 1.56-5.44.41-1.41c.1-.33.16-.48.16-.48s0 .17-.11.49-.21.82-.36 1.43l-1.47 5.46-1.07 3.95c-.34 1.45-1 3-.93 4.7a4.16 4.16 0 0 0 1 2.38 2.43 2.43 0 0 0 2.4.9 2.16 2.16 0 0 0 1.62-2 1.43 1.43 0 0 0-.74-1.13 2.27 2.27 0 0 0-1.46-.19 3.27 3.27 0 0 0-1.44.63 3.76 3.76 0 0 0-1 1.25 5 5 0 0 0-.37 3.3 4.78 4.78 0 0 0 1.86 2.89 2.93 2.93 0 0 0 1.64.55 1.37 1.37 0 0 0 1.38-.73 1.53 1.53 0 0 0-.53-1.52 2 2 0 0 0-.73-.47 1.72 1.72 0 0 0-.87 0 3.8 3.8 0 0 0-2.77 2.43 9.09 9.09 0 0 0-.43 2 3.89 3.89 0 0 0 .12 2 2.63 2.63 0 0 0 1.2 1.49 2.09 2.09 0 0 0 1.87 0 1.57 1.57 0 0 0 1-1.49 1.77 1.77 0 0 0-1.17-1.43 2.72 2.72 0 0 0-2-.07 3 3 0 0 0-1.45 1.45 7.77 7.77 0 0 0-.47 4.37 6 6 0 0 0 .67 2.13 2.58 2.58 0 0 0 1.61 1.31 2.28 2.28 0 0 0 2-.53 1.24 1.24 0 0 0 .07-1.79 2.39 2.39 0 0 0-2-.67 3.07 3.07 0 0 0-1.92 1.08 3.44 3.44 0 0 0-.36 4.23 3.67 3.67 0 0 0 4.18 1.18 2.49 2.49 0 0 0 1-.75 1 1 0 0 0 .06-1.08 2.63 2.63 0 0 0-2.19-1.17 3.75 3.75 0 0 0-3.93 2.83A3.86 3.86 0 0 0 395 274a3.93 3.93 0 0 0 2.45.48 2 2 0 0 0 1.4-1.75v.15a1.5 1.5 0 0 0-1.31-1 3.57 3.57 0 0 0-1.77.46 6.8 6.8 0 0 0-2.71 2.58 19.53 19.53 0 0 0-1.57 3.45l-1.36 3.53c-1.8 4.64-3.62 9-5.4 13.2a389.11 389.11 0 0 1-10 21.5c-1.49 3-2.87 5.65-4.2 7.92a51.29 51.29 0 0 1-3.73 5.57 26.29 26.29 0 0 1-3.8 4.16z" fill="#fff"/><path d="M411.09 185a13.12 13.12 0 0 0-.91-3.7 14.57 14.57 0 0 0-7.18-7.19 19.39 19.39 0 0 0-6.92-1.69 32.56 32.56 0 0 0-8.21.62c-5.73 1.06-11.75 3.53-18.49 4.55a37.7 37.7 0 0 1-9.9 0 39.84 39.84 0 0 1-8.9-2.42 39.28 39.28 0 0 1-13-8.56 35 35 0 0 1-6.28-8.4 11.9 11.9 0 0 1-.74-1.47l-.48-1.11c-.12-.27-.21-.5-.29-.68a.86.86 0 0 1-.08-.24 1 1 0 0 1 .13.22l.33.66.53 1.08a12.54 12.54 0 0 0 .78 1.45 36.41 36.41 0 0 0 6.36 8.23 39 39 0 0 0 21.67 10.73 37.07 37.07 0 0 0 9.76 0c6.65-1 12.68-3.46 18.48-4.5a32.76 32.76 0 0 1 8.32-.58 19.45 19.45 0 0 1 7.05 1.79 14.59 14.59 0 0 1 7.21 7.44 10.91 10.91 0 0 1 .69 2.78v.74a.86.86 0 0 1 .07.25zM396 163.45a4.87 4.87 0 0 1-.72.12l-2.06.33c-1.78.29-4.33.86-7.47 1.64a79.48 79.48 0 0 1-11.19 2.17 56.23 56.23 0 0 1-13.94-.31 59 59 0 0 1-13.47-3.62 57 57 0 0 1-10.15-5.25l-3.56-2.55-2.54-2.11-1.52-1.43-.5-.53a3.91 3.91 0 0 1 .57.45l1.58 1.35c.68.6 1.59 1.24 2.59 2l3.58 2.47a60.33 60.33 0 0 0 23.46 8.67 57.39 57.39 0 0 0 13.83.34 81.69 81.69 0 0 0 11.14-2l7.53-1.49 2.08-.22a3.68 3.68 0 0 1 .76-.03z" class="D"/><path d="M397.48 230.45a1.91 1.91 0 0 1-.39-.12 6.36 6.36 0 0 1-1-.53 9.18 9.18 0 0 1-2.93-3.12 15.07 15.07 0 0 1-1.8-6.09 43.67 43.67 0 0 1 0-7.76 47.28 47.28 0 0 1 1.28-7.65 22.07 22.07 0 0 1 2.23-5.93 9.16 9.16 0 0 1 3-3.11 5.48 5.48 0 0 1 1-.52c.25-.09.39-.13.39-.11s-.51.23-1.32.8a9.59 9.59 0 0 0-2.74 3.12 22.5 22.5 0 0 0-2.08 5.87 50 50 0 0 0-1.24 7.58 46.75 46.75 0 0 0 0 7.66 15.21 15.21 0 0 0 1.64 6 9.36 9.36 0 0 0 2.72 3.14c.76.53 1.27.72 1.24.77z" class="B"/><g class="D"><rect x="339.89" y="228.29" width="16.16" height="6.09" rx="2.85" transform="matrix(.981293 -.192522 .192522 .981293 -38.04 71.34)"/><path d="M354.47,228.88,401.92,214a2.24,2.24,0,0,1,2.8,1.45h0a2.25,2.25,0,0,1-1.55,2.85l-48.52,13.1Z"/></g><path d="M389.54 222.34a10.62 10.62 0 0 1 1.57-.55l4.34-1.32 6.42-1.93a4.3 4.3 0 0 0 1.55-1 2.34 2.34 0 0 0 .67-1.65 1.44 1.44 0 0 0-1-1.36 3.63 3.63 0 0 0-2 .06l-14.23 4.58-4.33 1.34a9.91 9.91 0 0 1-1.53.49 10.71 10.71 0 0 1 1.55-.61l4.28-1.5 14.21-4.73a4.1 4.1 0 0 1 2.28 0 2 2 0 0 1 1.32 1.84 2.84 2.84 0 0 1-.82 2 4.8 4.8 0 0 1-1.82 1l-6.49 1.83-4.34 1.17a8.87 8.87 0 0 1-1.63.34zM312 186c1.62 5.7-4.17 10.59-6.21 16.16-2 5.38-.3 11.41 2.13 16.61s5.63 10.12 6.87 15.71c3.07 13.8-9.41 28.67-7 42.6.86 5.08 2.91 10.38 4.68 15.21a20.1 20.1 0 0 1 0 14.13c-2.7 8-7.28 11.75-10.5 19.53-1.65 4-1.52 8.44-1.44 12.74s.06 8.8-1.86 12.66-6.3 6.84-10.46 5.72a15.33 15.33 0 0 0 18.32 3.49c5.47-2.92 8.53-8.84 11.15-14.46 12.68-27.21 19.39-29.51 19-59.53l-.38-32a30 30 0 0 1-7.49-3.15c-14.16-9.78-14.68-27.2-14.57-40.71" class="B"/><path d="M340.3 277.08v11.33s-8.71 44.45-11.33 69.14l-3.05 31.21s6.25 9.75 19.32-6.81 15.4-19.17 20.63-19.46l-6.1-72a10.49 10.49 0 0 1 2.32-4.94zm17.14-25.56S343.21 270.4 342.05 273l-1.75 4.06 21.79 8.43 21.21-23.24 7.84-20.63-2.33-24.4s-4.64-.29-5.51 3.78a30.57 30.57 0 0 0-.59 7.84l-6.5-5.23-10.49-3.19s-2.47 4.06 1.6 6.1 5.23 2 5.23 2l3.66 6.39-1.6 7.16-7.42-7a4.23 4.23 0 0 0-5.4-.34l-4.8 3.48-4.49-2-8.71 7.79-3.49 3.19s2.33 4.36 7 2.33l4.65-2z" class="G"/><g class="F"><path d="M340.3 280.91a4.71 4.71 0 0 1 0-.61c0-.4.05-1 .14-1.77a20.82 20.82 0 0 1 .55-2.85 12.64 12.64 0 0 1 1.52-3.66c3.26-5 8.39-12 14.79-20.61v.26l-5.52-4.06h.19l-2.87 1.27a19.86 19.86 0 0 1-3.06 1.19 5 5 0 0 1-3.4-.39 6.26 6.26 0 0 1-2.56-2.44l-.08-.14.13-.12c3.74-3.52 7.91-7.07 12.19-10.87l.13-.11.14.08 3.87 2.29h-.25l4.52-3 2.35-1.52a2.82 2.82 0 0 1 2.92.25l8.81 7.45-.41.14 1.52-6.83v.18l-3.66-6.39.23.13a7.29 7.29 0 0 1-1.81-.49c-.57-.21-1.14-.45-1.71-.7s-1.13-.53-1.69-.8c-.29-.14-.57-.33-.85-.49a5.29 5.29 0 0 1-.76-.66 3.68 3.68 0 0 1-1-2.67 5.89 5.89 0 0 1 .77-2.72l.1-.17.2.06 10.48 3.2h.05 0l6.5 5.23-.41.22a31.06 31.06 0 0 1 .55-7.73 4.71 4.71 0 0 1 2.12-3.22 6.74 6.74 0 0 1 3.7-.93h.27v.22l2.3 24.4h0v.05l-7.88 20.61h0 0L367 280.31l-4.46 4.83-1.17 1.24-.41.41s.12-.16.37-.45l1.13-1.27 4.4-4.89 16.34-18v.05l7.8-20.64v.1l-2.35-24.4.23.23a6.16 6.16 0 0 0-3.4.86 4.18 4.18 0 0 0-1.89 2.9 30 30 0 0 0-.54 7.59v.58l-.45-.36-6.6-5.26h.09l-10.48-3.19.29-.12a5.45 5.45 0 0 0-.69 2.46 3.17 3.17 0 0 0 .86 2.31 5.37 5.37 0 0 0 .67.58c.27.15.51.31.79.45.56.27 1.11.55 1.67.79a14.69 14.69 0 0 0 3.31 1.15h.16l.06.1 3.66 6.39.05.09v.1l-1.53 6.83-.09.42-.33-.28-8.78-7.43a2.31 2.31 0 0 0-2.4-.22c-.74.44-1.54 1-2.3 1.49l-4.53 3-.12.08-.13-.07-3.87-2.3h.28l-12.21 10.83.05-.26a5.77 5.77 0 0 0 2.36 2.26 4.51 4.51 0 0 0 3.12.36 19.8 19.8 0 0 0 3-1.15l2.87-1.26h.11l.09.06 5.51 4.08.15.11-.11.15-14.91 20.5a13 13 0 0 0-1.55 3.59 23.18 23.18 0 0 0-.59 2.82 26.24 26.24 0 0 0-.19 1.76l-.04.6z"/><path d="M367.26 255.89c-.1 0 .28-1.54.44-4a9.18 9.18 0 0 0-.68-4.2 11.23 11.23 0 0 0-3.47-3.9 86.21 86.21 0 0 0-8.07-5.49l-2.55-1.5a4.9 4.9 0 0 1-.92-.59 3.6 3.6 0 0 1 1 .41l2.65 1.36a66.86 66.86 0 0 1 8.2 5.4 11.23 11.23 0 0 1 3.58 4.11 9 9 0 0 1 .62 4.42 18.81 18.81 0 0 1-.49 2.94 3.89 3.89 0 0 1-.31 1.04zm15.25-9.06a19.52 19.52 0 0 1 .37-2.62 41 41 0 0 0 .45-6.3 41.84 41.84 0 0 0-.56-6.31 20.32 20.32 0 0 1-.41-2.6 10 10 0 0 1 .77 2.53 30.89 30.89 0 0 1 .11 12.75 10 10 0 0 1-.73 2.55z"/></g><path d="M285.4 172.73L275 154.36a49.21 49.21 0 1 0-11.79 13.12h0z" fill="#fff"/><path d="M285.4 172.73l-22.26-5.1h-.19l.12-.16h0l.18.18a50.12 50.12 0 0 1-10.11 6.09 49.13 49.13 0 0 1-13.47 3.84 44.15 44.15 0 0 1-7.78.39l-4.07-.22-4.15-.63A49.52 49.52 0 0 1 193 157.34a48.89 48.89 0 0 1-8.3-19 50 50 0 0 1 .58-21.85 48.42 48.42 0 0 1 10.53-20.2l2-2.21c.66-.74 1.45-1.35 2.16-2a29.35 29.35 0 0 1 2.23-2l2.36-1.76a21 21 0 0 1 2.44-1.56l2.49-1.51L212.1 84a21.28 21.28 0 0 1 2.63-1.17 50.25 50.25 0 0 1 22-3.39 48.55 48.55 0 0 1 20.2 6 49.78 49.78 0 0 1 23.32 28.69 52.93 52.93 0 0 1 2.14 16 48.6 48.6 0 0 1-2.4 13.79 49.58 49.58 0 0 1-4.93 10.58v-.13l10.31 18.43-10.53-18.31v-.06-.06a49.89 49.89 0 0 0 4.85-10.54 48.92 48.92 0 0 0 2.33-13.71 52.72 52.72 0 0 0-2.17-15.85 49.42 49.42 0 0 0-23.16-28.39 48.15 48.15 0 0 0-20-5.89 49.68 49.68 0 0 0-21.79 3.37 20.81 20.81 0 0 0-2.6 1.16l-2.58 1.25-2.47 1.5a18.31 18.31 0 0 0-2.41 1.6l-2.34 1.74c-.79.56-1.46 1.29-2.2 1.92l-2.14 2-2 2.18a48 48 0 0 0-10.42 20 49.64 49.64 0 0 0-.59 21.63 48.51 48.51 0 0 0 8.2 18.79 49.28 49.28 0 0 0 30.38 19.59l4.11.63 4 .23a44.48 44.48 0 0 0 7.72-.36 48.87 48.87 0 0 0 23.47-9.78l.78-.6-.6.79h0l-.08-.21zm-62.93-44.1a4 4 0 1 1-4-4 4 4 0 0 1 4 4zm15.96 0a4 4 0 1 1-4-4 4 4 0 0 1 4 4zm15.93-2a4 4 0 1 1-5.45-1.46 4 4 0 0 1 5.45 1.46zM482 442.14c0 .15-101.66.26-227 .26s-227-.11-227-.26 101.63-.26 227.05-.26l226.95.26z" class="B"/><path d="M353.55,442.39a26.84,26.84,0,0,1,21.39-12.08c14.61-.5,21.91,12.08,21.91,12.08Z" class="D"/><path d="M381.55 442a16.23 16.23 0 0 1-.43-2.18 14.09 14.09 0 0 0-5.79-8.52 18.5 18.5 0 0 1-1.87-1.2 5.22 5.22 0 0 1 2.11.82 12.39 12.39 0 0 1 6 8.82 5.27 5.27 0 0 1-.02 2.26z" class="B"/><path d="M344.51,441.86v-.1a5.6,5.6,0,0,0-5.61-5.51H214.56a5.61,5.61,0,0,0-5.61,5.61H344.51Z" class="D"/><g class="B"><path d="M106.47 224l2 158.78 116 27.91H234l-6.1-218h-8.72z"/><path d="M131,376.29,95.05,442.17h32.86c-5.88-.58,52,0,52,0l-52-13.79,16.27-36.95-1.39-15.14Z"/><path d="M131.8 388.45l-3.89-122.8 35.32-3.38 4.35 131.11-12.61.64-23.17-5.57z"/></g><g class="D"><path d="M172.52 398.24v-.57-1.68-6.52l-.08-24.43-.09-84.3.25.25h-41.75l.26-.26v5.66l-.05 89.89h0v.05l-26.07 47.79-7.3 13.32-1.93 3.49-.69 1.18.63-1.21 1.87-3.53 7.2-13.37 25.9-47.88v.11-89.89-5.92h42.18v.25l-.09 84.3-.08 24.43v6.52 1.68c0 .39-.16.64-.16.64zm-28.34-6.81c.13.05-4.87 11.62-11.17 25.82l-11.65 25.62c-.13-.06 4.87-11.62 11.17-25.83l11.65-25.61zm80.24 19.3v-.56-1.65l-.08-6.34c0-5.5-.17-13.46-.36-23.3l-2.35-76.86-2.2-76.89-.19-23.31v-6.34-1.65-.56.56 1.65l.08 6.34c0 5.5.16 13.46.36 23.3l2.41 76.88 2.2 76.87.19 23.31v6.34 1.65c0 .39-.06.56-.06.56z"/><path d="M166.19 279.83c.15 0 .26 26.12.26 58.33l-.26 58.33c-.15 0-.26-26.11-.26-58.33l.26-58.33zM103.7 431.89a4.39 4.39 0 0 1-.5-.7l-.58-.86a11.61 11.61 0 0 1-.72-1.22 30.77 30.77 0 0 1-3.17-8.45 41.86 41.86 0 0 1-.62-13.37 53.5 53.5 0 0 1 4.34-15.81 32.83 32.83 0 0 1 4.53-7.21 18.21 18.21 0 0 1 1.33-1.56l1.36-1.48 2.86-2.63a46.1 46.1 0 0 1 5.81-4.21l2.85-1.56 2.73-1.25a31.28 31.28 0 0 1 8.72-2.32 16.47 16.47 0 0 1 2.45-.15 5.16 5.16 0 0 1 .86 0 6.66 6.66 0 0 1-.85.09 21.58 21.58 0 0 0-2.43.25 32.77 32.77 0 0 0-8.61 2.46c-.89.33-1.75.83-2.69 1.26s-1.84 1-2.81 1.58a46.15 46.15 0 0 0-5.72 4.21c-1 .78-1.87 1.71-2.82 2.61l-1.34 1.46a19.38 19.38 0 0 0-1.3 1.55 32.5 32.5 0 0 0-4.46 7.11 53.61 53.61 0 0 0-4.33 15.64 42.24 42.24 0 0 0 .5 13.24 32.32 32.32 0 0 0 3 8.43 10.64 10.64 0 0 0 .68 1.24l.53.89a6.44 6.44 0 0 1 .4.76z"/></g></svg>