<svg xmlns="http://www.w3.org/2000/svg" xmlns:xlink="http://www.w3.org/1999/xlink" width="523" height="336" xmlns:v="https://vecta.io/nano"><circle cx="766.35" cy="561.776" r="43.067" transform="matrix(.707107 -.707107 .707107 .707107 -511.27668 424.4313)" fill="#2f2e41"/><circle cx="762.929" cy="551.366" r="14.719" transform="matrix(.976367 -.21612 .21612 .976367 -439.63078 -104.08519)" fill="#fff"/><circle cx="756.966" cy="547.565" r="4.906" transform="matrix(.976367 -.21612 .21612 .976367 -438.95016 -105.46366)" fill="#3f3d56"/><path d="M426.148 250.66c-17.613-.033-29.978-3.179-29.948-19.136s14.332-28.867 31.945-28.834 31.868 12.995 31.838 28.952-16.222 19.05-33.835 19.018z" fill="#1e3a8a"/><path d="M495.352 286.974c-5.052 17.526-19.804 29.795-35.191 40.217q-3.223 2.183-6.448 4.266c-.015.006-.03.02-.044.026l-.303.2-1.328.855.242.109s.237.126-.022.02l-.235-.094c-8.939-3.605-18.037-7.476-24.888-14.23-7.106-7.014-11.26-18.014-7.411-27.228a17.59 17.59 0 0 1 1.905-3.419 19.14 19.14 0 0 1 .998-1.294c4.322-5.275 11.155-7.805 17.87-6.617s12.265 5.909 14.515 12.347c1.131-10.526-7.549-19.343-15.901-25.848s-17.851-13.583-19.467-24.051c-.902-5.824 1.123-11.468 4.812-15.999l.346-.409a27.52 27.52 0 0 1 17.687-9.489c12.813-1.332 25.259 5.451 34.568 14.359 14.982 14.334 24.039 36.35 18.296 56.278z" fill="#e6e6e6"/><path d="M471.267 264.05a46.78 46.78 0 0 1 5.604 12.361 40.62 40.62 0 0 1 1.404 11.997c-.343 8.327-2.681 16.449-6.816 23.685a74.9 74.9 0 0 1-11.299 15.099q-3.223 2.183-6.448 4.266c-.015.006-.03.02-.044.026l-.303.2-1.328.855s.479.235.219.129l-.235-.094c1.626-13.329-3.313-26.619-13.249-35.651a41.76 41.76 0 0 0-17.146-9.226 19.14 19.14 0 0 1 .998-1.294c2.457.689 4.849 1.594 7.147 2.704a42.43 42.43 0 0 1 19.182 18.493c3.807 7.323 5.445 15.58 4.723 23.801l1.092-1.01c6.793-6.333 12.826-13.602 16.91-21.992 3.542-7.105 5.284-14.971 5.07-22.907-.333-8.653-3.781-16.668-8.773-23.646-5.471-7.444-11.935-14.105-19.211-19.798a115.16 115.16 0 0 0-23.892-14.751.83.83 0 0 1-.417-1.063.7.7 0 0 1 .346-.409.61.61 0 0 1 .532.023l3.139 1.49a116.45 116.45 0 0 1 24.062 15.873c7.083 6.039 13.751 12.938 18.733 20.838z" fill="#fff"/><g fill="#2f2e41"><ellipse cx="73.714" cy="331.46" rx="10.903" ry="4.089"/><ellipse cx="99.881" cy="330.915" rx="10.903" ry="4.089"/><ellipse cx="469.744" cy="542.424" rx="21.534" ry="6.76" transform="matrix(.866352 -.499434 .499434 .866352 -546.62487 25.10005)"/><circle cx="420.936" cy="555.946" r="43.067" transform="matrix(.160182 -.987087 .987087 .160182 -533.75772 600.39468)"/><path d="M62.811 307.746h13.084v23.442H62.811zm26.167 0h13.084v23.442H88.978z"/></g><circle cx="83.527" cy="263.043" r="14.719" fill="#fff"/><circle cx="83.527" cy="263.043" r="4.906" fill="#3f3d56"/><path d="M40.66 233.895c-3.477-15.574 7.639-31.31 24.829-35.149s33.944 5.675 37.422 21.249-7.915 21.318-25.105 25.156-33.668 4.318-37.145-11.256z" fill="#e6e6e6"/><ellipse cx="372.428" cy="535.963" rx="6.76" ry="21.534" transform="matrix(.428529 -.903528 .903528 .428529 -609.92557 360.7865)" fill="#2f2e41"/><path d="M61.282 289.483c0 4.215 10.853 12.539 22.897 12.539s23.335-11.867 23.335-16.082-11.292.818-23.335.818-22.897-1.489-22.897 2.726z" fill="#fff"/><g fill="#2f2e41"><ellipse cx="232.609" cy="331.46" rx="10.903" ry="4.089"/><ellipse cx="206.441" cy="330.915" rx="10.903" ry="4.089"/><ellipse cx="513.579" cy="542.424" rx="6.76" ry="21.534" transform="matrix(.499434 -.866352 .866352 .499434 -551.35011 434.45934)"/><circle cx="223.886" cy="273.946" r="43.067"/><path d="M230.428 307.746h13.084v23.442h-13.084zm-26.167 0h13.084v23.442h-13.084z"/></g><circle cx="213.796" cy="263.043" r="14.719" fill="#fff"/><ellipse cx="545.296" cy="543.043" rx="4.921" ry="4.886" transform="matrix(.707424 -.706789 .706789 .707424 -562.77667 262.29055)" fill="#3f3d56"/><path d="M228.518 245.151c-17.19-3.838-28.582-9.582-25.105-25.156s20.232-25.087 37.422-21.249 28.306 19.575 24.829 35.149-19.956 15.094-37.145 11.256z" fill="#1e3a8a"/><ellipse cx="601.895" cy="567.963" rx="6.76" ry="21.534" transform="matrix(.96649 -.256704 .256704 .96649 -464.12902 -108.45868)" fill="#2f2e41"/><path d="M214.129 286.758c-7.907 0-15.32-5.033-15.32-.818s7.413 16.082 15.32 16.082 15.032-8.323 15.032-12.539-7.125-2.726-15.032-2.726z" fill="#fff"/><path d="M158.472 202.539h-3.825a12.94 12.94 0 0 1-12.923-12.923v-3.211c0-7.953 1.507-14.612 4.479-19.792a104.12 104.12 0 0 1 12.542-16.852 74.27 74.27 0 0 0 8.528-10.279 17.29 17.29 0 0 0 2.693-9.562c0-7.978-5.198-11.856-15.891-11.856-5.931.067-11.825.952-17.515 2.629-4.448 1.27-9.235.378-12.928-2.408s-5.864-7.144-5.864-11.77v-6.5a14.46 14.46 0 0 1 8.532-13.256 78.1 78.1 0 0 1 31.81-6.258c11.444 0 21.775 1.922 30.707 5.713 8.948 3.799 16.017 9.157 21.011 15.924a38.35 38.35 0 0 1 7.536 23.244c0 8.98-2.452 16.801-7.287 23.247-4.782 6.38-11.638 13.364-20.376 20.76a145.1 145.1 0 0 0-13.063 12.307 22.72 22.72 0 0 0-5.431 10.111 12.89 12.89 0 0 1-12.736 10.733zm-2.127 60.772h-.504c-13.222-.009-23.936-10.729-23.936-23.951s10.714-23.943 23.936-23.951h.504a23.95 23.95 0 1 1 0 47.902z" fill="#1e3a8a"/><path d="M312 336H1a1 1 0 1 1 0-2h311a1 1 0 1 1 0 2zm210 0H356a1 1 0 1 1 0-2h166a1 1 0 1 1 0 2z" fill="#ccc"/><ellipse cx="757.339" cy="582.032" rx="21.534" ry="6.76" transform="matrix(.999809 -.019554 .019554 .999809 -349.73597 -267.08009)" fill="#2f2e41"/><g fill="#fff"><use xlink:href="#A"/><use xlink:href="#A" x="12" y="-17"/><path d="M215.161 49h-26c-2.76-.003-4.997-2.24-5-5V18c.003-2.76 2.24-4.997 5-5h26c2.76.003 4.997 2.24 5 5v26c-.003 2.76-2.24 4.997-5 5zm-26-34c-1.656.002-2.998 1.344-3 3v26c.002 1.656 1.344 2.998 3 3h26c1.656-.002 2.998-1.344 3-3V18c-.002-1.656-1.344-2.998-3-3z"/><path d="M199.161 36h-26c-2.76-.003-4.997-2.24-5-5V5c.003-2.76 2.24-4.997 5-5h26c2.76.003 4.997 2.24 5 5v26c-.003 2.76-2.24 4.997-5 5zm-26-34c-1.656.002-2.998 1.344-3 3v26c.002 1.656 1.344 2.998 3 3h26c1.656-.002 2.998-1.344 3-3V5c-.002-1.656-1.344-2.998-3-3z"/><circle cx="321.22" cy="183.17" r="6.467"/><circle cx="61.22" cy="160.17" r="6.467"/><circle cx="497.22" cy="216.17" r="6.467"/></g><defs><path id="A" d="M408.161 149h-26c-2.76-.003-4.997-2.24-5-5v-26c.003-2.76 2.24-4.997 5-5h26c2.76.003 4.997 2.24 5 5v26c-.003 2.76-2.24 4.997-5 5zm-26-34c-1.656.002-2.998 1.344-3 3v26c.002 1.656 1.344 2.998 3 3h26c1.656-.002 2.998-1.344 3-3v-26c-.002-1.656-1.344-2.998-3-3z"/></defs></svg>