<svg xmlns="http://www.w3.org/2000/svg" width="256" height="256" fill="#f0f9ff" xmlns:v="https://vecta.io/nano"><path d="M148.752 137.048h-41.79c-1.132 0-2.155-.68-2.594-1.725-6.311-15.107-9.647-33.192-9.647-52.297 0-36.951 12.724-69.587 31.666-81.206a2.82 2.82 0 0 1 2.939 0c18.939 11.619 31.663 44.255 31.663 81.206 0 19.111-3.338 37.193-9.647 52.297-.436 1.045-1.458 1.725-2.591 1.725zm-39.899-5.62h38.005c5.569-14.07 8.509-30.758 8.509-48.402 0-33.523-11.237-64.124-27.513-75.454-16.276 11.33-27.516 41.928-27.516 75.454.003 17.641 2.942 34.33 8.514 48.402z"/><path d="M79.887 152.632c-.486 0-.972-.126-1.405-.379a2.81 2.81 0 0 1-1.405-2.431v-27.364a2.79 2.79 0 0 1 .52-1.627l18.259-25.72a2.82 2.82 0 0 1 3.026-1.085 2.81 2.81 0 0 1 2.065 2.464c1.186 13.342 4.162 26.018 8.61 36.665a2.81 2.81 0 0 1-1.191 3.518l-27.077 15.584a2.84 2.84 0 0 1-1.402.374zm2.81-29.277v21.609l20.746-11.94c-3.358-8.632-5.825-18.391-7.258-28.67l-13.488 19.001zm93.129 29.277a2.78 2.78 0 0 1-1.402-.377l-27.077-15.584c-1.228-.705-1.737-2.211-1.191-3.518 4.448-10.65 7.43-23.329 8.61-36.665a2.81 2.81 0 0 1 2.063-2.464c1.138-.312 2.346.126 3.026 1.085l18.259 25.72c.337.475.52 1.045.52 1.627v27.364c0 1.003-.534 1.93-1.402 2.431a2.76 2.76 0 0 1-1.405.382zm-23.556-19.608l20.746 11.94v-21.609l-13.488-18.998c-1.427 10.273-3.897 20.032-7.258 28.668zm-24.413-44.831a18.94 18.94 0 0 1-18.914-18.914c0-10.428 8.486-18.914 18.914-18.914s18.914 8.486 18.914 18.914a18.94 18.94 0 0 1-18.914 18.914zm0-32.211c-7.331 0-13.294 5.966-13.294 13.294s5.966 13.294 13.294 13.294 13.294-5.966 13.294-13.294-5.963-13.294-13.294-13.294zm0 118.535a2.82 2.82 0 0 1-1.47-.413c-6.123-3.757-10.079-13.612-10.079-25.107 0-5.766 1.014-11.243 2.934-15.843.438-1.045 1.461-1.725 2.594-1.725h12.041a2.81 2.81 0 0 1 2.594 1.725c1.919 4.594 2.934 10.071 2.934 15.843 0 11.496-3.956 21.35-10.077 25.107a2.79 2.79 0 0 1-1.47.413zm-4.08-37.469c-1.2 3.535-1.849 7.705-1.849 11.948 0 9.354 2.855 16.065 5.929 19.133 3.071-3.069 5.926-9.776 5.926-19.133 0-4.249-.649-8.416-1.849-11.948h-8.157zm4.08 102.751a2.81 2.81 0 0 1-2.81-2.81v-47.034a2.81 2.81 0 0 1 5.62 0v47.034a2.81 2.81 0 0 1-2.81 2.81zm-26.516-25.358a2.81 2.81 0 0 1-2.81-2.81v-54.329a2.81 2.81 0 0 1 5.62 0v54.331c0 1.551-1.256 2.807-2.81 2.807zm53.031 4.772a2.81 2.81 0 0 1-2.81-2.81v-54.331a2.81 2.81 0 1 1 5.62 0v54.331a2.81 2.81 0 0 1-2.81 2.81zm62.677 35.094H38.664c-12.712 0-23.376-9.987-23.77-22.261-.326-10.127 6.134-19.305 15.598-22.531 3.178-21.837 21.822-38.076 44.117-38.076a44.81 44.81 0 0 1 7.823.686 2.81 2.81 0 0 1 2.276 3.257c-.273 1.526-1.734 2.546-3.257 2.276a39.05 39.05 0 0 0-6.84-.599c-20.041 0-36.707 15.014-38.761 34.92-.121 1.18-.969 2.158-2.122 2.439-7.921 1.953-13.477 9.293-13.215 17.444.295 9.276 8.438 16.823 18.15 16.823h178.384c9.711 0 17.855-7.548 18.153-16.821.261-8.152-5.294-15.492-13.213-17.444a2.81 2.81 0 0 1-2.124-2.439c-2.054-19.906-18.72-34.92-38.761-34.92a39.08 39.08 0 0 0-6.84.599c-1.515.284-2.987-.747-3.257-2.276a2.81 2.81 0 0 1 2.276-3.257c2.56-.455 5.193-.686 7.82-.686 22.295 0 40.936 16.236 44.117 38.076 9.461 3.223 15.924 12.401 15.595 22.531-.391 12.271-11.055 22.258-23.767 22.258zM51.293 61.515c-5.398 0-9.79-4.392-9.79-9.79s4.392-9.79 9.79-9.79 9.79 4.392 9.79 9.79-4.392 9.79-9.79 9.79zm0-13.963c-2.299 0-4.17 1.871-4.17 4.17s1.871 4.17 4.17 4.17 4.17-1.871 4.17-4.17-1.871-4.17-4.17-4.17zM219.8 127.399c-5.398 0-9.79-4.392-9.79-9.79s4.392-9.79 9.79-9.79 9.79 4.392 9.79 9.79-4.392 9.79-9.79 9.79zm0-13.96c-2.299 0-4.17 1.871-4.17 4.17s1.871 4.17 4.17 4.17 4.17-1.871 4.17-4.17-1.871-4.17-4.17-4.17zm-33.861-83.542h-3.271a2.81 2.81 0 0 1 0-5.62h3.271a2.81 2.81 0 0 1 0 5.62zm16.399 0h-3.274a2.81 2.81 0 0 1 0-5.62h3.274a2.81 2.81 0 0 1 0 5.62zm-9.835-6.564a2.81 2.81 0 0 1-2.81-2.81v-3.271a2.81 2.81 0 1 1 5.62 0v3.271a2.81 2.81 0 0 1-2.81 2.81zm0 16.399a2.81 2.81 0 0 1-2.81-2.81v-3.274a2.81 2.81 0 1 1 5.62 0v3.274a2.81 2.81 0 0 1-2.81 2.81zM29.953 145.107H26.68a2.81 2.81 0 1 1 0-5.62h3.274a2.81 2.81 0 1 1 0 5.62zm16.397 0h-3.271a2.81 2.81 0 1 1 0-5.62h3.274a2.81 2.81 0 0 1 2.81 2.81c0 1.554-1.262 2.81-2.813 2.81zm-9.835-6.564a2.81 2.81 0 0 1-2.81-2.81v-3.271a2.81 2.81 0 1 1 5.62 0v3.271a2.81 2.81 0 0 1-2.81 2.81zm0 16.399a2.81 2.81 0 0 1-2.81-2.81v-3.274a2.81 2.81 0 1 1 5.62 0v3.274a2.81 2.81 0 0 1-2.81 2.81zm-3.58-56.281a2.77 2.77 0 0 1-1.068-.197c-.365-.169-.646-.365-.927-.618-.253-.253-.45-.562-.59-.899-.141-.365-.225-.731-.225-1.096a2.79 2.79 0 0 1 .225-1.068c.141-.337.337-.646.59-.927.253-.253.562-.45.927-.59a2.81 2.81 0 0 1 2.136 0 2.9 2.9 0 0 1 .927.59c.253.281.45.59.59.927.169.337.225.703.225 1.068a2.55 2.55 0 0 1-.225 1.096c-.141.337-.337.646-.59.899a2.83 2.83 0 0 1-1.995.815zm179.84-25.29c-.197 0-.365 0-.562-.056-.169-.028-.337-.084-.506-.141l-.506-.281a2.08 2.08 0 0 1-.422-.337 2.85 2.85 0 0 1-.815-1.995c0-.731.309-1.461.815-1.967.141-.141.281-.253.422-.365.169-.084.337-.197.506-.253.169-.084.337-.112.506-.169.927-.169 1.914.112 2.557.787.506.506.815 1.236.815 1.967 0 .197-.028.365-.056.562-.031.169-.084.365-.171.534-.056.169-.141.309-.253.478l-.337.421c-.531.534-1.264.815-1.992.815zm16.86 101.157a2.82 2.82 0 0 1-1.068-.194c-.337-.138-.646-.365-.927-.621a3.53 3.53 0 0 1-.618-.924c-.141-.337-.197-.702-.197-1.071 0-.731.309-1.461.815-1.995 1.04-1.037 2.95-1.037 3.99 0 .506.534.815 1.264.815 1.995a2.8 2.8 0 0 1-.225 1.071 2.61 2.61 0 0 1-.59.924c-.281.256-.59.481-.927.621s-.703.194-1.068.194zM77.895 22.791a2.83 2.83 0 0 1-1.995-.815 2.9 2.9 0 0 1-.815-1.995 2.79 2.79 0 0 1 .225-1.068c.141-.337.337-.646.59-.927 1.068-1.04 2.95-1.04 3.99 0 .253.281.45.59.59.927s.225.702.225 1.068c0 .731-.309 1.461-.815 1.995a2.83 2.83 0 0 1-1.995.815z"/></svg>