<svg xmlns="http://www.w3.org/2000/svg" xmlns:xlink="http://www.w3.org/1999/xlink" viewBox="0 0 500 500" xmlns:v="https://vecta.io/nano"><style><![CDATA[.m{fill:#fff}.n{fill:#1e40af}.o{fill:#263238}.p{opacity:.4}.q{opacity:.2}.r{opacity:.3}.s{opacity:.6}.t{fill:#e0e0e0}.u{opacity:.7}.v{fill:#ffb573}.w{fill:#f5f5f5}.x{opacity:.5}.y{fill:#e6ae76}.z{fill:#f0f0f0}.AA{fill:#e6e6e6}.AB{fill:#fafafa}.AC{fill:#ce7a63}.AD{fill:#de5753}.AE{fill:#e4897b}]]></style><path d="M0 382.4h500v.25H0zm416.78 16.09h33.12v.25h-33.12zm-94.25 2.72h8.69v.25h-8.69zm74.06-12h19.19v.25h-19.19zm-344.13 1.68h43.19v.25H52.46zm52.1 0h6.33v.25h-6.33zm26.91 4.22h93.68v.25h-93.68zM237 337.8H43.91a5.71 5.71 0 0 1-5.7-5.71V60.66a5.71 5.71 0 0 1 5.7-5.66H237a5.71 5.71 0 0 1 5.71 5.71v271.38a5.71 5.71 0 0 1-5.71 5.71zM43.91 55.2a5.46 5.46 0 0 0-5.45 5.46v271.43a5.46 5.46 0 0 0 5.45 5.46H237a5.47 5.47 0 0 0 5.46-5.46V60.66A5.47 5.47 0 0 0 237 55.2zm409.4 282.6h-193.1a5.72 5.72 0 0 1-5.71-5.71V60.66a5.72 5.72 0 0 1 5.71-5.66h193.1a5.71 5.71 0 0 1 5.69 5.66v271.43a5.71 5.71 0 0 1-5.69 5.71zM260.21 55.2a5.47 5.47 0 0 0-5.46 5.46v271.43a5.47 5.47 0 0 0 5.46 5.46h193.1a5.47 5.47 0 0 0 5.46-5.46V60.66a5.47 5.47 0 0 0-5.46-5.46z" fill="#ebebeb"/><path d="M387.62,344.53s11.93-17.08,3.7-36.68-3.39-27.07-3.39-27.07l8,15.87s7.49-11.72,4.55-25.49,3.83-36.92,3.83-36.92-2.44,26.8,1.84,37.44c0,0,6.26-10.32,8.49-20.74s9.07-31,9.07-31l-10.48,63.8,23-28.79s-23.41,39-26.53,46.61l25.44-12.7s-12.46,19.56-22.33,23.3-20.58,34.24-20.58,34.24Z" class="t"/><path d="M396.1,352.2s-10.36-21,2.07-41.32,8.33-29.46,8.33-29.46L395,297.68s-6.35-14.27-.75-29.05,2-41.61,2-41.61-1.81,30.15-8.35,41.24c0,0-5.2-12.51-5.92-24.45s-4.84-35.93-4.84-35.93l.87,72.56-20.62-35.82s19.4,47.22,21.58,56.19l-26.09-18.37c1.64-.66,16.42,21.44,20.85,29.61,5.65,10.4,17.06,41.45,17.06,41.45Z" class="z"/><path d="M361.65 343.08h61.81l-5 39.68h-51.81l-5-39.68z" class="w"/><path d="M65.78 109.65h178.91v124.62H65.78z" class="AA"/><path d="M71.48 114.58h170.4v115H71.48z" class="z"/><path d="M126.99 114.58l-30.71 115H80.56l30.64-115h15.79zm13.01 0l-30.7 115h-5.79l30.7-115H140zm101.88 30.29l-22.62 84.71h-5.79l28.41-106.4v21.69zm-20.64-30.29h15.58l-30.46 115h-15.79l30.67-115z" class="AB"/><path d="M153.23 109.65h4v124.62h-4z" class="AA"/><path d="M284.08 116.48h147.69v82.88H284.08z" class="t"/><path d="M287.23 118.86h141.39v78.11H287.23z" class="w"/><g class="t"><path d="M297.16 127.83h1.05v62.2h-1.05z"/><path d="M297.39 188.8h121.06v1.23H297.39zm5.83-7.88l-.94-.69 18.46-25.19 2.82 3.58 11.99-12.34 7.55 5.99 14.51-20.96 11.25 35.31 5.96-10.87 2.94 2.03 14.32-11.25 1.98 4.63 21.09-15.08.68.95-22.27 15.93-1.96-4.57-13.8 10.83-2.58-1.78-6.65 12.13-11.35-35.64-13.87 20.03-7.7-6.11-12.18 12.54-2.7-3.42-17.55 23.95z"/></g><ellipse cx="250" cy="416.24" rx="193.89" ry="11.32" class="w"/><use xlink:href="#Y" class="o"/><use xlink:href="#Z" class="m p"/><path d="M159.11 272.98h-8.03l-.54-7h8.13l.44 7z" class="q"/><path d="M312.63 418.98h-6.12l-1-153.24h8.12l-1 153.24z" class="o"/><path d="M313.64 265.98l-.16 24.73-.84 128.27h-6.13l-.84-128.27-.16-24.73h8.13z" class="m x"/><path d="M313.64 265.98l-.16 25h-7.81l-.16-25h8.13z" class="q"/><use xlink:href="#Y" x="210" class="o"/><use xlink:href="#Z" x="210" class="m x"/><path d="M369.11 272.98h-8.03l-.54-7h8.13l.44 7z" class="q"/><path d="M97.59 418.98h-6.12l9-153.24h8.13L97.59 418.98z" class="o"/><path d="M108.6 265.98l-.54 7.37-10.47 145.63h-6.12l8.56-145.63.44-7.37h8.13z" class="m x"/><path d="M100.47 265.98h8.13l-.54 7h-8.03l.44-7z" class="q"/><use xlink:href="#A" class="n"/><use xlink:href="#A" class="m s"/><path d="M94.03 261.9h281.08v3.84H94.03z" class="q"/><use xlink:href="#B" class="n"/><use xlink:href="#B" class="m s"/><path d="M227.61 258.57l.98-3.73h40.56l18.67 1.87.71 1.86h-60.92z" class="o"/><path d="M269.15 254.84v3.73h-41.54l.98-3.73h40.56z" class="p"/><path d="M265.14 80.62h106.15v75.74H265.14z" class="n"/><path d="M265.14 80.62h106.15v75.74H265.14z" class="m s"/><path d="M299.31 82.9h64.62v3.77h-64.62z" fill="#ebebeb"/><circle cx="283.34" cy="93.19" r="7.64" class="z"/><use xlink:href="#a" class="n"/><use xlink:href="#a" class="m p"/><use xlink:href="#C" class="n"/><use xlink:href="#C" class="m p"/><use xlink:href="#b" class="n"/><use xlink:href="#b" class="m p"/><use xlink:href="#a" y="13.03" class="n"/><use xlink:href="#a" y="13.03" class="m p"/><path d="M275.7 136.32h19.26v19.26H275.7z" class="n"/><path d="M275.7 136.32h19.26v19.26H275.7z" class="m p"/><use xlink:href="#D" class="n"/><use xlink:href="#D" class="m p"/><use xlink:href="#E" class="n"/><use xlink:href="#E" class="m p"/><use xlink:href="#D" x="10.17" class="n"/><use xlink:href="#D" x="10.17" class="m p"/><use xlink:href="#E" x="10.17" class="n"/><use xlink:href="#E" x="10.17" class="m p"/><use xlink:href="#C" y="13.03" class="n"/><use xlink:href="#C" y="13.03" class="m p"/><use xlink:href="#C" x="32.49" class="n"/><use xlink:href="#C" x="32.49" class="m p"/><use xlink:href="#C" x="45.52" class="n"/><use xlink:href="#C" x="45.52" class="m p"/><use xlink:href="#b" x="45.52" class="n"/><use xlink:href="#b" x="45.52" class="m p"/><use xlink:href="#C" x="32.49" y="13.03" class="n"/><use xlink:href="#C" x="32.49" y="13.03" class="m p"/><path d="M321.22 136.32h19.26v19.26h-19.26z" class="n"/><path d="M321.22 136.32h19.26v19.26h-19.26z" class="m p"/><use xlink:href="#D" x="45.52" class="n"/><use xlink:href="#D" x="45.52" class="m p"/><use xlink:href="#E" x="45.52" class="n"/><use xlink:href="#E" x="45.52" class="m p"/><use xlink:href="#D" x="55.69" class="n"/><use xlink:href="#D" x="55.69" class="m p"/><use xlink:href="#E" x="55.69" class="n"/><use xlink:href="#E" x="55.69" class="m p"/><use xlink:href="#C" x="45.52" y="13.03" class="n"/><use xlink:href="#C" x="45.52" y="13.03" class="m p"/><use xlink:href="#c" class="n"/><use xlink:href="#c" class="m r"/><use xlink:href="#c" x="45.52" class="n"/><use xlink:href="#c" x="45.52" class="m r"/><path d="M293.29 94.41h17.12v2.46h-17.12zm0 4.53h24.18v.94h-24.18zm0 1.42h26.32v.94h-26.32z" class="t"/><path d="M353.45 90.55h7.29v2.64h-7.29z" class="n"/><path d="M353.45 90.55h7.29v2.64h-7.29z" class="m q"/><use xlink:href="#c" x="36.68" y="-41.69" class="n"/><use xlink:href="#c" x="36.68" y="-41.69" class="m x"/><path d="M275.7 132.24h11.19v1.66H275.7z" class="t"/><path d="M290.94 93.21a7.63 7.63 0 1 0-14.28 3.73 2.39 2.39 0 0 1 1.48-.87 1.94 1.94 0 0 1 .34 0 17.21 17.21 0 0 1 2.27 0 29 29 0 0 1 3.27.39 14.27 14.27 0 0 1 2.16.67h0a2.28 2.28 0 0 1 1.34 1.46l.26.82a7.61 7.61 0 0 0 3.16-6.2z" class="w"/><path d="M287.52 98.58a2.28 2.28 0 0 0-1.34-1.46h0a14.27 14.27 0 0 0-2.16-.67 29 29 0 0 0-3.27-.39 17.21 17.21 0 0 0-2.27 0h0a1.94 1.94 0 0 0-.34 0 2.39 2.39 0 0 0-1.48.87 7.62 7.62 0 0 0 6.65 3.9 7.33 7.33 0 0 0 3.13-.67 7.4 7.4 0 0 0 1.34-.77l-.26-.81z" class="n"/><path d="M281.52,92.41c.08,1.08.05,3-.77,3.65a10.21,10.21,0,0,1,2.57,2.14,3.73,3.73,0,0,0,.7-1.75c-1.14-.42-1-1.29-.7-2.08Z" class="v"/><path d="M282.25 93.21l1.07 1.16a2.47 2.47 0 0 0-.17.57 1.47 1.47 0 0 1-1-1.16 1.57 1.57 0 0 1 .1-.57z" class="q"/><path d="M285.33 89.17c1 .59.29 3-.22 3.18-.96.34-1.05-3.91.22-3.18z" class="o"/><path d="M281.59 90.82c-.09 1.43-.21 2.27.42 3.08a1.91 1.91 0 0 0 3.3-.58c.46-1.25.52-3.38-.81-4.12a2 2 0 0 0-2.91 1.62z" class="v"/><path d="M280.57 89.56c-.14.83.54 3.18 1.14 3.2s.94-1.26.78-2.47c.57-.1 4.08.35 3.64-1.14a1.43 1.43 0 0 0-1.23-.93 3.26 3.26 0 0 0-1.74-.85c.47.52.46.64.15.57a3.53 3.53 0 0 1-1.05-.43 1.36 1.36 0 0 0 0 .63c-.18-.08-.3-.38-1.5-.24.47.36.29.57.15.61a1.47 1.47 0 0 1-1.07 0 1.57 1.57 0 0 0 .73 1.05z" class="o"/><path d="M280.75 92.31a1.39 1.39 0 0 0 .78.7c.45.16.7-.24.6-.68s-.43-1-.89-.93a.62.62 0 0 0-.49.91z" class="v"/><path d="M283.7 91.48c0 .11 0 .21.11.22s.15-.07.16-.19 0-.22-.11-.23-.15.08-.16.2zm1.3.16c0 .11 0 .21.11.22s.15-.07.16-.19 0-.22-.11-.23-.16.08-.16.2z" class="o"/><path d="M284.59 91.64a4.19 4.19 0 0 0 .41 1.06.67.67 0 0 1-.57 0z" fill="#ed893e"/><path d="M284.08 93a0 0 0 0 0 0 0 .91.91 0 0 1-.7-.45h-.05a0 0 0 0 0 0 0 1 1 0 0 0 .76.49zm-.72-2h.05a.57.57 0 0 1 .47-.18.07.07 0 0 0 .08 0s0-.08-.06-.08a.66.66 0 0 0-.59.21.08.08 0 0 0 0 .1zm2.29.26h0a.07.07 0 0 0 0-.08.72.72 0 0 0-.44-.45.08.08 0 0 0-.09 0 .09.09 0 0 0 .05.09.5.5 0 0 1 .35.35.08.08 0 0 0 .13.09z" class="o"/><path d="M287.95 114.06h83.25v42.36h-83.25z" class="q"/><path d="M292.84 117.76h105.85v66.46H292.84z" class="n"/><path d="M292.84 117.76h105.85v66.46H292.84z" class="m q"/><circle cx="311.4" cy="136.92" r="7.67" transform="matrix(.22971 -.973259 .973259 .22971 106.6 408.53)" class="AB"/><path d="M299.18 121.36v15.56 32.22h72.72v-32.22-15.56h-72.72z" class="n"/><g class="m"><path d="M299.18 136.92h72.73v32.22h-72.73z" class="s"/><path d="M299.18 121.47h72.73v15.56h-72.73z" class="r"/></g><path d="M299.18 171.16h72.73v13.06h-72.73z" class="n"/><path d="M299.18 171.16h72.73v13.06h-72.73z" class="m u"/><path d="M375.67 121.36h19.44v61.73h-19.44z" class="n"/><path d="M375.67 121.36h19.44v61.73h-19.44z" class="m p"/><path d="M376.4 122.15h17.99v15.61H376.4z" class="n"/><path d="M376.4 122.15h17.99v15.61H376.4z" class="m u"/><path d="M304.18 145.33h10.2v1.13h-10.2zm0 1.81h15.41v1.13h-15.41zm0 1.58h14.35v1.13h-14.35zm0 5.42h52.75v1.17h-52.75zm0 2.98h56.8v1.17h-56.8zm0 2.98h55.66v1.17h-55.66zm0 2.98h53.8v1.17h-53.8zm72.73-20.96h10.13v1.51h-10.13zm0 3.13h9.16v.86h-9.16zm0 6.89h10.13v1.51h-10.13zm0 3.13h9.16v.86h-9.16zm0 6.9h10.13v1.51h-10.13zm0 3.12h9.16v.86h-9.16zm0 6.9h10.13v1.51h-10.13zm0 3.13h9.16v.86h-9.16zm-72.73 4.2h53.8v1.17h-53.8zm0-3.93h57.42v1.17h-57.42z" class="t"/><path d="M307.39 140.32l1-.16A15 15 0 0 1 310 140a28.78 28.78 0 0 1 3.35 0 12 12 0 0 1 1.42.21l.52.11h.17 0 .1 0a4.56 4.56 0 0 1 1.49.91 3.06 3.06 0 0 1 .35.37 7.63 7.63 0 1 0-11.63.47c.52-.87 1.08-1.67 1.62-1.75z" class="AA"/><path d="M311.44 144.6a7.63 7.63 0 0 0 6-2.93 3.06 3.06 0 0 0-.35-.37 4.56 4.56 0 0 0-1.49-.91h0-.1 0-.17l-.52-.11a12 12 0 0 0-1.42-.21 28.78 28.78 0 0 0-3.35 0 15 15 0 0 0-1.65.17l-1 .16c-.54.08-1.1.88-1.57 1.82a7.65 7.65 0 0 0 5.62 2.38z" class="o"/><path d="M310 140a28.78 28.78 0 0 1 3.35 0h.19a.6.6 0 0 1 .22.56c-.08.33-.54.44-.94.49a2 2 0 0 1-.08.43l-.13.38-.22-.33a1.9 1.9 0 0 0-.46-.45c-1.94-.05-2.23-1-2.25-1h0z" class="m"/><path d="M310.1 136.23l.89.74 1.22 1a4.13 4.13 0 0 0-.07.49 1.22 1.22 0 0 0 1.08 1.49s1.15.77-.56.91a2.7 2.7 0 0 1-.09.55 2.12 2.12 0 0 0-.55-.53c-1.88 0-2.13-.91-2.13-.91.73-.7.45-2.66.21-3.74z" class="AC"/><path d="M312.21,138a4.13,4.13,0,0,0-.07.49,1.55,1.55,0,0,1-1.13-1,2,2,0,0,1,0-.47Z" class="q"/><path d="M313 132.46c.73.33 1.13 2.38.21 2.82s-1.55-3.44-.21-2.82z" class="o"/><path d="M309.73 134.68c.31 1.43.42 2.28 1.26 2.94a1.91 1.91 0 0 0 3.09-1.38c.11-1.33-.42-3.45-1.93-3.86a1.93 1.93 0 0 0-2.42 2.3z" class="AC"/><path d="M308.06 133.25c-.7.31-.3 1.27.17 1.87.66.85 1.36 1.24 1.83.85a2.09 2.09 0 0 0 .34-2.24c.65-.43 3.09.63 3.82-1.15a1.7 1.7 0 0 0-.59-2.06 5 5 0 0 1-3.08 1c-1.55.11-3.19.91-2.49 1.73z" class="o"/><path d="M309.4 136.17a1.52 1.52 0 0 0 .9.54c.46.08.56-.34.33-.74s-.69-.85-1.1-.74-.43.59-.13.94z" class="AC"/><path d="M312 134.82c0 .12.09.2.17.19s.12-.11.11-.23-.1-.2-.18-.19-.1.11-.1.23zm1.32-.16c0 .12.1.2.17.19s.13-.11.11-.22-.09-.21-.17-.2-.13.11-.11.23z" class="o"/><path d="M312.91,134.77a4.52,4.52,0,0,0,.72.94.67.67,0,0,1-.55.17Z" fill="#ba4d3c"/><path d="M312.64 136.25a1.06 1.06 0 0 1-.74-.3 0 0 0 0 1 0 0 1 1 0 0 0 .82.28zm-1.13-1.81h0a.08.08 0 0 1 0-.1.67.67 0 0 1 .49-.34s.07 0 .07.07a.07.07 0 0 1-.06.07.52.52 0 0 0-.41.28.08.08 0 0 1-.09.02zm2.31-.31a.05.05 0 0 1-.05 0 .58.58 0 0 0-.44-.26.08.08 0 0 1-.07-.07.07.07 0 0 1 .07-.07h0a.7.7 0 0 1 .55.32v.1z" class="o"/><path d="M321.22 154.14h77.47v29.93h-77.47z" class="q"/><path d="M325.54 157.83h82.03v51.12h-82.03z" class="n"/><g class="m"><path d="M325.54 157.83h82.03v51.12h-82.03z" class="p"/><path d="M329.65 192.67h17.99v15.89h-17.99z" class="q"/></g><path d="M328.98 159.01h74.67v3.87h-74.67z" class="n"/><path d="M328.98 159.01h74.67v3.87h-74.67z" opacity="0" class="m"/><path d="M328.98 165.06h74.67v25h-74.67z" class="n"/><path d="M328.98 165.06h74.67v25h-74.67z" class="m u"/><circle cx="338.82" cy="184.26" r="7.65" transform="matrix(.22971 -.973259 .973259 .22971 81.64 471.68)" class="z"/><path d="M348.66 192.67h54.99v15.89h-54.99z" class="n"/><path d="M348.66 192.67h54.99v15.89h-54.99z" opacity=".8" class="m"/><path d="M349.72 170.43h52.86v2.35h-52.86zm0 5.96h52.86v2.35h-52.86zm0 6.5h52.86v2.35h-52.86zm35.43-22.53h16.03v1.18h-16.03zm-54.51.17h9.17v1.18h-9.17zm-.2 35.45h16.03v1.18h-16.03zm0 2.05h16.03v1.18h-16.03zm0 2.04h16.03v1.18h-16.03zm0 2.05h16.03v1.18h-16.03zm0 2.04h16.03v1.18h-16.03zm19.28-4h52.86v2.35h-52.86zm0 3.58h52.86v2.35h-52.86z" class="t"/><path d="M346.45 184.35a7.63 7.63 0 1 0-10.91 6.89l-.36-1.1-.39-1.17a19.77 19.77 0 0 1 2.63-.64 22.57 22.57 0 0 1 2.85-.3l2.65.13s.2.05.33 1.36c0 .26.05.59.07 1a7.61 7.61 0 0 0 3.13-6.17z" class="w"/><path d="M341.05 181.08a2.1 2.1 0 0 1 .89 1.8 22.81 22.81 0 0 0-.13 3.11 4.87 4.87 0 0 1-.41 2.11 7.15 7.15 0 0 0-.22-1.16s0 .31-.43.43-3.79.2-4.55-.43.83-5.7 1.7-6a9.74 9.74 0 0 1 3.15.14z" class="o"/><use xlink:href="#F" class="n"/><use xlink:href="#F" class="m r"/><path d="M337.24 181.17c.58-1.18 3.67-1.19 4.27-.06.78 1.44 2.34 2.89 1.87 4.9a1.59 1.59 0 0 0-.24-.58 2 2 0 0 1-1.46 2.2 9.37 9.37 0 0 1-4.92-.3 1.42 1.42 0 0 1-.17-.78.92.92 0 0 0-.09.68 2.17 2.17 0 0 1-.79-2.67c.59-1.67.36-3.65 1.53-3.39z" class="o"/><path d="M339.74 189.44a2.92 2.92 0 0 1-2-.87c1-.94.17-2.56.17-2.56l1.88.35a5 5 0 0 0-.07.79c0 1.15.5 1.16.5 1.16.3.62-.48 1.13-.48 1.13z" class="v"/><path d="M339.76,186.36a5,5,0,0,0-.07.79,2.1,2.1,0,0,1-1.81-1.14Z" class="q"/><path d="M336.26 188.74a6.78 6.78 0 0 0 3.55 1.47c1.71 0 2.31-2 2.31-2a9.8 9.8 0 0 0-5.86.53zm3.59-7.34c1.55.26 1.9 1.17 1.74 2.78-.2 2-.88 3.35-2.73 2.6-2.52-1.03-1.57-5.78.99-5.38z" class="v"/><path d="M340.61,183.93a3.42,3.42,0,0,0,.34.71.44.44,0,0,1-.44.11Z" class="AD"/><g class="o"><path d="M339.69 183.64c0 .13-.1.22-.19.21a.22.22 0 0 1-.12-.26c0-.12.1-.22.19-.2s.14.12.12.25z"/><path d="M339.53 183.39l.29-.07s-.17.21-.29.07zm1.74.45c0 .13-.1.22-.18.21s-.14-.12-.12-.25.1-.22.18-.21.14.13.12.25z"/><path d="M341.12 183.59l.29-.07s-.17.22-.29.07zm-1.97-.83a.05.05 0 0 1 0 0 .06.06 0 0 1 0-.09.85.85 0 0 1 .77-.13.07.07 0 0 1 .05.08.06.06 0 0 1-.09 0 .76.76 0 0 0-.64.11zm2.43.24h-.05a.67.67 0 0 0-.53-.22.07.07 0 1 1 0-.13.8.8 0 0 1 .66.25.07.07 0 0 1 0 .09l-.08.01z"/><path d="M337.72 183.71a4.68 4.68 0 0 0 1-2.14s3.27-.73 2.89 2.4c0 0 .77-2.7-1.87-3.22s-3 4.55-1.79 5.94c.05 0-.81-2.26-.23-2.98z"/></g><path d="M337.92 184.08a.68.68 0 0 0-.62-.74c-.49 0-.89.91.26 1.35.17.06.29-.09.36-.61z" class="v"/><g class="o"><path d="M338.39,181.22a4.61,4.61,0,0,0,1.4,1,14.56,14.56,0,0,0,2.11.57c-.28,1.41-.22,2.59.46,3.32-.25-.41.15-3.59.11-3.86-.1-.65-.74-1.06-1.48-1.56a3.27,3.27,0,0,0-1.84-.42Z"/><path d="M337.61,181.56v1.82a2.08,2.08,0,0,0,.19,1.66,9.73,9.73,0,0,1,.15-2.11l.61-1.2Z"/></g><use xlink:href="#d" class="n"/><use xlink:href="#d" class="m r"/><use xlink:href="#e" class="n"/><use xlink:href="#e" class="m r"/><path d="M340.54 185.5h.23-.05a1.18 1.18 0 0 1-.94-.37h-.05c-.05 0 0 0 0 0a1.23 1.23 0 0 0 .81.37z" class="o"/><path d="M103.67 79.78h148.11v97.04H103.67z" class="n"/><path d="M103.67 79.78h148.11v97.04H103.67z" class="m q"/><path d="M106.86 93.51h35.11v75.65h-35.11z" class="n"/><path d="M106.86 93.51h35.11v75.65h-35.11z" class="m p"/><path d="M106.86 82.02h141.72v7.34H106.86z" class="n"/><path d="M106.86 82.02h141.72v7.34H106.86z" class="m u"/><path d="M141.97 93.51h106.61v31.92H141.97z" class="n"/><path d="M141.97 93.51h106.61v31.92H141.97z" opacity=".8" class="m"/><path d="M144.2 129.58h104.38v7.82H144.2z" class="n"/><path d="M144.2 129.58h104.38v7.82H144.2z" class="m x"/><path d="M144.2 141.71h104.38v27.45H144.2z" class="n"/><path d="M144.2 141.71h104.38v27.45H144.2z" class="m s"/><path d="M109.2 136.28h30.43v2.23H109.2zm0 5.43h30.43v2.23H109.2zm82.73-39.13h30.43v2.23h-30.43zm0 4.46h30.43v2.23h-30.43zm0 3.43h30.43v2.23h-30.43zm-82.73 36.66h30.43v2.23H109.2zm0 5.43h30.43v2.23H109.2zm37.03-20.23h100.34v2.31H146.23zm15.53 17.04h69.27v2.31h-69.27zm0 4.91h69.27v2.31h-69.27zm0 4.91h69.27v2.31h-69.27zm-44.48-75.1h120.87v3.2H117.28z" class="t"/><circle cx="124.41" cy="110.91" r="14.52" class="AB"/><path d="M285.53 175.82l-.56 10.6"/><use xlink:href="#G" class="o"/><use xlink:href="#G" opacity=".1" class="m"/><path d="M106 242.08h73.75a4 4 0 0 0 4-4.4l-4.1-46.85a4.9 4.9 0 0 0-4.79-4.4h-73.71a4 4 0 0 0-4 4.4l4.1 46.85a4.89 4.89 0 0 0 4.75 4.4z" class="o"/><use xlink:href="#H" class="n"/><g class="m"><use xlink:href="#H" class="u"/><path d="M164.14 194.5h-28.92l-.02-.54h28.92l.02.54zm.44 1.65h-19.87l-.02-.54h19.87l.02.54zm.08 1.65h-16.27l-.02-.54h16.26l.03.54zm.25 1.65h-21.12l-.02-.54h21.11l.03.54zm.18 1.66h-14.01l-.02-.54h14l.03.54zm.61 5.03h-28.92l-.02-.54h28.91l.03.54zm.23 1.65h-25.72l-.03-.53h25.73l.02.53zm.28 1.66h-16.26l-.02-.54h16.26l.02.54zm.16 1.65h-21.11l-.02-.54h21.11l.02.54zm.24 1.65h-25.22l-.02-.54h25.22l.02.54zm-.32 2.6h-28.91l-.03-.54h28.92l.02.54zm.45 1.65h-19.88l-.02-.53h19.87l.03.53zm.07 1.66h-16.26l-.03-.54h16.26l.03.54zm.25 1.65h-21.12l-.02-.54h21.11l.03.54zm.18 1.65h-14.01l-.02-.54h14l.03.54zm.61 5.04h-28.91l-.03-.54h28.92l.02.54zm.24 1.65h-25.73l-.03-.54h25.73l.03.54zm.28 1.65H152.1l-.02-.54h16.26l.03.54zm.16 1.65h-21.12l-.02-.54h21.11l.03.54zm.23 1.65h-25.22l-.02-.54h25.22l.02.54z"/></g><g class="n"><use xlink:href="#I"/><use xlink:href="#I"/></g><path d="M125.45 202.28h-8.82a2.42 2.42 0 0 1-2.41-2.21l-.23-2.52a2.42 2.42 0 0 1 2.41-2.63h8.82a2.42 2.42 0 0 1 2.41 2.2l.22 2.52a2.41 2.41 0 0 1-2.4 2.64z" class="o"/><g class="m"><path d="M125.11 196.22h-6.46l-.01-.2h6.45l.02.2zm-3.3.62h-3.1l-.02-.2h3.1l.02.2zm.86.62h-3.9l-.02-.21h3.9l.02.21zm-2.47.62h-1.38l-.02-.21h1.38l.02.21zm-.43.62h-.89l-.02-.21h.89l.02.21zm5.76.58h-6.46l-.01-.21h6.46l.01.21zm-3.3.62h-3.1l-.02-.21h3.1l.02.21zm.86.61h-3.9l-.02-.2h3.9l.02.2zm-2.47.62h-1.38l-.02-.2h1.38l.02.2zm-.43.62h-.89l-.02-.2h.89l.02.2z"/><path d="M117.9 201.25h-2a.85.85 0 0 1-.85-.75l-.4-3.54a.85.85 0 0 1 .85-.94h2a.85.85 0 0 1 .85.75l.4 3.54a.85.85 0 0 1-.85.94z"/></g><path d="M115.39,201h3.13l-.15-1.12a1.85,1.85,0,0,0-1.21-.48,1.17,1.17,0,0,0,.76-1.12c-.08-.82-.36-1.56-1.19-1.56s-1,.79-1,1.56a1.4,1.4,0,0,0,.71,1.14,1.25,1.25,0,0,0-1.19.44Z" class="o"/><g class="n"><use xlink:href="#J"/><use xlink:href="#J"/></g><path d="M126.7 212.67h-9.39a2.13 2.13 0 0 1-2.12-1.94l-.28-3.09a2.13 2.13 0 0 1 2.13-2.32h9.38a2.13 2.13 0 0 1 2.13 1.94l.28 3.09a2.14 2.14 0 0 1-2.13 2.32z" class="o"/><g class="m"><path d="M126.06 206.62h-6.46l-.02-.21h6.46l.02.21zm-3.31.62h-3.1l-.02-.21h3.1l.02.21zm.86.62h-3.9l-.02-.21h3.9l.02.21zm-2.47.61h-1.38l-.01-.2h1.37l.02.2zm-.43.62h-.89l-.02-.2h.89l.02.2zm5.77.59h-6.46l-.02-.21h6.46l.02.21zm-3.31.61h-3.1l-.01-.2h3.09l.02.2zm.86.62h-3.9l-.02-.2h3.9l.02.2zm-2.47.62h-1.38l-.01-.2h1.37l.02.2zm-.43.62h-.89l-.02-.2h.89l.02.2z"/><path d="M118.47 211.65h-1.27a1.19 1.19 0 0 1-1.19-1.06l-.32-2.85a1.18 1.18 0 0 1 1.18-1.32h1.27a1.19 1.19 0 0 1 1.19 1.05l.32 2.86a1.19 1.19 0 0 1-1.18 1.32z"/></g><path d="M116.33,211.42h3.13l-.15-1.12a1.85,1.85,0,0,0-1.2-.48,1.15,1.15,0,0,0,.75-1.12c-.07-.82-.36-1.56-1.19-1.56s-1,.79-1,1.56a1.4,1.4,0,0,0,.71,1.14c-.5-.15-.85.15-1.19.44Z" class="o"/><g class="n"><use xlink:href="#K"/><use xlink:href="#K"/></g><path d="M127.64 223.31h-9.35a2.15 2.15 0 0 1-2.15-2l-.27-3A2.16 2.16 0 0 1 118 216h9.35a2.16 2.16 0 0 1 2.15 2l.27 3.05a2.14 2.14 0 0 1-2.13 2.26z" class="o"/><g class="m"><path d="M127.02 217.26h-6.46l-.02-.21H127l.02.21zm-3.31.62h-3.1l-.02-.21h3.1l.02.21zm.86.62h-3.9l-.02-.21h3.9l.02.21zm-2.47.61h-1.38l-.02-.2h1.38l.02.2zm-.43.62h-.89l-.02-.2h.89l.02.2zm5.77.58h-6.47l-.01-.2h6.46l.02.2zm-3.31.62h-3.1l-.02-.2h3.1l.02.2zm.86.62h-3.9l-.02-.2h3.9l.02.2zm-2.47.62h-1.38l-.02-.2h1.38l.02.2zm-.43.62h-.89l-.02-.2h.89l.02.2z"/><path d="M119.52 222.29h-1.45a1.09 1.09 0 0 1-1.09-1l-.35-3a1.11 1.11 0 0 1 1.1-1.23h1.45a1.12 1.12 0 0 1 1.1 1l.34 3a1.11 1.11 0 0 1-1.1 1.23z"/></g><path d="M117.29,222.06h3.13l-.15-1.12a1.85,1.85,0,0,0-1.21-.48,1.16,1.16,0,0,0,.76-1.13c-.08-.81-.36-1.56-1.19-1.56s-1,.8-1,1.56a1.4,1.4,0,0,0,.71,1.15c-.5-.15-.85.15-1.19.43Z" class="o"/><g class="n"><use xlink:href="#L"/><use xlink:href="#L"/></g><path d="M129 233.71h-10a1.82 1.82 0 0 1-1.81-1.65l-.33-3.73a1.82 1.82 0 0 1 1.81-2h10a1.81 1.81 0 0 1 1.8 1.65l.34 3.74a1.81 1.81 0 0 1-1.81 1.99z" class="o"/><g class="m"><path d="M127.96 227.66h-6.46l-.02-.21h6.46l.02.21zm-3.31.61h-3.1l-.02-.2h3.11l.01.2zm.86.62h-3.9l-.02-.2h3.91l.01.2zm-2.47.62h-1.37l-.02-.2h1.37l.02.2zm-.43.62h-.89l-.02-.2h.89l.02.2zm5.77.58h-6.46l-.02-.2h6.46l.02.2zm-3.31.62h-3.1l-.01-.2h3.1l.01.2zm.86.62h-3.9l-.02-.2h3.91l.01.2zm-2.47.62h-1.38l-.01-.2h1.37l.02.2zm-.43.62h-.89l-.02-.2h.89l.02.2z"/><path d="M120.33 232.69h-1.2a1.23 1.23 0 0 1-1.22-1.09l-.32-2.78a1.24 1.24 0 0 1 1.23-1.37H120a1.22 1.22 0 0 1 1.22 1.09l.32 2.78a1.23 1.23 0 0 1-1.21 1.37z"/></g><path d="M118.24 232.46h3.12l-.15-1.12a1.85 1.85 0 0 0-1.2-.49 1.14 1.14 0 0 0 .75-1.12c-.07-.81-.36-1.56-1.19-1.56s-1 .8-1 1.56a1.4 1.4 0 0 0 .72 1.15 1.26 1.26 0 0 0-1.2.43zm107.94-.4h8.01l-2.14 22.92 17.96 1.9v1.59h-38.82v-1.59l12.32-1.9 2.67-22.92z" class="o"/><path d="M226.18 232.06h8.01l-2.14 22.92 17.96 1.9v1.59h-38.82v-1.59l12.32-1.9 2.67-22.92z" opacity=".1" class="m"/><path d="M194.62 242.15h74.88a4 4 0 0 0 4.07-4.47l-4.16-47.56a5 5 0 0 0-4.86-4.47h-74.87a4 4 0 0 0-4.08 4.47l4.16 47.56a5 5 0 0 0 4.86 4.47z" class="o"/><use xlink:href="#M" class="n"/><use xlink:href="#M" class="m u"/><path d="M218.15 227.33l-5.81-26a.62.62 0 0 0-1.08-.27l-5.86 6.74a.62.62 0 0 1-1.07-.26l-.88-3.33a.62.62 0 0 0-1.18-.06l-4.76 12.59a.62.62 0 0 1-.8.36h0a.61.61 0 0 1-.36-.8l6.13-16.3a.62.62 0 0 1 1.18.07l1.27 4.82a.63.63 0 0 0 1.08.25l5.93-6.82a.61.61 0 0 1 1.07.27l5.39 24.11a.62.62 0 0 0 1.2.06l7.73-22.74a.62.62 0 0 1 1.15-.07l2.39 4.91a.62.62 0 0 0 1.12 0l5.26-11.6a.63.63 0 0 1 1.18.11l6.14 25a.62.62 0 0 0 1.14.17l15.93-27.33a.62.62 0 0 1 .85-.23h0a.61.61 0 0 1 .22.85l-17.47 30a.62.62 0 0 1-1.14-.17l-6-24.53a.62.62 0 0 0-1.17-.11L232 207.8a.62.62 0 0 1-1.12 0l-2.23-4.57a.62.62 0 0 0-1.15.07l-8.18 24.07a.62.62 0 0 1-1.17-.04z" class="o"/><rect x="195.78" y="227.75" width="66.53" height="2.38" rx="1.08" transform="matrix(-1 0 0 -1 458.09 457.88)" class="n"/><g class="o"><use xlink:href="#N"/><rect x="250.01" y="232.36" width="8.13" height=".63" rx=".28" transform="matrix(-1 0 0 -1 508.15 465.34)"/></g><rect x="250.01" y="232.36" width="8.13" height=".63" rx=".28" transform="matrix(-1 0 0 -1 508.15 465.34)" class="m p"/><g transform="matrix(-1 0 0 -1 508.15 468.21)"><rect x="250.01" y="233.79" width="8.13" height=".63" rx=".28" class="o"/><rect x="250.01" y="233.79" width="8.13" height=".63" rx=".28" class="m p"/></g><g transform="matrix(-1 0 0 -1 508.15 471.09)"><rect x="250.01" y="235.23" width="8.13" height=".63" rx=".28" class="o"/><rect x="250.01" y="235.23" width="8.13" height=".63" rx=".28" class="m p"/></g><g class="o"><use xlink:href="#N" x="-16.82"/><rect x="233.19" y="232.36" width="8.13" height=".63" rx=".28" transform="matrix(-1 0 0 -1 474.51 465.34)"/></g><rect x="233.19" y="232.36" width="8.13" height=".63" rx=".28" transform="matrix(-1 0 0 -1 474.51 465.34)" class="m p"/><g transform="matrix(-1 0 0 -1 474.51 468.21)"><rect x="233.19" y="233.79" width="8.13" height=".63" rx=".28" class="o"/><rect x="233.19" y="233.79" width="8.13" height=".63" rx=".28" class="m p"/></g><g transform="matrix(-1 0 0 -1 474.51 471.09)"><rect x="233.19" y="235.23" width="8.13" height=".63" rx=".28" class="o"/><rect x="233.19" y="235.23" width="8.13" height=".63" rx=".28" class="m p"/></g><g class="o"><use xlink:href="#N" x="-33.43"/><rect x="216.58" y="232.36" width="8.13" height=".63" rx=".28" transform="matrix(-1 0 0 -1 441.29 465.34)"/></g><rect x="216.58" y="232.36" width="8.13" height=".63" rx=".28" transform="matrix(-1 0 0 -1 441.29 465.34)" class="m p"/><g transform="matrix(-1 0 0 -1 441.29 468.21)"><rect x="216.58" y="233.79" width="8.13" height=".63" rx=".28" class="o"/><rect x="216.58" y="233.79" width="8.13" height=".63" rx=".28" class="m p"/></g><g transform="matrix(-1 0 0 -1 441.29 471.09)"><rect x="216.58" y="235.23" width="8.13" height=".63" rx=".28" class="o"/><rect x="216.58" y="235.23" width="8.13" height=".63" rx=".28" class="m p"/></g><g class="o"><path d="M209.31 232.74a1.37 1.37 0 1 0 1.37-1.37 1.37 1.37 0 0 0-1.37 1.37z"/><rect x="199.58" y="232.36" width="8.13" height=".63" rx=".28" transform="matrix(-1 0 0 -1 407.3 465.34)"/></g><rect x="199.58" y="232.36" width="8.13" height=".63" rx=".28" transform="matrix(-1 0 0 -1 407.3 465.34)" class="m p"/><g transform="matrix(-1 0 0 -1 407.3 468.21)"><rect x="199.58" y="233.79" width="8.13" height=".63" rx=".28" class="o"/><rect x="199.58" y="233.79" width="8.13" height=".63" rx=".28" class="m p"/></g><g transform="matrix(-1 0 0 -1 407.3 471.09)"><rect x="199.58" y="235.23" width="8.13" height=".63" rx=".28" class="o"/><rect x="199.58" y="235.23" width="8.13" height=".63" rx=".28" class="m p"/></g><use xlink:href="#O" class="o"/><use xlink:href="#O" class="m q"/><g class="o"><circle cx="296.97" cy="411.42" r="7.47"/><circle cx="370.16" cy="411.42" r="7.47"/><use xlink:href="#P"/></g><use xlink:href="#P" class="m r"/><path d="M325.6,324.89s13.65-48.56,15.91-110a13.66,13.66,0,0,1,13.67-13.14H379.7a13.67,13.67,0,0,1,13.68,13.61c.09,22.33-1.47,72.45-14.06,109.57Z" class="o"/><path d="M379.31 324.89H325.6s13.65-48.56 15.91-110a13.66 13.66 0 0 1 13.67-13.14h24.51a13.68 13.68 0 0 1 13.69 13.61c.09 22.29-1.47 72.41-14.07 109.53z" class="m r"/><use xlink:href="#Q" class="o"/><use xlink:href="#Q" class="m r"/><path d="M379.31 324.89H331.6s13.65-48.56 15.91-110a13.66 13.66 0 0 1 13.67-13.14h18.51a13.68 13.68 0 0 1 13.69 13.61c.09 22.29-1.47 72.41-14.07 109.53z" class="q"/><use xlink:href="#R" class="n"/><use xlink:href="#R" class="q"/><use xlink:href="#f" class="n"/><use xlink:href="#f" class="r"/><g transform="matrix(-1 0 0 -1 658.23 653.35)"><rect x="277.95" y="323.75" width="102.33" height="5.84" rx="2.01" class="o"/><rect x="277.95" y="323.75" width="102.33" height="5.84" rx="2.01" class="m s"/></g><rect x="335.01" y="323.75" width="45.27" height="5.84" rx="2.01" transform="matrix(-1 0 0 -1 715.29 653.35)" class="q"/><use xlink:href="#S" class="o"/><use xlink:href="#S" class="m r"/><g class="y"><path d="M197.53 136l2.2 2.45a3.86 3.86 0 0 1 .88 3.4l-1.27 5.66a7.15 7.15 0 0 1-4.22 5l-1.32.55c-3.93-3.82-5.35-10.85-5.35-10.85l-.63-2a3.2 3.2 0 0 1 2-4.09l3.86-1.29a3.67 3.67 0 0 1 3.85 1.17z"/><path d="M244.38 161.8l-.24.37-.19.27-.35.49-.7.91-1.42 1.66c-.95 1.07-2 2.05-3 3a57.11 57.11 0 0 1-6.48 5.12l-3.44 2.19-3.55 1.95a72.57 72.57 0 0 1-7.32 3.3l-.3.12a5.13 5.13 0 0 1-.74.21 10.91 10.91 0 0 1-4.27-.1 12.49 12.49 0 0 1-3.44-1.37 19 19 0 0 1-4.56-3.81 34.62 34.62 0 0 1-3.11-4.1l-2.45-4.19-2.06-4.25-1.77-4.31-1.54-4.36-.68-2.2-.62-2.26a2.85 2.85 0 0 1 5.29-2v.08l1 1.91 1 1.92 2.12 3.8 2.23 3.7 2.33 3.54 2.47 3.28a29.14 29.14 0 0 0 2.6 2.77 10.23 10.23 0 0 0 2.43 1.71 2.55 2.55 0 0 0 .74.2c.14 0 .15 0 .17-.07l-1 .33c2.11-1 4.15-2.18 6.14-3.36l2.92-1.87 2.81-2 1.35-1c.44-.31.88-.71 1.32-1.07l2.51-2.22 2.31-2.33c.37-.39.71-.78 1-1.17l.47-.57.21-.26.08-.11h0 0 0a5.73 5.73 0 0 1 9.62 6.22z"/></g><g class="n"><path d="M199.27,150.3c4.72,9,9.67,15.74,15.1,20.46,5.6-2.85,20.93-16.65,23.69-18l.44,18.05c-6.88,6.69-18.63,13.23-22.25,13.65-10.7,2.35-16.95-12.83-23.72-30.23Z"/><path d="M238.06 152.79s-9.65 10.89-.54 78.3H286c.34-7.44-4.34-43.72 2.84-78.77a126.05 126.05 0 0 0-16.22-2 179.07 179.07 0 0 0-20.6 0 91.32 91.32 0 0 0-13.96 2.47z"/></g><use xlink:href="#g" class="o"/><use xlink:href="#g" class="m q"/><circle cx="268.81" cy="191.88" r="11.56" transform="matrix(.066796 -.997767 .997767 .066796 59.42 447.29)" class="o"/><use xlink:href="#h" class="n"/><g class="m"><use xlink:href="#h" class="s"/><path d="M271.86 184.39a2 2 0 1 1-2.88-.2 2 2 0 0 1 2.88.2z" class="s"/></g><path d="M270.12,131.71c-.94,5.37-1.77,15.19,2,18.68,0,0-4.9,7.37-12.81,7.72-6.85.3-3.81-7.36-3.81-7.36,5.94-1.56,5.69-6,4.56-10.11Z" class="y"/><path d="M266 135.35l-5.93 5.29a17.18 17.18 0 0 1 .58 2.94c2.27-.38 7.16-5.24 7.35-7.62.16-.96-1.72.34-2-.61z" class="q"/><g class="y"><path d="M275.07 208.12l1.81-2.76a3.83 3.83 0 0 1 3.05-1.73l5.79-.23a7.13 7.13 0 0 1 5.95 2.77l.87 1.13c-2.68 4.78-9.09 8-9.09 8l-1.73 1.11a3.19 3.19 0 0 1-4.46-.86l-2.26-3.41a3.69 3.69 0 0 1 .07-4.02z"/><path d="M287.91 156.17l.42.14.31.11.56.22 1.06.43 2 1c1.28.64 2.49 1.36 3.67 2.1a57.16 57.16 0 0 1 6.62 4.93l3 2.75c1 .94 1.91 1.92 2.81 2.92a72.85 72.85 0 0 1 5.07 6.22l.2.27a3.37 3.37 0 0 1 .39.66 10.54 10.54 0 0 1 1 4.14 11.81 11.81 0 0 1-.43 3.68 18.7 18.7 0 0 1-2.5 5.39 33.07 33.07 0 0 1-3.15 4.06l-3.41 3.46-3.58 3.09-3.7 2.83-3.81 2.61-1.95 1.23-2 1.18a2.85 2.85 0 0 1-3.32-4.58l.06-.06 1.59-1.46 1.59-1.49 3.12-3 3-3.1 2.81-3.17 2.53-3.24a29.57 29.57 0 0 0 2-3.23 9.93 9.93 0 0 0 1-2.79 2 2 0 0 0 0-.76c0-.14-.08-.14-.11-.15l.59.92-4.84-5.06-2.56-2.34-2.64-2.2-1.35-1-1.37-1-2.8-1.85-2.85-1.63-1.4-.7-.67-.31-.31-.13h-.13-.05 0a5.73 5.73 0 1 1 3.52-10.9z"/></g><path d="M288.49,202.72c7.49-6.9,12.69-13.42,15.85-19.88-4.21-4.68-17.18-12.78-19.37-14.23s-6.45-4.79-6.45-10.69c0-7.85,10.29-5.6,10.29-5.6,8.24,4.91,26.95,21.76,28.3,25.15,5,9.72-8,19.69-23.06,30.74Z" class="n"/><path d="M256.06 113.49c3.54 2.41 1.94 6.51-6.06 12.85-3.25-4.22-3.79-12.41-1.21-14.47s4.21-.46 7.27 1.62z" class="o"/><path d="M271.29,120.09c-.39,8.65-.18,13.73-4.46,18.24-6.45,6.79-17.19,3-19.4-5.58-2-7.73-1-20.58,7.38-24.16a11.81,11.81,0,0,1,16.48,11.5Z" class="y"/><path d="M258.42 122.68c0 .7-.35 1.28-.81 1.28s-.84-.55-.85-1.25.34-1.28.8-1.29.8.58.86 1.26zm-8 .15c0 .7-.35 1.28-.81 1.28s-.85-.55-.86-1.26.36-1.28.81-1.29.85.56.86 1.27z" class="o"/><path d="M253,123.11a25.09,25.09,0,0,1-3.26,6.08,4.05,4.05,0,0,0,3.37.57Z" fill="#d08245"/><path d="M260.56 120.12a.4.4 0 0 0 .26-.06.41.41 0 0 0 .08-.58 4.07 4.07 0 0 0-3.39-1.65.4.4 0 0 0-.38.42h0a.43.43 0 0 0 .45.37h0a3.25 3.25 0 0 1 2.66 1.33.43.43 0 0 0 .32.17zm-13.82.07a.42.42 0 0 0 .37-.24 3.27 3.27 0 0 1 2.29-1.95.414.414 0 0 0-.11-.82 4.13 4.13 0 0 0-2.93 2.38.42.42 0 0 0 .2.55h0a.39.39 0 0 0 .18.08zm20.97-7.7c-4 1.45-3.45 5.8 2.76 13.93 4.19-3.29 6.72-11.11 4.71-13.73s-3.96-1.46-7.47-.2z" class="o"/><path d="M275.52 126.93a8.22 8.22 0 0 1-3.83 5c-2.51 1.42-4.45-.66-4.34-3.39.11-2.46 1.55-6.16 4.35-6.46s4.5 2.27 3.82 4.85z" class="y"/><path d="M271.8 112.88s1-4.79-1.73-7.52-14-2-20.29-1-12.36 8.54-12.36 8.54h9.93c-1 .43-1.88 1.8-2.73 3.24 8.29-.69 17.74-.89 21.08-3.7l.44 1 2.32.17zM253.14 133a19.89 19.89 0 0 0 6.5-2.87c.44 3.39-1.24 5.73-4.36 6.45z" class="o"/><path d="M256.83 136a5 5 0 0 0 2.7-3.31 3.8 3.8 0 0 0-2.23 1.17 2.74 2.74 0 0 0-.47 2.14z" class="AD"/><g class="o"><path d="M250.69 125.22h-3.25a1.63 1.63 0 0 1-1.62-1.62v-2a1.63 1.63 0 0 1 1.62-1.63h3.25a1.62 1.62 0 0 1 1.62 1.63v2a1.62 1.62 0 0 1-1.62 1.62zm-3.25-4.33a.65.65 0 0 0-.65.66v2a.65.65 0 0 0 .65.65h3.25a.66.66 0 0 0 .66-.65v-2a.66.66 0 0 0-.66-.66zm11 4.33h-3.24a1.63 1.63 0 0 1-1.63-1.62v-2a1.63 1.63 0 0 1 1.63-1.63h3.24a1.63 1.63 0 0 1 1.63 1.63v2a1.63 1.63 0 0 1-1.63 1.62zm-3.24-4.33a.65.65 0 0 0-.66.66v2a.65.65 0 0 0 .66.65h3.24a.66.66 0 0 0 .66-.65v-2a.66.66 0 0 0-.66-.66z"/><path d="M251.83 122.09h2.23v.97h-2.23zm8.26 0h8.35v.97h-8.35zm-3.72 37.79c-1.3 3.2-6.33 18.61-7.75 37.79q.63 2.73 1.51 5.49c1.13-1.68 3-3.5 4.29-5.17.69-17.25 2.29-33.82 3.7-37.92z"/><path d="M256.3 162.53l-1.24-4.23 3.06-1.08 2.13 1.53-3.95 3.78z"/></g><g class="m"><path d="M258.12 157.22l3.87 5.3c3.54-1.52 11.89-5.68 11.95-10.18a4.53 4.53 0 0 0-2-2.27 48.52 48.52 0 0 1-13.82 7.15z"/><path d="M258.12 157.22a23.6 23.6 0 0 0-4.83 4.55c-2.3-1.91-.22-10.1.78-10.94a5.73 5.73 0 0 1 3.42-.83s-3.19 5.93.63 7.22z"/></g><path d="M227.04 411.81l-7.97-1.09 1.11-19.47 7.95 1.1-1.09 19.46z" fill="#ebb376"/><path d="M228.13 392.35l-7.95-1.1-.69 12.07h8.02l.62-10.97z" class="q"/><use xlink:href="#T" class="o"/><path d="M218.28 410.74h0c0-.14-.14-2.41-1-3.14a1.21 1.21 0 0 0-.89-.21.75.75 0 0 0-.68.61 2.91 2.91 0 0 0 .79 1.84 3.27 3.27 0 0 0-2.23-.41.7.7 0 0 0-.4.56 1 1 0 0 0 .29 1 2.12 2.12 0 0 0 1.53.3 9.91 9.91 0 0 0 2.09-.41h.07v-.06s.19 0 .2-.08h.17zm-2.22-2.67c0-.11.08-.24.34-.29h.09a.56.56 0 0 1 .41.14 4 4 0 0 1 .68 2.46l-.17-.09a3.83 3.83 0 0 1-1.35-2.22zm-1.64 2.65a.68.68 0 0 1-.17-.65.34.34 0 0 1 .19-.28c.52-.24 1.89.35 2.86.89-1.42.37-2.47.39-2.88.04z" class="n"/><path d="M285.7 411.81l-7.97-1.09-1.1-18.93 7.95 1.1 1.12 18.92z" fill="#ebb376"/><path d="M284.58 392.89l-7.95-1.09.67 11.52h7.9l-.62-10.43z" class="q"/><use xlink:href="#T" x="58.66" class="o"/><path d="M276.94 410.74h0c0-.14-.14-2.41-1-3.14a1.21 1.21 0 0 0-.89-.21.75.75 0 0 0-.68.61 2.91 2.91 0 0 0 .79 1.84 3.27 3.27 0 0 0-2.23-.41.7.7 0 0 0-.4.56 1 1 0 0 0 .29 1 2.12 2.12 0 0 0 1.53.3 9.91 9.91 0 0 0 2.09-.41h.07v-.06c0-.06.19 0 .2-.08h.17zm-2.22-2.67c0-.11.08-.24.34-.29h.09a.56.56 0 0 1 .41.14 4 4 0 0 1 .68 2.46l-.17-.09a3.83 3.83 0 0 1-1.35-2.22zm-1.64 2.65a.68.68 0 0 1-.17-.65.34.34 0 0 1 .19-.28c.52-.24 1.89.35 2.86.89-1.42.37-2.47.39-2.88.04z" class="n"/><g class="o"><path d="M265.25,231.09v30.16c-9.57,24.82-24.16,65.79-26.69,79.21s-1.88,29.75-6.39,59.43l-15.69.36s-1.09-33.92,1.23-58.82S239.2,231.09,239.2,231.09Z"/><path d="M285.11,231.09c1.82,13.38-4.5,102.84-2.93,115.29s3.45,23.74,5.46,53.87H272.88s-7.71-28.55-11.67-53.55-6.23-91.28-3.62-115.61Z"/></g><path d="M250 302.81l1.9-19.56c.4-5.66 4.24-21.35 4.24-21.35l.65 22zm-25.39-121.9c4.64-3.39 8.16-7.22 9.95-11.73a36.78 36.78 0 0 0-.86 5.71 73 73 0 0 1-9.09 6.02zm60.39 4.44c-.61-5.83-1.48-13.82-2.51-18.71a44.07 44.07 0 0 0 3.7 2.92" class="q"/><use xlink:href="#U" class="n"/><use xlink:href="#U" class="m u"/><g class="o"><path d="M184.55,116.87l-6.22-2.46s-6.79-.36-8,3.16-.81,9.58-1.69,14.88c-.61,3.73-4.38,6.05-6.55,9.4a22.33,22.33,0,0,0,2.1,1.91,22,22,0,0,0,13.82,4.83,22.33,22.33,0,0,0,4.13-.39c1.42-5.53,2.8-13.17,4.18-20.93Z"/><path d="M184.55 116.87a6.14 6.14 0 0 1 2.59 5.23c-.14 3.52-.69 6.92-.37 9.06.37 2.53-1.22 6.14-1.22 6.14a20.44 20.44 0 0 0-.63-3.38s0 .92-1.23 1.25-11.05.58-13.26-1.25 2.41-16.59 4.95-17.46 9.17.41 9.17.41z"/></g><use xlink:href="#V" class="n"/><use xlink:href="#V" class="r"/><path d="M180.75 141.19c-4.56-.58-5.92-2.53-5.92-2.53 2.89-2.72.49-7.44.49-7.44l5.47 1a16.69 16.69 0 0 0-.21 2.31c0 3.32 1.46 3.35 1.46 3.35.96 1.82-1.29 3.31-1.29 3.31z" class="AE"/><path d="M180.79,132.24a16.69,16.69,0,0,0-.21,2.31,6.09,6.09,0,0,1-5.26-3.33Z" class="q"/><path d="M170.61 139.17s5.34 4.33 10.32 4.26 6.72-5.66 6.72-5.66a28.29 28.29 0 0 0-17.04 1.4zm10.45-21.38c4.49.77 5.53 3.42 5.07 8.11-.58 5.85-2.56 9.74-8 7.55-7.31-2.98-4.53-16.93 2.93-15.66z" class="AE"/><path d="M183.27,125.15a9.36,9.36,0,0,0,1,2.08,1.26,1.26,0,0,1-1.28.31Z" class="AD"/><g class="o"><path d="M180.58 124.31c-.05.37-.3.64-.55.61s-.4-.37-.34-.74.29-.64.54-.6.4.36.35.73z"/><path d="M180.13 123.58l.85-.2s-.5.62-.85.2zm5.07 1.33c-.06.37-.3.64-.55.61s-.4-.37-.35-.74.3-.64.55-.61.4.37.35.74z"/><path d="M184.74 124.18l.85-.2s-.5.62-.85.2zm-5.74-2.44a.22.22 0 0 1-.15-.06.2.2 0 0 1 0-.28 2.56 2.56 0 0 1 2.25-.38.193.193 0 0 1-.11.37 2.19 2.19 0 0 0-1.88.31.2.2 0 0 1-.11.04zm7.09.7a.19.19 0 0 1-.13 0 2 2 0 0 0-1.56-.63.193.193 0 1 1-.07-.38 2.31 2.31 0 0 1 1.89.72.2.2 0 0 1 0 .28.2.2 0 0 1-.13.01z"/><path d="M174.86 124.53s2.73-3.34 2.9-6.24c0 0 9.52-2.12 8.42 7 0 0 2.24-7.87-5.45-9.37s-8.61 13.24-5.2 17.28c0-.01-2.36-6.59-.67-8.67z"/></g><path d="M175.43 125.6a2 2 0 0 0-1.81-2.16c-1.42-.09-2.57 2.65.78 3.93.48.19.84-.25 1.03-1.77z" class="AE"/><path d="M176.81 117.28a13.6 13.6 0 0 0 4.06 3 45.85 45.85 0 0 0 6.13 1.62c-.84 4.12-.66 7.53 1.32 9.67-.73-1.19.44-10.45.32-11.24-.29-1.88-2.16-3.09-4.32-4.55a9.67 9.67 0 0 0-5.36-1.23zm-2.28.99v5.28a6.16 6.16 0 0 0 .54 4.83 29.71 29.71 0 0 1 .46-6.13l1.76-3.49zm7.55 10.8a3.91 3.91 0 0 1-2.82-1.16.13.13 0 0 1 0-.18.12.12 0 0 1 .18 0 3.79 3.79 0 0 0 3.12 1 .12.12 0 0 1 .14.11.13.13 0 0 1-.11.15z" class="o"/><use xlink:href="#i" class="n"/><use xlink:href="#i" class="r"/><use xlink:href="#j" class="n"/><use xlink:href="#j" class="r"/><use xlink:href="#W" class="n"/><use xlink:href="#W" class="m r"/><use xlink:href="#X" class="n"/><g class="m s"><use xlink:href="#X"/></g><g class="n"><rect x="143.95" y="363.41" width="52.8" height="5.57" rx="1.64" transform="matrix(-1 0 0 -1 340.71 732.4)"/><rect x="147.76" y="413.41" width="45.19" height="5.57" rx="1.64"/></g><defs><path id="A" d="M94,261.9H375.11a0,0,0,0,1,0,0v5.51a2.16,2.16,0,0,1-2.16,2.16H96.19A2.16,2.16,0,0,1,94,267.41V261.9a0,0,0,0,1,0,0Z"/><path id="B" d="M378.91 262.9H90.23a2.16 2.16 0 0 1-2.16-2.16h0a2.17 2.17 0 0 1 2.16-2.17h288.68a2.17 2.17 0 0 1 2.16 2.17h0a2.16 2.16 0 0 1-2.16 2.16z"/><path id="C" d="M288.73 105.85h12.25v12.25h-12.25z"/><path id="D" d="M295.42 136.32h9.63v9.63h-9.63z"/><path id="E" d="M295.42 146.39h9.63v9.19h-9.63z"/><path id="F" d="M342.92 188.16l-2.65-.13a22.57 22.57 0 0 0-2.85.3 19.77 19.77 0 0 0-2.63.64l.39 1.17.36 1.1a7.63 7.63 0 0 0 7.78-.73c0-.4-.05-.73-.07-1-.13-1.3-.33-1.35-.33-1.35z"/><path id="G" d="M137.11 232.13H145l-2.11 22.58 17.69 1.87v1.57h-38.24v-1.57l12.14-1.87 2.63-22.58z"/><path id="H" d="M109.85 239h65.55a3.53 3.53 0 0 0 3.57-3.91l-3.64-41.65a4.35 4.35 0 0 0-4.25-3.91h-65.56a3.52 3.52 0 0 0-3.56 3.91l3.64 41.65a4.35 4.35 0 0 0 4.25 3.91z"/><path id="I" d="M126 202.76h-9.9a2.43 2.43 0 0 1-2.41-2.2l-.43-4.82a2.42 2.42 0 0 1 2.41-2.63h9.9a2.42 2.42 0 0 1 2.41 2.2l.43 4.81a2.42 2.42 0 0 1-2.41 2.64z"/><path id="J" d="M127.28 213.16h-10.46a2.14 2.14 0 0 1-2.13-1.95l-.48-5.38a2.13 2.13 0 0 1 2.12-2.32h10.47a2.14 2.14 0 0 1 2.13 1.94l.48 5.38a2.14 2.14 0 0 1-2.13 2.33z"/><path id="K" d="M128.22 223.8h-10.43a2.16 2.16 0 0 1-2.14-2l-.48-5.34a2.14 2.14 0 0 1 2.14-2.34h10.43a2.15 2.15 0 0 1 2.15 2l.47 5.34a2.15 2.15 0 0 1-2.14 2.34z"/><path id="L" d="M129.54 234.19h-11.12a1.81 1.81 0 0 1-1.8-1.65l-.54-6a1.81 1.81 0 0 1 1.8-2H129a1.82 1.82 0 0 1 1.81 1.66l.54 6a1.81 1.81 0 0 1-1.81 1.99z"/><path id="M" d="M198.51 239h66.55a3.58 3.58 0 0 0 3.62-4L265 192.76a4.42 4.42 0 0 0-4.31-4h-66.58a3.58 3.58 0 0 0-3.62 4l3.7 42.28a4.42 4.42 0 0 0 4.32 3.96z"/><path id="N" d="M259.73 232.74a1.37 1.37 0 1 0 1.37-1.37 1.38 1.38 0 0 0-1.37 1.37z"/><path id="O" d="M368.14 396.15l-28.81-2.84v-40.49h-11.42v40.48L299 396.15a5.6 5.6 0 0 0-5.06 5.58v4.33h79.29v-4.33a5.6 5.6 0 0 0-5.09-5.58z"/><path id="P" d="M325.95 325.46h15.35a0 0 0 0 1 0 0v31.93a4.13 4.13 0 0 1-4.13 4.13h-7.09a4.13 4.13 0 0 1-4.13-4.13v-31.93a0 0 0 0 1 0 0z"/><path id="Q" d="M336.12 289.59s-29.14-5.9-57.26-3 13.23 39.61 13.23 39.61h5.81s-21.9-23.35-20.7-29.15 56.42 1.85 56.42 1.85z"/><path id="R" d="M316.54,325.46s14.31-45.68,16.75-112.34a14.82,14.82,0,0,1,14.82-14.25h26.58a14.84,14.84,0,0,1,14.84,14.76c.1,24.22-1.59,73.72-15.25,114Z"/><path id="S" d="M385.57,290.2s1.9-6.51-26.23-3.65,13.23,39.61,13.23,39.61h5.81s-21.92-23.31-20.7-29.11,25.39,2.46,25.39,2.46Z"/><path id="T" d="M218.47 409.76l9-.56a.58.58 0 0 1 .63.51h0l.88 7.1a1.42 1.42 0 0 1-1.31 1.5l-8.61.27c-2.44.15-7.23.67-10.58.34s-2.94-3.63-1.5-3.79c3.44-.39 8-2.91 10.14-4.83a2.25 2.25 0 0 1 1.35-.54z"/><path id="U" d="M200.27 126.38a22.22 22.22 0 1 0-31.77 20.06l-1-3.2-1.15-3.4A54.6 54.6 0 0 1 174 138a60.52 60.52 0 0 1 8.29-.87l7.72.38s.59.14 1 3.95l.19 2.88a22.18 22.18 0 0 0 9.07-17.96z"/><path id="V" d="M190 137.49l-7.72-.38a60.52 60.52 0 0 0-8.28.89 54.6 54.6 0 0 0-7.67 1.86l1.15 3.4 1 3.2a22.23 22.23 0 0 0 22.64-2.12c0-1.16-.12-2.13-.19-2.88-.35-3.83-.93-3.97-.93-3.97z"/><path id="W" d="M187.64,394.19a3,3,0,0,0-2.39-4.27,6.36,6.36,0,0,0-2-7,1.47,1.47,0,0,0-.87-.39,1.76,1.76,0,0,0-1,.41l-5.57,4a3.31,3.31,0,0,0-1.11,1.09c-1.14,2.21,3,5,1.28,6.86-.48.52-1.26.63-1.87,1-1.32.83-1.48,2.65-2.1,4.09s-2.78,2.55-3.6,1.22c.61-1.38-1.24-2.57-2.73-2.74s-3.06-.26-3.89-1.66c-2.12,1.85-6.88-3.33-6.77-5.41-1.75.13-2.94,1.76-3.32,3.4a25.05,25.05,0,0,0-.18,5.2c-.05,3.38-1.14,6.7-1.08,10.08,0,2.63,1.06,5.55,3.47,6.61a9.05,9.05,0,0,0,3.74.5l27.43-.18a4,4,0,0,0,1.92-.32c1.24-.64,1.5-2.27,1.62-3.66l1.47-17.88Z"/><path id="X" d="M189.24,365.2H146.68l.35,4.3.25,3.07.65,8,.37,4.59.49,6.11.21,2.62.07.78.25,3.08.34,4.22.21,2.62.22,2.66.25,3.08.19,2.33.21,2.62.09,1.14h39.06l.09-1.14.21-2.61.19-2.35.25-3.08.22-2.65.21-2.62.34-4.23.25-3.07.06-.78.21-2.62.5-6.11.37-4.58.64-8,.25-3.07.35-4.3ZM191.8,368h0l-.82-.82h.89Zm-.21,2.61-.08,1-3.81,3.81-4.37-4.37,3.91-3.91h.92Zm-1.1,13.62L187.7,387l-4.37-4.37,4.37-4.36,3,3ZM150,381.33h0l3-3,4.37,4.36L153,387l-2.78-2.79Zm36.3-4.44-4.37,4.37-4.37-4.37,4.37-4.37Zm-6.87-9.69h5l-2.5,2.5Zm1.08,15.47L176.14,387l-4.37-4.37,4.37-4.36ZM166,388.45l4.37-4.36,4.36,4.36-4.36,4.37Zm2.95,5.78-4.37,4.37-4.36-4.36,4.37-4.37Zm7.2-4.36,4.36,4.37-4.36,4.36-4.37-4.37Zm-5.78-8.61L166,376.89l4.37-4.37,4.36,4.37Zm-1.42,1.41L164.58,387l-4.37-4.37,4.37-4.36Zm-10.15-1.41-4.36-4.37,4.36-4.37,4.37,4.37Zm0,2.83,4.37,4.36-4.37,4.37-4.36-4.37ZM163.16,400l-4.37,4.36L154.43,400l4.36-4.37Zm1.41,1.41,4.37,4.37-4.36,4.37-4.37-4.37ZM166,400l4.37-4.37,4.36,4.37-4.36,4.36Zm10.15,1.41,4.36,4.37-4.36,4.37-4.37-4.37Zm5.78,5.78,4.37,4.37-2.83,2.83h-3.08l-2.83-2.83ZM177.55,400l4.37-4.37,4.37,4.37-4.37,4.36Zm0-11.57,4.37-4.36,4.37,4.36-4.37,4.37Zm2.95-17.34-4.36,4.37-4.37-4.37,3.91-3.91h.92Zm-10.14-1.41-2.5-2.5h5Zm-1.42,1.41-4.36,4.37-4.37-4.37,3.91-3.91H165Zm-7.65-3.91-2.5,2.5-2.49-2.5Zm-7.82,0,3.91,3.91L153,375.48l-3.8-3.81-.08-1,3.42-3.43Zm-3.74,0-.81.81h0l-.07-.81Zm-.27,7.55,2.14,2.14-1.82,1.82Zm1.19,14.65-.17-2.07h0l1.12,1.12-.95.95Zm.21,2.63,2.15-2.16,4.37,4.37L153,398.6l-1.76-1.76Zm.65,8.08v-.19l.1.1-.09.09Zm.76,9.31-.55-6.7,1.29-1.29,4.37,4.37L153,410.16l-.74-.74Zm.4,5-.08-1L153,413l1.42,1.42Zm1.76-2.83,4.36-4.37,4.37,4.37-2.83,2.83h-3.08Zm8.73,2.83,1.42-1.42,1.42,1.42Zm5.66,0L166,411.58l4.37-4.37,4.36,4.37-2.82,2.83Zm5.9,0,1.42-1.42,1.42,1.42Zm13.32,0h-1.76L187.7,413l.42.42Zm.41-5-.75.74-4.37-4.36,4.37-4.37,1.29,1.29Zm.77-9.51,0,.2-.09-.09.11-.11Zm.25-3.07-1.77,1.76-4.37-4.36,4.37-4.37,2.16,2.16Zm.6-7.43-1-1,1.13-1.12Zm1.19-14.67-.32,4-1.83-1.83,2.15-2.15Z"/><path id="Y" d="M167.67 418.98h-6.12l-11.01-153.24h8.13l9 153.24z"/><path id="Z" d="M167.68 418.98h-6.13l-10.47-145.63-.54-7.37h8.13l.44 7.37 8.57 145.63z"/><path id="a" d="M275.7 105.85h12.25v12.25H275.7z"/><path id="b" d="M301.76 105.85h13.46v25.29h-13.46z"/><path id="c" d="M306.51 132.24h8.71v2.64h-8.71z"/><path id="d" d="M334.79,189a2.92,2.92,0,0,0-.85,1.24,8,8,0,0,0,1.6,1Z"/><path id="e" d="M342.92 188.16l.4 2.35a7.9 7.9 0 0 0 1.46-1.4 4.32 4.32 0 0 0-1.86-.95z"/><path id="f" d="M371.08 329.59h-89.92 0v-6.69a5 5 0 0 1 5-5h79.92a5 5 0 0 1 5 5v6.69h0z"/><path id="g" d="M274.828 200.918l2.01-1.758 13.093 14.972-2.01 1.758z"/><path id="h" d="M276.35 185.29a10 10 0 1 1-14.13-.95 10 10 0 0 1 14.13.95z"/><path id="i" d="M166.31,139.84a8.86,8.86,0,0,0-2.48,3.59,23.62,23.62,0,0,0,4.67,3Z"/><path id="j" d="M190 137.49l1.15 6.83a22.39 22.39 0 0 0 4.26-4.07 12.15 12.15 0 0 0-5.41-2.76z"/></defs></svg>