<svg xmlns="http://www.w3.org/2000/svg" xmlns:xlink="http://www.w3.org/1999/xlink" viewBox="0 0 500 500" xmlns:v="https://vecta.io/nano"><style><![CDATA[.M{fill:#1e40af}.N{fill:#e0e0e0}.O{fill:#263238}.P{fill:#fff}.Q{fill:#455a64}.R{fill:#f5f5f5}]]></style><path d="M416.5 433c-4-3.42-9.15-5.24-14.18-6.86-36.33-11.75-67.83-9.1-109.15-17L158 423.9a41.89 41.89 0 0 0 33.45 17.79c8.66.1 18.13-2.35 25.45 2.27 4.87 3.07 7.53 8.6 11.59 12.68 6.63 6.65 16.55 9 25.93 8.91s18.64-2.14 28-2.92c22.35-1.86 44.55 3.73 66.83 6.31s46.5 1.64 64.71-11.44c3.68-2.65 7.22-6 8.19-10.48 1.15-5.16-1.61-10.56-5.65-14.02z" fill="#ebebeb"/><path d="M412.67 91.18h-48.55V30.8l37.13.11 11.42 12.39v47.88z" class="R"/><path d="M378.64 65.25a12.84 12.84 0 0 1-2.12-1.9l-4.81-4.88-.2-.21.2-.22h0l4.79-4.93a13.28 13.28 0 0 1 2.12-1.91 13.51 13.51 0 0 1-1.79 2.22l-4.66 5.05h0V58l4.67 5a12.8 12.8 0 0 1 1.8 2.25zm19.48-14.07a12.62 12.62 0 0 1 2.13 1.9l4.8 4.88.21.21-.21.22h0l-4.79 4.93a12.78 12.78 0 0 1-2.12 1.91 12.84 12.84 0 0 1 1.8-2.22l4.66-5.05h0v.43l-4.67-5a12.62 12.62 0 0 1-1.81-2.21zm-15.64 16.29c-.15-.09 2.37-4.48 5.62-9.81s6-9.56 6.17-9.47-2.37 4.48-5.63 9.8-6.02 9.57-6.16 9.48zm18.77-36.56v10.12a2.6 2.6 0 0 0 2.68 2.61l8.78-.33zm-42.8 40.79h21.53v13.09h-21.53z" class="N"/><path d="M364.57 80.92l.56-.66a1.69 1.69 0 0 0 1.41.8c.76 0 1.16-.46 1.16-1.37V75.9h-2.45v-.84h3.4v4.58c0 1.51-.73 2.25-2.11 2.25a2.34 2.34 0 0 1-1.97-.97zM370 81l.36-.75a3.44 3.44 0 0 0 2.23.78c1.17 0 1.67-.45 1.67-1 0-1.65-4.09-.61-4.09-3.12 0-1 .81-1.93 2.59-1.93a3.94 3.94 0 0 1 2.17.6l-.32.77a3.56 3.56 0 0 0-1.85-.55c-1.15 0-1.65.48-1.65 1.07 0 1.65 4.1.62 4.1 3.1 0 1-.83 1.92-2.62 1.92A4 4 0 0 1 370 81zm-57.43 181.78h145.09v84.54H312.57z" class="P"/><path d="M458.15,347.82H312.07V262.28H458.15Z" class="R"/><g class="N"><path d="M323.91 343.07c-.07 0-.13-17.29-.13-38.61l.13-38.61c.07 0 .14 17.28.14 38.61l-.14 38.61zm-2.98-73.97a20.64 20.64 0 0 1-4.8 0 20.64 20.64 0 0 1 4.8 0zm0 5.09a20.64 20.64 0 0 1-4.8 0 20.64 20.64 0 0 1 4.8 0zm0 5.09a20.64 20.64 0 0 1-4.8 0 20.64 20.64 0 0 1 4.8 0zm0 5.09a20.64 20.64 0 0 1-4.8 0 20.64 20.64 0 0 1 4.8 0zm0 5.09a20.64 20.64 0 0 1-4.8 0 20.64 20.64 0 0 1 4.8 0zm0 5.08a20.64 20.64 0 0 1-4.8 0 22.22 22.22 0 0 1 4.8 0zm0 5.09a20.64 20.64 0 0 1-4.8 0 20.64 20.64 0 0 1 4.8 0zm0 5.09a20.64 20.64 0 0 1-4.8 0 20.64 20.64 0 0 1 4.8 0zm0 5.09a20.64 20.64 0 0 1-4.8 0 20.64 20.64 0 0 1 4.8 0zm0 5.09a20.64 20.64 0 0 1-4.8 0 20.64 20.64 0 0 1 4.8 0zm0 5.1a22.22 22.22 0 0 1-4.8 0 20.64 20.64 0 0 1 4.8 0zm0 5.07a20.64 20.64 0 0 1-4.8 0 20.64 20.64 0 0 1 4.8 0zm0 5.09a20.64 20.64 0 0 1-4.8 0 20.64 20.64 0 0 1 4.8 0zm0 5.09a20.64 20.64 0 0 1-4.8 0 20.64 20.64 0 0 1 4.8 0zm0 5.09a20.64 20.64 0 0 1-4.8 0 20.64 20.64 0 0 1 4.8 0z"/><use xlink:href="#A"/><path d="M340.19 340.34c0 .07-2.79.14-6.23.14s-6.24-.07-6.24-.14 2.79-.14 6.24-.14l6.23.14zm17.37-61.06c0 .08-5.23.14-11.67.14s-11.67-.06-11.67-.14 5.23-.14 11.67-.14l11.67.14zm26.97 0c0 .08-5.22.14-11.66.14s-11.67-.06-11.67-.14 5.23-.14 11.67-.14l11.66.14z"/><use xlink:href="#B"/><use xlink:href="#B" y="5.09"/><path d="M397.89 304.72c0 .08-7.7.14-17.19.14s-17.19-.06-17.19-.14 7.69-.14 17.19-.14l17.19.14zm-10.21-10.18c0 .08-7.7.14-17.19.14s-17.2-.06-17.2-.14 7.7-.13 17.2-.13l17.19.13zm42.02 0c0 .08-7.7.14-17.19.14s-17.2-.06-17.2-.14 7.7-.13 17.2-.13l17.19.13z"/><use xlink:href="#B" x="40.86"/><path d="M438.84 304.72c0 .08-7.7.14-17.2.14s-17.19-.06-17.19-.14 7.7-.14 17.19-.14l17.2.14zm-4.75-15.26c0 .07-11.95.14-26.69.14s-26.7-.07-26.7-.14 11.95-.14 26.7-.14l26.69.14z"/><use xlink:href="#A" y="5.39"/><use xlink:href="#A" y="66.45"/><path d="M346.37 294.54c0 .08-2.79.14-6.24.14s-6.23-.06-6.23-.14 2.79-.13 6.23-.13l6.24.13zm99.94 0c0 .08-2.79.14-6.23.14s-6.24-.06-6.24-.14 2.79-.13 6.24-.13l6.23.13zm-88.75 20.33c0 .07-5.23.14-11.67.14s-11.67-.07-11.67-.14 5.23-.14 11.67-.14l11.67.14zm26.97 0c0 .07-5.22.14-11.66.14s-11.67-.07-11.67-.14 5.23-.14 11.67-.14l11.66.14zM374.22 320c0 .07-7.69.13-17.19.13s-17.19-.06-17.19-.13 7.7-.14 17.19-.14l17.19.14zm0 5c0 .08-7.69.14-17.19.14s-17.19-.06-17.19-.14 7.7-.14 17.19-.14l17.19.14zm13.46 5.13c0 .08-7.7.14-17.19.14s-17.2-.06-17.2-.14 7.7-.14 17.2-.14l17.19.14zm42.02 0c0 .08-7.7.14-17.19.14s-17.2-.06-17.2-.14 7.7-.14 17.2-.14l17.19.14zM415.08 320c0 .07-7.69.13-17.19.13S380.7 320 380.7 320l17.19-.14 17.19.14zm19.01 5c0 .08-11.95.14-26.69.14s-26.7-.06-26.7-.14 11.95-.14 26.7-.14l26.69.14zm-87.72 5.13c0 .08-2.79.14-6.24.14s-6.23-.06-6.23-.14 2.79-.14 6.23-.14l6.24.14z"/><use xlink:href="#A" x="106.12" y="61.33"/></g><path d="M30.69 311.75h94.4v55h-94.4z" class="P"/><path d="M125.41,367.08h-95V311.42h95.05Z" class="R"/><g class="N"><path d="M38.07 364L38 338.86l.09-25.12c.09 0 .09 11.25.09 25.12L38.07 364z"/><use xlink:href="#C"/><use xlink:href="#C" y="3.31"/><use xlink:href="#C" y="6.62"/><use xlink:href="#C" y="9.93"/><use xlink:href="#C" y="13.24"/><path d="M36.13 332.41a6.48 6.48 0 0 1-1.56.1 6.54 6.54 0 0 1-1.57-.1 6.88 6.88 0 0 1 1.57-.09 6.83 6.83 0 0 1 1.56.09zm0 3.32a6.83 6.83 0 0 1-1.56.09 6.88 6.88 0 0 1-1.57-.09 6.54 6.54 0 0 1 1.57-.1 6.48 6.48 0 0 1 1.56.1zm0 3.27a6.83 6.83 0 0 1-1.56.09A6.88 6.88 0 0 1 33 339a6.88 6.88 0 0 1 1.57-.09 6.83 6.83 0 0 1 1.56.09z"/><use xlink:href="#C" y="26.49"/><use xlink:href="#C" y="29.8"/><path d="M36.13 349a6.83 6.83 0 0 1-1.56.09A6.88 6.88 0 0 1 33 349a6.88 6.88 0 0 1 1.57-.09 6.83 6.83 0 0 1 1.56.09z"/><use xlink:href="#C" y="36.42"/><use xlink:href="#C" y="39.73"/><use xlink:href="#C" y="43.04"/><use xlink:href="#C" y="46.35"/><use xlink:href="#D"/><use xlink:href="#D" y="46.54"/><path d="M60 322.48l-7.59.09c-4.19 0-7.59 0-7.59-.09s3.4-.09 7.59-.09l7.59.09zm17.51 0l-7.59.09c-4.19 0-7.59 0-7.59-.09s3.4-.09 7.59-.09l7.59.09z"/><use xlink:href="#E"/><use xlink:href="#E" y="3.31"/><use xlink:href="#E" x="15.4" y="13.21"/><path d="M79.56 332.41l-11.19.1c-6.19 0-11.18-.05-11.18-.1s5-.09 11.18-.09l11.19.09zm27.34 0l-11.19.1c-6.19 0-11.19-.05-11.19-.1s5-.09 11.19-.09l11.19.09zm-9.51-6.62l-11.19.09c-6.19 0-11.18 0-11.18-.09s5-.09 11.18-.09l11.19.09z"/><use xlink:href="#E" x="42.04" y="13.21"/><path d="M109.76 329.1l-17.37.09c-9.59 0-17.39-.04-17.39-.09s7.77-.09 17.37-.09l17.39.09z"/><use xlink:href="#D" y="3.5"/><use xlink:href="#D" y="43.23"/><path d="M52.68 332.41l-4.06.1c-2.24 0-4-.05-4-.1s1.81-.09 4-.09l4.06.09zm65.03 0l-4.06.1c-2.24 0-4.06-.05-4.06-.1s1.82-.09 4.06-.09l4.06.09zM60 345.64c0 .05-3.4.09-7.59.09s-7.59 0-7.59-.09 3.4-.09 7.59-.09l7.59.09zm17.51 0c0 .05-3.4.09-7.59.09s-7.59 0-7.59-.09 3.4-.09 7.59-.09l7.59.09zM70.8 349c0 .05-5 .09-11.18.09s-11.19 0-11.19-.09 5-.09 11.19-.09l11.18.09zm0 3.26c0 .05-5 .09-11.18.09s-11.19 0-11.19-.09 5-.09 11.19-.09l11.18.09zm8.76 3.31c0 .05-5 .09-11.19.09s-11.18 0-11.18-.09 5-.09 11.18-.09l11.19.09zm27.34 0c0 .05-5 .09-11.19.09s-11.19 0-11.19-.09 5-.09 11.19-.09l11.19.09zM97.39 349c0 .05-5 .09-11.19.09S75 349 75 349l11.18-.09 11.21.09zm12.37 3.26c0 .05-7.78.09-17.37.09s-17.37 0-17.37-.09 7.77-.09 17.37-.09l17.37.09zm-57.08 3.31c0 .05-1.82.09-4.06.09s-4 0-4-.09 1.81-.09 4-.09l4.06.09zm65.03 0c0 .05-1.82.09-4.06.09s-4.06 0-4.06-.09 1.82-.09 4.06-.09l4.06.09z"/></g><path d="M468 410.7c0 .14-97.62.26-218 .26s-218-.12-218-.26 97.6-.26 218-.26l218 .26z" class="O"/><path d="M70.64,388.8c-6.36-3.69-9.76-12.27-10-19.29s2.67-14.35,8.42-18.38C75.12,346.89,83.76,347,90,351a21.79,21.79,0,0,1,9.61,18.92,25.14,25.14,0,0,1-10.28,18.85" class="M"/><path d="M80.8 389.48a8.65 8.65 0 0 1-.12-1.61l-.12-4.38-.49-14.44-.78-14.43-.26-4.37a8.22 8.22 0 0 1 0-1.61 8.4 8.4 0 0 1 .26 1.59 167.03 167.03 0 0 1 .45 4.36c.34 3.68.71 8.79 1 14.43s.33 10.76.32 14.47c0 1.85 0 3.35-.07 4.38a8.27 8.27 0 0 1-.19 1.61z" class="P"/><path d="M62.51 367.92a4.63 4.63 0 0 1-2.27.11c-1.24-.1-2.23-.32-2.22-.48a4.63 4.63 0 0 1 2.27-.11c1.24.1 2.23.31 2.22.48zm.35-6.3c-.07.15-1-.09-2-.54s-1.78-.94-1.71-1.09.94.09 2 .54 1.77.94 1.71 1.09zm3.24-4.68c-.09.14-1.07-.33-2.09-1.17s-1.67-1.73-1.55-1.84.93.56 1.93 1.38 1.8 1.49 1.71 1.63zm3.26-4.41c-.15.07-.62-.67-1.06-1.65s-.65-1.82-.5-1.88.62.67 1 1.64.71 1.82.56 1.89zm5.11-3.13c-.14.07-.65-.72-1-1.81s-.36-2-.21-2 .45.82.78 1.87.59 1.87.43 1.94zm8.53-3.53c.15.05.06.72-.21 1.49s-.62 1.36-.78 1.3-.06-.72.21-1.49.63-1.36.78-1.3zm6.34 2.72c.11.12-.29.67-.91 1.24s-1.2.93-1.31.81.3-.68.91-1.25 1.2-.93 1.31-.8zm5.57 3.59c.1.14-.4.64-1.1 1.11s-1.35.76-1.44.62.4-.63 1.1-1.11 1.35-.75 1.44-.62zm3.96 5.37c.07.15-.71.63-1.74 1.07s-1.91.67-2 .52.72-.63 1.74-1.07 1.94-.67 2-.52zm1.56 5.85c0 .17-.77.4-1.77.52s-1.83.1-1.85-.07.77-.39 1.77-.52 1.83-.09 1.85.07zm.81 7.21c-.06.15-.91-.07-1.89-.5s-1.72-.89-1.65-1 .91.07 1.89.5 1.72.85 1.65 1zm-.71 6.18c0 .15-1.12-.1-2.24-.84s-1.79-1.6-1.67-1.71.93.53 2 1.21 1.97 1.18 1.91 1.34zm-3.22 5.63c-.1.13-1-.37-1.77-1.25s-1.25-1.77-1.12-1.86.77.61 1.56 1.45 1.43 1.53 1.33 1.66zm-30.57.66c.08.15-.82.76-2 1.38s-2.19 1-2.27.85.82-.77 2-1.38a5.32 5.32 0 0 1 2.27-.85zM64 378c.07.15-.65.62-1.6 1.05s-1.78.66-1.85.52.65-.63 1.6-1.06 1.73-.67 1.85-.51zm-2.1-4.52c0 .17-.86.43-2 .58s-2 .16-2.06 0 .86-.42 2-.58 2.03-.16 2.06 0zm6.73-2.48c.05.15-.81.55-2 .68s-2.08-.07-2.07-.23.91-.24 2-.36 2.02-.25 2.07-.09zm5.59-5.57c0 .16-.64.5-1.56.59s-1.66-.11-1.65-.27.73-.23 1.59-.32 1.57-.16 1.62 0zm1.07-4.43c-.05.16-.8 0-1.66-.25s-1.51-.67-1.46-.82.8 0 1.66.25 1.51.64 1.46.82zm2.05-4.53c-.11.11-.62-.23-1-.86s-.4-1.24-.24-1.28.43.43.76 1 .6 1.02.48 1.14zm-2.47 18.45c0 .16-.6.46-1.44.66a5.35 5.35 0 0 1-1.2.18l-.12-.35h.38c.02 0-.06.18-.23.31l-.12-.35a6 6 0 0 1 1.15-.4c.83-.17 1.54-.21 1.58-.05zm1.13 7.91c.06.15-.76.61-1.83 1s-2 .64-2 .49.76-.62 1.83-1 2-.65 2-.49zm-6.3-3.51c.06.15-.49.48-1.22.73s-1.36.32-1.41.16.49-.48 1.22-.73 1.36-.32 1.41-.16zm.49-16.09c0 .16-1 .06-2.09-.33s-1.9-.91-1.83-1.06 1 .12 2 .5 1.96.73 1.92.89zm15.28-1.75c.1.14-.44.65-1.19 1.15s-1.43.78-1.53.64.45-.65 1.2-1.14 1.43-.79 1.52-.65zm.84 7.94c0 .16-.53.41-1.26.56s-1.35.14-1.38 0 .53-.41 1.26-.56 1.34-.17 1.38 0zm.96 8.92c-.07.15-.88-.08-1.81-.51s-1.63-.9-1.56-1.05.88.08 1.81.51 1.63.9 1.56 1.05zM85.23 387c-.13.1-.66-.33-1.18-1s-.84-1.24-.71-1.34.65.32 1.17 1 .84 1.26.72 1.34zm-.42-31.36c.1.12-.25.56-.84.86s-1.16.32-1.2.16.39-.42.93-.69 1.01-.47 1.11-.33zm7.49 8c.06.15-.64.53-1.59.66s-1.71 0-1.7-.2.74-.26 1.62-.39 1.62-.23 1.67-.07zm-1.49-7.19c.07.15-.62.64-1.6.95s-1.82.31-1.84.16.73-.43 1.66-.73 1.7-.53 1.78-.38zm3.13 18.32a4.59 4.59 0 0 1-2.6 0 4.5 4.5 0 0 1-2.43-.91 7.79 7.79 0 0 1 2.53.33 8.05 8.05 0 0 1 2.5.58zm-2.79 10.44c-.1.13-1-.38-1.83-1.26s-1.37-1.73-1.24-1.83.83.57 1.66 1.41 1.52 1.55 1.41 1.68z" class="O"/><g class="P"><path d="M78.91 348a27 27 0 0 0-5.22 4.13 25.47 25.47 0 0 0-6.51 14.39 32.28 32.28 0 0 0 .39 8.82 65.74 65.74 0 0 0 1.65 7.07l1.45 4.69a11.82 11.82 0 0 1 .5 1.74 10.5 10.5 0 0 1-.72-1.66l-1.63-4.65a58 58 0 0 1-1.79-7.1 31.71 31.71 0 0 1-.45-9 25.12 25.12 0 0 1 6.8-14.61 18.48 18.48 0 0 1 3.9-3.05 11.94 11.94 0 0 1 1.19-.62c.28-.15.43-.21.44-.15z"/><path d="M87 389.18a64.18 64.18 0 0 0 2.68-6.4 36.21 36.21 0 0 0 1.6-16.46 30.85 30.85 0 0 0-2.54-8.78 20.71 20.71 0 0 0-4.33-6 15.7 15.7 0 0 0-4.24-2.68c-1.1-.46-1.76-.57-1.75-.62a1.4 1.4 0 0 1 .49 0 9.66 9.66 0 0 1 1.35.36 14.82 14.82 0 0 1 4.43 2.58 20.33 20.33 0 0 1 4.55 6.11 30.53 30.53 0 0 1 2.63 8.94 34.92 34.92 0 0 1-1.79 16.68c-.34 1-.77 1.91-1.1 2.71s-.7 1.43-1 2a10 10 0 0 1-.98 1.56z"/></g><g class="O"><path d="M63.95 387.77h32.86l.2 6.58H63.95v-6.58z"/><path d="M66.74 391.06l1.89 20.08h24.02l1.93-19.86-27.84-.22z"/></g><path d="M97 394.43c0 .16-7.4.3-16.52.3s-16.48-.14-16.48-.3 7.4-.3 16.53-.3 16.47.13 16.47.3zm-3.33 6.12a5.27 5.27 0 0 1-.7 1.25 18.58 18.58 0 0 1-2.55 3l-.15.14-.15-.15a47.24 47.24 0 0 0-6.44-5.64h.36l-2.85 2.51-3.38 2.94-.18.16-.19-.16L72 400h.32l-2.84 3.46a8.27 8.27 0 0 1-1.11 1.22 7.09 7.09 0 0 1 .92-1.37l2.68-3.59.13-.18.19.14 5.57 4.52h-.38l3.37-2.95 2.86-2.49.18-.16.18.14a41.84 41.84 0 0 1 6.41 5.82h-.3a34.29 34.29 0 0 0 3.49-4.01z" class="Q"/><g class="M"><use xlink:href="#F"/><path d="M393.79 136.05c0-.05.4 0 1.06-.24a4.38 4.38 0 0 0 2.33-1.63 4.22 4.22 0 1 0-6.78 0 4.46 4.46 0 0 0 2.33 1.63c.66.2 1.06.19 1.06.24s-.1 0-.29 0a3.5 3.5 0 0 1-.82-.08 4.44 4.44 0 0 1-2.57-1.6 4.6 4.6 0 0 1-.72-4.4 4.66 4.66 0 0 1 8.8 0 4.6 4.6 0 0 1-.72 4.4 4.41 4.41 0 0 1-2.57 1.6 3.46 3.46 0 0 1-.82.08c-.19.03-.29.02-.29 0zM336.12 111c0-.14 25.62-.26 57.23-.26l57.23.26c0 .14-25.62.26-57.23.26s-57.23-.11-57.23-.26zm-9.43 11.2h.23.67l2.58-.05 9.51-.08 31.38-.08 33.25.09-.15.09 3.77-7.25 1-1.93a4.21 4.21 0 0 1 .39-.65 4.49 4.49 0 0 1-.3.69l-.95 2-3.64 7.33a.16.16 0 0 1-.15.09l-33.25.09-31.38-.07-9.51-.09h-2.58-.67c-.13-.16-.2-.17-.2-.18z"/><path d="M425.72 110.86a2.28 2.28 0 0 1-.14.39l-.48 1.13-1.86 4.25-6.78 15.07a.22.22 0 0 1-.2.13h-21.59-23.33a.21.21 0 0 1-.2-.13l-6-14-1.65-3.94-.42-1a1.65 1.65 0 0 1-.12-.36 1.54 1.54 0 0 1 .18.34l.48 1 1.77 3.89 6.19 14-.2-.13h23.33 21.59l-.21.13 6.94-15 2-4.2a25.65 25.65 0 0 0 .54-1.1 2 2 0 0 1 .16-.47z"/></g><use xlink:href="#n" class="P"/><path d="M409.35 115.3s.4 0 1.06-.23a4.44 4.44 0 0 0 2.33-1.63 4.22 4.22 0 1 0-6.78 0 4.51 4.51 0 0 0 2.33 1.63c.66.19 1.06.19 1.06.23s-.1 0-.29 0a3 3 0 0 1-.82-.08 4.39 4.39 0 0 1-2.57-1.6 4.6 4.6 0 0 1-.72-4.4 4.67 4.67 0 0 1 8.8 0 4.6 4.6 0 0 1-.72 4.4 4.36 4.36 0 0 1-2.57 1.6 3 3 0 0 1-.82.08c-.19.04-.29.02-.29 0z" class="M"/><use xlink:href="#n" x="16.37" class="P"/><g class="M"><path d="M425.72 115.3s.4 0 1.06-.23a4.44 4.44 0 0 0 2.33-1.63 4.27 4.27 0 0 0 .56-4 4.21 4.21 0 0 0-7.9 0 4.27 4.27 0 0 0 .56 4 4.51 4.51 0 0 0 2.33 1.63c.67.19 1.06.19 1.06.23s-.1 0-.29 0a3 3 0 0 1-.82-.08 4.39 4.39 0 0 1-2.57-1.6 4.6 4.6 0 0 1-.72-4.4 4.67 4.67 0 0 1 8.81 0 4.63 4.63 0 0 1-.73 4.4 4.36 4.36 0 0 1-2.57 1.6 3 3 0 0 1-.82.08c-.19.04-.29.02-.29 0zm-61.91 0a4.45 4.45 0 1 1 4.44-4.44 4.44 4.44 0 0 1-4.44 4.44z"/><path d="M363.81 115.3s.39 0 1.06-.23a4.46 4.46 0 0 0 2.32-1.63 4.3 4.3 0 0 0 .57-4 4.22 4.22 0 0 0-7.91 0 4.3 4.3 0 0 0 .57 4 4.46 4.46 0 0 0 2.32 1.63c.67.19 1.07.19 1.07.23s-.1 0-.29 0a3.1 3.1 0 0 1-.83-.08 4.41 4.41 0 0 1-2.57-1.6 4.63 4.63 0 0 1-.72-4.4 4.67 4.67 0 0 1 8.81 0 4.63 4.63 0 0 1-.72 4.4 4.41 4.41 0 0 1-2.57 1.6 3.1 3.1 0 0 1-.83.08c-.19.04-.28.02-.28 0z"/></g><path d="M349,115.3a4.45,4.45,0,1,1,4.44-4.44A4.44,4.44,0,0,1,349,115.3Z" class="P"/><path d="M349 115.3s.39 0 1.06-.23a4.51 4.51 0 0 0 2.33-1.63 4.33 4.33 0 0 0 .56-4 4.22 4.22 0 0 0-7.91 0 4.3 4.3 0 0 0 .57 4 4.46 4.46 0 0 0 2.32 1.63c.67.19 1.07.19 1.07.23s-.1 0-.29 0a3.1 3.1 0 0 1-.83-.08 4.41 4.41 0 0 1-2.57-1.6 4.63 4.63 0 0 1-.72-4.4 4.67 4.67 0 0 1 8.81 0 4.63 4.63 0 0 1-.72 4.4 4.41 4.41 0 0 1-2.57 1.6 3.1 3.1 0 0 1-.83.08c-.17.04-.28.02-.28 0z" class="M"/><path d="M356 126.65a4.45 4.45 0 1 1 4.44-4.45 4.45 4.45 0 0 1-4.44 4.45z" class="P"/><path d="M356 126.65c0-.05.39-.05 1.06-.24a4.4 4.4 0 0 0 2.32-1.63 4.22 4.22 0 1 0-6.77 0 4.4 4.4 0 0 0 2.32 1.63c.67.19 1.07.19 1.07.24s-.1 0-.29 0a3.58 3.58 0 0 1-.83-.08 4.47 4.47 0 0 1-2.57-1.6 4.64 4.64 0 0 1-.72-4.41 4.67 4.67 0 0 1 8.81 0 4.64 4.64 0 0 1-.72 4.41 4.47 4.47 0 0 1-2.57 1.6 3.58 3.58 0 0 1-.83.08c-.16.03-.28.02-.28 0z" class="M"/><use xlink:href="#F" x="-13.13" class="P"/><path d="M380.66 136.05c0-.05.4 0 1.06-.24a4.38 4.38 0 0 0 2.33-1.63 4.22 4.22 0 1 0-6.78 0 4.46 4.46 0 0 0 2.33 1.63c.67.2 1.06.19 1.06.24s-.1 0-.29 0a3.5 3.5 0 0 1-.82-.08 4.44 4.44 0 0 1-2.57-1.6 4.6 4.6 0 0 1-.72-4.4 4.67 4.67 0 0 1 8.81 0 4.63 4.63 0 0 1-.73 4.4 4.41 4.41 0 0 1-2.57 1.6 3.46 3.46 0 0 1-.82.08c-.19.03-.29.02-.29 0z" class="M"/><use xlink:href="#F" x="13.45" class="P"/><g class="M"><path d="M407.24 136.05c0-.05.4 0 1.07-.24a4.4 4.4 0 0 0 2.32-1.63 4.22 4.22 0 1 0-6.78 0 4.46 4.46 0 0 0 2.33 1.63c.67.2 1.07.19 1.06.24s-.09 0-.28 0a3.58 3.58 0 0 1-.83-.08 4.47 4.47 0 0 1-2.57-1.6 4.63 4.63 0 0 1-.72-4.4 4.67 4.67 0 0 1 8.81 0 4.63 4.63 0 0 1-.72 4.4 4.46 4.46 0 0 1-2.58 1.6 3.46 3.46 0 0 1-.82.08c-.19.03-.29.02-.29 0z"/><circle cx="110.63" cy="118.83" r="5.18"/><path d="M110.63 124c0-.06.46 0 1.24-.26a5.22 5.22 0 0 0 2.73-1.9 5 5 0 1 0-7.94 0 5.18 5.18 0 0 0 2.73 1.9c.78.21 1.24.2 1.24.26a.94.94 0 0 1-.33 0 3.81 3.81 0 0 1-1-.1 5.15 5.15 0 0 1-3-1.87 5.4 5.4 0 0 1 1-7.63 5.41 5.41 0 0 1 6.43 0 5.39 5.39 0 0 1 1.06 7.63 5.15 5.15 0 0 1-3 1.87 3.81 3.81 0 0 1-1 .1.94.94 0 0 1-.16 0z"/><circle cx="125.92" cy="118.83" r="5.18"/><path d="M125.92 124c0-.06.47 0 1.25-.26a5.22 5.22 0 0 0 2.73-1.9 5 5 0 1 0-8 0 5.22 5.22 0 0 0 2.73 1.9c.78.21 1.25.2 1.24.26a.94.94 0 0 1-.33 0 3.86 3.86 0 0 1-1-.1 5.13 5.13 0 0 1-3-1.87 5.34 5.34 0 0 1-.83-5.09 5.41 5.41 0 0 1 8.31-2.54A5.41 5.41 0 0 1 131 117a5.34 5.34 0 0 1-.83 5.09 5.12 5.12 0 0 1-3 1.87 3.75 3.75 0 0 1-.95.1 1 1 0 0 1-.3-.06zm15.68 0a5.19 5.19 0 1 1 5.18-5.19 5.19 5.19 0 0 1-5.18 5.19z"/><path d="M141.6 124c0-.06.46 0 1.24-.26a5.22 5.22 0 0 0 2.73-1.9 5 5 0 1 0-7.95 0 5.24 5.24 0 0 0 2.74 1.9c.78.21 1.24.2 1.24.26a1 1 0 0 1-.34 0 3.78 3.78 0 0 1-.95-.1 5.15 5.15 0 0 1-3-1.87 5.34 5.34 0 0 1-.83-5.09 5.41 5.41 0 0 1 8.31-2.54 5.37 5.37 0 0 1 1.05 7.63 5.1 5.1 0 0 1-3 1.87 3.81 3.81 0 0 1-1 .1.94.94 0 0 1-.24 0zM58.74 94.84c0-.14 29.85-.26 66.67-.26l66.68.26c0 .14-29.85.26-66.68.26s-66.67-.1-66.67-.26zm-10.99 13.04h.26.79 3l11.08-.08 36.55-.08 38.74.09-.15.09 4.38-8.46 1.2-2.25.32-.57a1.25 1.25 0 0 1 .12-.19.79.79 0 0 1-.08.21l-.27.6-1.12 2.29-4.24 8.47a.16.16 0 0 1-.15.09l-38.74.09-36.55-.08-11.08-.1h-3-.79a.9.9 0 0 1-.27-.12z"/><path d="M163.13 94.66a2.52 2.52 0 0 1-.18.46l-.56 1.31-2.18 4.95-7.9 17.55a.24.24 0 0 1-.21.13h-25.16-27.17a.23.23 0 0 1-.21-.13l-7-16.37L90.6 98l-.5-1.22a1.73 1.73 0 0 1-.14-.42 2.13 2.13 0 0 1 .21.4l.55 1.18 2 4.54 7.2 16.29-.2-.13h27.17 25.16l-.21.13 8.16-17.5 2.3-4.9.62-1.28a1.72 1.72 0 0 1 .21-.43z"/></g><circle cx="144.05" cy="94.66" r="5.18" class="P"/><path d="M144.05 99.84s.46 0 1.24-.26a5.16 5.16 0 0 0 2.71-1.89 5 5 0 1 0-7.95 0 5.14 5.14 0 0 0 2.73 1.89c.78.22 1.25.21 1.24.26s-.11 0-.33 0a3.81 3.81 0 0 1-1-.1 5.1 5.1 0 0 1-3-1.87 5.37 5.37 0 0 1 1.05-7.63 5.41 5.41 0 0 1 8.31 2.53 5.35 5.35 0 0 1-.83 5.1 5.15 5.15 0 0 1-3 1.87 3.75 3.75 0 0 1-1 .1c-.05.03-.17.02-.17 0z" class="M"/><circle cx="163.13" cy="94.66" r="5.18" class="P"/><path d="M163.13 99.84s.46 0 1.24-.26a5.14 5.14 0 0 0 2.73-1.89 5 5 0 1 0-7.95 0 5.17 5.17 0 0 0 2.73 1.89c.78.22 1.25.21 1.25.26s-.12 0-.34 0a3.75 3.75 0 0 1-.95-.1 5.15 5.15 0 0 1-3-1.87 5.35 5.35 0 0 1-.83-5.1 5.41 5.41 0 0 1 10.19 0 5.35 5.35 0 0 1-.83 5.1 5.13 5.13 0 0 1-3 1.87 3.81 3.81 0 0 1-1 .1c-.13.03-.24.02-.24 0z" class="M"/><circle cx="90.99" cy="94.66" r="5.18" class="P"/><path d="M91 99.84s.46 0 1.24-.26A5.1 5.1 0 0 0 95 97.69a5 5 0 1 0-7.94 0 5.14 5.14 0 0 0 2.73 1.89c.78.22 1.24.21 1.24.26s-.11 0-.33 0a3.81 3.81 0 0 1-1-.1 5.15 5.15 0 0 1-3-1.87 5.39 5.39 0 0 1 4.3-8.65 5.47 5.47 0 0 1 3.22 1.06 5.39 5.39 0 0 1 1.05 7.63 5.15 5.15 0 0 1-3 1.87 3.81 3.81 0 0 1-1 .1c-.17-.01-.27-.02-.27-.04z" class="M"/><circle cx="73.76" cy="94.66" r="5.18" class="P"/><path d="M73.76 99.84s.46 0 1.24-.26a5.1 5.1 0 0 0 2.73-1.89 5 5 0 1 0-7.94 0 5.1 5.1 0 0 0 2.73 1.89c.78.22 1.24.21 1.24.26s-.11 0-.33 0a3.81 3.81 0 0 1-1-.1 5.15 5.15 0 0 1-3-1.87 5.4 5.4 0 1 1 8.54 0 5.15 5.15 0 0 1-3 1.87 3.81 3.81 0 0 1-1 .1c-.1.03-.21.02-.21 0z" class="M"/><path d="M81.93 113.06a5.18 5.18 0 1 1 5.18-5.18 5.18 5.18 0 0 1-5.18 5.18z" class="P"/><path d="M81.93 113.06s.46 0 1.24-.26a5.11 5.11 0 0 0 2.73-1.9 5 5 0 1 0-8 0 5.13 5.13 0 0 0 2.74 1.9c.77.22 1.24.21 1.24.26s-.12 0-.34 0a3.75 3.75 0 0 1-1-.1 5.15 5.15 0 0 1-3-1.87 5.37 5.37 0 0 1 1-7.63 5.41 5.41 0 0 1 6.43 0 5.37 5.37 0 0 1 1 7.63 5.1 5.1 0 0 1-3 1.87 3.81 3.81 0 0 1-1 .1c.03.03-.04.02-.04 0z" class="M"/><g class="O"><path d="M359.1 196.84c0 .14-53.64.26-119.79.26s-119.81-.1-119.81-.26 53.63-.26 119.81-.26l119.79.26zm-221.83 87.35a1 1 0 0 1-.31 0h-.93l-3.55.05-13.08.08-43.15.08H73a.26.26 0 0 1-.26-.26h0l.08-41 .08-12.3v-3.34-.86a1.16 1.16 0 0 1 0-.3v.3.86 3.34l.08 12.3.09 41-.26-.26h3.24l43.15.07 13.08.09h3.55.93a1.2 1.2 0 0 1 .51.15zM283.8 196.1c-.14 0-.26-15-.26-33.52l.26-33.52c.14 0 .26 15 .26 33.52l-.26 33.52z"/><path d="M181.16 48.07h147.97v86.22H181.16z"/></g><g class="N"><path d="M192.73 130c-.07 0-.14-17.63-.14-39.38l.14-39.37c.07 0 .15 17.62.15 39.37l-.15 39.38z"/><path d="M192.73 130.07s-.09 0-.11-.15h0 0l-.07-3v-8.44-27.84-27.85-8.44l.07-3h0 0c0-.16.06-.16.11-.16s.09 0 .12.16h0 0l.06 3 .05 8.44v27.85 27.84l-.05 8.44-.06 3h0 0c-.03.15-.06.15-.12.15zm0-58v18.48 18.47-18.47V72.1zm-3.04-17.55a21.51 21.51 0 0 1-4.9 0 21.51 21.51 0 0 1 4.9 0z"/><use xlink:href="#G"/><path d="M189.69,59.71a21.51,21.51,0,0,1-4.9,0,21.51,21.51,0,0,1,4.9,0Z"/><use xlink:href="#H"/><path d="M189.69,64.9a21.51,21.51,0,0,1-4.9,0,21.51,21.51,0,0,1,4.9,0Z"/><use xlink:href="#I"/><path d="M189.69 70.09a21.51 21.51 0 0 1-4.9 0 20.08 20.08 0 0 1 4.9 0zm-2.45.26c-2.57 0-2.57-.15-2.57-.26s0-.27 2.57-.27 2.58.15 2.58.27 0 .26-2.58.26zm-1.16-.26h2.32-1.16zm3.61 5.19a21.51 21.51 0 0 1-4.9 0 20.08 20.08 0 0 1 4.9 0zm-2.45.26c-2.57 0-2.57-.15-2.57-.26s0-.27 2.57-.27 2.58.15 2.58.27 0 .26-2.58.26zm-1.17-.26h2.34-1.17c-.45 0-.84-.02-1.17 0zm3.62 5.18a20.08 20.08 0 0 1-4.9 0 21.51 21.51 0 0 1 4.9 0zm-2.45.27c-2.57 0-2.57-.15-2.57-.27s0-.26 2.57-.26 2.58.15 2.58.26 0 .27-2.58.27zm-1.17-.27h1.17 1.17-2.34zm3.62 5.19a20.08 20.08 0 0 1-4.9 0 21.51 21.51 0 0 1 4.9 0zm-2.45.27c-2.57 0-2.57-.15-2.57-.27s0-.26 2.57-.26 2.58.14 2.58.26 0 .27-2.58.27zm-1.16-.27h1.16 1.16-2.32zm3.61 5.19a21.51 21.51 0 0 1-4.9 0 21.51 21.51 0 0 1 4.9 0zm-2.45.27c-2.57 0-2.57-.15-2.57-.27s0-.26 2.57-.26 2.58.14 2.58.26 0 .27-2.58.27zm-1.17-.27h1.17 1.17-2.34zm3.62 5.16a21.51 21.51 0 0 1-4.9 0 21.51 21.51 0 0 1 4.9 0zm-2.45.3c-2.57 0-2.57-.15-2.57-.27s0-.27 2.57-.27 2.58.15 2.58.27 0 .27-2.58.27zm-1.17-.3h1.17 1.17-1.17zm3.62 5.22a21.51 21.51 0 0 1-4.9 0 21.51 21.51 0 0 1 4.9 0z"/><use xlink:href="#G" y="46.7"/><path d="M189.69 106.41a21.51 21.51 0 0 1-4.9 0 21.51 21.51 0 0 1 4.9 0zm-2.45.27c-2.57 0-2.57-.15-2.57-.27s0-.27 2.57-.27 2.58.15 2.58.27 0 .27-2.58.27zm-1.17-.27h1.17 1.17-1.17zm3.62 5.19a21.51 21.51 0 0 1-4.9 0 21.51 21.51 0 0 1 4.9 0z"/><use xlink:href="#G" y="57.08"/><path d="M189.69,116.79a21.51,21.51,0,0,1-4.9,0,21.51,21.51,0,0,1,4.9,0Z"/><use xlink:href="#G" y="62.27"/><path d="M189.69,122a21.51,21.51,0,0,1-4.9,0,21.51,21.51,0,0,1,4.9,0Z"/><use xlink:href="#H" y="62.24"/><path d="M189.69,127.17a21.51,21.51,0,0,1-4.9,0,21.51,21.51,0,0,1,4.9,0Z"/><use xlink:href="#I" y="62.27"/></g><g class="M"><use xlink:href="#J"/><path d="M203 54.48c-6.48 0-6.48-.13-6.48-.27s0-.26 6.48-.26l6.49.26c0 .13-.03.27-6.49.27zm-3-.27h3 3-6zm9.33 72.96c0 .07-2.84.14-6.36.14s-6.35-.07-6.35-.14 2.84-.14 6.35-.14l6.36.14z"/><use xlink:href="#K"/><path d="M227 64.9c0 .08-5.32.14-11.89.14s-11.9-.06-11.9-.14 5.33-.14 11.9-.14l11.89.14z"/><path d="M215.15 65.16h-8.42c-3.61 0-3.61-.05-3.61-.22s0-.19 3.61-.23h8.42 8.41c3.61 0 3.61.06 3.61.23s0 .18-3.61.22c-2.25-.01-5.24 0-8.41 0zm-5.63-.26h11.26-5.63z"/></g><g class="N"><use xlink:href="#o"/><path d="M242.66 65.16h-8.41c-3.61 0-3.61-.05-3.61-.22s0-.19 3.61-.23h8.41 8.41c3.61 0 3.61.06 3.61.23s0 .18-3.61.22c-2.24-.01-5.23 0-8.41 0zM237 64.9h11.26-5.63zm7 5.19c0 .07-7.85.14-17.53.14S209 70.16 209 70.09s7.84-.15 17.53-.15l17.47.15z"/><path d="M226.51 70.35h-12.4c-5.26 0-5.26 0-5.26-.22s0-.19 5.26-.23h12.4 12.4l5.26.23s0 .18-5.26.22c-3.32-.01-7.72 0-12.4 0zm-8.3-.26h16.6-8.3zM244 75.28c0 .07-7.85.14-17.53.14S209 75.35 209 75.28s7.84-.15 17.53-.15l17.47.15z"/><path d="M226.51 75.54h-12.4c-5.26 0-5.26 0-5.26-.22s0-.19 5.26-.23h12.4 12.4l5.26.23s0 .18-5.26.22c-3.31-.01-7.72 0-12.4 0zm-8.35-.26h16.7-8.35c-3.14 0-5.95-.02-8.35 0zm50.02 15.56c0 .08-7.85.14-17.53.14s-17.54-.06-17.54-.14 7.85-.14 17.54-.14l17.53.14z"/><path d="M250.65 91.11h-12.4l-5.25-.27s0-.18 5.26-.22h12.4 12.4l5.26.22s0 .19-5.26.23l-12.41.04zm-8.35-.27h8.35 8.34-16.69zm15.46-10.38c0 .08-7.85.15-17.53.15s-17.53-.07-17.53-.15 7.85-.14 17.53-.14l17.53.14z"/><path d="M240.23 80.73h-12.4c-5.26 0-5.26 0-5.26-.23s0-.18 5.26-.22h12.4 12.4l5.26.22s0 .19-5.26.23c-3.31-.01-7.72 0-12.4 0zm-8.35-.27h8.35 8.35-16.7zm68.74 0c0 .08-7.85.15-17.54.15s-17.53-.07-17.53-.15 7.85-.14 17.53-.14l17.54.14z"/><path d="M283.08 80.73h-12.4c-5.26 0-5.26 0-5.26-.23s0-.18 5.26-.22h12.4 12.4l5.26.22s0 .19-5.26.23c-3.31-.01-7.71 0-12.4 0zm-8.34-.27h8.34 8.35-16.69zm10.97-10.37c0 .07-7.85.14-17.53.14s-17.53-.07-17.53-.14 7.85-.15 17.53-.15l17.53.15z"/><path d="M268.18 70.35h-12.4c-5.26 0-5.26 0-5.26-.22s0-.19 5.26-.23h12.4 12.4l5.26.23s0 .18-5.26.22c-3.31-.01-7.72 0-12.4 0zm-8.3-.26h16.6-8.3zm50.06 20.75c0 .08-7.85.14-17.54.14s-17.53-.06-17.53-.14 7.85-.14 17.53-.14l17.54.14z"/><path d="M292.4 91.11H280c-5.26 0-5.26-.06-5.26-.23s0-.18 5.26-.22h12.4 12.4l5.26.22s0 .19-5.26.23c-3.31-.01-7.71 0-12.4 0zm-8.34-.27h8.34 8.35-16.69z"/></g><g class="Q"><path d="M305.1 75.28c0 .07-12.19.14-27.23.14s-27.22-.07-27.22-.14 12.18-.15 27.22-.15l27.23.15z"/><path d="M277.87 75.54h-19.25c-5.77 0-7.43 0-7.91-.11h0c-.16 0-.16-.06-.16-.1s0-.09.16-.11h0c.48-.07 2.14-.08 7.91-.11h19.25 19.26l7.9.11h0c.15 0 .15.06.15.11s0 .08-.15.1h0c-.47.07-2.13.08-7.9.11-5.13-.01-11.98 0-19.26 0zM265 75.28h25.7-12.85c-4.63 0-8.98-.02-12.85 0z"/></g><g class="N"><use xlink:href="#J" y="5.5"/><path d="M203 60c-6.48 0-6.48-.12-6.48-.26s0-.27 6.48-.27l6.49.27c0 .14-.03.26-6.49.26zm-3-.26h6-3z"/><use xlink:href="#J" y="67.79"/><use xlink:href="#K" y="-5.19"/><path d="M215.63 80.46c0 .08-2.84.15-6.36.15s-6.35-.07-6.35-.15 2.84-.14 6.35-.14l6.36.14z"/><path d="M209.27 80.73c-6.48 0-6.48-.13-6.48-.27s0-.26 6.48-.26l6.49.26c0 .13 0 .27-6.49.27zm-3-.27h3 3-6.05z"/></g><g class="M"><path d="M317.56 80.46c0 .08-2.85.15-6.36.15s-6.36-.07-6.36-.15 2.85-.14 6.36-.14l6.36.14z"/><path d="M311.2 80.73c-6.48 0-6.48-.13-6.48-.27s0-.26 6.48-.26l6.48.26c0 .13 0 .27-6.48.27zm-3-.27h3 3-6zM227 101.19c0 .08-5.32.14-11.89.14s-11.9-.06-11.9-.14 5.33-.14 11.9-.14l11.89.14z"/><path d="M215.15 101.46h-8.42c-3.61 0-3.61-.06-3.61-.23s0-.18 3.61-.22h8.42 8.41c3.61 0 3.61.06 3.61.22s0 .18-3.61.23c-2.25-.02-5.24 0-8.41 0zm-5.67-.27h5.67 5.66-5.66z"/></g><g class="N"><use xlink:href="#o" y="36.29"/><path d="M242.66 101.46h-8.41c-3.61 0-3.61-.06-3.61-.23s0-.18 3.61-.22h8.41 8.41c3.61 0 3.61.06 3.61.22s0 .18-3.61.23c-2.24-.02-5.23 0-8.41 0zm-5.66-.27h5.66 5.66-5.66zm7 5.19c0 .08-7.85.14-17.53.14s-17.53-.06-17.53-.14 7.84-.14 17.53-.14l17.53.14z"/><use xlink:href="#L"/><path d="M244 111.57c0 .08-7.85.14-17.53.14s-17.53-.06-17.53-.14 7.84-.14 17.53-.14l17.53.14z"/><path d="M226.51 111.84h-12.4c-5.26 0-5.26-.05-5.26-.22s0-.18 5.26-.23h12.4 12.4l5.26.23s0 .18-5.26.22c-3.31-.02-7.71 0-12.4 0zm-8.3-.27h8.3 8.3-8.3zm39.55 5.19c0 .08-7.85.14-17.53.14s-17.53-.06-17.53-.14 7.85-.14 17.53-.14l17.53.14z"/><path d="M240.23 117h-12.4c-5.26 0-5.26 0-5.26-.22s0-.18 5.26-.23h12.4 12.4l5.26.23s0 .18-5.26.22h-12.4zm-8.35-.26h16.7-8.35zm68.74.02c0 .08-7.85.14-17.54.14s-17.53-.06-17.53-.14 7.85-.14 17.53-.14l17.54.14z"/><path d="M283.08 117h-12.4c-5.26 0-5.26 0-5.26-.22s0-.18 5.26-.23h12.4 12.4l5.26.23s0 .18-5.26.22h-12.4zm-8.34-.26h16.69-8.35zm10.97-10.36c0 .08-7.85.14-17.53.14s-17.53-.06-17.53-.14 7.85-.14 17.53-.14l17.53.14z"/><use xlink:href="#L" x="41.67"/></g><g class="Q"><path d="M305.1 111.57c0 .08-12.19.14-27.23.14s-27.22-.06-27.22-.14 12.18-.14 27.22-.14l27.23.14z"/><path d="M277.87 111.84h-19.25c-5.77 0-7.43 0-7.91-.11h0c-.16 0-.16-.06-.16-.11s0-.08.16-.11h0c.48-.06 2.14-.08 7.91-.11h19.25 19.26l7.9.11h0c.15 0 .15.06.15.11s0 .08-.15.11h0c-.47.07-2.13.08-7.9.11-5.13-.02-11.98 0-19.26 0zm-12.77-.27h12.77 12.78-12.78z"/></g><g class="N"><use xlink:href="#J" x="6.3" y="62.55"/><path d="M209.27 117c-6.48 0-6.48-.12-6.48-.26s0-.27 6.48-.27l6.49.27c0 .14 0 .26-6.49.26zm-3-.26h6.05-3z"/></g><g class="M"><path d="M317.56 116.76c0 .08-2.85.14-6.36.14s-6.36-.06-6.36-.14 2.85-.14 6.36-.14l6.36.14z"/><path d="M311.2 117c-6.48 0-6.48-.12-6.48-.26s0-.27 6.48-.27l6.48.27c0 .14 0 .26-6.48.26zm-3-.26h6-3z"/></g><path d="M309.86 167.58H429.3v69.59H309.86z" class="O"/><g class="N"><path d="M319.2 233.67c-.06 0-.12-14.23-.12-31.78l.12-31.79c.06 0 .11 14.23.11 31.79l-.11 31.78z"/><path d="M319.2 233.77c-.05 0-.07 0-.09-.12h0l-.05-2.46v-6.81-22.47-22.48-6.81l.05-2.46h0c0-.12 0-.12.09-.12s.07 0 .09.12h0v2.46 6.81 22.48 22.47 6.81 2.46h0c-.02.12-.05.12-.09.12zm0-46.8v14.92 14.91-14.91V187zm-2.46-14.19a16.31 16.31 0 0 1-3.95 0 17.79 17.79 0 0 1 3.95 0z"/><use xlink:href="#M"/><path d="M316.74 177a16.31 16.31 0 0 1-3.95 0 17.79 17.79 0 0 1 3.95 0zm-1.97.19c-2.08 0-2.08-.12-2.08-.22s0-.21 2.08-.21 2.07.12 2.07.21 0 .22-2.07.22zm-.95-.22h0zm2.92 4.19a17.79 17.79 0 0 1-3.95 0 17.79 17.79 0 0 1 3.95 0zm-1.97.22c-2.08 0-2.08-.12-2.08-.22s0-.22 2.08-.22 2.07.12 2.07.22 0 .22-2.07.22zm-.94-.22h0zm2.91 4.19a17.79 17.79 0 0 1-3.95 0 16.31 16.31 0 0 1 3.95 0zm-1.97.21c-2.08 0-2.08-.12-2.08-.21s0-.22 2.08-.22 2.07.12 2.07.22 0 .21-2.07.21zm-.94-.21h0zm2.91 4.19a17.79 17.79 0 0 1-3.95 0 16.31 16.31 0 0 1 3.95 0zm-1.97.21c-2.08 0-2.08-.12-2.08-.21s0-.22 2.08-.22 2.07.12 2.07.22 0 .21-2.07.21zm-.95-.21h1.89-.94zm2.92 4.19a17.79 17.79 0 0 1-3.95 0 16.31 16.31 0 0 1 3.95 0z"/><use xlink:href="#N"/><path d="M316.74,197.91a16.31,16.31,0,0,1-3.95,0,17.79,17.79,0,0,1,3.95,0Z"/><use xlink:href="#M" y="25.13"/><path d="M316.74,202.1a16.31,16.31,0,0,1-3.95,0,17.79,17.79,0,0,1,3.95,0Z"/><use xlink:href="#O"/><path d="M316.74,206.29a16.31,16.31,0,0,1-3.95,0,17.79,17.79,0,0,1,3.95,0Z"/><use xlink:href="#M" y="33.51"/><path d="M316.74 210.48a17.79 17.79 0 0 1-3.95 0 17.79 17.79 0 0 1 3.95 0zm-1.97.22c-2.08 0-2.08-.12-2.08-.22s0-.21 2.08-.21 2.07.11 2.07.21 0 .22-2.07.22zm-.94-.22h0zm2.91 4.19a17.79 17.79 0 0 1-3.95 0 16.31 16.31 0 0 1 3.95 0zm-1.97.21c-2.08 0-2.08-.12-2.08-.21s0-.22 2.08-.22 2.07.12 2.07.22 0 .21-2.07.21zm-.95-.21h0zm2.92 4.19a17.79 17.79 0 0 1-3.95 0 16.31 16.31 0 0 1 3.95 0z"/><use xlink:href="#N" y="25.13"/><path d="M316.74,223.05a17.79,17.79,0,0,1-3.95,0,16.31,16.31,0,0,1,3.95,0Z"/><use xlink:href="#N" y="29.32"/><path d="M316.74,227.23a16.31,16.31,0,0,1-3.95,0,17.79,17.79,0,0,1,3.95,0Z"/><use xlink:href="#O" y="25.13"/><path d="M316.74,231.42a16.31,16.31,0,0,1-3.95,0,17.79,17.79,0,0,1,3.95,0Z"/><use xlink:href="#M" y="58.64"/></g><g class="M"><use xlink:href="#p"/><path d="M327.46 172.75c-5.23 0-5.23-.1-5.23-.21s0-.22 5.23-.22l5.24.22c0 .12 0 .21-5.24.21zm-2.43-.21h4.87-2.44zm7.57 58.88c0 .07-2.3.12-5.14.12s-5.13 0-5.13-.12 2.3-.11 5.13-.11l5.14.11z"/><path d="M327.46 231.64c-5.23 0-5.23-.1-5.23-.22s0-.21 5.23-.21l5.24.21c0 .11 0 .22-5.24.22zm-2.42-.22h2.42 2.43H325zm21.85-50.26c0 .06-4.3.11-9.6.11s-9.6-.05-9.6-.11 4.3-.11 9.6-.11l9.6.11z"/><path d="M337.29 181.38h-6.79c-2.91 0-2.91 0-2.91-.18s0-.15 2.91-.18h6.79 6.79c2.91 0 2.91 0 2.91.18s0 .15-2.91.18c-1.81-.02-4.23 0-6.79 0zm-4.54-.22h0z"/></g><g class="N"><path d="M369.1 181.16c0 .06-4.3.11-9.6.11s-9.6-.05-9.6-.11 4.29-.11 9.6-.11l9.6.11z"/><path d="M359.5 181.38h-6.79c-2.92 0-2.92 0-2.92-.18s0-.15 2.92-.18h6.79 6.79c2.91 0 2.91 0 2.91.18s0 .15-2.91.18c-1.81-.02-4.23 0-6.79 0zm-4.54-.22h0zm5.65 4.19c0 .06-6.33.11-14.15.11s-14.15-.05-14.15-.11 6.33-.12 14.15-.12l14.15.12z"/><path d="M346.46 185.56h-10c-4.24 0-4.24 0-4.24-.18s0-.15 4.24-.18h10 10l4.24.18c0 .18 0 .15-4.24.18-2.66-.01-6.22 0-10 0zm-6.7-.21h0zm20.85 4.19c0 .06-6.33.11-14.15.11s-14.15-.05-14.15-.11 6.33-.12 14.15-.12l14.15.12z"/><path d="M346.46 189.75h-10c-4.24 0-4.24 0-4.24-.18s0-.15 4.24-.18h10 10l4.24.18c0 .18 0 .14-4.24.18-2.66-.01-6.22 0-10 0zm-6.74-.21h13.48-6.74zm40.38 12.56c0 .07-6.34.12-14.15.12s-14.16-.05-14.16-.12 6.34-.1 14.21-.1l14.1.1z"/><path d="M366 202.32h-10c-4.25 0-4.25 0-4.25-.18s0-.14 4.25-.18h10 10l4.25.18c0 .18 0 .15-4.25.18-2.72-.01-6.27 0-10 0zm-6.74-.22H366h6.73-13.52zm12.43-8.37c0 .06-6.34.11-14.15.11s-14.16-.05-14.16-.11 6.34-.12 14.16-.12l14.15.12z"/><use xlink:href="#P"/><path d="M406.28 193.73c0 .06-6.34.11-14.15.11s-14.16-.05-14.16-.11 6.34-.12 14.16-.12l14.15.12z"/><use xlink:href="#P" x="34.59"/><path d="M394.25 185.35c0 .06-6.34.11-14.15.11s-14.15-.05-14.15-.11 6.33-.12 14.15-.12l14.15.12z"/><path d="M380.1 185.56h-10c-4.25 0-4.25 0-4.25-.18s0-.15 4.25-.18h10 10l4.24.18c0 .18 0 .15-4.24.18-2.67-.01-6.22 0-10 0zm-6.7-.21h0zm40.4 16.75c0 .07-6.33.12-14.15.12s-14.15-.05-14.15-.12 6.33-.11 14.15-.11l14.15.11z"/><path d="M399.65 202.32h-10c-4.24 0-4.24 0-4.24-.18s0-.14 4.24-.18h10 10l4.24.18c0 .18 0 .15-4.24.18-2.65-.01-6.22 0-10 0zm-6.74-.22h6.74 6.74-13.48z"/></g><g class="Q"><path d="M409.9 189.54c0 .06-9.84.11-22 .11s-22-.05-22-.11 9.83-.12 22-.12l22 .12z"/><path d="M387.92 189.75h-15.54c-4.66 0-6 0-6.38-.09h0c-.13 0-.13 0-.13-.09s0-.07.13-.09h0c.38-.05 1.72-.06 6.38-.08h15.54 15.54l6.38.08h0c.13 0 .13.05.13.09s0 .06-.13.09h0c-.39.05-1.73.06-6.39.09-4.14-.01-9.65 0-15.53 0zm-10.37-.21h20.75-10.38z"/></g><g class="N"><use xlink:href="#q"/><path d="M327.46 177.19c-5.23 0-5.23-.1-5.23-.22s0-.21 5.23-.21l5.24.21c0 .11 0 .22-5.24.22zM325 177h0zm7.6 50.23c0 .07-2.3.12-5.14.12s-5.13 0-5.13-.12 2.3-.11 5.13-.11l5.14.11z"/><path d="M327.46 227.45c-5.23 0-5.23-.1-5.23-.22s0-.21 5.23-.21l5.24.21c0 .11 0 .22-5.24.22zm-2.43-.22h2.43 2.44-4.9zm12.65-33.5c0 .06-2.3.11-5.13.11s-5.13-.05-5.13-.11 2.3-.12 5.13-.12l5.13.12z"/><path d="M332.55 193.94c-5.23 0-5.23-.1-5.23-.21s0-.22 5.23-.22l5.23.22c0 .12 0 .21-5.23.21zm-2.42-.21H335h-2.43z"/></g><g class="M"><use xlink:href="#p" x="87.4" y="21.19"/><path d="M414.82 193.94c-5.23 0-5.23-.1-5.23-.21s0-.22 5.23-.22l5.24.22c0 .12 0 .21-5.24.21zm-2.42-.21h4.85-2.43zm-65.51 16.73c0 .06-4.3.11-9.6.11s-9.6 0-9.6-.11 4.3-.12 9.6-.12l9.6.12z"/><path d="M337.29 210.67h-6.79c-2.91 0-2.91 0-2.91-.18s0-.15 2.91-.19h6.79 6.79c2.91 0 2.91 0 2.91.19s0 .14-2.91.18c-1.81-.01-4.23 0-6.79 0zm-4.57-.21h9.14-4.57z"/></g><g class="N"><path d="M369.1 210.46c0 .06-4.3.11-9.6.11s-9.6 0-9.6-.11 4.29-.12 9.6-.12l9.6.12z"/><path d="M359.5 210.67h-6.79c-2.92 0-2.92 0-2.92-.18s0-.15 2.92-.19h6.79 6.79c2.91 0 2.91 0 2.91.19s0 .14-2.91.18c-1.81-.01-4.23 0-6.79 0zm-4.57-.21h9.14-4.57zm5.68 4.18c0 .07-6.33.12-14.15.12s-14.15 0-14.15-.12 6.33-.11 14.15-.11l14.15.11z"/><path d="M346.46 214.86h-10c-4.24 0-4.24-.05-4.24-.19s0-.14 4.24-.18h10 10l4.24.18c0 .18 0 .15-4.24.19-2.66-.01-6.22 0-10 0zm-6.7-.22h6.7 6.7-13.4zm20.85 4.19c0 .07-6.33.12-14.15.12s-14.15 0-14.15-.12 6.33-.11 14.15-.11l14.15.11z"/><path d="M346.46 219.05h-10c-4.24 0-4.24 0-4.24-.18s0-.14 4.24-.18h10 10l4.24.18c0 .18 0 .15-4.24.18-2.66-.05-6.22 0-10 0zm-6.74-.22h6.74 6.74-13.48zm31.97 4.17c0 .06-6.34.12-14.15.12s-14.16-.06-14.16-.12 6.34-.11 14.16-.11l14.15.11z"/><path d="M357.54 223.24h-10c-4.25 0-4.25 0-4.25-.18s0-.15 4.25-.18h10 10l4.24.18c0 .18 0 .15-4.24.18-2.67-.01-6.22 0-10 0zm-6.74-.24h0zm55.48 0c0 .06-6.34.12-14.15.12S378 223.08 378 223s6.34-.11 14.16-.11l14.12.11z"/><path d="M392.13 223.24h-10c-4.25 0-4.25 0-4.25-.18s0-.15 4.25-.18h10 10l4.24.18c0 .18 0 .15-4.24.18-2.67-.01-6.22 0-10 0zm-6.74-.22h0zm8.86-8.38c0 .07-6.34.12-14.15.12s-14.15 0-14.15-.12 6.33-.11 14.15-.11l14.15.11z"/><path d="M380.1 214.86h-10c-4.25 0-4.25-.05-4.25-.19s0-.14 4.25-.18h10 10l4.24.18c0 .18 0 .15-4.24.19-2.67-.01-6.22 0-10 0zm-6.7-.22h6.7 6.7-13.4z"/></g><g class="Q"><path d="M409.9 218.83c0 .07-9.84.12-22 .12s-22 0-22-.12 9.83-.11 22-.11l22 .11z"/><path d="M387.92 219.05h-15.54c-4.66 0-6 0-6.38-.08h0c-.13 0-.13 0-.13-.09s0-.06.13-.09h0c.38-.06 1.72-.06 6.38-.09h15.54 15.54l6.38.09h0c.13 0 .13 0 .13.09s0 .07-.13.09h0l-6.39.08c-4.14-.05-9.65 0-15.53 0zm-10.37-.22h10.37 10.38-20.75z"/></g><g class="N"><path d="M337.68 223c0 .06-2.3.12-5.13.12s-5.13-.06-5.13-.12 2.3-.11 5.13-.11l5.13.11z"/><path d="M332.55 223.24c-5.23 0-5.23-.1-5.23-.22s0-.21 5.23-.21l5.23.21c0 .11 0 .22-5.23.22zm-2.44-.22h0z"/></g><g class="M"><use xlink:href="#q" x="87.4" y="46"/><path d="M414.82 223.24c-5.23 0-5.23-.1-5.23-.22s0-.21 5.23-.21l5.24.21c0 .11 0 .22-5.24.22zm-2.44-.22h0z"/></g><path d="M39.89 167.58h113.43v66.09H39.89z" class="O"/><g class="N"><path d="M48.76 230.34c-.06 0-.11-13.51-.11-30.18l.11-30.16c.06 0 .11 13.52.11 30.19l-.11 30.15z"/><path d="M48.76 230.44s-.07 0-.09-.12h0 0l-.05-2.33v-6.47-21.34-21.35-6.46l.05-2.34h0c0-.12 0-.12.09-.12s.07 0 .09.12h0v2.34 6.46 21.35 21.34 6.47 2.33h0 0c-.02.12-.04.12-.09.12zm0-44.44v14.16 14.16-14.16V186z"/><use xlink:href="#Q"/><use xlink:href="#R"/><use xlink:href="#Q" y="3.98"/><use xlink:href="#r"/><use xlink:href="#S"/><use xlink:href="#T"/><use xlink:href="#U"/><use xlink:href="#s"/><use xlink:href="#Q" y="15.91"/><use xlink:href="#R" y="15.91"/><use xlink:href="#Q" y="19.89"/><use xlink:href="#t"/><use xlink:href="#Q" y="23.87"/><use xlink:href="#T" y="15.91"/><use xlink:href="#S" y="19.89"/><path d="M44.55 200.57c-2 0-2-.11-2-.2s0-.21 2-.21 2 .11 2 .21-.02.2-2 .2zm-.89-.2h1.79-.9z"/><use xlink:href="#Q" y="31.82"/><path d="M44.55 204.55c-2 0-2-.12-2-.21s0-.2 2-.2 2 .11 2 .2-.02.21-2 .21zm-.89-.21h.89.89-1.78z"/><use xlink:href="#Q" y="35.8"/><use xlink:href="#R" y="35.8"/><use xlink:href="#Q" y="39.78"/><use xlink:href="#r" y="35.8"/><use xlink:href="#Q" y="43.76"/><use xlink:href="#T" y="35.8"/><use xlink:href="#U" y="35.8"/><use xlink:href="#s" y="35.8"/><use xlink:href="#Q" y="51.71"/><use xlink:href="#R" y="51.71"/><use xlink:href="#Q" y="55.69"/><use xlink:href="#t" y="35.8"/></g><g class="M"><path d="M61.49 172.29c0 .06-2.19.1-4.88.1s-4.87 0-4.87-.1 2.18-.11 4.87-.11l4.88.11z"/><path d="M56.61 172.49c-5 0-5-.09-5-.2s0-.21 5-.21l5 .21c0 .11-.03.2-5 .2zm-2.31-.2h4.63-2.32zm7.19 55.92c0 .06-2.19.11-4.88.11s-4.87 0-4.87-.11 2.18-.11 4.87-.11l4.88.11z"/><use xlink:href="#V"/><use xlink:href="#u"/><path d="M65.94 180.68h-6.45c-2.76 0-2.76 0-2.76-.17s0-.14 2.76-.18h6.45 6.45c2.77 0 2.77 0 2.77.18s0 .14-2.77.17c-1.72-.01-4.01 0-6.45 0zm-4.31-.2h8.63-4.32z"/></g><g class="N"><use xlink:href="#u" x="21.09"/><path d="M87 180.68h-6.45c-2.76 0-2.76 0-2.76-.17s0-.14 2.76-.18H87h6.45c2.77 0 2.77 0 2.77.18s0 .14-2.77.17c-1.69-.01-3.98 0-6.45 0zm-4.31-.2h8.63H87zm5.4 3.97c0 .06-6 .11-13.44.11s-13.44-.05-13.44-.11 6-.1 13.44-.1l13.44.1z"/><path d="M74.65 184.66h-9.5c-4 0-4 0-4-.18s0-.14 4-.17h9.5 9.51l4 .17c0 .17 0 .14-4 .18-2.54-.01-5.92 0-9.51 0zm-6.36-.21h6.36 6.36-12.72zm19.8 3.98c0 .06-6 .11-13.44.11s-13.44 0-13.44-.11 6-.11 13.44-.11l13.44.11z"/><path d="M74.65 188.64h-9.5c-4 0-4 0-4-.17s0-.14 4-.17h9.5 9.51l4 .17c0 .17 0 .14-4 .17-2.54-.01-5.92 0-9.51 0zm-6.4-.21h0z"/><use xlink:href="#W"/><path d="M93.16 200.57h-9.51c-4 0-4 0-4-.17s0-.14 4-.18h9.51 9.5l4 .18c0 .18 0 .14-4 .17-2.54-.01-5.91 0-9.5 0zm-6.4-.2h12.8-6.4z"/><use xlink:href="#X"/><path d="M85.17 192.61h-9.5c-4 0-4 0-4-.17s0-.14 4-.17h9.5 9.51l4 .17c0 .17 0 .14-4 .17-2.54-.01-5.92 0-9.51 0zm-6.36-.2h0z"/><use xlink:href="#X" x="32.85"/><path d="M118 192.61h-9.5c-4 0-4 0-4-.17s0-.14 4-.17h9.5 9.5l4 .17c0 .17 0 .14-4 .17-2.5-.01-5.89 0-9.5 0zm-6.36-.2h0zm8.36-7.96c0 .06-6 .11-13.44.11s-13.44-.05-13.44-.11 6-.1 13.44-.1l13.44.1z"/><path d="M106.6 184.66h-9.51c-4 0-4 0-4-.18s0-.14 4-.17h9.51 9.5l4 .17c0 .17 0 .14-4 .18-2.54-.01-5.91 0-9.5 0zm-6.36-.21h6.36 6.36-12.72zm38.37 15.92c0 .06-6 .1-13.44.1s-13.45 0-13.45-.1 6-.11 13.45-.11l13.44.11z"/><path d="M125.17 200.57h-9.51c-4 0-4 0-4-.17s0-.14 4-.18h9.51 9.5l4 .18c0 .18 0 .14-4 .17-2.54-.01-5.91 0-9.5 0zm-6.4-.2h12.79-6.39z"/></g><g class="Q"><path d="M134.9 188.43c0 .06-9.35.11-20.87.11s-20.87 0-20.87-.11 9.34-.11 20.87-.11l20.87.11z"/><path d="M114 188.64H99.24c-4.43 0-5.7 0-6.06-.08h0c-.12 0-.12-.05-.12-.09s0-.06.12-.08h0c.36-.05 1.64-.06 6.06-.08H114h14.76l6.06.08h0c.12 0 .12.05.12.08s0 .06-.12.09h0l-6.06.08c-3.91-.01-9.16 0-14.76 0zm-9.85-.21h0z"/></g><g class="N"><use xlink:href="#Y"/><path d="M56.61 176.7c-5 0-5-.09-5-.2s0-.21 5-.21l5 .21c0 .11-.03.2-5 .2zm-2.31-.2h0z"/><use xlink:href="#Y" y="47.73"/><use xlink:href="#v"/><use xlink:href="#Y" x="4.83" y="15.91"/><use xlink:href="#V" x="4.83" y="-35.8"/></g><g class="M"><use xlink:href="#w"/><use xlink:href="#V" x="82.96" y="-35.8"/><use xlink:href="#x"/><path d="M65.94 208.5h-6.45c-2.76 0-2.76 0-2.76-.17s0-.14 2.76-.18h6.45 6.45c2.77 0 2.77 0 2.77.18s0 .14-2.77.17c-1.72-.01-4.01 0-6.45 0zm-4.34-.2h8.68-4.34z"/></g><g class="N"><use xlink:href="#x" x="21.09"/><path d="M87 208.5h-6.45c-2.76 0-2.76 0-2.76-.17s0-.14 2.76-.18H87h6.45c2.77 0 2.77 0 2.77.18s0 .14-2.77.17c-1.69-.01-3.98 0-6.45 0zm-4.34-.2h8.68H87z"/><use xlink:href="#W" x="-18.51" y="11.91"/><path d="M74.65 212.48h-9.5c-4 0-4 0-4-.17s0-.14 4-.18h9.5 9.51l4 .18c0 .18 0 .14-4 .17-2.54-.01-5.92 0-9.51 0zm-6.36-.2H81h-6.36z"/><use xlink:href="#X" x="-10.52" y="23.84"/><path d="M74.65 216.46h-9.5c-4 0-4 0-4-.18s0-.14 4-.17h9.5 9.51l4 .17c0 .17 0 .14-4 .18-2.54-.01-5.92 0-9.51 0zm-6.4-.21h6.4 6.4-12.8z"/><use xlink:href="#X" y="27.82"/><path d="M85.17 220.44h-9.5c-4 0-4 0-4-.17s0-.14 4-.17h9.5 9.51l4 .17c0 .17 0 .14-4 .17-2.54-.02-5.92 0-9.51 0zm-6.4-.21h0z"/><use xlink:href="#X" x="32.85" y="27.82"/><path d="M118 220.44h-9.5c-4 0-4 0-4-.17s0-.14 4-.17h9.5 9.5l4 .17c0 .17 0 .14-4 .17-2.5-.02-5.89 0-9.5 0zm-6.4-.21h0z"/><use xlink:href="#W" x="13.4" y="11.91"/><path d="M106.6 212.48h-9.51c-4 0-4 0-4-.17s0-.14 4-.18h9.51 9.5l4 .18c0 .18 0 .14-4 .17-2.54-.01-5.91 0-9.5 0zm-6.36-.2H113h-6.36z"/></g><g class="Q"><path d="M134.9 216.25c0 .06-9.35.11-20.87.11s-20.87-.05-20.87-.11 9.34-.11 20.87-.11l20.87.11z"/><path d="M114 216.46H99.24c-4.43 0-5.7 0-6.06-.09h0c-.12 0-.12-.05-.12-.09s0-.06.12-.08h0l6.06-.08H114h14.76l6.06.08h0c.12 0 .12.05.12.08s0 .07-.12.09h0l-6.06.09c-3.91-.01-9.16 0-14.76 0zm-9.85-.21H114h9.85-19.7z"/></g><g class="N"><use xlink:href="#Y" x="4.83" y="43.73"/><path d="M61.44 220.44c-5 0-5-.1-5-.21s0-.2 5-.2l5 .2c0 .11-.03.21-5 .21zm-2.32-.21h0z"/></g><g class="M"><use xlink:href="#w" y="27.82"/><use xlink:href="#v" x="82.96" y="-4"/></g><path d="M133.5 266.58h72.27v42.11H133.5z" class="O"/><g class="N"><path d="M139.16 306.57l-.07-19.23.07-19.23c.07 0 .07 8.61.07 19.23l-.07 19.23z"/><path d="M139.16 306.63l-.06-.07h0v-1.49-4.12-13.6-13.6-4.12-1.49h0c0-.07 0-.07.06-.07s0 0 .05.07h0v1.49 4.12 13.6 13.6 4.12 1.49h0c-.01.07-.03.07-.05.07zm0-28.31v9 9-18z"/><use xlink:href="#Z"/><use xlink:href="#a"/><use xlink:href="#b"/><path d="M136.47 272.4c-1.25 0-1.25-.08-1.25-.13s0-.13 1.25-.13 1.26.07 1.26.13 0 .13-1.26.13zm-.57-.13h0z"/><use xlink:href="#Z" y="5.07"/><use xlink:href="#a" y="5.07"/><path d="M137.67 277.33a5.14 5.14 0 0 1-1.2.07 5 5 0 0 1-1.19-.07 6.22 6.22 0 0 1 1.19-.06 6.38 6.38 0 0 1 1.2.06z"/><use xlink:href="#c"/><use xlink:href="#Z" y="10.14"/><use xlink:href="#d"/><use xlink:href="#e"/><use xlink:href="#c" y="5.07"/><use xlink:href="#Z" y="15.21"/><use xlink:href="#a" y="15.21"/><use xlink:href="#Z" y="17.74"/><use xlink:href="#d" y="7.6"/><use xlink:href="#b" y="17.73"/><path d="M136.47 290.14c-1.25 0-1.25-.08-1.25-.13s0-.13 1.25-.13 1.26.07 1.26.13 0 .13-1.26.13zm-.56-.13h0z"/><use xlink:href="#Z" y="22.81"/><use xlink:href="#a" y="22.81"/><path d="M137.67 295.08a6.38 6.38 0 0 1-1.2.06 6.22 6.22 0 0 1-1.19-.06 5 5 0 0 1 1.19-.07 5.14 5.14 0 0 1 1.2.07zm-1.2.13c-1.25 0-1.25-.08-1.25-.13s0-.14 1.25-.14 1.26.08 1.26.14 0 .13-1.26.13zm-.57-.13h0z"/><use xlink:href="#Z" y="27.88"/><use xlink:href="#a" y="27.88"/><use xlink:href="#e" y="17.74"/><use xlink:href="#c" y="22.81"/><use xlink:href="#Z" y="32.95"/><use xlink:href="#d" y="22.81"/><use xlink:href="#Z" y="35.48"/><use xlink:href="#a" y="35.48"/></g><g class="M"><use xlink:href="#f"/><use xlink:href="#g"/><use xlink:href="#f" y="35.63"/><use xlink:href="#y"/><use xlink:href="#h"/><use xlink:href="#i"/></g><g class="N"><use xlink:href="#h" x="13.44"/><use xlink:href="#i" x="13.44"/><use xlink:href="#j"/><path d="M155.65 277.46h-6.05c-2.57 0-2.57 0-2.57-.11s0-.08 2.57-.11h6.05 6.06l2.57.11c0 .11 0 .09-2.57.11h-6.06zm-4.05-.13h0z"/><use xlink:href="#k"/><use xlink:href="#l"/><path d="M176 287.47l-8.56.07c-4.73 0-8.56 0-8.56-.07s3.83-.07 8.56-.07l8.56.07z"/><path d="M167.44 287.6h-6.05c-2.57 0-2.57 0-2.57-.11s0-.09 2.57-.11h6.05 6.06l2.57.11c0 .11 0 .09-2.57.11h-6.06zm-4.08-.13h0z"/><use xlink:href="#k" x="6.7" y="2.53"/><path d="M162.35 282.53h-6c-2.57 0-2.57 0-2.57-.11s0-.09 2.57-.11h6 6.06l2.57.11c0 .11 0 .09-2.57.11h-6.06zm-4-.13h0z"/><use xlink:href="#k" x="27.63" y="2.53"/><path d="M183.28 282.53h-6.05c-2.57 0-2.57 0-2.57-.11s0-.09 2.57-.11h6.05 6.06l2.57.11c0 .11 0 .09-2.57.11h-6.06zm-4.05-.13h0z"/><use xlink:href="#j" x="20.35"/><path d="M176 277.46h-6.05c-2.57 0-2.57 0-2.57-.11s0-.08 2.57-.11H176h6.06l2.57.11c0 .11 0 .09-2.57.11H176zm-4.05-.13h0zm24.45 10.14l-8.56.07c-4.72 0-8.57 0-8.57-.07s3.83-.07 8.57-.07l8.56.07z"/><path d="M187.84 287.6h-6.06c-2.57 0-2.57 0-2.57-.11s0-.09 2.57-.11h6.06 6l2.57.11c0 .11 0 .09-2.57.11h-6zm-4.08-.13h0z"/></g><g class="Q"><path d="M194 279.87l-13.3.07c-7.3 0-13.3 0-13.3-.07s5.95-.07 13.3-.07l13.3.07z"/><path d="M180.74 280h-9.4c-2.82 0-3.63 0-3.87-.06h0c-.08 0-.08 0-.08-.05s0 0 .08-.05h0l3.87-.05h9.4 9.4l3.86.05h0c.08 0 .08 0 .08.05s0 0-.08.05h0l-3.86.06zm-6.28-.13h0z"/></g><g class="N"><use xlink:href="#f" y="2.69"/><use xlink:href="#g" y="2.69"/><use xlink:href="#f" y="33.1"/><use xlink:href="#g" y="33.1"/><use xlink:href="#z"/><use xlink:href="#y" x="3.08" y="-22.81"/></g><g class="M"><use xlink:href="#f" x="52.86" y="12.82"/><path d="M197 282.53c-3.17 0-3.17-.06-3.17-.13s0-.13 3.17-.13l3.16.13c0 .07.02.13-3.16.13zm-1.47-.13h0z"/><use xlink:href="#h" y="17.73"/><use xlink:href="#m"/></g><g class="N"><use xlink:href="#h" x="13.44" y="17.73"/><use xlink:href="#m" x="13.44"/><use xlink:href="#k" y="15.19"/><path d="M155.65 295.19h-6.05c-2.57 0-2.57 0-2.57-.11s0-.09 2.57-.11h6.05 6.06l2.57.11c0 .11 0 .09-2.57.11zm-4.05-.13h0z"/><use xlink:href="#j" y="20.26"/><path d="M155.65 297.73h-6.05c-2.57 0-2.57 0-2.57-.11s0-.08 2.57-.11h6.05 6.06l2.57.11c0 .11 0 .09-2.57.11-1.62-.01-3.77 0-6.06 0zm-4.07-.14h0z"/><use xlink:href="#k" x="6.7" y="20.26"/><path d="M162.35 300.26h-6c-2.57 0-2.57 0-2.57-.11s0-.09 2.57-.11h6 6.06l2.57.11c0 .11 0 .09-2.57.11zm-4.07-.13h0z"/><use xlink:href="#k" x="27.63" y="20.26"/><use xlink:href="#l" x="27.63" y="20.26"/><use xlink:href="#k" x="20.35" y="15.19"/><path d="M176 295.19h-6.05c-2.57 0-2.57 0-2.57-.11s0-.09 2.57-.11H176h6.06l2.57.11c0 .11 0 .09-2.57.11zm-4.05-.13h0z"/></g><g class="Q"><path d="M194 297.59l-13.3.07c-7.3 0-13.3 0-13.3-.07s5.95-.06 13.3-.06l13.3.06z"/><path d="M180.74 297.73h-9.4c-2.82 0-3.63 0-3.87-.05h0c-.08 0-.08 0-.08-.06s0 0 .08 0h0l3.87-.06h9.4 9.4l3.86.06h0 .08l-.08.06h0l-3.86.05c-2.51-.01-5.85 0-9.4 0zm-6.28-.14h0z"/></g><g class="N"><use xlink:href="#z" y="17.73"/><use xlink:href="#g" x="3.08" y="30.55"/></g><g class="M"><use xlink:href="#f" x="52.86" y="30.55"/><path d="M197 300.26c-3.17 0-3.17-.06-3.17-.13s0-.13 3.17-.13l3.16.13c0 .07.02.13-3.16.13zm-1.48-.13h0z"/></g><path d="M202.91,227.25A22.76,22.76,0,0,1,189,192.79c-4.39-8.57-1-20.28,7.27-25.19a22,22,0,0,0,4.39-2.81c2.34-2.29,2.76-5.84,4-8.88a16.75,16.75,0,0,1,26.55-6.39c4.8-2.38,9.76-4.76,15.1-5.18s11.21,1.58,13.93,6.19c1.49,2.54,2,5.73,4.2,7.69s5.52,2.1,8.15,3.49c5,2.66,6.45,9.14,6.46,14.81s-.82,11.66,1.68,16.74c1.3,2.65,3.44,4.89,4.33,7.7a9.48,9.48,0,0,1-10.81,12.19c2.17,5,1.34,10.91-1.39,15.59s-7.17,8.17-12,10.63c-3.47,1.76-7.36,3.06-11.2,2.47-3.57-.54-6.72-2.65-9.36-5.11a35.69,35.69,0,0,1-10.94-21.3" class="O"/><path d="M216.2 160a5.9 5.9 0 0 0-6.42 4.76h0l-13.37 78.71c-1.84 9.24 10.51 17.32 20.42 19.21h0c10 1.92 11.38-2.9 13.39-11.63l4.52-20c-.01.09 13 .6 19.14-15.27 3-7.89 5.49-21.37 7.13-32.46 1.48-10-2.47-23.47-12.51-24.52z" fill="#ffbe9d"/><path d="M255.11 193.14a2.16 2.16 0 0 1-2.49 1.69 2.06 2.06 0 0 1-1.76-2.36 2.16 2.16 0 0 1 2.48-1.7 2.08 2.08 0 0 1 1.77 2.37zm1.51-2.14c-.32.22-1.66-1.31-3.93-1.78s-4.17.3-4.36 0c-.09-.15.28-.59 1.12-1a5.9 5.9 0 0 1 3.56-.32 5.65 5.65 0 0 1 3.05 1.76c.58.71.71 1.26.56 1.34zm-24.09-2.73A2.15 2.15 0 0 1 230 190a2.05 2.05 0 0 1-1.76-2.36 2.14 2.14 0 0 1 2.48-1.69 2.07 2.07 0 0 1 1.81 2.32zm1.72-2.27c-.32.22-1.66-1.3-3.93-1.78s-4.17.3-4.36 0c-.09-.15.28-.59 1.12-1a6 6 0 0 1 3.56-.32 5.65 5.65 0 0 1 3.05 1.76c.58.64.72 1.19.56 1.34zm4.64 17.87a15.67 15.67 0 0 1 3.82.12c.6.06 1.17.07 1.35-.31a3 3 0 0 0 0-1.8l-.77-4.77c-1-6.78-1.66-12.31-1.39-12.34s1.34 5.42 2.38 12.2l.69 4.78a3.43 3.43 0 0 1-.18 2.34 1.48 1.48 0 0 1-1.13.64 4 4 0 0 1-1-.07 15.35 15.35 0 0 1-3.77-.79z" class="O"/><path d="M234.74 231A42.74 42.74 0 0 1 214 220.47s3.08 12.77 19.85 14.74zm2.03-21.87a4.19 4.19 0 0 0-3.34-2.3 3.84 3.84 0 0 0-2.87.83 2.41 2.41 0 0 0-.75 2.66 2.77 2.77 0 0 0 2.81 1.39 8.83 8.83 0 0 0 3.26-1.11 2.74 2.74 0 0 0 .79-.53.79.79 0 0 0 .18-.85" fill="#eb996e"/><g class="O"><path d="M231.89 204c.37.06-.15 2.52 1.58 4.72s4.41 2.48 4.36 2.83c0 .16-.69.35-1.8.15a6.32 6.32 0 0 1-3.67-2.23 5.48 5.48 0 0 1-1.17-3.92c.13-1.03.53-1.55.7-1.55zm4.23-22.44c-.36.57-2.56-.21-5.29-.46s-5 0-5.26-.6c-.1-.3.39-.8 1.39-1.21a8.73 8.73 0 0 1 4.11-.53 8.93 8.93 0 0 1 3.93 1.33c.89.61 1.28 1.19 1.12 1.47zm21.07 5.37c-.51.43-2-.44-3.83-.86s-3.54-.4-3.79-1c-.11-.3.25-.76 1.05-1.1a5.67 5.67 0 0 1 6.14 1.51c.55.66.65 1.24.43 1.45zM228.12 157a16.3 16.3 0 0 0-12.48-5.24c-4.65.32-9.13 3.48-10.24 7.91-.72 2.88-.14 6.23-2 8.57s-5 2.58-7.52 3.93a10 10 0 0 0-4.83 11.35c1.09 3.68 4.34 6.9 3.85 10.68-.46 3.56-4 5.88-5.49 9.16-1.61 3.62-.36 8 2.11 11.16s4.37 9.7 7.79 11.84c2.67 1.67 6.74 2.83 10.25 1.52a16.47 16.47 0 0 0 8.44-8.78 12.83 12.83 0 0 0-1.28-10.64c-1.61-2.78-4.14-5.39-4-8.56.24-5 6.77-7.64 7.46-12.54.35-2.53-1-5-2-7.33s-1.73-5.2-.33-7.35c1.81-2.78 6-2.71 8.86-4.42a7.54 7.54 0 0 0 3.63-7 7.78 7.78 0 0 0-4.86-6.35"/><path d="M227.15,152.88a11.5,11.5,0,0,0,10.86,14c2.61.08,5.63-.6,7.52,1.21s1.33,5.36,3,7.55c2.36,3.14,7.47,1.77,10.9,3.66,2.66,1.45,3.85,4.54,5.24,7.23s3.75,5.46,6.77,5.23a33.55,33.55,0,0,0,.5-7.81,11.4,11.4,0,0,0-3-7.09c-1-1-2.27-1.78-3.17-2.89-1.94-2.41-1.78-5.84-2.66-8.81a12.58,12.58,0,0,0-8-8.24c-3.16-1-6.7-.77-9.67-2.25-2.2-1.08-3.91-3-6.17-4-4.4-1.86-9.38.51-13.42,3.08"/></g><g class="M"><path d="M253 258.91a36.74 36.74 0 0 1 10.13 25.89c-.3 16.1 2.29 45.3 2.29 45.3L310 357.32l-12.57 19.25-49.12-21.77L238 333.73z"/><path d="M266.6,369.22s1.66-3.2-3-5.63H256l-14.78-25.49L253,258.91l-20.15-15.3-44.59-4-15.58,80.13,19.92,36.42,39.5,16.24Z"/><path d="M196.17,240.23l.89-7.55a2.4,2.4,0,0,1,3-2c11,8.65,22.41,13,34.4,9.59a3.13,3.13,0,0,1,2.2,3.76L232,262.92l-12.21,3.65-16.11-3.15-7.52-13.91Z"/></g><path d="M234.79 245.44a8.12 8.12 0 0 1-1.43.87 25.72 25.72 0 0 1-4.22 1.74A28.52 28.52 0 0 1 201 241.7a26.72 26.72 0 0 1-3.06-3.38 8.52 8.52 0 0 1-.92-1.4 56.81 56.81 0 0 0 4.28 4.46 29.24 29.24 0 0 0 27.7 6.25 54.61 54.61 0 0 0 5.79-2.19z" class="O"/><g opacity=".3"><path d="M198.32,238.4a4.65,4.65,0,0,0,.55,4.43,13.37,13.37,0,0,0,3.38,3.2c4.33,3.22,8.82,6.42,14,7.89s11.25.92,15.22-2.71c1.15-1.06,2.05-3,.85-4-.89-.75-2.24-.29-3.33.13A25.49,25.49,0,0,1,198.92,238"/></g><path d="M192.17,324.11,265,363.17l-26.29,15.89-50.11-14.7c-26.59-7-33.85-18.08-33.58-29.48.09-4.15-.39-44.66,1.39-64.53,2.44-27.06,31.86-30.71,31.86-30.71l-.51,23.14.33,28.26,1,25.93c2.66-1.33,3.32,3.66,3.32,3.66Z" class="M"/><g class="O"><path d="M188.63 320.06c-.17 0-.4-9.8-.51-21.89l.11-21.9c.17 0 .39 9.8.5 21.9l-.1 21.89z"/><path d="M191.91 325.45c-.08-.05.14-.49.26-1.23a4.07 4.07 0 0 0-2.67-4.57c-.7-.27-1.2-.29-1.2-.38s.5-.22 1.32 0a4 4 0 0 1 3 5.08c-.27.77-.62 1.14-.71 1.1z"/><path d="M191.91 325.45l.13.11c.13.11.23.16.43.27l1.7 1 6.4 3.38 21.23 10.88 21.2 10.82 6.42 3.33 1.73.94a3.25 3.25 0 0 1 .59.36 3 3 0 0 1-.64-.25l-1.79-.83-6.5-3.16-21.33-10.71-21.16-11c-5.37-2.87-8.6-4.91-8.41-5.14zm-3.59-55.84c-.09 0-.25-1.64-.63-4.27a36.93 36.93 0 0 0-2.69-9.94 20.07 20.07 0 0 0-6.38-7.92 28.66 28.66 0 0 0-3.74-2.07 3.62 3.62 0 0 1 1.13.29 12.81 12.81 0 0 1 2.86 1.42 19.25 19.25 0 0 1 6.69 8 32.79 32.79 0 0 1 2.61 10.13l.23 3.17a4.41 4.41 0 0 1-.08 1.19z"/></g><g opacity=".3"><path d="M255.19,358.63c2.42-4.65,1.83-10.29.46-15.35s-3.44-10-3.83-15.21c-.35-4.53.6-9.05,1.51-13.5s1.79-9,1.32-13.5-2.49-9.09-6.29-11.58c1.51,3.75,3,7.55,3.54,11.57s-.12,8.33-2.56,11.55c-1.25,1.65-3,3-3.77,4.9-1.08,2.53-.92,5.4-1.73,7.94-.88,2.78-2.48,12.12-2.48,12.12-.11.52,2.76,5.8,5.61,9.57s6.28,7.16,8.34,11.41"/></g><path d="M255.37 358.31a2.05 2.05 0 0 1-.3-.35l-.8-1.07-3-4.1L241 338.24l-.07-.09v-.12l3.82-18.76.43-2.12v-.09l.07-.06a23 23 0 0 0 6.75-16 21.56 21.56 0 0 0-4.67-12.69h0v-.06l-.44-7.12c0-.78-.07-1.4-.1-1.89a2.91 2.91 0 0 1 0-.65 3 3 0 0 1 .1.64l.19 1.89.63 7.1-.05-.11a21.72 21.72 0 0 1 4.92 12.91 20.76 20.76 0 0 1-1.63 8.54 24.46 24.46 0 0 1-5.2 7.94l.08-.15-.43 2.12-3.88 18.75v-.21l10.11 14.68 2.82 4.18.73 1.12a1.71 1.71 0 0 1 .19.32z" class="O"/><g opacity=".3"><path d="M202.48,319.86c-.73-.57-1.86.32-1.82,1.24a2.92,2.92,0,0,0,1.61,2.12,12.16,12.16,0,0,0,7.32,1.46,14.05,14.05,0,0,0,8.55-3.5,9.24,9.24,0,0,0,2.88-8.52,1.31,1.31,0,0,0-.3-.69c-.59-.61-1.58.07-2.17.69A23.2,23.2,0,0,1,203,319.83"/></g><g opacity=".3"><path d="M188.27 319.35a6.85 6.85 0 0 0-8 2 2.4 2.4 0 0 0-.48 2.61 2 2 0 0 0 2.08.7 5.62 5.62 0 0 0 2-1.13l4-3.24a1.44 1.44 0 0 0 .45-.56.5.5 0 0 0-.21-.62"/></g><path d="M182.11 325.5c-.07 0 0-.6.35-1.47a8.13 8.13 0 0 1 2.15-2.92 8.25 8.25 0 0 1 3.19-1.75c.9-.24 1.48-.22 1.49-.14s-2.24.53-4.28 2.35-2.73 4-2.9 3.93z" class="O"/><path d="M281.64 422.82c-.12.11-15.4-16-34.11-35.93l-33.68-36.34c.12-.11 15.4 16 34.12 35.92l33.67 36.35z" class="Q"/><path d="M168.63 273.79a24.27 24.27 0 0 1-.72-5 25.69 25.69 0 0 1-.2-5.09 26 26 0 0 1 .72 5 25.69 25.69 0 0 1 .2 5.09zm5.58 16.63a44.8 44.8 0 0 1 1.41-9.5 21.44 21.44 0 0 1-.44 4.79 22.34 22.34 0 0 1-.97 4.71zm-10.66 11.26a25.21 25.21 0 0 1-.52-5 23.79 23.79 0 0 1 0-5 24.84 24.84 0 0 1 .51 5 23.28 23.28 0 0 1 .01 5zM179 315.76a17.06 17.06 0 0 1-2.15-3.67 18.23 18.23 0 0 1-1.69-3.9 17.39 17.39 0 0 1 2.15 3.67 18.23 18.23 0 0 1 1.69 3.9zm-11.91 8.44a11.84 11.84 0 0 1-2.75 2.23 12 12 0 0 1-3.06 1.8A12.35 12.35 0 0 1 164 326a12.21 12.21 0 0 1 3.09-1.8zm24.11 7.01a9.82 9.82 0 0 1-1.47-2.8 9.52 9.52 0 0 1-1-3 9.65 9.65 0 0 1 1.47 2.8 9.76 9.76 0 0 1 1 3zm25.8 11.11a27.85 27.85 0 0 1-4.95-2.14 28.27 28.27 0 0 1-4.73-2.6 27 27 0 0 1 4.95 2.14 28.27 28.27 0 0 1 4.73 2.6zm6.15 14.03A14.38 14.38 0 0 1 225 353a13.62 13.62 0 0 1 2.26-3.1 14.85 14.85 0 0 1-1.82 3.38 14 14 0 0 1-2.29 3.07zm12.1 11.65a29.1 29.1 0 0 1-.08-5.55 30.22 30.22 0 0 1 .44-5.53 59.17 59.17 0 0 1-.36 11.08zM196.8 251.74a11.49 11.49 0 0 1-3.71-1.37 11.8 11.8 0 0 1-3.33-2.13 20.86 20.86 0 0 1 3.56 1.66 22 22 0 0 1 3.48 1.84zm-18.13 3.03a22 22 0 0 1-5.63-3.69 11.2 11.2 0 0 1 3 1.63 10.93 10.93 0 0 1 2.63 2.06zm17.56 21.4a51.84 51.84 0 0 1 4.05-9.49 50.06 50.06 0 0 1-4.05 9.49zm3.36 21.83a40.09 40.09 0 0 1-2.58-4.11 37.71 37.71 0 0 1-2.49-4.17 16.38 16.38 0 0 1 2.93 3.9 16.14 16.14 0 0 1 2.14 4.38zm19.03-24.07a18.76 18.76 0 0 1-3.27 2.93 18.54 18.54 0 0 1-3.59 2.51 37.54 37.54 0 0 1 6.86-5.44zM216.34 263a26.15 26.15 0 0 1-2.87-4.35 26.42 26.42 0 0 1-2.42-4.62 26.15 26.15 0 0 1 2.87 4.35 26.42 26.42 0 0 1 2.42 4.62zm15.21-9a17.9 17.9 0 0 1-1.75 3.92 17.69 17.69 0 0 1-2.22 3.68 18.49 18.49 0 0 1 1.76-3.92 17.76 17.76 0 0 1 2.21-3.68zm-16.28-6.47a19.21 19.21 0 0 1 .41-2.63 20.3 20.3 0 0 1 .28-2.65 4.56 4.56 0 0 1 .24 2.72 4.44 4.44 0 0 1-.93 2.56zm13.88-.71a6.45 6.45 0 0 1-2.26-1.28c-1.17-.82-2-1.59-2-1.7a6.54 6.54 0 0 1 2.26 1.28c1.21.82 2.08 1.59 2 1.7zm-25.67-9.31c0 .14-.67.26-1.5.26s-1.49-.12-1.49-.26.67-.26 1.49-.26 1.5.11 1.5.26zm43.29 24.22a21.61 21.61 0 0 1-3.5-3.18 21.94 21.94 0 0 1-3.13-3.55 21.61 21.61 0 0 1 3.5 3.18 21.94 21.94 0 0 1 3.13 3.55zm-8.5 21.84a33.3 33.3 0 0 1 2-10.19 37.27 37.27 0 0 1-.88 5.12 36.08 36.08 0 0 1-1.12 5.07zm-10.22 10.03a44 44 0 0 1-1.05-5.79 46.27 46.27 0 0 1-.81-5.83 44.07 44.07 0 0 1 1.86 11.62zm-13.48 14.05a26.28 26.28 0 0 1-4.24-8.78 36.9 36.9 0 0 1 2.18 4.36 39.39 39.39 0 0 1 2.06 4.42zm-8.95 8.35a26 26 0 0 1-5-1.19 25.54 25.54 0 0 1-4.86-1.7 25.6 25.6 0 0 1 5 1.2 24.83 24.83 0 0 1 4.86 1.69zm6.86 9.12a26.27 26.27 0 0 1-2.57 2.18 23.78 23.78 0 0 1-2.53 2.22 10.53 10.53 0 0 1 5.1-4.4zM224.47 336a19.92 19.92 0 0 1-.86-4.54 20.82 20.82 0 0 1-.34-4.6 40.72 40.72 0 0 1 1.2 9.14zm13.65-3.72a15.73 15.73 0 0 1-6.86-3.34 23.47 23.47 0 0 1 3.45 1.62 22.39 22.39 0 0 1 3.41 1.72zm3.72-22.23a39.48 39.48 0 0 1-4.58 2 40.4 40.4 0 0 1-4.61 1.92 16.75 16.75 0 0 1 4.41-2.39 17 17 0 0 1 4.78-1.53zm2.98-6.45a22.45 22.45 0 0 1-3.25-3.64 22.87 22.87 0 0 1-2.85-4 22.45 22.45 0 0 1 3.25 3.64 23.31 23.31 0 0 1 2.85 4zM237 349a18.19 18.19 0 0 1-.89-6.15A18.88 18.88 0 0 1 237 349zm21.9-19.74a23.46 23.46 0 0 1-3.37-3.52 22.7 22.7 0 0 1-3-3.87 23.51 23.51 0 0 1 3.36 3.53 22.64 22.64 0 0 1 3.01 3.86zm-1.43-11.92A20.65 20.65 0 0 1 259 313a20 20 0 0 1 2-4.11 40.09 40.09 0 0 1-3.56 8.43zm1.64-21.86a15.5 15.5 0 0 1-2.53-3 15.15 15.15 0 0 1-2.11-3.3 15.1 15.1 0 0 1 2.53 3 14.46 14.46 0 0 1 2.11 3.3zm-2.67-19.68a48.3 48.3 0 0 1-6.39-7.86 49.46 49.46 0 0 1 6.39 7.86zm6.33 74.26a23.3 23.3 0 0 1 2.24-4.35 22.44 22.44 0 0 1 2.7-4.08 23.45 23.45 0 0 1-2.25 4.34 22.88 22.88 0 0 1-2.69 4.09zm12.61 8.59a29.18 29.18 0 0 1-1.78-5.28 30.86 30.86 0 0 1-1.27-5.43 29.47 29.47 0 0 1 1.78 5.29 31.08 31.08 0 0 1 1.27 5.42zm14.42-2.28a10.36 10.36 0 0 1-1.49-2.88 10.13 10.13 0 0 1-1-3.08 19.89 19.89 0 0 1 2.51 6z" fill="#fafafa"/><path d="M257.78 374.14l77.83-37.81a25.9 25.9 0 0 1 24.84 1.21h0a25.89 25.89 0 0 1 6.17 38.91l-33.72 39.47-86.1 11.9-8.06-48.76 9.57-14.82z" class="O"/><path d="M304.79 390.28s-.31.31-1 .79l-2.74 1.93c-2.33 1.6-5.61 3.74-9.31 6s-7.13 4.13-9.64 5.45c-1.25.66-2.27 1.17-3 1.51a4.81 4.81 0 0 1-1.14.48 4.84 4.84 0 0 1 1-.69L282 404l9.52-5.6 9.4-5.8 2.84-1.77a5.58 5.58 0 0 1 1.03-.55z" class="Q"/><path d="M140.41 393.18s7.73-37.33 11.7-43.07 12.37-18.59 23-19.92 32.26 11.39 36.21 16.39c10 12.64 72.94 79.3 72.17 78.43l-20.29 14-21.44-6.8h-61.58s-42.63-7.21-39.77-39.03z" class="O"/><path d="M241.73 432.21a6.12 6.12 0 0 1-.95 0 19.6 19.6 0 0 1-2.67-.43 50 50 0 0 1-9.37-3.31 140.3 140.3 0 0 1-27.74-17.4c-10.15-7.78-19-15.33-24.8-21.38a62.51 62.51 0 0 1-6.44-7.56 19 19 0 0 1-1.44-2.29 4.67 4.67 0 0 1-.44-.83 5.48 5.48 0 0 1 .55.77A24.75 24.75 0 0 0 170 382a69.8 69.8 0 0 0 6.56 7.4 257.15 257.15 0 0 0 24.87 21.19A147.56 147.56 0 0 0 228.92 428a54.52 54.52 0 0 0 9.25 3.47 25.71 25.71 0 0 0 2.63.54 5.59 5.59 0 0 1 .93.2zm-27.58-8.33a5.87 5.87 0 0 1-.8.48l-2.35 1.3c-1 .56-2.35 1.07-3.86 1.75-.75.35-1.6.58-2.48.91l-2.83.91a56.33 56.33 0 0 1-14.45 2.15 60.2 60.2 0 0 1-17.72-2.29 55 55 0 0 1-16.15-7.66l-3.23-2.43a24.5 24.5 0 0 1-2.68-2.72 32.63 32.63 0 0 1-3.79-5.68 29.8 29.8 0 0 1-3.19-9.31 16.62 16.62 0 0 1-.24-2.67 5.54 5.54 0 0 1 0-.93c.07 0 0 1.29.44 3.56a31.23 31.23 0 0 0 3.34 9.15A32.71 32.71 0 0 0 148 416a23.5 23.5 0 0 0 2.64 2.64c1 .82 2.11 1.56 3.2 2.37a55.06 55.06 0 0 0 16 7.54 60.39 60.39 0 0 0 17.54 2.31 57 57 0 0 0 14.34-2c1-.21 1.93-.59 2.82-.86l2.49-.86 3.88-1.65 2.39-1.18a4.79 4.79 0 0 1 .85-.43z" class="Q"/><path d="M218.12 422.53s-13.91 5.67-12.46 12.15 8.63 9.5 15.89 8.81 20.61-6.68 20.61-6.68l6.88-3.64s-8.36-.13-12.59-1.64c-4.89-1.76-18.33-9-18.33-9z" class="M"/><g class="Q"><path d="M235.33 433.9l49.37 7.77L389 431.28l-57.17-15.68-96.47 13.87a2.24 2.24 0 0 0-1.92 2.22h0a2.24 2.24 0 0 0 1.89 2.21z"/><path d="M298 363.09l-12 70.67a6.12 6.12 0 0 0 6.64 7.11l96.36-9.59a6.12 6.12 0 0 0 5.42-5l13-71.54a6.13 6.13 0 0 0-6.68-7.19L303.38 358a6.12 6.12 0 0 0-5.38 5.09z"/></g><path d="M233.44 431.69a.74.74 0 0 1 .26 0l.76.09 2.93.41 10.88 1.63 36.87 5.7-.34.25 1.88-11.44 7.44-44.57 2.33-13.49.66-3.66.19-.95a1.86 1.86 0 0 1 .08-.32v.33c0 .22-.07.56-.13 1l-.54 3.68-2.14 13.53-7.27 44.59-1.89 11.44-.05.3-.29-.05-36.84-5.91-10.85-1.81-2.92-.51-.75-.14z" class="O"/><path d="M358.2 393.7c0 3.83-2.77 6.94-6.19 6.94s-6.19-3.11-6.19-6.94 2.77-6.95 6.19-6.95 6.19 3.11 6.19 6.95z" fill="#fafafa"/><path d="M287 387.1c-3.4-3.05.42-6.61-5.72-12.41-4.59-4.33-13.28-11.75-30.12-17.37l-10.55 18.84 18.36 5.92-.18 12a4.38 4.38 0 0 0 4.43 4.44l9.53-.11s-2.78 11.75-2.32 12.47a2.52 2.52 0 0 0 4.49-.48c.38-1.59 8.22-20.58 8.22-20.58s5.13 4.43 5.85 1.89c-.05-.02 1.36-1.55-1.99-4.61z" fill="#ffbe9d"/><path d="M261.31 398.79c0-.07.45-.36 1.08-1a7.59 7.59 0 0 0 2.18-6.27 10.6 10.6 0 0 1-.23-1.44 3 3 0 0 1 .55 1.39 6.93 6.93 0 0 1-2.28 6.56 3 3 0 0 1-1.3.76zm6.13-.4a9.82 9.82 0 0 0 2-7.78 2.39 2.39 0 0 1 .41 1.18 7.3 7.3 0 0 1-.13 3 7.19 7.19 0 0 1-1.35 2.72c-.5.65-.9.92-.93.88zm7.39-6.89c.05 0 .17.38.19 1a6.33 6.33 0 0 1-1.95 4.57c-.48.44-.84.63-.88.58a9.25 9.25 0 0 0 2.64-6.18z" fill="#eb996e"/><path d="M202.2 224.59h-.26l-.76-.09a7.66 7.66 0 0 1-1.2-.28 9.76 9.76 0 0 1-1.6-.57 14 14 0 0 1-3.84-2.58 14.92 14.92 0 0 1-3.49-5.05 14 14 0 0 1-1-3.46 12.82 12.82 0 0 1 .1-3.9c.47-2.67 2-5.25 2-8.19a10.53 10.53 0 0 0-1.19-4.3 12.73 12.73 0 0 1-1.4-4.66 6.47 6.47 0 0 1 2.06-4.59 16.92 16.92 0 0 1 4.24-3 22.54 22.54 0 0 0 4.25-2.73 8.91 8.91 0 0 0 2.56-4c1-3.07 1-6.26 1.58-9.22a12.33 12.33 0 0 1 1.58-4.15 8.45 8.45 0 0 1 3.05-2.87 19.33 19.33 0 0 1 7.19-1.89 34.2 34.2 0 0 0 6-.94 12.16 12.16 0 0 0 4.12-1.91 6.79 6.79 0 0 0 1.92-2.13l.47-.89a4.88 4.88 0 0 1-.38.94 6.5 6.5 0 0 1-1.89 2.24 12.22 12.22 0 0 1-4.16 2 33.64 33.64 0 0 1-6 1 19.21 19.21 0 0 0-7 1.9 7.83 7.83 0 0 0-2.87 2.74 11.75 11.75 0 0 0-1.5 4c-.6 2.9-.56 6.11-1.57 9.29a9.44 9.44 0 0 1-2.7 4.26 22.45 22.45 0 0 1-4.34 2.79 16.67 16.67 0 0 0-4.12 2.87 6 6 0 0 0-1.92 4.22c.12 3.16 2.62 5.77 2.56 9a13.68 13.68 0 0 1-.87 4.34 32 32 0 0 0-1.16 3.93 12.64 12.64 0 0 0-.13 3.77 13.79 13.79 0 0 0 .9 3.37 14.75 14.75 0 0 0 3.35 5 14 14 0 0 0 3.73 2.61 16.83 16.83 0 0 0 3.69 1.13zm76.85-36.16c-.07 0-.07-.94-.47-2.57a15.22 15.22 0 0 0-3.28-6.22 14.61 14.61 0 0 0-9-5 58.93 58.93 0 0 1-6.22-1 9.38 9.38 0 0 1-5.49-3.94 30.4 30.4 0 0 1-2.86-6.15A23.37 23.37 0 0 0 249 158a15.55 15.55 0 0 0-8.58-5.66 16 16 0 0 0-7-.23 15.69 15.69 0 0 0-1.87.52 3 3 0 0 1-.65.19 3.6 3.6 0 0 1 .62-.29 11.82 11.82 0 0 1 1.86-.61 15.32 15.32 0 0 1 7.16.06 15.79 15.79 0 0 1 8.89 5.73 23.74 23.74 0 0 1 2.84 5.65 30.66 30.66 0 0 0 2.81 6 8.93 8.93 0 0 0 5.2 3.74c2.07.57 4.18.68 6.16 1a14.85 14.85 0 0 1 9.16 5.22 15 15 0 0 1 3.2 6.41 11.69 11.69 0 0 1 .26 1.94 5 5 0 0 1-.01.76z" class="Q"/><path d="M339,274.17a31.06,31.06,0,0,0-48.23-26.07L278,245.33l3.84,11.82a31.06,31.06,0,1,0,57.16,17Z" class="P"/><path d="M339 274.17v.53l-.07 1.58c0 .34 0 .73-.06 1.16l-.2 1.39-.25 1.62c-.09.62-.3 1.17-.46 1.8a32.48 32.48 0 0 1-1.41 4.16l-1.1 2.26c-.38.78-.9 1.53-1.38 2.34a30.79 30.79 0 0 1-27.57 14.19l-2.17-.14-2.18-.34a31.15 31.15 0 0 1-8.62-3 31.09 31.09 0 0 1-13.6-13.72l-1.06-2.33-.88-2.44c-.29-.81-.43-1.68-.65-2.53a25 25 0 0 1-.44-2.59c0-.44-.15-.87-.17-1.31l-.06-1.33a26.38 26.38 0 0 1-.05-2.67 31.15 31.15 0 0 1 5-15.79v.22l-3.83-11.82-.13-.42.43.09 12.76 2.78h-.19a31.36 31.36 0 0 1 13.22-4.86 32.23 32.23 0 0 1 3.37-.25c1.11-.05 2.2.1 3.29.13a31.92 31.92 0 0 1 6.2 1.17 31 31 0 0 1 10.18 5.22 31.74 31.74 0 0 1 6.74 7.12 31.14 31.14 0 0 1 5 12.86l.25 2.13v1.55.95a1.64 1.64 0 0 1 0 .33 1.39 1.39 0 0 1 0-.33c0-.23 0-.54-.07-.94s-.05-.95-.09-1.55-.18-1.32-.29-2.11a30.77 30.77 0 0 0-11.8-19.73 30.53 30.53 0 0 0-16.2-6.23c-1.07 0-2.15-.18-3.24-.12a28.69 28.69 0 0 0-3.32.25 30.85 30.85 0 0 0-13.06 4.89l-.08.06h-.1l-12.77-2.75.3-.33 3.83 11.82v.12l-.07.1a30.74 30.74 0 0 0-4.89 15.53 25.65 25.65 0 0 0 .05 2.63l.06 1.3c0 .43.11.86.16 1.29a24.25 24.25 0 0 0 .44 2.55l.63 2.49.86 2.4c.3.79.71 1.53 1.05 2.29a30.53 30.53 0 0 0 13.34 13.56 30.5 30.5 0 0 0 8.49 2.94l2.15.34c.71.09 1.43.1 2.13.15a32.27 32.27 0 0 0 4.18-.06 30.8 30.8 0 0 0 23.13-13.85l1.39-2.31 1.1-2.23a32.41 32.41 0 0 0 1.44-4.11l.48-1.79.27-1.61.23-1.38c.07-.43.06-.81.09-1.15l.11-1.57c.02-.37.16-.6.16-.6z" class="O"/><g class="M"><path d="M305.84 262.69s0-.37-.23-1a4.11 4.11 0 0 0-1.52-2.16 4 4 0 0 0-3.72-.52 3.91 3.91 0 0 0 0 7.33 4 4 0 0 0 3.72-.52 4.11 4.11 0 0 0 1.52-2.16c.18-.62.18-1 .23-1a2.21 2.21 0 0 1 0 1 4.08 4.08 0 0 1-1.49 2.4 4.28 4.28 0 0 1-4.1.68 4.36 4.36 0 0 1 0-8.23 4.31 4.31 0 0 1 4.1.68 4.08 4.08 0 0 1 1.49 2.4 2.26 2.26 0 0 1 0 1.1zm0 22.37a4.14 4.14 0 1 1-4.14-4.14 4.15 4.15 0 0 1 4.14 4.14zm13.16 0c-.05 0-.05-.37-.23-1a4.19 4.19 0 0 0-1.52-2.16 3.92 3.92 0 1 0 0 6.29 4.11 4.11 0 0 0 1.52-2.16c.18-.61.18-1 .23-1a2.28 2.28 0 0 1 0 1 4.16 4.16 0 0 1-1.5 2.4 4.28 4.28 0 0 1-4.1.68 4.36 4.36 0 0 1 0-8.22 4.28 4.28 0 0 1 4.1.67A4.19 4.19 0 0 1 319 284a2.32 2.32 0 0 1 0 1.06z"/><path d="M301.7 266.82a49 49 0 0 1 .26 7.08 49 49 0 0 1-.26 7.07 47.29 47.29 0 0 1-.26-7.07 47.38 47.38 0 0 1 .26-7.08zm7.36 5.33a17.14 17.14 0 0 1-3.39-2.39.27.27 0 0 1 0-.37h0 0a25.19 25.19 0 0 1 3.35-2.51c.13.14-1.23 1.45-3 2.91h0v-.41a17 17 0 0 1 3.04 2.77z"/><path d="M305.84 269.49a13.44 13.44 0 0 1 2.59-.18l6.41-.08a.26.26 0 0 1 .26.26h0v1.21l-.08 7.23a16.71 16.71 0 0 1-.18 3 17.19 17.19 0 0 1-.19-3l-.07-7.23v-1.21l.26.26c-2.54 0-4.79 0-6.41-.09a14.09 14.09 0 0 1-2.59-.17z"/></g><defs><path id="A" d="M340.19 268.8c0 .08-2.79.14-6.23.14s-6.24-.06-6.24-.14 2.79-.14 6.24-.14l6.23.14z"/><path id="B" d="M374.22 284.37c0 .07-7.69.14-17.19.14s-17.19-.07-17.19-.14 7.7-.14 17.19-.14l17.19.14z"/><path id="C" d="M36.13 315.86a6.83 6.83 0 0 1-1.56.09 6.88 6.88 0 0 1-1.57-.09 6.88 6.88 0 0 1 1.57-.09 6.83 6.83 0 0 1 1.56.09z"/><path id="D" d="M48.66 315.67c0 .05-1.82.09-4.06.09s-4.05 0-4.05-.09 1.81-.09 4.05-.09l4.06.09z"/><path id="E" d="M70.8 325.79l-11.18.09c-6.18 0-11.19 0-11.19-.09s5-.09 11.19-.09l11.18.09z"/><path id="F" d="M393.79 136.05a4.45 4.45 0 1 1 4.45-4.45 4.45 4.45 0 0 1-4.45 4.45z"/><path id="G" d="M187.24 54.79c-2.57 0-2.57-.15-2.57-.27s0-.27 2.57-.27 2.58.15 2.58.27 0 .27-2.58.27zm-1.16-.27h1.16 1.16-1.16z"/><path id="H" d="M187.24 60c-2.57 0-2.57-.14-2.57-.26s0-.27 2.57-.27 2.58.15 2.58.27 0 .26-2.58.26zm-1.17-.26h2.34-1.17z"/><path id="I" d="M187.24 65.16c-2.57 0-2.57-.14-2.57-.26s0-.27 2.57-.27 2.58.15 2.58.27 0 .26-2.58.26zm-1.16-.26h2.32-1.16z"/><path id="J" d="M209.33 54.21c0 .08-2.84.14-6.36.14s-6.35-.06-6.35-.14 2.84-.14 6.35-.14l6.36.14z"/><path id="K" d="M203 127.43c-6.48 0-6.48-.13-6.48-.26s0-.27 6.48-.27l6.49.27c0 .14-.03.26-6.49.26zm-3-.26h6-3z"/><path id="L" d="M226.51 106.65c-4.68 0-9.09 0-12.4-.05-5.26 0-5.26 0-5.26-.22s0-.18 5.26-.23h12.4 12.4c5.26 0 5.26.06 5.26.23s0 .18-5.26.22l-12.4.05zm-8.3-.27h8.3 8.3-8.3z"/><path id="M" d="M314.77 173c-2.08 0-2.08-.12-2.08-.22s0-.21 2.08-.21 2.07.12 2.07.21 0 .22-2.07.22zm-.94-.22h.94.93-1.87z"/><path id="N" d="M314.77 193.94c-2.08 0-2.08-.12-2.08-.21s0-.22 2.08-.22 2.07.12 2.07.22 0 .21-2.07.21zm-.94-.21h1.87-.93z"/><path id="O" d="M314.77 202.32c-2.08 0-2.08-.12-2.08-.22s0-.21 2.08-.21 2.07.12 2.07.21 0 .22-2.07.22zm-.95-.22h.95.94-1.89z"/><path id="P" d="M357.54 193.94h-10c-4.25 0-4.25 0-4.25-.18s0-.15 4.25-.19h10 10l4.24.19c0 .14 0 .14-4.24.18-2.67-.01-6.22 0-10 0zm-6.7-.21h13.4-6.7z"/><path id="Q" d="M46.43 172.52a8.17 8.17 0 0 1-1.88.11 8.17 8.17 0 0 1-1.88-.11 8.17 8.17 0 0 1 1.88-.11 8.17 8.17 0 0 1 1.88.11z"/><path id="R" d="M44.55 172.73c-2 0-2-.12-2-.21s0-.2 2-.2 2 .11 2 .2-.02.21-2 .21zm-.89-.21h0z"/><path id="S" d="M46.43 180.48a8.54 8.54 0 0 1-1.88.1 8.54 8.54 0 0 1-1.88-.1 8.17 8.17 0 0 1 1.88-.11 8.17 8.17 0 0 1 1.88.11z"/><path id="T" d="M44.55 180.68c-2 0-2-.11-2-.2s0-.21 2-.21 2 .12 2 .21-.02.2-2 .2zm-.89-.2h1.78-.89z"/><path id="U" d="M46.43 184.45a8.17 8.17 0 0 1-1.88.11 8.17 8.17 0 0 1-1.88-.11 8.54 8.54 0 0 1 1.88-.1 8.54 8.54 0 0 1 1.88.1z"/><path id="V" d="M56.61 228.41c-5 0-5-.09-5-.2s0-.2 5-.2l5 .2c0 .11-.03.2-5 .2zm-2.3-.2h0z"/><path id="W" d="M106.6 200.37c0 .06-6 .1-13.44.1s-13.44 0-13.44-.1 6-.11 13.44-.11l13.44.11z"/><path id="X" d="M98.61 192.41c0 .06-6 .11-13.44.11s-13.44-.05-13.44-.11 6-.11 13.44-.11l13.44.11z"/><path id="Y" d="M61.49 176.5c0 .06-2.19.11-4.88.11s-4.87-.05-4.87-.11 2.18-.11 4.87-.11l4.88.11z"/><path id="Z" d="M137.67 269.73a5.14 5.14 0 0 1-1.2.07 5 5 0 0 1-1.19-.07 5 5 0 0 1 1.19-.07 5.14 5.14 0 0 1 1.2.07z"/><path id="a" d="M136.47 269.86c-1.25 0-1.25-.07-1.25-.13s0-.13 1.25-.13 1.26.07 1.26.13 0 .13-1.26.13zm-.56-.13h0z"/><path id="b" d="M137.67 272.27a5.88 5.88 0 0 1-1.2.07 5.73 5.73 0 0 1-1.19-.07 5 5 0 0 1 1.19-.07 5.14 5.14 0 0 1 1.2.07z"/><path id="c" d="M136.47 277.46c-1.25 0-1.25-.07-1.25-.13s0-.13 1.25-.13 1.26.08 1.26.13 0 .13-1.26.13zm-.56-.13h0z"/><path id="d" d="M136.47 280c-1.25 0-1.25-.07-1.25-.13s0-.13 1.25-.13 1.26.07 1.26.13 0 .13-1.26.13zm-.57-.13h0z"/><path id="e" d="M137.67 282.4a5.14 5.14 0 0 1-1.2.07 5 5 0 0 1-1.19-.07 5.73 5.73 0 0 1 1.19-.07 5.88 5.88 0 0 1 1.2.07z"/><path id="f" d="M147.26 269.58l-3.1.07c-1.71 0-3.11 0-3.11-.07s1.39-.07 3.11-.07l3.1.07z"/><path id="g" d="M144.16 269.71c-3.17 0-3.17-.06-3.17-.13s0-.13 3.17-.13l3.16.13c0 .07 0 .13-3.16.13zm-1.48-.13h0z"/><path id="h" d="M155.91 274.8l-5.81.07c-3.21 0-5.81 0-5.81-.07s2.6-.07 5.81-.07l5.81.07z"/><path id="i" d="M150.1 274.93h-4.11c-1.76 0-1.76 0-1.76-.11s0-.09 1.76-.11h4.11 4.11c1.76 0 1.76 0 1.76.11s0 .09-1.76.11zm-2.75-.13h0z"/><path id="j" d="M164.22 277.33l-8.57.07c-4.73 0-8.56 0-8.56-.07s3.83-.06 8.56-.06l8.57.06z"/><path id="k" d="M164.22 279.87l-8.57.07c-4.73 0-8.56 0-8.56-.07s3.83-.07 8.56-.07l8.57.07z"/><path id="l" d="M155.65 280h-6.05c-2.57 0-2.57 0-2.57-.11s0-.09 2.57-.11h6.05 6.06l2.57.11c0 .11 0 .09-2.57.11zm-4.07-.13h0z"/><path id="m" d="M150.1 292.66h-4.11c-1.76 0-1.76 0-1.76-.11s0-.09 1.76-.11h4.11 4.11c1.76 0 1.76 0 1.76.11s0 .08-1.76.11zm-2.76-.13h0z"/><path id="n" d="M409.35 115.3a4.45 4.45 0 1 1 4.45-4.44 4.44 4.44 0 0 1-4.45 4.44z"/><path id="o" d="M254.56 64.9c0 .08-5.33.14-11.9.14s-11.9-.06-11.9-.14 5.33-.14 11.9-.14l11.9.14z"/><path id="p" d="M332.6 172.54c0 .06-2.3.11-5.14.11s-5.13-.05-5.13-.11 2.3-.12 5.13-.12l5.14.12z"/><path id="q" d="M332.6 177c0 .06-2.3.12-5.14.12s-5.13-.06-5.13-.12 2.3-.11 5.13-.11l5.14.11z"/><path id="r" d="M44.55 176.7c-2 0-2-.11-2-.2s0-.21 2-.21 2 .12 2 .21-.02.2-2 .2zm-.89-.2h0z"/><path id="s" d="M44.55 184.66c-2 0-2-.11-2-.21s0-.2 2-.2 2 .11 2 .2-.02.21-2 .21zm-.89-.21h.89.89-1.78z"/><path id="t" d="M44.55 192.61c-2 0-2-.11-2-.2s0-.2 2-.2 2 .11 2 .2-.02.2-2 .2zm-.89-.2h0z"/><path id="u" d="M75.06 180.48c0 .06-4.08.1-9.12.1s-9.12 0-9.12-.1 4.09-.11 9.12-.11l9.12.11z"/><path id="v" d="M56.61 224.44c-5 0-5-.1-5-.21s0-.2 5-.2l5 .2c0 .11-.03.21-5 .21zm-2.31-.21h0z"/><path id="w" d="M144.45 192.41c0 .06-2.18.11-4.88.11s-4.87-.05-4.87-.11 2.18-.11 4.87-.11l4.88.11z"/><path id="x" d="M75.06 208.3c0 .06-4.08.11-9.12.11s-9.12 0-9.12-.11 4.09-.11 9.12-.11l9.12.11z"/><path id="y" d="M144.16 305.34c-3.17 0-3.17-.06-3.17-.13s0-.13 3.17-.13l3.16.13c0 .07 0 .13-3.16.13zm-1.47-.13h0z"/><path id="z" d="M150.34 282.4l-3.11.07c-1.72 0-3.1 0-3.1-.07s1.39-.07 3.1-.07l3.11.07z"/></defs></svg>